{
  "asset": {
    "generator": "glTF-Transform v4.5.0",
    "version": "2.0"
  },
  "accessors": [
    {
      "type": "SCALAR",
      "componentType": 5123,
      "count": 6888,
      "normalized": false,
      "byteOffset": 0,
      "bufferView": 0
    },
    {
      "type": "VEC3",
      "componentType": 5120,
      "count": 2506,
      "normalized": true,
      "byteOffset": 0,
      "bufferView": 1
    },
    {
      "type": "SCALAR",
      "componentType": 5123,
      "count": 264,
      "normalized": false,
      "byteOffset": 13776,
      "bufferView": 0
    },
    {
      "type": "VEC3",
      "componentType": 5120,
      "count": 160,
      "normalized": true,
      "byteOffset": 0,
      "bufferView": 2
    },
    {
      "type": "SCALAR",
      "componentType": 5123,
      "count": 1560,
      "normalized": false,
      "byteOffset": 14304,
      "bufferView": 0
    },
    {
      "type": "VEC3",
      "componentType": 5120,
      "count": 808,
      "normalized": true,
      "byteOffset": 0,
      "bufferView": 3
    },
    {
      "type": "VEC3",
      "componentType": 5122,
      "count": 2506,
      "max": [
        26943,
        32767,
        4276
      ],
      "min": [
        -26943,
        -32767,
        -4276
      ],
      "normalized": true,
      "byteOffset": 0,
      "bufferView": 4
    },
    {
      "type": "VEC3",
      "componentType": 5122,
      "count": 160,
      "max": [
        26943,
        32767,
        4276
      ],
      "min": [
        -26943,
        -26495,
        -4276
      ],
      "normalized": true,
      "byteOffset": 0,
      "bufferView": 5
    },
    {
      "type": "VEC3",
      "componentType": 5122,
      "count": 808,
      "max": [
        26859,
        30367,
        4232
      ],
      "min": [
        -26859,
        1464,
        -4232
      ],
      "normalized": true,
      "byteOffset": 0,
      "bufferView": 6
    }
  ],
  "bufferViews": [
    {
      "buffer": 1,
      "byteOffset": 0,
      "byteLength": 17424,
      "target": 34963,
      "extensions": {
        "EXT_meshopt_compression": {
          "buffer": 0,
          "byteOffset": 0,
          "byteLength": 3009,
          "mode": "TRIANGLES",
          "byteStride": 2,
          "count": 8712
        }
      }
    },
    {
      "buffer": 1,
      "byteOffset": 17424,
      "byteLength": 10024,
      "target": 34962,
      "byteStride": 4,
      "extensions": {
        "EXT_meshopt_compression": {
          "buffer": 0,
          "byteOffset": 3012,
          "byteLength": 2654,
          "mode": "ATTRIBUTES",
          "filter": "OCTAHEDRAL",
          "byteStride": 4,
          "count": 2506
        }
      }
    },
    {
      "buffer": 1,
      "byteOffset": 27448,
      "byteLength": 640,
      "target": 34962,
      "byteStride": 4,
      "extensions": {
        "EXT_meshopt_compression": {
          "buffer": 0,
          "byteOffset": 5668,
          "byteLength": 340,
          "mode": "ATTRIBUTES",
          "filter": "OCTAHEDRAL",
          "byteStride": 4,
          "count": 160
        }
      }
    },
    {
      "buffer": 1,
      "byteOffset": 28088,
      "byteLength": 3232,
      "target": 34962,
      "byteStride": 4,
      "extensions": {
        "EXT_meshopt_compression": {
          "buffer": 0,
          "byteOffset": 6008,
          "byteLength": 1051,
          "mode": "ATTRIBUTES",
          "filter": "OCTAHEDRAL",
          "byteStride": 4,
          "count": 808
        }
      }
    },
    {
      "buffer": 1,
      "byteOffset": 31320,
      "byteLength": 20048,
      "target": 34962,
      "byteStride": 8,
      "extensions": {
        "EXT_meshopt_compression": {
          "buffer": 0,
          "byteOffset": 7060,
          "byteLength": 11722,
          "mode": "ATTRIBUTES",
          "byteStride": 8,
          "count": 2506
        }
      }
    },
    {
      "buffer": 1,
      "byteOffset": 51368,
      "byteLength": 1280,
      "target": 34962,
      "byteStride": 8,
      "extensions": {
        "EXT_meshopt_compression": {
          "buffer": 0,
          "byteOffset": 18784,
          "byteLength": 868,
          "mode": "ATTRIBUTES",
          "byteStride": 8,
          "count": 160
        }
      }
    },
    {
      "buffer": 1,
      "byteOffset": 52648,
      "byteLength": 6464,
      "target": 34962,
      "byteStride": 8,
      "extensions": {
        "EXT_meshopt_compression": {
          "buffer": 0,
          "byteOffset": 19652,
          "byteLength": 3843,
          "mode": "ATTRIBUTES",
          "byteStride": 8,
          "count": 808
        }
      }
    }
  ],
  "buffers": [
    {
      "uri": "Arch_Gothic.bin",
      "byteLength": 23496
    },
    {
      "byteLength": 59112,
      "extensions": {
        "EXT_meshopt_compression": {
          "fallback": true
        }
      }
    }
  ],
  "materials": [
    {
      "name": "Main",
      "doubleSided": true,
      "pbrMetallicRoughness": {
        "baseColorFactor": [
          0.15896087884902954,
          0.16202940046787262,
          0.1247718334197998,
          1
        ],
        "roughnessFactor": 0.690034806728363,
        "metallicFactor": 0
      }
    },
    {
      "name": "Highlights",
      "doubleSided": true,
      "pbrMetallicRoughness": {
        "baseColorFactor": [
          0.289932519197464,
          0.29568690061569214,
          0.22595453262329102,
          1
        ],
        "roughnessFactor": 0.690034806728363,
        "metallicFactor": 0
      }
    },
    {
      "name": "Black",
      "doubleSided": true,
      "pbrMetallicRoughness": {
        "baseColorFactor": [
          0.04425261169672012,
          0.04425261169672012,
          0.04425261169672012,
          1
        ],
        "roughnessFactor": 0.690034806728363,
        "metallicFactor": 0
      }
    }
  ],
  "meshes": [
    {
      "name": "Cylinder.002",
      "primitives": [
        {
          "attributes": {
            "NORMAL": 1,
            "POSITION": 6
          },
          "mode": 4,
          "material": 0,
          "indices": 0
        },
        {
          "attributes": {
            "NORMAL": 3,
            "POSITION": 7
          },
          "mode": 4,
          "material": 1,
          "indices": 2
        },
        {
          "attributes": {
            "NORMAL": 5,
            "POSITION": 8
          },
          "mode": 4,
          "material": 2,
          "indices": 4
        }
      ]
    }
  ],
  "nodes": [
    {
      "name": "Arch_Gothic",
      "translation": [
        0,
        1.880206092260778,
        -0.11970604956150055
      ],
      "scale": [
        1.8802480855956674,
        1.8802480855956674,
        1.8802480855956674
      ],
      "mesh": 0
    }
  ],
  "scenes": [
    {
      "name": "Scene",
      "nodes": [
        0
      ]
    }
  ],
  "scene": 0,
  "extensionsUsed": [
    "EXT_meshopt_compression",
    "KHR_mesh_quantization"
  ],
  "extensionsRequired": [
    "EXT_meshopt_compression",
    "KHR_mesh_quantization"
  ]
}