{
  "asset": {
    "generator": "glTF-Transform v4.5.0",
    "version": "2.0"
  },
  "accessors": [
    {
      "type": "SCALAR",
      "componentType": 5123,
      "count": 744,
      "normalized": false,
      "byteOffset": 0,
      "bufferView": 0
    },
    {
      "type": "VEC3",
      "componentType": 5120,
      "count": 324,
      "normalized": true,
      "byteOffset": 0,
      "bufferView": 1
    },
    {
      "type": "VEC4",
      "componentType": 5121,
      "count": 324,
      "normalized": true,
      "byteOffset": 0,
      "bufferView": 2
    },
    {
      "type": "SCALAR",
      "componentType": 5123,
      "count": 3036,
      "normalized": false,
      "byteOffset": 1488,
      "bufferView": 0
    },
    {
      "type": "VEC3",
      "componentType": 5120,
      "count": 1164,
      "normalized": true,
      "byteOffset": 0,
      "bufferView": 3
    },
    {
      "type": "VEC4",
      "componentType": 5121,
      "count": 1164,
      "normalized": true,
      "byteOffset": 0,
      "bufferView": 4
    },
    {
      "type": "SCALAR",
      "componentType": 5123,
      "count": 630,
      "normalized": false,
      "byteOffset": 7560,
      "bufferView": 0
    },
    {
      "type": "VEC3",
      "componentType": 5120,
      "count": 420,
      "normalized": true,
      "byteOffset": 0,
      "bufferView": 5
    },
    {
      "type": "VEC4",
      "componentType": 5121,
      "count": 420,
      "normalized": true,
      "byteOffset": 0,
      "bufferView": 6
    },
    {
      "type": "SCALAR",
      "componentType": 5123,
      "count": 972,
      "normalized": false,
      "byteOffset": 8820,
      "bufferView": 0
    },
    {
      "type": "VEC3",
      "componentType": 5120,
      "count": 456,
      "normalized": true,
      "byteOffset": 0,
      "bufferView": 7
    },
    {
      "type": "VEC4",
      "componentType": 5121,
      "count": 456,
      "normalized": true,
      "byteOffset": 0,
      "bufferView": 8
    },
    {
      "type": "SCALAR",
      "componentType": 5123,
      "count": 1620,
      "normalized": false,
      "byteOffset": 10764,
      "bufferView": 0
    },
    {
      "type": "VEC3",
      "componentType": 5120,
      "count": 760,
      "normalized": true,
      "byteOffset": 0,
      "bufferView": 9
    },
    {
      "type": "VEC4",
      "componentType": 5121,
      "count": 760,
      "normalized": true,
      "byteOffset": 0,
      "bufferView": 10
    },
    {
      "type": "SCALAR",
      "componentType": 5123,
      "count": 1458,
      "normalized": false,
      "byteOffset": 14004,
      "bufferView": 0
    },
    {
      "type": "VEC3",
      "componentType": 5120,
      "count": 684,
      "normalized": true,
      "byteOffset": 0,
      "bufferView": 11
    },
    {
      "type": "VEC4",
      "componentType": 5121,
      "count": 684,
      "normalized": true,
      "byteOffset": 0,
      "bufferView": 12
    },
    {
      "type": "SCALAR",
      "componentType": 5123,
      "count": 1620,
      "normalized": false,
      "byteOffset": 16920,
      "bufferView": 0
    },
    {
      "type": "VEC3",
      "componentType": 5120,
      "count": 760,
      "normalized": true,
      "byteOffset": 0,
      "bufferView": 13
    },
    {
      "type": "VEC3",
      "componentType": 5122,
      "count": 324,
      "max": [
        25659,
        32767,
        8124
      ],
      "min": [
        -25659,
        -32767,
        -8124
      ],
      "normalized": true,
      "byteOffset": 0,
      "bufferView": 14
    },
    {
      "type": "VEC2",
      "componentType": 5123,
      "count": 324,
      "normalized": true,
      "byteOffset": 0,
      "bufferView": 15
    },
    {
      "type": "VEC3",
      "componentType": 5122,
      "count": 1164,
      "max": [
        24635,
        31287,
        8092
      ],
      "min": [
        -24635,
        -29535,
        -7492
      ],
      "normalized": true,
      "byteOffset": 0,
      "bufferView": 16
    },
    {
      "type": "VEC2",
      "componentType": 5123,
      "count": 1164,
      "normalized": true,
      "byteOffset": 0,
      "bufferView": 17
    },
    {
      "type": "VEC3",
      "componentType": 5122,
      "count": 420,
      "max": [
        22962,
        26611,
        3760
      ],
      "min": [
        -23302,
        -27879,
        -3164
      ],
      "normalized": true,
      "byteOffset": 0,
      "bufferView": 18
    },
    {
      "type": "VEC2",
      "componentType": 5123,
      "count": 420,
      "normalized": true,
      "byteOffset": 0,
      "bufferView": 19
    },
    {
      "type": "VEC3",
      "componentType": 5122,
      "count": 456,
      "max": [
        22802,
        19410,
        3996
      ],
      "min": [
        -21370,
        -28211,
        -3404
      ],
      "normalized": true,
      "byteOffset": 0,
      "bufferView": 20
    },
    {
      "type": "VEC2",
      "componentType": 5123,
      "count": 456,
      "normalized": true,
      "byteOffset": 0,
      "bufferView": 21
    },
    {
      "type": "VEC3",
      "componentType": 5122,
      "count": 760,
      "max": [
        20414,
        26915,
        3792
      ],
      "min": [
        -23102,
        -28211,
        -3404
      ],
      "normalized": true,
      "byteOffset": 0,
      "bufferView": 22
    },
    {
      "type": "VEC2",
      "componentType": 5123,
      "count": 760,
      "normalized": true,
      "byteOffset": 0,
      "bufferView": 23
    },
    {
      "type": "VEC3",
      "componentType": 5122,
      "count": 684,
      "max": [
        20282,
        26915,
        3996
      ],
      "min": [
        -22386,
        -28183,
        -3196
      ],
      "normalized": true,
      "byteOffset": 0,
      "bufferView": 24
    },
    {
      "type": "VEC2",
      "componentType": 5123,
      "count": 684,
      "normalized": true,
      "byteOffset": 0,
      "bufferView": 25
    },
    {
      "type": "VEC3",
      "componentType": 5122,
      "count": 760,
      "max": [
        23410,
        24939,
        3996
      ],
      "min": [
        -23750,
        -28183,
        -3404
      ],
      "normalized": true,
      "byteOffset": 0,
      "bufferView": 26
    }
  ],
  "bufferViews": [
    {
      "buffer": 1,
      "byteOffset": 0,
      "byteLength": 20160,
      "target": 34963,
      "extensions": {
        "EXT_meshopt_compression": {
          "buffer": 0,
          "byteOffset": 0,
          "byteLength": 3421,
          "mode": "TRIANGLES",
          "byteStride": 2,
          "count": 10080
        }
      }
    },
    {
      "buffer": 1,
      "byteOffset": 20160,
      "byteLength": 1296,
      "target": 34962,
      "byteStride": 4,
      "extensions": {
        "EXT_meshopt_compression": {
          "buffer": 0,
          "byteOffset": 3424,
          "byteLength": 278,
          "mode": "ATTRIBUTES",
          "filter": "OCTAHEDRAL",
          "byteStride": 4,
          "count": 324
        }
      }
    },
    {
      "buffer": 1,
      "byteOffset": 21456,
      "byteLength": 1296,
      "target": 34962,
      "byteStride": 4,
      "extensions": {
        "EXT_meshopt_compression": {
          "buffer": 0,
          "byteOffset": 3704,
          "byteLength": 57,
          "mode": "ATTRIBUTES",
          "byteStride": 4,
          "count": 324
        }
      }
    },
    {
      "buffer": 1,
      "byteOffset": 22752,
      "byteLength": 4656,
      "target": 34962,
      "byteStride": 4,
      "extensions": {
        "EXT_meshopt_compression": {
          "buffer": 0,
          "byteOffset": 3764,
          "byteLength": 884,
          "mode": "ATTRIBUTES",
          "filter": "OCTAHEDRAL",
          "byteStride": 4,
          "count": 1164
        }
      }
    },
    {
      "buffer": 1,
      "byteOffset": 27408,
      "byteLength": 4656,
      "target": 34962,
      "byteStride": 4,
      "extensions": {
        "EXT_meshopt_compression": {
          "buffer": 0,
          "byteOffset": 4648,
          "byteLength": 109,
          "mode": "ATTRIBUTES",
          "byteStride": 4,
          "count": 1164
        }
      }
    },
    {
      "buffer": 1,
      "byteOffset": 32064,
      "byteLength": 1680,
      "target": 34962,
      "byteStride": 4,
      "extensions": {
        "EXT_meshopt_compression": {
          "buffer": 0,
          "byteOffset": 4760,
          "byteLength": 403,
          "mode": "ATTRIBUTES",
          "filter": "OCTAHEDRAL",
          "byteStride": 4,
          "count": 420
        }
      }
    },
    {
      "buffer": 1,
      "byteOffset": 33744,
      "byteLength": 1680,
      "target": 34962,
      "byteStride": 4,
      "extensions": {
        "EXT_meshopt_compression": {
          "buffer": 0,
          "byteOffset": 5164,
          "byteLength": 61,
          "mode": "ATTRIBUTES",
          "byteStride": 4,
          "count": 420
        }
      }
    },
    {
      "buffer": 1,
      "byteOffset": 35424,
      "byteLength": 1824,
      "target": 34962,
      "byteStride": 4,
      "extensions": {
        "EXT_meshopt_compression": {
          "buffer": 0,
          "byteOffset": 5228,
          "byteLength": 477,
          "mode": "ATTRIBUTES",
          "filter": "OCTAHEDRAL",
          "byteStride": 4,
          "count": 456
        }
      }
    },
    {
      "buffer": 1,
      "byteOffset": 37248,
      "byteLength": 1824,
      "target": 34962,
      "byteStride": 4,
      "extensions": {
        "EXT_meshopt_compression": {
          "buffer": 0,
          "byteOffset": 5708,
          "byteLength": 65,
          "mode": "ATTRIBUTES",
          "byteStride": 4,
          "count": 456
        }
      }
    },
    {
      "buffer": 1,
      "byteOffset": 39072,
      "byteLength": 3040,
      "target": 34962,
      "byteStride": 4,
      "extensions": {
        "EXT_meshopt_compression": {
          "buffer": 0,
          "byteOffset": 5776,
          "byteLength": 778,
          "mode": "ATTRIBUTES",
          "filter": "OCTAHEDRAL",
          "byteStride": 4,
          "count": 760
        }
      }
    },
    {
      "buffer": 1,
      "byteOffset": 42112,
      "byteLength": 3040,
      "target": 34962,
      "byteStride": 4,
      "extensions": {
        "EXT_meshopt_compression": {
          "buffer": 0,
          "byteOffset": 6556,
          "byteLength": 81,
          "mode": "ATTRIBUTES",
          "byteStride": 4,
          "count": 760
        }
      }
    },
    {
      "buffer": 1,
      "byteOffset": 45152,
      "byteLength": 2736,
      "target": 34962,
      "byteStride": 4,
      "extensions": {
        "EXT_meshopt_compression": {
          "buffer": 0,
          "byteOffset": 6640,
          "byteLength": 695,
          "mode": "ATTRIBUTES",
          "filter": "OCTAHEDRAL",
          "byteStride": 4,
          "count": 684
        }
      }
    },
    {
      "buffer": 1,
      "byteOffset": 47888,
      "byteLength": 2736,
      "target": 34962,
      "byteStride": 4,
      "extensions": {
        "EXT_meshopt_compression": {
          "buffer": 0,
          "byteOffset": 7336,
          "byteLength": 77,
          "mode": "ATTRIBUTES",
          "byteStride": 4,
          "count": 684
        }
      }
    },
    {
      "buffer": 1,
      "byteOffset": 50624,
      "byteLength": 3040,
      "target": 34962,
      "byteStride": 4,
      "extensions": {
        "EXT_meshopt_compression": {
          "buffer": 0,
          "byteOffset": 7416,
          "byteLength": 783,
          "mode": "ATTRIBUTES",
          "filter": "OCTAHEDRAL",
          "byteStride": 4,
          "count": 760
        }
      }
    },
    {
      "buffer": 1,
      "byteOffset": 53664,
      "byteLength": 2592,
      "target": 34962,
      "byteStride": 8,
      "extensions": {
        "EXT_meshopt_compression": {
          "buffer": 0,
          "byteOffset": 8200,
          "byteLength": 1435,
          "mode": "ATTRIBUTES",
          "byteStride": 8,
          "count": 324
        }
      }
    },
    {
      "buffer": 1,
      "byteOffset": 56256,
      "byteLength": 1296,
      "target": 34962,
      "byteStride": 4,
      "extensions": {
        "EXT_meshopt_compression": {
          "buffer": 0,
          "byteOffset": 9636,
          "byteLength": 57,
          "mode": "ATTRIBUTES",
          "byteStride": 4,
          "count": 324
        }
      }
    },
    {
      "buffer": 1,
      "byteOffset": 57552,
      "byteLength": 9312,
      "target": 34962,
      "byteStride": 8,
      "extensions": {
        "EXT_meshopt_compression": {
          "buffer": 0,
          "byteOffset": 9696,
          "byteLength": 5090,
          "mode": "ATTRIBUTES",
          "byteStride": 8,
          "count": 1164
        }
      }
    },
    {
      "buffer": 1,
      "byteOffset": 66864,
      "byteLength": 4656,
      "target": 34962,
      "byteStride": 4,
      "extensions": {
        "EXT_meshopt_compression": {
          "buffer": 0,
          "byteOffset": 14788,
          "byteLength": 109,
          "mode": "ATTRIBUTES",
          "byteStride": 4,
          "count": 1164
        }
      }
    },
    {
      "buffer": 1,
      "byteOffset": 71520,
      "byteLength": 3360,
      "target": 34962,
      "byteStride": 8,
      "extensions": {
        "EXT_meshopt_compression": {
          "buffer": 0,
          "byteOffset": 14900,
          "byteLength": 1608,
          "mode": "ATTRIBUTES",
          "byteStride": 8,
          "count": 420
        }
      }
    },
    {
      "buffer": 1,
      "byteOffset": 74880,
      "byteLength": 1680,
      "target": 34962,
      "byteStride": 4,
      "extensions": {
        "EXT_meshopt_compression": {
          "buffer": 0,
          "byteOffset": 16508,
          "byteLength": 61,
          "mode": "ATTRIBUTES",
          "byteStride": 4,
          "count": 420
        }
      }
    },
    {
      "buffer": 1,
      "byteOffset": 76560,
      "byteLength": 3648,
      "target": 34962,
      "byteStride": 8,
      "extensions": {
        "EXT_meshopt_compression": {
          "buffer": 0,
          "byteOffset": 16572,
          "byteLength": 2003,
          "mode": "ATTRIBUTES",
          "byteStride": 8,
          "count": 456
        }
      }
    },
    {
      "buffer": 1,
      "byteOffset": 80208,
      "byteLength": 1824,
      "target": 34962,
      "byteStride": 4,
      "extensions": {
        "EXT_meshopt_compression": {
          "buffer": 0,
          "byteOffset": 18576,
          "byteLength": 65,
          "mode": "ATTRIBUTES",
          "byteStride": 4,
          "count": 456
        }
      }
    },
    {
      "buffer": 1,
      "byteOffset": 82032,
      "byteLength": 6080,
      "target": 34962,
      "byteStride": 8,
      "extensions": {
        "EXT_meshopt_compression": {
          "buffer": 0,
          "byteOffset": 18644,
          "byteLength": 3318,
          "mode": "ATTRIBUTES",
          "byteStride": 8,
          "count": 760
        }
      }
    },
    {
      "buffer": 1,
      "byteOffset": 88112,
      "byteLength": 3040,
      "target": 34962,
      "byteStride": 4,
      "extensions": {
        "EXT_meshopt_compression": {
          "buffer": 0,
          "byteOffset": 21964,
          "byteLength": 81,
          "mode": "ATTRIBUTES",
          "byteStride": 4,
          "count": 760
        }
      }
    },
    {
      "buffer": 1,
      "byteOffset": 91152,
      "byteLength": 5472,
      "target": 34962,
      "byteStride": 8,
      "extensions": {
        "EXT_meshopt_compression": {
          "buffer": 0,
          "byteOffset": 22048,
          "byteLength": 2956,
          "mode": "ATTRIBUTES",
          "byteStride": 8,
          "count": 684
        }
      }
    },
    {
      "buffer": 1,
      "byteOffset": 96624,
      "byteLength": 2736,
      "target": 34962,
      "byteStride": 4,
      "extensions": {
        "EXT_meshopt_compression": {
          "buffer": 0,
          "byteOffset": 25004,
          "byteLength": 77,
          "mode": "ATTRIBUTES",
          "byteStride": 4,
          "count": 684
        }
      }
    },
    {
      "buffer": 1,
      "byteOffset": 99360,
      "byteLength": 6080,
      "target": 34962,
      "byteStride": 8,
      "extensions": {
        "EXT_meshopt_compression": {
          "buffer": 0,
          "byteOffset": 25084,
          "byteLength": 3282,
          "mode": "ATTRIBUTES",
          "byteStride": 8,
          "count": 760
        }
      }
    }
  ],
  "samplers": [
    {
      "wrapS": 10497,
      "wrapT": 10497
    }
  ],
  "textures": [
    {
      "sampler": 0,
      "extensions": {
        "KHR_texture_basisu": {
          "source": 0
        }
      }
    }
  ],
  "images": [
    {
      "mimeType": "image/ktx2",
      "uri": "Bark_Texture.ktx2"
    }
  ],
  "buffers": [
    {
      "uri": "Bookcase_Full.bin",
      "byteLength": 28368
    },
    {
      "byteLength": 105440,
      "extensions": {
        "EXT_meshopt_compression": {
          "fallback": true
        }
      }
    }
  ],
  "materials": [
    {
      "name": "Wood",
      "doubleSided": true,
      "pbrMetallicRoughness": {
        "baseColorFactor": [
          0.15292437374591827,
          0.10439527034759521,
          0.05163053795695305,
          1
        ],
        "roughnessFactor": 0.690034806728363,
        "metallicFactor": 0,
        "baseColorTexture": {
          "index": 0
        }
      }
    },
    {
      "name": "DarkWood",
      "doubleSided": true,
      "pbrMetallicRoughness": {
        "baseColorFactor": [
          0.08713703602552414,
          0.05797602981328964,
          0.02801351808011532,
          1
        ],
        "roughnessFactor": 0.690034806728363,
        "metallicFactor": 0,
        "baseColorTexture": {
          "index": 0
        }
      }
    },
    {
      "name": "Pages",
      "doubleSided": true,
      "pbrMetallicRoughness": {
        "baseColorFactor": [
          0.40003857016563416,
          0.3703821301460266,
          0.23540449142456055,
          1
        ],
        "roughnessFactor": 0.690034806728363,
        "metallicFactor": 0
      }
    },
    {
      "name": "Book2",
      "doubleSided": true,
      "pbrMetallicRoughness": {
        "baseColorFactor": [
          0.0746932104229927,
          0.12687918543815613,
          0.04346667230129242,
          1
        ],
        "roughnessFactor": 0.690034806728363,
        "metallicFactor": 0
      }
    },
    {
      "name": "Book",
      "doubleSided": true,
      "pbrMetallicRoughness": {
        "baseColorFactor": [
          0.17320168018341064,
          0.03870757296681404,
          0.03360006585717201,
          1
        ],
        "roughnessFactor": 0.690034806728363,
        "metallicFactor": 0
      }
    },
    {
      "name": "Book3",
      "doubleSided": true,
      "pbrMetallicRoughness": {
        "baseColorFactor": [
          0.08404484391212463,
          0.027922865003347397,
          0.17320069670677185,
          1
        ],
        "roughnessFactor": 0.690034806728363,
        "metallicFactor": 0
      }
    },
    {
      "name": "Book4",
      "doubleSided": true,
      "pbrMetallicRoughness": {
        "baseColorFactor": [
          0.027892066165804863,
          0.0555395781993866,
          0.12687887251377106,
          1
        ],
        "roughnessFactor": 0.690034806728363,
        "metallicFactor": 0
      }
    }
  ],
  "meshes": [
    {
      "name": "Cylinder.044",
      "primitives": [
        {
          "attributes": {
            "NORMAL": 1,
            "COLOR_0": 2,
            "POSITION": 20,
            "TEXCOORD_0": 21,
            "COLOR_1": 2
          },
          "mode": 4,
          "material": 0,
          "indices": 0
        },
        {
          "attributes": {
            "NORMAL": 4,
            "COLOR_0": 5,
            "POSITION": 22,
            "TEXCOORD_0": 23,
            "COLOR_1": 5
          },
          "mode": 4,
          "material": 1,
          "indices": 3
        },
        {
          "attributes": {
            "NORMAL": 7,
            "COLOR_0": 8,
            "POSITION": 24,
            "TEXCOORD_0": 25,
            "COLOR_1": 8
          },
          "mode": 4,
          "material": 2,
          "indices": 6
        },
        {
          "attributes": {
            "NORMAL": 10,
            "COLOR_0": 11,
            "POSITION": 26,
            "TEXCOORD_0": 27,
            "COLOR_1": 11
          },
          "mode": 4,
          "material": 3,
          "indices": 9
        },
        {
          "attributes": {
            "NORMAL": 13,
            "COLOR_0": 14,
            "POSITION": 28,
            "TEXCOORD_0": 29,
            "COLOR_1": 14
          },
          "mode": 4,
          "material": 4,
          "indices": 12
        },
        {
          "attributes": {
            "NORMAL": 16,
            "COLOR_0": 17,
            "POSITION": 30,
            "TEXCOORD_0": 31,
            "COLOR_1": 17
          },
          "mode": 4,
          "material": 5,
          "indices": 15
        },
        {
          "attributes": {
            "NORMAL": 19,
            "POSITION": 32,
            "COLOR_0": 14,
            "TEXCOORD_0": 29,
            "COLOR_1": 14
          },
          "mode": 4,
          "material": 6,
          "indices": 18
        }
      ]
    }
  ],
  "nodes": [
    {
      "name": "Bookcase_Full",
      "translation": [
        0,
        1.3024154305458069,
        -0.015976950526237488
      ],
      "scale": [
        1.3270878195762634,
        1.3270878195762634,
        1.3270878195762634
      ],
      "mesh": 0
    }
  ],
  "scenes": [
    {
      "name": "Scene",
      "nodes": [
        0
      ]
    }
  ],
  "scene": 0,
  "extensionsUsed": [
    "EXT_meshopt_compression",
    "KHR_mesh_quantization",
    "KHR_texture_basisu"
  ],
  "extensionsRequired": [
    "EXT_meshopt_compression",
    "KHR_mesh_quantization",
    "KHR_texture_basisu"
  ]
}