{
  "asset": {
    "generator": "glTF-Transform v4.5.0",
    "version": "2.0"
  },
  "accessors": [
    {
      "type": "SCALAR",
      "componentType": 5123,
      "count": 744,
      "normalized": false,
      "byteOffset": 0,
      "bufferView": 0
    },
    {
      "type": "VEC3",
      "componentType": 5120,
      "count": 324,
      "normalized": true,
      "byteOffset": 0,
      "bufferView": 1
    },
    {
      "type": "VEC4",
      "componentType": 5121,
      "count": 324,
      "normalized": true,
      "byteOffset": 0,
      "bufferView": 2
    },
    {
      "type": "SCALAR",
      "componentType": 5123,
      "count": 3036,
      "normalized": false,
      "byteOffset": 1488,
      "bufferView": 0
    },
    {
      "type": "VEC3",
      "componentType": 5120,
      "count": 1164,
      "normalized": true,
      "byteOffset": 0,
      "bufferView": 3
    },
    {
      "type": "VEC4",
      "componentType": 5121,
      "count": 1164,
      "normalized": true,
      "byteOffset": 0,
      "bufferView": 4
    },
    {
      "type": "VEC3",
      "componentType": 5122,
      "count": 324,
      "max": [
        25659,
        32767,
        8124
      ],
      "min": [
        -25659,
        -32767,
        -8124
      ],
      "normalized": true,
      "byteOffset": 0,
      "bufferView": 5
    },
    {
      "type": "VEC2",
      "componentType": 5123,
      "count": 324,
      "normalized": true,
      "byteOffset": 0,
      "bufferView": 6
    },
    {
      "type": "VEC3",
      "componentType": 5122,
      "count": 1164,
      "max": [
        24635,
        31287,
        8092
      ],
      "min": [
        -24635,
        -29535,
        -7492
      ],
      "normalized": true,
      "byteOffset": 0,
      "bufferView": 7
    },
    {
      "type": "VEC2",
      "componentType": 5123,
      "count": 1164,
      "normalized": true,
      "byteOffset": 0,
      "bufferView": 8
    }
  ],
  "bufferViews": [
    {
      "buffer": 1,
      "byteOffset": 0,
      "byteLength": 7560,
      "target": 34963,
      "extensions": {
        "EXT_meshopt_compression": {
          "buffer": 0,
          "byteOffset": 0,
          "byteLength": 1316,
          "mode": "TRIANGLES",
          "byteStride": 2,
          "count": 3780
        }
      }
    },
    {
      "buffer": 1,
      "byteOffset": 7560,
      "byteLength": 1296,
      "target": 34962,
      "byteStride": 4,
      "extensions": {
        "EXT_meshopt_compression": {
          "buffer": 0,
          "byteOffset": 1316,
          "byteLength": 278,
          "mode": "ATTRIBUTES",
          "filter": "OCTAHEDRAL",
          "byteStride": 4,
          "count": 324
        }
      }
    },
    {
      "buffer": 1,
      "byteOffset": 8856,
      "byteLength": 1296,
      "target": 34962,
      "byteStride": 4,
      "extensions": {
        "EXT_meshopt_compression": {
          "buffer": 0,
          "byteOffset": 1596,
          "byteLength": 57,
          "mode": "ATTRIBUTES",
          "byteStride": 4,
          "count": 324
        }
      }
    },
    {
      "buffer": 1,
      "byteOffset": 10152,
      "byteLength": 4656,
      "target": 34962,
      "byteStride": 4,
      "extensions": {
        "EXT_meshopt_compression": {
          "buffer": 0,
          "byteOffset": 1656,
          "byteLength": 884,
          "mode": "ATTRIBUTES",
          "filter": "OCTAHEDRAL",
          "byteStride": 4,
          "count": 1164
        }
      }
    },
    {
      "buffer": 1,
      "byteOffset": 14808,
      "byteLength": 4656,
      "target": 34962,
      "byteStride": 4,
      "extensions": {
        "EXT_meshopt_compression": {
          "buffer": 0,
          "byteOffset": 2540,
          "byteLength": 109,
          "mode": "ATTRIBUTES",
          "byteStride": 4,
          "count": 1164
        }
      }
    },
    {
      "buffer": 1,
      "byteOffset": 19464,
      "byteLength": 2592,
      "target": 34962,
      "byteStride": 8,
      "extensions": {
        "EXT_meshopt_compression": {
          "buffer": 0,
          "byteOffset": 2652,
          "byteLength": 1435,
          "mode": "ATTRIBUTES",
          "byteStride": 8,
          "count": 324
        }
      }
    },
    {
      "buffer": 1,
      "byteOffset": 22056,
      "byteLength": 1296,
      "target": 34962,
      "byteStride": 4,
      "extensions": {
        "EXT_meshopt_compression": {
          "buffer": 0,
          "byteOffset": 4088,
          "byteLength": 57,
          "mode": "ATTRIBUTES",
          "byteStride": 4,
          "count": 324
        }
      }
    },
    {
      "buffer": 1,
      "byteOffset": 23352,
      "byteLength": 9312,
      "target": 34962,
      "byteStride": 8,
      "extensions": {
        "EXT_meshopt_compression": {
          "buffer": 0,
          "byteOffset": 4148,
          "byteLength": 5090,
          "mode": "ATTRIBUTES",
          "byteStride": 8,
          "count": 1164
        }
      }
    },
    {
      "buffer": 1,
      "byteOffset": 32664,
      "byteLength": 4656,
      "target": 34962,
      "byteStride": 4,
      "extensions": {
        "EXT_meshopt_compression": {
          "buffer": 0,
          "byteOffset": 9240,
          "byteLength": 109,
          "mode": "ATTRIBUTES",
          "byteStride": 4,
          "count": 1164
        }
      }
    }
  ],
  "samplers": [
    {
      "wrapS": 10497,
      "wrapT": 10497
    }
  ],
  "textures": [
    {
      "sampler": 0,
      "extensions": {
        "KHR_texture_basisu": {
          "source": 0
        }
      }
    }
  ],
  "images": [
    {
      "mimeType": "image/ktx2",
      "uri": "Bark_Texture.ktx2"
    }
  ],
  "buffers": [
    {
      "uri": "Bookcase_Empty.bin",
      "byteLength": 9352
    },
    {
      "byteLength": 37320,
      "extensions": {
        "EXT_meshopt_compression": {
          "fallback": true
        }
      }
    }
  ],
  "materials": [
    {
      "name": "Wood",
      "doubleSided": true,
      "pbrMetallicRoughness": {
        "baseColorFactor": [
          0.15292437374591827,
          0.10439527034759521,
          0.05163053795695305,
          1
        ],
        "roughnessFactor": 0.690034806728363,
        "metallicFactor": 0,
        "baseColorTexture": {
          "index": 0
        }
      }
    },
    {
      "name": "DarkWood",
      "doubleSided": true,
      "pbrMetallicRoughness": {
        "baseColorFactor": [
          0.08713703602552414,
          0.05797602981328964,
          0.02801351808011532,
          1
        ],
        "roughnessFactor": 0.690034806728363,
        "metallicFactor": 0,
        "baseColorTexture": {
          "index": 0
        }
      }
    }
  ],
  "meshes": [
    {
      "name": "Cylinder.050",
      "primitives": [
        {
          "attributes": {
            "NORMAL": 1,
            "COLOR_0": 2,
            "POSITION": 6,
            "TEXCOORD_0": 7,
            "COLOR_1": 2
          },
          "mode": 4,
          "material": 0,
          "indices": 0
        },
        {
          "attributes": {
            "NORMAL": 4,
            "COLOR_0": 5,
            "POSITION": 8,
            "TEXCOORD_0": 9,
            "COLOR_1": 5
          },
          "mode": 4,
          "material": 1,
          "indices": 3
        }
      ]
    }
  ],
  "nodes": [
    {
      "name": "Bookcase_Empty",
      "translation": [
        0,
        1.3024154305458069,
        -0.015976950526237488
      ],
      "scale": [
        1.3270878195762634,
        1.3270878195762634,
        1.3270878195762634
      ],
      "mesh": 0
    }
  ],
  "scenes": [
    {
      "name": "Scene",
      "nodes": [
        0
      ]
    }
  ],
  "scene": 0,
  "extensionsUsed": [
    "EXT_meshopt_compression",
    "KHR_mesh_quantization",
    "KHR_texture_basisu"
  ],
  "extensionsRequired": [
    "EXT_meshopt_compression",
    "KHR_mesh_quantization",
    "KHR_texture_basisu"
  ]
}