{
  "asset": {
    "generator": "glTF-Transform v4.5.0",
    "version": "2.0"
  },
  "accessors": [
    {
      "type": "SCALAR",
      "componentType": 5123,
      "count": 2868,
      "normalized": false,
      "byteOffset": 0,
      "bufferView": 0
    },
    {
      "type": "VEC3",
      "componentType": 5120,
      "count": 1050,
      "normalized": true,
      "byteOffset": 0,
      "bufferView": 1
    },
    {
      "type": "VEC3",
      "componentType": 5122,
      "count": 1050,
      "max": [
        32767,
        29603,
        21582
      ],
      "min": [
        -32767,
        -29603,
        -21582
      ],
      "normalized": true,
      "byteOffset": 0,
      "bufferView": 2
    },
    {
      "type": "VEC2",
      "componentType": 5123,
      "count": 1050,
      "normalized": true,
      "byteOffset": 0,
      "bufferView": 3
    }
  ],
  "bufferViews": [
    {
      "buffer": 1,
      "byteOffset": 0,
      "byteLength": 5736,
      "target": 34963,
      "extensions": {
        "EXT_meshopt_compression": {
          "buffer": 0,
          "byteOffset": 0,
          "byteLength": 975,
          "mode": "TRIANGLES",
          "byteStride": 2,
          "count": 2868
        }
      }
    },
    {
      "buffer": 1,
      "byteOffset": 5736,
      "byteLength": 4200,
      "target": 34962,
      "byteStride": 4,
      "extensions": {
        "EXT_meshopt_compression": {
          "buffer": 0,
          "byteOffset": 976,
          "byteLength": 2208,
          "mode": "ATTRIBUTES",
          "filter": "OCTAHEDRAL",
          "byteStride": 4,
          "count": 1050
        }
      }
    },
    {
      "buffer": 1,
      "byteOffset": 9936,
      "byteLength": 8400,
      "target": 34962,
      "byteStride": 8,
      "extensions": {
        "EXT_meshopt_compression": {
          "buffer": 0,
          "byteOffset": 3184,
          "byteLength": 6003,
          "mode": "ATTRIBUTES",
          "byteStride": 8,
          "count": 1050
        }
      }
    },
    {
      "buffer": 1,
      "byteOffset": 18336,
      "byteLength": 4200,
      "target": 34962,
      "byteStride": 4,
      "extensions": {
        "EXT_meshopt_compression": {
          "buffer": 0,
          "byteOffset": 9188,
          "byteLength": 2972,
          "mode": "ATTRIBUTES",
          "byteStride": 4,
          "count": 1050
        }
      }
    }
  ],
  "samplers": [
    {
      "wrapS": 10497,
      "wrapT": 10497
    }
  ],
  "textures": [
    {
      "sampler": 0,
      "extensions": {
        "KHR_texture_basisu": {
          "source": 0
        }
      }
    }
  ],
  "images": [
    {
      "mimeType": "image/ktx2",
      "uri": "Leaf_Texture.ktx2"
    }
  ],
  "buffers": [
    {
      "uri": "Bush_2x2.bin",
      "byteLength": 12160
    },
    {
      "byteLength": 22536,
      "extensions": {
        "EXT_meshopt_compression": {
          "fallback": true
        }
      }
    }
  ],
  "materials": [
    {
      "name": "Texture_Leaves",
      "doubleSided": true,
      "pbrMetallicRoughness": {
        "baseColorFactor": [
          0.800000011920929,
          0.800000011920929,
          0.800000011920929,
          1
        ],
        "roughnessFactor": 0.5527864098548889,
        "baseColorTexture": {
          "index": 0
        }
      }
    }
  ],
  "meshes": [
    {
      "name": "Cube.024",
      "primitives": [
        {
          "attributes": {
            "NORMAL": 1,
            "POSITION": 2,
            "TEXCOORD_0": 3
          },
          "mode": 4,
          "material": 0,
          "indices": 0
        }
      ]
    }
  ],
  "nodes": [
    {
      "name": "Bush_2x2",
      "translation": [
        0.00784146785720997,
        0.6411582231521606,
        3.9048377128534804e-7
      ],
      "rotation": [
        0,
        0.999999999999981,
        0,
        1.9470718370938615e-7
      ],
      "scale": [
        0.9018924832344739,
        0.9018924832344055,
        0.9018924832344739
      ],
      "mesh": 0
    }
  ],
  "scenes": [
    {
      "name": "Scene",
      "nodes": [
        0
      ]
    }
  ],
  "scene": 0,
  "extensionsUsed": [
    "EXT_meshopt_compression",
    "KHR_mesh_quantization",
    "KHR_texture_basisu"
  ],
  "extensionsRequired": [
    "EXT_meshopt_compression",
    "KHR_mesh_quantization",
    "KHR_texture_basisu"
  ]
}