{"asset": {"generator": "Khronos glTF Blender I/O v5.2.40", "version": "2.0"}, "extensionsUsed": ["KHR_materials_specular"], "scene": 0, "scenes": [{"name": "Scene", "nodes": [0]}], "nodes": [{"mesh": 0, "name": "Bush_Round"}], "materials": [{"doubleSided": true, "extensions": {"KHR_materials_specular": {"specularColorFactor": [2.0, 2.0, 2.0]}}, "name": "Texture_Leaves", "pbrMetallicRoughness": {"baseColorFactor": [0.800000011920929, 0.800000011920929, 0.800000011920929, 1], "roughnessFactor": 0.5527864098548889, "baseColorTexture": {"index": 0}}}], "meshes": [{"name": "Cylinder.028", "primitives": [{"attributes": {"POSITION": 0, "NORMAL": 1, "TEXCOORD_0": 2}, "indices": 3, "material": 0}]}], "accessors": [{"bufferView": 0, "componentType": 5126, "count": 221, "max": [0.5883457660675049, 0.4082423150539398, 0.5919577479362488], "min": [-0.6579458117485046, -0.2968956530094147, -0.6553317904472351], "type": "VEC3"}, {"bufferView": 1, "componentType": 5126, "count": 221, "type": "VEC3"}, {"bufferView": 2, "componentType": 5126, "count": 221, "type": "VEC2"}, {"bufferView": 3, "componentType": 5123, "count": 936, "type": "SCALAR"}], "bufferViews": [{"buffer": 0, "byteLength": 2652, "byteOffset": 0, "target": 34962}, {"buffer": 0, "byteLength": 2652, "byteOffset": 2652, "target": 34962}, {"buffer": 0, "byteLength": 1768, "byteOffset": 5304, "target": 34962}, {"buffer": 0, "byteLength": 1872, "byteOffset": 7072, "target": 34963}], "buffers": [{"byteLength": 8944, "uri": "Bush_Round.bin"}], "images": [{"uri": "Leaf_Texture.png"}], "textures": [{"source": 0}]}