{
  "asset": {
    "generator": "glTF-Transform v4.5.0",
    "version": "2.0"
  },
  "accessors": [
    {
      "type": "SCALAR",
      "componentType": 5123,
      "count": 1944,
      "normalized": false,
      "byteOffset": 0,
      "bufferView": 0
    },
    {
      "type": "VEC3",
      "componentType": 5120,
      "count": 427,
      "normalized": true,
      "byteOffset": 0,
      "bufferView": 1
    },
    {
      "type": "SCALAR",
      "componentType": 5123,
      "count": 420,
      "normalized": false,
      "byteOffset": 3888,
      "bufferView": 0
    },
    {
      "type": "VEC3",
      "componentType": 5120,
      "count": 196,
      "normalized": true,
      "byteOffset": 0,
      "bufferView": 2
    },
    {
      "type": "SCALAR",
      "componentType": 5123,
      "count": 168,
      "normalized": false,
      "byteOffset": 4728,
      "bufferView": 0
    },
    {
      "type": "VEC3",
      "componentType": 5120,
      "count": 112,
      "normalized": true,
      "byteOffset": 0,
      "bufferView": 3
    },
    {
      "type": "VEC3",
      "componentType": 5122,
      "count": 427,
      "max": [
        32767,
        12433,
        31375
      ],
      "min": [
        -32767,
        -22566,
        -31375
      ],
      "normalized": true,
      "byteOffset": 0,
      "bufferView": 4
    },
    {
      "type": "VEC3",
      "componentType": 5122,
      "count": 196,
      "max": [
        21842,
        22566,
        25255
      ],
      "min": [
        -25427,
        -2836,
        -25395
      ],
      "normalized": true,
      "byteOffset": 0,
      "bufferView": 5
    },
    {
      "type": "VEC3",
      "componentType": 5122,
      "count": 112,
      "max": [
        21042,
        13557,
        24655
      ],
      "min": [
        -24971,
        -4196,
        -24791
      ],
      "normalized": true,
      "byteOffset": 0,
      "bufferView": 6
    }
  ],
  "bufferViews": [
    {
      "buffer": 1,
      "byteOffset": 0,
      "byteLength": 5064,
      "target": 34963,
      "extensions": {
        "EXT_meshopt_compression": {
          "buffer": 0,
          "byteOffset": 0,
          "byteLength": 932,
          "mode": "TRIANGLES",
          "byteStride": 2,
          "count": 2532
        }
      }
    },
    {
      "buffer": 1,
      "byteOffset": 5064,
      "byteLength": 1708,
      "target": 34962,
      "byteStride": 4,
      "extensions": {
        "EXT_meshopt_compression": {
          "buffer": 0,
          "byteOffset": 932,
          "byteLength": 870,
          "mode": "ATTRIBUTES",
          "filter": "OCTAHEDRAL",
          "byteStride": 4,
          "count": 427
        }
      }
    },
    {
      "buffer": 1,
      "byteOffset": 6772,
      "byteLength": 784,
      "target": 34962,
      "byteStride": 4,
      "extensions": {
        "EXT_meshopt_compression": {
          "buffer": 0,
          "byteOffset": 1804,
          "byteLength": 335,
          "mode": "ATTRIBUTES",
          "filter": "OCTAHEDRAL",
          "byteStride": 4,
          "count": 196
        }
      }
    },
    {
      "buffer": 1,
      "byteOffset": 7556,
      "byteLength": 448,
      "target": 34962,
      "byteStride": 4,
      "extensions": {
        "EXT_meshopt_compression": {
          "buffer": 0,
          "byteOffset": 2140,
          "byteLength": 251,
          "mode": "ATTRIBUTES",
          "filter": "OCTAHEDRAL",
          "byteStride": 4,
          "count": 112
        }
      }
    },
    {
      "buffer": 1,
      "byteOffset": 8004,
      "byteLength": 3416,
      "target": 34962,
      "byteStride": 8,
      "extensions": {
        "EXT_meshopt_compression": {
          "buffer": 0,
          "byteOffset": 2392,
          "byteLength": 2415,
          "mode": "ATTRIBUTES",
          "byteStride": 8,
          "count": 427
        }
      }
    },
    {
      "buffer": 1,
      "byteOffset": 11420,
      "byteLength": 1568,
      "target": 34962,
      "byteStride": 8,
      "extensions": {
        "EXT_meshopt_compression": {
          "buffer": 0,
          "byteOffset": 4808,
          "byteLength": 1024,
          "mode": "ATTRIBUTES",
          "byteStride": 8,
          "count": 196
        }
      }
    },
    {
      "buffer": 1,
      "byteOffset": 12988,
      "byteLength": 896,
      "target": 34962,
      "byteStride": 8,
      "extensions": {
        "EXT_meshopt_compression": {
          "buffer": 0,
          "byteOffset": 5832,
          "byteLength": 537,
          "mode": "ATTRIBUTES",
          "byteStride": 8,
          "count": 112
        }
      }
    }
  ],
  "buffers": [
    {
      "uri": "Candles_1.bin",
      "byteLength": 6372
    },
    {
      "byteLength": 13884,
      "extensions": {
        "EXT_meshopt_compression": {
          "fallback": true
        }
      }
    }
  ],
  "materials": [
    {
      "name": "Candle",
      "doubleSided": true,
      "pbrMetallicRoughness": {
        "baseColorFactor": [
          0.42522579431533813,
          0.3761412501335144,
          0.13521644473075867,
          1
        ],
        "roughnessFactor": 0.690034806728363,
        "metallicFactor": 0
      }
    },
    {
      "name": "Light",
      "doubleSided": true,
      "pbrMetallicRoughness": {
        "baseColorFactor": [
          0.6985164880752563,
          0.10983259975910187,
          0.06794875115156174,
          1
        ],
        "roughnessFactor": 0.690034806728363,
        "metallicFactor": 0
      }
    },
    {
      "name": "Black",
      "doubleSided": true,
      "pbrMetallicRoughness": {
        "baseColorFactor": [
          0.04425261169672012,
          0.04425261169672012,
          0.04425261169672012,
          1
        ],
        "roughnessFactor": 0.690034806728363,
        "metallicFactor": 0
      }
    }
  ],
  "meshes": [
    {
      "name": "Cube.003",
      "primitives": [
        {
          "attributes": {
            "NORMAL": 1,
            "POSITION": 6
          },
          "mode": 4,
          "material": 0,
          "indices": 0
        },
        {
          "attributes": {
            "NORMAL": 3,
            "POSITION": 7
          },
          "mode": 4,
          "material": 1,
          "indices": 2
        },
        {
          "attributes": {
            "NORMAL": 5,
            "POSITION": 8
          },
          "mode": 4,
          "material": 2,
          "indices": 4
        }
      ]
    }
  ],
  "nodes": [
    {
      "name": "Candles_1",
      "translation": [
        0.05556497018080009,
        0.3006060895139962,
        -0.053438996675091666
      ],
      "scale": [
        0.4405118783338118,
        0.4405118783338118,
        0.4405118783338118
      ],
      "mesh": 0
    }
  ],
  "scenes": [
    {
      "name": "Scene",
      "nodes": [
        0
      ]
    }
  ],
  "scene": 0,
  "extensionsUsed": [
    "EXT_meshopt_compression",
    "KHR_mesh_quantization"
  ],
  "extensionsRequired": [
    "EXT_meshopt_compression",
    "KHR_mesh_quantization"
  ]
}