{
  "asset": {
    "generator": "glTF-Transform v4.5.0",
    "version": "2.0"
  },
  "accessors": [
    {
      "type": "SCALAR",
      "componentType": 5123,
      "count": 1032,
      "normalized": false,
      "byteOffset": 0,
      "bufferView": 0
    },
    {
      "type": "VEC3",
      "componentType": 5120,
      "count": 495,
      "normalized": true,
      "byteOffset": 0,
      "bufferView": 1
    },
    {
      "type": "SCALAR",
      "componentType": 5123,
      "count": 1080,
      "normalized": false,
      "byteOffset": 2064,
      "bufferView": 0
    },
    {
      "type": "VEC3",
      "componentType": 5120,
      "count": 596,
      "normalized": true,
      "byteOffset": 0,
      "bufferView": 2
    },
    {
      "type": "SCALAR",
      "componentType": 5123,
      "count": 276,
      "normalized": false,
      "byteOffset": 4224,
      "bufferView": 0
    },
    {
      "type": "VEC3",
      "componentType": 5120,
      "count": 146,
      "normalized": true,
      "byteOffset": 0,
      "bufferView": 3
    },
    {
      "type": "SCALAR",
      "componentType": 5123,
      "count": 948,
      "normalized": false,
      "byteOffset": 4776,
      "bufferView": 0
    },
    {
      "type": "VEC3",
      "componentType": 5120,
      "count": 500,
      "normalized": true,
      "byteOffset": 0,
      "bufferView": 4
    },
    {
      "type": "SCALAR",
      "componentType": 5123,
      "count": 1692,
      "normalized": false,
      "byteOffset": 6672,
      "bufferView": 0
    },
    {
      "type": "VEC3",
      "componentType": 5120,
      "count": 866,
      "normalized": true,
      "byteOffset": 0,
      "bufferView": 5
    },
    {
      "type": "VEC3",
      "componentType": 5122,
      "count": 495,
      "max": [
        32767,
        14433,
        20834
      ],
      "min": [
        -32767,
        -16450,
        -23514
      ],
      "normalized": true,
      "byteOffset": 0,
      "bufferView": 6
    },
    {
      "type": "VEC3",
      "componentType": 5122,
      "count": 596,
      "max": [
        30895,
        11809,
        19566
      ],
      "min": [
        -31403,
        -12901,
        -22806
      ],
      "normalized": true,
      "byteOffset": 0,
      "bufferView": 7
    },
    {
      "type": "VEC3",
      "componentType": 5122,
      "count": 146,
      "max": [
        4060,
        16450,
        23514
      ],
      "min": [
        -2948,
        6704,
        18518
      ],
      "normalized": true,
      "byteOffset": 0,
      "bufferView": 8
    },
    {
      "type": "VEC3",
      "componentType": 5122,
      "count": 500,
      "max": [
        32767,
        10345,
        21750
      ],
      "min": [
        -32767,
        -10345,
        -21750
      ],
      "normalized": true,
      "byteOffset": 0,
      "bufferView": 9
    },
    {
      "type": "VEC3",
      "componentType": 5122,
      "count": 866,
      "max": [
        31275,
        9273,
        19166
      ],
      "min": [
        -31275,
        -8885,
        -19166
      ],
      "normalized": true,
      "byteOffset": 0,
      "bufferView": 10
    }
  ],
  "bufferViews": [
    {
      "buffer": 1,
      "byteOffset": 0,
      "byteLength": 10056,
      "target": 34963,
      "extensions": {
        "EXT_meshopt_compression": {
          "buffer": 0,
          "byteOffset": 0,
          "byteLength": 1709,
          "mode": "TRIANGLES",
          "byteStride": 2,
          "count": 5028
        }
      }
    },
    {
      "buffer": 1,
      "byteOffset": 10056,
      "byteLength": 1980,
      "target": 34962,
      "byteStride": 4,
      "extensions": {
        "EXT_meshopt_compression": {
          "buffer": 0,
          "byteOffset": 1712,
          "byteLength": 461,
          "mode": "ATTRIBUTES",
          "filter": "OCTAHEDRAL",
          "byteStride": 4,
          "count": 495
        }
      }
    },
    {
      "buffer": 1,
      "byteOffset": 12036,
      "byteLength": 2384,
      "target": 34962,
      "byteStride": 4,
      "extensions": {
        "EXT_meshopt_compression": {
          "buffer": 0,
          "byteOffset": 2176,
          "byteLength": 555,
          "mode": "ATTRIBUTES",
          "filter": "OCTAHEDRAL",
          "byteStride": 4,
          "count": 596
        }
      }
    },
    {
      "buffer": 1,
      "byteOffset": 14420,
      "byteLength": 584,
      "target": 34962,
      "byteStride": 4,
      "extensions": {
        "EXT_meshopt_compression": {
          "buffer": 0,
          "byteOffset": 2732,
          "byteLength": 162,
          "mode": "ATTRIBUTES",
          "filter": "OCTAHEDRAL",
          "byteStride": 4,
          "count": 146
        }
      }
    },
    {
      "buffer": 1,
      "byteOffset": 15004,
      "byteLength": 2000,
      "target": 34962,
      "byteStride": 4,
      "extensions": {
        "EXT_meshopt_compression": {
          "buffer": 0,
          "byteOffset": 2896,
          "byteLength": 462,
          "mode": "ATTRIBUTES",
          "filter": "OCTAHEDRAL",
          "byteStride": 4,
          "count": 500
        }
      }
    },
    {
      "buffer": 1,
      "byteOffset": 17004,
      "byteLength": 3464,
      "target": 34962,
      "byteStride": 4,
      "extensions": {
        "EXT_meshopt_compression": {
          "buffer": 0,
          "byteOffset": 3360,
          "byteLength": 743,
          "mode": "ATTRIBUTES",
          "filter": "OCTAHEDRAL",
          "byteStride": 4,
          "count": 866
        }
      }
    },
    {
      "buffer": 1,
      "byteOffset": 20468,
      "byteLength": 3960,
      "target": 34962,
      "byteStride": 8,
      "extensions": {
        "EXT_meshopt_compression": {
          "buffer": 0,
          "byteOffset": 4104,
          "byteLength": 2828,
          "mode": "ATTRIBUTES",
          "byteStride": 8,
          "count": 495
        }
      }
    },
    {
      "buffer": 1,
      "byteOffset": 24428,
      "byteLength": 4768,
      "target": 34962,
      "byteStride": 8,
      "extensions": {
        "EXT_meshopt_compression": {
          "buffer": 0,
          "byteOffset": 6932,
          "byteLength": 3001,
          "mode": "ATTRIBUTES",
          "byteStride": 8,
          "count": 596
        }
      }
    },
    {
      "buffer": 1,
      "byteOffset": 29196,
      "byteLength": 1168,
      "target": 34962,
      "byteStride": 8,
      "extensions": {
        "EXT_meshopt_compression": {
          "buffer": 0,
          "byteOffset": 9936,
          "byteLength": 707,
          "mode": "ATTRIBUTES",
          "byteStride": 8,
          "count": 146
        }
      }
    },
    {
      "buffer": 1,
      "byteOffset": 30364,
      "byteLength": 4000,
      "target": 34962,
      "byteStride": 8,
      "extensions": {
        "EXT_meshopt_compression": {
          "buffer": 0,
          "byteOffset": 10644,
          "byteLength": 2604,
          "mode": "ATTRIBUTES",
          "byteStride": 8,
          "count": 500
        }
      }
    },
    {
      "buffer": 1,
      "byteOffset": 34364,
      "byteLength": 6928,
      "target": 34962,
      "byteStride": 8,
      "extensions": {
        "EXT_meshopt_compression": {
          "buffer": 0,
          "byteOffset": 13248,
          "byteLength": 4405,
          "mode": "ATTRIBUTES",
          "byteStride": 8,
          "count": 866
        }
      }
    }
  ],
  "samplers": [
    {
      "wrapS": 10497,
      "wrapT": 10497
    }
  ],
  "textures": [
    {
      "sampler": 0,
      "extensions": {
        "KHR_texture_basisu": {
          "source": 0
        }
      }
    }
  ],
  "images": [
    {
      "mimeType": "image/ktx2",
      "uri": "Bark_Texture.ktx2"
    }
  ],
  "buffers": [
    {
      "uri": "Chest.bin",
      "byteLength": 17656
    },
    {
      "byteLength": 41292,
      "extensions": {
        "EXT_meshopt_compression": {
          "fallback": true
        }
      }
    }
  ],
  "materials": [
    {
      "name": "DarkWood",
      "doubleSided": true,
      "pbrMetallicRoughness": {
        "baseColorFactor": [
          0.08713703602552414,
          0.05797602981328964,
          0.02801351808011532,
          1
        ],
        "roughnessFactor": 0.690034806728363,
        "metallicFactor": 0,
        "baseColorTexture": {
          "index": 0
        }
      }
    },
    {
      "name": "Wood",
      "doubleSided": true,
      "pbrMetallicRoughness": {
        "baseColorFactor": [
          0.15292437374591827,
          0.10439527034759521,
          0.05163053795695305,
          1
        ],
        "roughnessFactor": 0.690034806728363,
        "metallicFactor": 0,
        "baseColorTexture": {
          "index": 0
        }
      }
    },
    {
      "name": "Metal",
      "doubleSided": true,
      "pbrMetallicRoughness": {
        "baseColorFactor": [
          0.09704122692346573,
          0.10234932601451874,
          0.11927313357591629,
          1
        ],
        "roughnessFactor": 0.690034806728363,
        "metallicFactor": 0
      }
    }
  ],
  "meshes": [
    {
      "name": "Cube.009",
      "primitives": [
        {
          "attributes": {
            "NORMAL": 1,
            "POSITION": 10
          },
          "mode": 4,
          "material": 0,
          "indices": 0
        },
        {
          "attributes": {
            "NORMAL": 3,
            "POSITION": 11
          },
          "mode": 4,
          "material": 1,
          "indices": 2
        },
        {
          "attributes": {
            "NORMAL": 5,
            "POSITION": 12
          },
          "mode": 4,
          "material": 2,
          "indices": 4
        }
      ]
    },
    {
      "name": "Cylinder.034",
      "primitives": [
        {
          "attributes": {
            "NORMAL": 7,
            "POSITION": 13
          },
          "mode": 4,
          "material": 0,
          "indices": 6
        },
        {
          "attributes": {
            "NORMAL": 9,
            "POSITION": 14
          },
          "mode": 4,
          "material": 1,
          "indices": 8
        }
      ]
    }
  ],
  "nodes": [
    {
      "name": "Chest_Base",
      "translation": [
        -0.0028808414936065674,
        0.28543959907256067,
        0.02335527539253235
      ],
      "scale": [
        0.5712790787220001,
        0.5712790787220001,
        0.5712790787220001
      ],
      "mesh": 0
    },
    {
      "name": "Chest_Top",
      "translation": [
        -2.9802322387695312e-8,
        0.7218869819607399,
        -0.0016843639314174652
      ],
      "scale": [
        0.5896589457988739,
        0.5896589457988739,
        0.5896589457988739
      ],
      "mesh": 1
    }
  ],
  "scenes": [
    {
      "name": "Scene",
      "nodes": [
        0,
        1
      ]
    }
  ],
  "scene": 0,
  "extensionsUsed": [
    "EXT_meshopt_compression",
    "KHR_mesh_quantization",
    "KHR_texture_basisu"
  ],
  "extensionsRequired": [
    "EXT_meshopt_compression",
    "KHR_mesh_quantization",
    "KHR_texture_basisu"
  ]
}