{
  "asset": {
    "generator": "glTF-Transform v4.5.0",
    "version": "2.0"
  },
  "accessors": [
    {
      "type": "SCALAR",
      "componentType": 5123,
      "count": 1092,
      "normalized": false,
      "byteOffset": 0,
      "bufferView": 0
    },
    {
      "type": "VEC3",
      "componentType": 5120,
      "count": 390,
      "normalized": true,
      "byteOffset": 0,
      "bufferView": 1
    },
    {
      "type": "SCALAR",
      "componentType": 5123,
      "count": 1080,
      "normalized": false,
      "byteOffset": 2184,
      "bufferView": 0
    },
    {
      "type": "VEC3",
      "componentType": 5120,
      "count": 449,
      "normalized": true,
      "byteOffset": 0,
      "bufferView": 2
    },
    {
      "type": "SCALAR",
      "componentType": 5123,
      "count": 276,
      "normalized": false,
      "byteOffset": 4344,
      "bufferView": 0
    },
    {
      "type": "VEC3",
      "componentType": 5120,
      "count": 104,
      "normalized": true,
      "byteOffset": 0,
      "bufferView": 3
    },
    {
      "type": "SCALAR",
      "componentType": 5123,
      "count": 62448,
      "normalized": false,
      "byteOffset": 4896,
      "bufferView": 0
    },
    {
      "type": "VEC3",
      "componentType": 5120,
      "count": 21443,
      "normalized": true,
      "byteOffset": 0,
      "bufferView": 4
    },
    {
      "type": "SCALAR",
      "componentType": 5123,
      "count": 948,
      "normalized": false,
      "byteOffset": 129792,
      "bufferView": 0
    },
    {
      "type": "VEC3",
      "componentType": 5120,
      "count": 500,
      "normalized": true,
      "byteOffset": 0,
      "bufferView": 5
    },
    {
      "type": "SCALAR",
      "componentType": 5123,
      "count": 1692,
      "normalized": false,
      "byteOffset": 131688,
      "bufferView": 0
    },
    {
      "type": "VEC3",
      "componentType": 5120,
      "count": 866,
      "normalized": true,
      "byteOffset": 0,
      "bufferView": 6
    },
    {
      "type": "VEC3",
      "componentType": 5122,
      "count": 390,
      "max": [
        32767,
        14433,
        20834
      ],
      "min": [
        -32767,
        -16450,
        -23514
      ],
      "normalized": true,
      "byteOffset": 0,
      "bufferView": 7
    },
    {
      "type": "VEC3",
      "componentType": 5122,
      "count": 449,
      "max": [
        30895,
        11809,
        19566
      ],
      "min": [
        -31403,
        -12901,
        -22806
      ],
      "normalized": true,
      "byteOffset": 0,
      "bufferView": 8
    },
    {
      "type": "VEC3",
      "componentType": 5122,
      "count": 104,
      "max": [
        4060,
        16450,
        23514
      ],
      "min": [
        -2948,
        6704,
        18518
      ],
      "normalized": true,
      "byteOffset": 0,
      "bufferView": 9
    },
    {
      "type": "VEC3",
      "componentType": 5122,
      "count": 21443,
      "max": [
        29375,
        15337,
        17070
      ],
      "min": [
        -29527,
        7160,
        -19974
      ],
      "normalized": true,
      "byteOffset": 0,
      "bufferView": 10
    },
    {
      "type": "VEC3",
      "componentType": 5122,
      "count": 500,
      "max": [
        32767,
        10345,
        21750
      ],
      "min": [
        -32767,
        -10345,
        -21750
      ],
      "normalized": true,
      "byteOffset": 0,
      "bufferView": 11
    },
    {
      "type": "VEC3",
      "componentType": 5122,
      "count": 866,
      "max": [
        31275,
        9273,
        19166
      ],
      "min": [
        -31275,
        -8885,
        -19166
      ],
      "normalized": true,
      "byteOffset": 0,
      "bufferView": 12
    }
  ],
  "bufferViews": [
    {
      "buffer": 1,
      "byteOffset": 0,
      "byteLength": 135072,
      "target": 34963,
      "extensions": {
        "EXT_meshopt_compression": {
          "buffer": 0,
          "byteOffset": 0,
          "byteLength": 24814,
          "mode": "TRIANGLES",
          "byteStride": 2,
          "count": 67536
        }
      }
    },
    {
      "buffer": 1,
      "byteOffset": 135072,
      "byteLength": 1560,
      "target": 34962,
      "byteStride": 4,
      "extensions": {
        "EXT_meshopt_compression": {
          "buffer": 0,
          "byteOffset": 24816,
          "byteLength": 492,
          "mode": "ATTRIBUTES",
          "filter": "OCTAHEDRAL",
          "byteStride": 4,
          "count": 390
        }
      }
    },
    {
      "buffer": 1,
      "byteOffset": 136632,
      "byteLength": 1796,
      "target": 34962,
      "byteStride": 4,
      "extensions": {
        "EXT_meshopt_compression": {
          "buffer": 0,
          "byteOffset": 25308,
          "byteLength": 523,
          "mode": "ATTRIBUTES",
          "filter": "OCTAHEDRAL",
          "byteStride": 4,
          "count": 449
        }
      }
    },
    {
      "buffer": 1,
      "byteOffset": 138428,
      "byteLength": 416,
      "target": 34962,
      "byteStride": 4,
      "extensions": {
        "EXT_meshopt_compression": {
          "buffer": 0,
          "byteOffset": 25832,
          "byteLength": 147,
          "mode": "ATTRIBUTES",
          "filter": "OCTAHEDRAL",
          "byteStride": 4,
          "count": 104
        }
      }
    },
    {
      "buffer": 1,
      "byteOffset": 138844,
      "byteLength": 85772,
      "target": 34962,
      "byteStride": 4,
      "extensions": {
        "EXT_meshopt_compression": {
          "buffer": 0,
          "byteOffset": 25980,
          "byteLength": 21455,
          "mode": "ATTRIBUTES",
          "filter": "OCTAHEDRAL",
          "byteStride": 4,
          "count": 21443
        }
      }
    },
    {
      "buffer": 1,
      "byteOffset": 224616,
      "byteLength": 2000,
      "target": 34962,
      "byteStride": 4,
      "extensions": {
        "EXT_meshopt_compression": {
          "buffer": 0,
          "byteOffset": 47436,
          "byteLength": 462,
          "mode": "ATTRIBUTES",
          "filter": "OCTAHEDRAL",
          "byteStride": 4,
          "count": 500
        }
      }
    },
    {
      "buffer": 1,
      "byteOffset": 226616,
      "byteLength": 3464,
      "target": 34962,
      "byteStride": 4,
      "extensions": {
        "EXT_meshopt_compression": {
          "buffer": 0,
          "byteOffset": 47900,
          "byteLength": 743,
          "mode": "ATTRIBUTES",
          "filter": "OCTAHEDRAL",
          "byteStride": 4,
          "count": 866
        }
      }
    },
    {
      "buffer": 1,
      "byteOffset": 230080,
      "byteLength": 3120,
      "target": 34962,
      "byteStride": 8,
      "extensions": {
        "EXT_meshopt_compression": {
          "buffer": 0,
          "byteOffset": 48644,
          "byteLength": 2276,
          "mode": "ATTRIBUTES",
          "byteStride": 8,
          "count": 390
        }
      }
    },
    {
      "buffer": 1,
      "byteOffset": 233200,
      "byteLength": 3592,
      "target": 34962,
      "byteStride": 8,
      "extensions": {
        "EXT_meshopt_compression": {
          "buffer": 0,
          "byteOffset": 50920,
          "byteLength": 2297,
          "mode": "ATTRIBUTES",
          "byteStride": 8,
          "count": 449
        }
      }
    },
    {
      "buffer": 1,
      "byteOffset": 236792,
      "byteLength": 832,
      "target": 34962,
      "byteStride": 8,
      "extensions": {
        "EXT_meshopt_compression": {
          "buffer": 0,
          "byteOffset": 53220,
          "byteLength": 549,
          "mode": "ATTRIBUTES",
          "byteStride": 8,
          "count": 104
        }
      }
    },
    {
      "buffer": 1,
      "byteOffset": 237624,
      "byteLength": 171544,
      "target": 34962,
      "byteStride": 8,
      "extensions": {
        "EXT_meshopt_compression": {
          "buffer": 0,
          "byteOffset": 53772,
          "byteLength": 87181,
          "mode": "ATTRIBUTES",
          "byteStride": 8,
          "count": 21443
        }
      }
    },
    {
      "buffer": 1,
      "byteOffset": 409168,
      "byteLength": 4000,
      "target": 34962,
      "byteStride": 8,
      "extensions": {
        "EXT_meshopt_compression": {
          "buffer": 0,
          "byteOffset": 140956,
          "byteLength": 2604,
          "mode": "ATTRIBUTES",
          "byteStride": 8,
          "count": 500
        }
      }
    },
    {
      "buffer": 1,
      "byteOffset": 413168,
      "byteLength": 6928,
      "target": 34962,
      "byteStride": 8,
      "extensions": {
        "EXT_meshopt_compression": {
          "buffer": 0,
          "byteOffset": 143560,
          "byteLength": 4405,
          "mode": "ATTRIBUTES",
          "byteStride": 8,
          "count": 866
        }
      }
    }
  ],
  "samplers": [
    {
      "wrapS": 10497,
      "wrapT": 10497
    }
  ],
  "textures": [
    {
      "sampler": 0,
      "extensions": {
        "KHR_texture_basisu": {
          "source": 0
        }
      }
    }
  ],
  "images": [
    {
      "mimeType": "image/ktx2",
      "uri": "Bark_Texture.ktx2"
    }
  ],
  "buffers": [
    {
      "uri": "Chest_Gold.bin",
      "byteLength": 147968
    },
    {
      "byteLength": 420096,
      "extensions": {
        "EXT_meshopt_compression": {
          "fallback": true
        }
      }
    }
  ],
  "materials": [
    {
      "name": "DarkWood",
      "doubleSided": true,
      "pbrMetallicRoughness": {
        "baseColorFactor": [
          0.08713703602552414,
          0.05797602981328964,
          0.02801351808011532,
          1
        ],
        "roughnessFactor": 0.690034806728363,
        "metallicFactor": 0,
        "baseColorTexture": {
          "index": 0
        }
      }
    },
    {
      "name": "Wood",
      "doubleSided": true,
      "pbrMetallicRoughness": {
        "baseColorFactor": [
          0.15292437374591827,
          0.10439527034759521,
          0.05163053795695305,
          1
        ],
        "roughnessFactor": 0.690034806728363,
        "metallicFactor": 0,
        "baseColorTexture": {
          "index": 0
        }
      }
    },
    {
      "name": "Metal",
      "doubleSided": true,
      "pbrMetallicRoughness": {
        "baseColorFactor": [
          0.09704122692346573,
          0.10234932601451874,
          0.11927313357591629,
          1
        ],
        "roughnessFactor": 0.690034806728363,
        "metallicFactor": 0
      }
    },
    {
      "name": "Gold",
      "doubleSided": true,
      "pbrMetallicRoughness": {
        "baseColorFactor": [
          0.3672336935997009,
          0.2681660056114197,
          0.11144793778657913,
          1
        ],
        "roughnessFactor": 0.690034806728363,
        "metallicFactor": 0
      }
    }
  ],
  "meshes": [
    {
      "name": "Cube.010",
      "primitives": [
        {
          "attributes": {
            "NORMAL": 1,
            "POSITION": 12
          },
          "mode": 4,
          "material": 0,
          "indices": 0
        },
        {
          "attributes": {
            "NORMAL": 3,
            "POSITION": 13
          },
          "mode": 4,
          "material": 1,
          "indices": 2
        },
        {
          "attributes": {
            "NORMAL": 5,
            "POSITION": 14
          },
          "mode": 4,
          "material": 2,
          "indices": 4
        },
        {
          "attributes": {
            "NORMAL": 7,
            "POSITION": 15
          },
          "mode": 4,
          "material": 3,
          "indices": 6
        }
      ]
    },
    {
      "name": "Cylinder.041",
      "primitives": [
        {
          "attributes": {
            "NORMAL": 9,
            "POSITION": 16
          },
          "mode": 4,
          "material": 0,
          "indices": 8
        },
        {
          "attributes": {
            "NORMAL": 11,
            "POSITION": 17
          },
          "mode": 4,
          "material": 1,
          "indices": 10
        }
      ]
    }
  ],
  "nodes": [
    {
      "name": "Chest_Gold_Base",
      "translation": [
        -0.0028808414936065674,
        0.28543959907256067,
        0.02335527539253235
      ],
      "scale": [
        0.5712790787220001,
        0.5712790787220001,
        0.5712790787220001
      ],
      "mesh": 0
    },
    {
      "name": "Chest_Gold_Top",
      "translation": [
        -2.9802322387695312e-8,
        0.7232059135403297,
        0.0024690963327884674
      ],
      "scale": [
        0.5896589457988739,
        0.5896589457988739,
        0.5896589457988739
      ],
      "mesh": 1
    }
  ],
  "scenes": [
    {
      "name": "Scene",
      "nodes": [
        0,
        1
      ]
    }
  ],
  "scene": 0,
  "extensionsUsed": [
    "EXT_meshopt_compression",
    "KHR_mesh_quantization",
    "KHR_texture_basisu"
  ],
  "extensionsRequired": [
    "EXT_meshopt_compression",
    "KHR_mesh_quantization",
    "KHR_texture_basisu"
  ]
}