{
  "asset": {
    "generator": "glTF-Transform v4.5.0",
    "version": "2.0"
  },
  "accessors": [
    {
      "type": "SCALAR",
      "componentType": 5123,
      "count": 2034,
      "normalized": false,
      "byteOffset": 0,
      "bufferView": 0
    },
    {
      "type": "VEC3",
      "componentType": 5120,
      "count": 1009,
      "normalized": true,
      "byteOffset": 0,
      "bufferView": 1
    },
    {
      "type": "SCALAR",
      "componentType": 5123,
      "count": 36,
      "normalized": false,
      "byteOffset": 4068,
      "bufferView": 0
    },
    {
      "type": "VEC3",
      "componentType": 5120,
      "count": 24,
      "normalized": true,
      "byteOffset": 0,
      "bufferView": 2
    },
    {
      "type": "VEC3",
      "componentType": 5122,
      "count": 1009,
      "max": [
        5392,
        32767,
        5392
      ],
      "min": [
        -5392,
        -32767,
        -5392
      ],
      "normalized": true,
      "byteOffset": 0,
      "bufferView": 3
    },
    {
      "type": "VEC3",
      "componentType": 5122,
      "count": 24,
      "max": [
        3268,
        21242,
        3388
      ],
      "min": [
        -3424,
        -8929,
        -3152
      ],
      "normalized": true,
      "byteOffset": 0,
      "bufferView": 4
    }
  ],
  "bufferViews": [
    {
      "buffer": 1,
      "byteOffset": 0,
      "byteLength": 4140,
      "target": 34963,
      "extensions": {
        "EXT_meshopt_compression": {
          "buffer": 0,
          "byteOffset": 0,
          "byteLength": 715,
          "mode": "TRIANGLES",
          "byteStride": 2,
          "count": 2070
        }
      }
    },
    {
      "buffer": 1,
      "byteOffset": 4140,
      "byteLength": 4036,
      "target": 34962,
      "byteStride": 4,
      "extensions": {
        "EXT_meshopt_compression": {
          "buffer": 0,
          "byteOffset": 716,
          "byteLength": 1111,
          "mode": "ATTRIBUTES",
          "filter": "OCTAHEDRAL",
          "byteStride": 4,
          "count": 1009
        }
      }
    },
    {
      "buffer": 1,
      "byteOffset": 8176,
      "byteLength": 96,
      "target": 34962,
      "byteStride": 4,
      "extensions": {
        "EXT_meshopt_compression": {
          "buffer": 0,
          "byteOffset": 1828,
          "byteLength": 82,
          "mode": "ATTRIBUTES",
          "filter": "OCTAHEDRAL",
          "byteStride": 4,
          "count": 24
        }
      }
    },
    {
      "buffer": 1,
      "byteOffset": 8272,
      "byteLength": 8072,
      "target": 34962,
      "byteStride": 8,
      "extensions": {
        "EXT_meshopt_compression": {
          "buffer": 0,
          "byteOffset": 1912,
          "byteLength": 4667,
          "mode": "ATTRIBUTES",
          "byteStride": 8,
          "count": 1009
        }
      }
    },
    {
      "buffer": 1,
      "byteOffset": 16344,
      "byteLength": 192,
      "target": 34962,
      "byteStride": 8,
      "extensions": {
        "EXT_meshopt_compression": {
          "buffer": 0,
          "byteOffset": 6580,
          "byteLength": 178,
          "mode": "ATTRIBUTES",
          "byteStride": 8,
          "count": 24
        }
      }
    }
  ],
  "buffers": [
    {
      "uri": "Column_Square.bin",
      "byteLength": 6760
    },
    {
      "byteLength": 16536,
      "extensions": {
        "EXT_meshopt_compression": {
          "fallback": true
        }
      }
    }
  ],
  "materials": [
    {
      "name": "Main",
      "doubleSided": true,
      "pbrMetallicRoughness": {
        "baseColorFactor": [
          0.15896087884902954,
          0.16202940046787262,
          0.1247718334197998,
          1
        ],
        "roughnessFactor": 0.690034806728363,
        "metallicFactor": 0
      }
    },
    {
      "name": "Highlights",
      "doubleSided": true,
      "pbrMetallicRoughness": {
        "baseColorFactor": [
          0.289932519197464,
          0.29568690061569214,
          0.22595453262329102,
          1
        ],
        "roughnessFactor": 0.690034806728363,
        "metallicFactor": 0
      }
    }
  ],
  "meshes": [
    {
      "name": "Cylinder.026",
      "primitives": [
        {
          "attributes": {
            "NORMAL": 1,
            "POSITION": 4
          },
          "mode": 4,
          "material": 0,
          "indices": 0
        },
        {
          "attributes": {
            "NORMAL": 3,
            "POSITION": 5
          },
          "mode": 4,
          "material": 1,
          "indices": 2
        }
      ]
    }
  ],
  "nodes": [
    {
      "name": "Column_Square",
      "translation": [
        0,
        1.9949456453323364,
        0
      ],
      "scale": [
        1.9949456453323364,
        1.9949456453323364,
        1.9949456453323364
      ],
      "mesh": 0
    }
  ],
  "scenes": [
    {
      "name": "Scene",
      "nodes": [
        0
      ]
    }
  ],
  "scene": 0,
  "extensionsUsed": [
    "EXT_meshopt_compression",
    "KHR_mesh_quantization"
  ],
  "extensionsRequired": [
    "EXT_meshopt_compression",
    "KHR_mesh_quantization"
  ]
}