{
  "asset": {
    "generator": "glTF-Transform v4.5.0",
    "version": "2.0"
  },
  "accessors": [
    {
      "type": "SCALAR",
      "componentType": 5123,
      "count": 144,
      "normalized": false,
      "byteOffset": 0,
      "bufferView": 0
    },
    {
      "type": "VEC3",
      "componentType": 5120,
      "count": 52,
      "normalized": true,
      "byteOffset": 0,
      "bufferView": 1
    },
    {
      "type": "VEC4",
      "componentType": 5121,
      "count": 52,
      "normalized": true,
      "byteOffset": 0,
      "bufferView": 2
    },
    {
      "type": "VEC3",
      "componentType": 5120,
      "count": 52,
      "normalized": true,
      "byteOffset": 0,
      "bufferView": 3
    },
    {
      "type": "SCALAR",
      "componentType": 5123,
      "count": 1866,
      "normalized": false,
      "byteOffset": 288,
      "bufferView": 0
    },
    {
      "type": "VEC3",
      "componentType": 5120,
      "count": 818,
      "normalized": true,
      "byteOffset": 0,
      "bufferView": 4
    },
    {
      "type": "VEC4",
      "componentType": 5121,
      "count": 818,
      "normalized": true,
      "byteOffset": 0,
      "bufferView": 5
    },
    {
      "type": "SCALAR",
      "componentType": 5123,
      "count": 858,
      "normalized": false,
      "byteOffset": 4020,
      "bufferView": 0
    },
    {
      "type": "VEC3",
      "componentType": 5120,
      "count": 320,
      "normalized": true,
      "byteOffset": 0,
      "bufferView": 6
    },
    {
      "type": "VEC4",
      "componentType": 5121,
      "count": 320,
      "normalized": true,
      "byteOffset": 0,
      "bufferView": 7
    },
    {
      "type": "SCALAR",
      "componentType": 5123,
      "count": 408,
      "normalized": false,
      "byteOffset": 5736,
      "bufferView": 0
    },
    {
      "type": "VEC3",
      "componentType": 5120,
      "count": 256,
      "normalized": true,
      "byteOffset": 0,
      "bufferView": 8
    },
    {
      "type": "VEC4",
      "componentType": 5121,
      "count": 256,
      "normalized": true,
      "byteOffset": 0,
      "bufferView": 9
    },
    {
      "type": "VEC3",
      "componentType": 5120,
      "count": 818,
      "normalized": true,
      "byteOffset": 0,
      "bufferView": 10
    },
    {
      "type": "VEC3",
      "componentType": 5120,
      "count": 320,
      "normalized": true,
      "byteOffset": 0,
      "bufferView": 11
    },
    {
      "type": "VEC3",
      "componentType": 5120,
      "count": 256,
      "normalized": true,
      "byteOffset": 0,
      "bufferView": 12
    },
    {
      "type": "VEC3",
      "componentType": 5122,
      "count": 52,
      "max": [
        9593,
        29127,
        920
      ],
      "min": [
        -9021,
        -27975,
        -920
      ],
      "normalized": true,
      "byteOffset": 0,
      "bufferView": 13
    },
    {
      "type": "VEC2",
      "componentType": 5123,
      "count": 52,
      "normalized": true,
      "byteOffset": 0,
      "bufferView": 14
    },
    {
      "type": "VEC3",
      "componentType": 5122,
      "count": 818,
      "max": [
        11705,
        32767,
        1284
      ],
      "min": [
        -11705,
        -29071,
        -1284
      ],
      "normalized": true,
      "byteOffset": 0,
      "bufferView": 15
    },
    {
      "type": "VEC2",
      "componentType": 5123,
      "count": 818,
      "normalized": true,
      "byteOffset": 0,
      "bufferView": 16
    },
    {
      "type": "VEC3",
      "componentType": 5122,
      "count": 320,
      "max": [
        11705,
        -5476,
        2436
      ],
      "min": [
        -11705,
        -32767,
        -2436
      ],
      "normalized": true,
      "byteOffset": 0,
      "bufferView": 17
    },
    {
      "type": "VEC2",
      "componentType": 5123,
      "count": 320,
      "normalized": true,
      "byteOffset": 0,
      "bufferView": 18
    },
    {
      "type": "VEC3",
      "componentType": 5122,
      "count": 256,
      "max": [
        9257,
        -8253,
        2800
      ],
      "min": [
        -9189,
        -31291,
        -2800
      ],
      "normalized": true,
      "byteOffset": 0,
      "bufferView": 19
    },
    {
      "type": "VEC2",
      "componentType": 5123,
      "count": 256,
      "normalized": true,
      "byteOffset": 0,
      "bufferView": 20
    },
    {
      "type": "VEC3",
      "componentType": 5122,
      "count": 52,
      "max": [
        9021,
        29127,
        920
      ],
      "min": [
        -9593,
        -27975,
        -920
      ],
      "normalized": true,
      "byteOffset": 0,
      "bufferView": 21
    },
    {
      "type": "VEC3",
      "componentType": 5122,
      "count": 818,
      "max": [
        11705,
        32767,
        1284
      ],
      "min": [
        -11705,
        -29071,
        -1284
      ],
      "normalized": true,
      "byteOffset": 0,
      "bufferView": 22
    },
    {
      "type": "VEC3",
      "componentType": 5122,
      "count": 320,
      "max": [
        11705,
        -5476,
        2436
      ],
      "min": [
        -11705,
        -32767,
        -2436
      ],
      "normalized": true,
      "byteOffset": 0,
      "bufferView": 23
    },
    {
      "type": "VEC3",
      "componentType": 5122,
      "count": 256,
      "max": [
        9189,
        -8253,
        2800
      ],
      "min": [
        -9257,
        -31291,
        -2800
      ],
      "normalized": true,
      "byteOffset": 0,
      "bufferView": 24
    }
  ],
  "bufferViews": [
    {
      "buffer": 1,
      "byteOffset": 0,
      "byteLength": 6552,
      "target": 34963,
      "extensions": {
        "EXT_meshopt_compression": {
          "buffer": 0,
          "byteOffset": 0,
          "byteLength": 1136,
          "mode": "TRIANGLES",
          "byteStride": 2,
          "count": 3276
        }
      }
    },
    {
      "buffer": 1,
      "byteOffset": 6552,
      "byteLength": 208,
      "target": 34962,
      "byteStride": 4,
      "extensions": {
        "EXT_meshopt_compression": {
          "buffer": 0,
          "byteOffset": 1136,
          "byteLength": 47,
          "mode": "ATTRIBUTES",
          "filter": "OCTAHEDRAL",
          "byteStride": 4,
          "count": 52
        }
      }
    },
    {
      "buffer": 1,
      "byteOffset": 6760,
      "byteLength": 208,
      "target": 34962,
      "byteStride": 4,
      "extensions": {
        "EXT_meshopt_compression": {
          "buffer": 0,
          "byteOffset": 1184,
          "byteLength": 37,
          "mode": "ATTRIBUTES",
          "byteStride": 4,
          "count": 52
        }
      }
    },
    {
      "buffer": 1,
      "byteOffset": 6968,
      "byteLength": 208,
      "target": 34962,
      "byteStride": 4,
      "extensions": {
        "EXT_meshopt_compression": {
          "buffer": 0,
          "byteOffset": 1224,
          "byteLength": 47,
          "mode": "ATTRIBUTES",
          "filter": "OCTAHEDRAL",
          "byteStride": 4,
          "count": 52
        }
      }
    },
    {
      "buffer": 1,
      "byteOffset": 7176,
      "byteLength": 3272,
      "target": 34962,
      "byteStride": 4,
      "extensions": {
        "EXT_meshopt_compression": {
          "buffer": 0,
          "byteOffset": 1272,
          "byteLength": 858,
          "mode": "ATTRIBUTES",
          "filter": "OCTAHEDRAL",
          "byteStride": 4,
          "count": 818
        }
      }
    },
    {
      "buffer": 1,
      "byteOffset": 10448,
      "byteLength": 3272,
      "target": 34962,
      "byteStride": 4,
      "extensions": {
        "EXT_meshopt_compression": {
          "buffer": 0,
          "byteOffset": 2132,
          "byteLength": 85,
          "mode": "ATTRIBUTES",
          "byteStride": 4,
          "count": 818
        }
      }
    },
    {
      "buffer": 1,
      "byteOffset": 13720,
      "byteLength": 1280,
      "target": 34962,
      "byteStride": 4,
      "extensions": {
        "EXT_meshopt_compression": {
          "buffer": 0,
          "byteOffset": 2220,
          "byteLength": 466,
          "mode": "ATTRIBUTES",
          "filter": "OCTAHEDRAL",
          "byteStride": 4,
          "count": 320
        }
      }
    },
    {
      "buffer": 1,
      "byteOffset": 15000,
      "byteLength": 1280,
      "target": 34962,
      "byteStride": 4,
      "extensions": {
        "EXT_meshopt_compression": {
          "buffer": 0,
          "byteOffset": 2688,
          "byteLength": 53,
          "mode": "ATTRIBUTES",
          "byteStride": 4,
          "count": 320
        }
      }
    },
    {
      "buffer": 1,
      "byteOffset": 16280,
      "byteLength": 1024,
      "target": 34962,
      "byteStride": 4,
      "extensions": {
        "EXT_meshopt_compression": {
          "buffer": 0,
          "byteOffset": 2744,
          "byteLength": 269,
          "mode": "ATTRIBUTES",
          "filter": "OCTAHEDRAL",
          "byteStride": 4,
          "count": 256
        }
      }
    },
    {
      "buffer": 1,
      "byteOffset": 17304,
      "byteLength": 1024,
      "target": 34962,
      "byteStride": 4,
      "extensions": {
        "EXT_meshopt_compression": {
          "buffer": 0,
          "byteOffset": 3016,
          "byteLength": 49,
          "mode": "ATTRIBUTES",
          "byteStride": 4,
          "count": 256
        }
      }
    },
    {
      "buffer": 1,
      "byteOffset": 18328,
      "byteLength": 3272,
      "target": 34962,
      "byteStride": 4,
      "extensions": {
        "EXT_meshopt_compression": {
          "buffer": 0,
          "byteOffset": 3068,
          "byteLength": 863,
          "mode": "ATTRIBUTES",
          "filter": "OCTAHEDRAL",
          "byteStride": 4,
          "count": 818
        }
      }
    },
    {
      "buffer": 1,
      "byteOffset": 21600,
      "byteLength": 1280,
      "target": 34962,
      "byteStride": 4,
      "extensions": {
        "EXT_meshopt_compression": {
          "buffer": 0,
          "byteOffset": 3932,
          "byteLength": 466,
          "mode": "ATTRIBUTES",
          "filter": "OCTAHEDRAL",
          "byteStride": 4,
          "count": 320
        }
      }
    },
    {
      "buffer": 1,
      "byteOffset": 22880,
      "byteLength": 1024,
      "target": 34962,
      "byteStride": 4,
      "extensions": {
        "EXT_meshopt_compression": {
          "buffer": 0,
          "byteOffset": 4400,
          "byteLength": 268,
          "mode": "ATTRIBUTES",
          "filter": "OCTAHEDRAL",
          "byteStride": 4,
          "count": 256
        }
      }
    },
    {
      "buffer": 1,
      "byteOffset": 23904,
      "byteLength": 416,
      "target": 34962,
      "byteStride": 8,
      "extensions": {
        "EXT_meshopt_compression": {
          "buffer": 0,
          "byteOffset": 4668,
          "byteLength": 262,
          "mode": "ATTRIBUTES",
          "byteStride": 8,
          "count": 52
        }
      }
    },
    {
      "buffer": 1,
      "byteOffset": 24320,
      "byteLength": 208,
      "target": 34962,
      "byteStride": 4,
      "extensions": {
        "EXT_meshopt_compression": {
          "buffer": 0,
          "byteOffset": 4932,
          "byteLength": 37,
          "mode": "ATTRIBUTES",
          "byteStride": 4,
          "count": 52
        }
      }
    },
    {
      "buffer": 1,
      "byteOffset": 24528,
      "byteLength": 6544,
      "target": 34962,
      "byteStride": 8,
      "extensions": {
        "EXT_meshopt_compression": {
          "buffer": 0,
          "byteOffset": 4972,
          "byteLength": 3689,
          "mode": "ATTRIBUTES",
          "byteStride": 8,
          "count": 818
        }
      }
    },
    {
      "buffer": 1,
      "byteOffset": 31072,
      "byteLength": 3272,
      "target": 34962,
      "byteStride": 4,
      "extensions": {
        "EXT_meshopt_compression": {
          "buffer": 0,
          "byteOffset": 8664,
          "byteLength": 85,
          "mode": "ATTRIBUTES",
          "byteStride": 4,
          "count": 818
        }
      }
    },
    {
      "buffer": 1,
      "byteOffset": 34344,
      "byteLength": 2560,
      "target": 34962,
      "byteStride": 8,
      "extensions": {
        "EXT_meshopt_compression": {
          "buffer": 0,
          "byteOffset": 8752,
          "byteLength": 1504,
          "mode": "ATTRIBUTES",
          "byteStride": 8,
          "count": 320
        }
      }
    },
    {
      "buffer": 1,
      "byteOffset": 36904,
      "byteLength": 1280,
      "target": 34962,
      "byteStride": 4,
      "extensions": {
        "EXT_meshopt_compression": {
          "buffer": 0,
          "byteOffset": 10256,
          "byteLength": 53,
          "mode": "ATTRIBUTES",
          "byteStride": 4,
          "count": 320
        }
      }
    },
    {
      "buffer": 1,
      "byteOffset": 38184,
      "byteLength": 2048,
      "target": 34962,
      "byteStride": 8,
      "extensions": {
        "EXT_meshopt_compression": {
          "buffer": 0,
          "byteOffset": 10312,
          "byteLength": 1100,
          "mode": "ATTRIBUTES",
          "byteStride": 8,
          "count": 256
        }
      }
    },
    {
      "buffer": 1,
      "byteOffset": 40232,
      "byteLength": 1024,
      "target": 34962,
      "byteStride": 4,
      "extensions": {
        "EXT_meshopt_compression": {
          "buffer": 0,
          "byteOffset": 11412,
          "byteLength": 49,
          "mode": "ATTRIBUTES",
          "byteStride": 4,
          "count": 256
        }
      }
    },
    {
      "buffer": 1,
      "byteOffset": 41256,
      "byteLength": 416,
      "target": 34962,
      "byteStride": 8,
      "extensions": {
        "EXT_meshopt_compression": {
          "buffer": 0,
          "byteOffset": 11464,
          "byteLength": 262,
          "mode": "ATTRIBUTES",
          "byteStride": 8,
          "count": 52
        }
      }
    },
    {
      "buffer": 1,
      "byteOffset": 41672,
      "byteLength": 6544,
      "target": 34962,
      "byteStride": 8,
      "extensions": {
        "EXT_meshopt_compression": {
          "buffer": 0,
          "byteOffset": 11728,
          "byteLength": 3689,
          "mode": "ATTRIBUTES",
          "byteStride": 8,
          "count": 818
        }
      }
    },
    {
      "buffer": 1,
      "byteOffset": 48216,
      "byteLength": 2560,
      "target": 34962,
      "byteStride": 8,
      "extensions": {
        "EXT_meshopt_compression": {
          "buffer": 0,
          "byteOffset": 15420,
          "byteLength": 1504,
          "mode": "ATTRIBUTES",
          "byteStride": 8,
          "count": 320
        }
      }
    },
    {
      "buffer": 1,
      "byteOffset": 50776,
      "byteLength": 2048,
      "target": 34962,
      "byteStride": 8,
      "extensions": {
        "EXT_meshopt_compression": {
          "buffer": 0,
          "byteOffset": 16924,
          "byteLength": 1100,
          "mode": "ATTRIBUTES",
          "byteStride": 8,
          "count": 256
        }
      }
    }
  ],
  "samplers": [
    {
      "wrapS": 10497,
      "wrapT": 10497
    }
  ],
  "textures": [
    {
      "sampler": 0,
      "extensions": {
        "KHR_texture_basisu": {
          "source": 0
        }
      }
    }
  ],
  "images": [
    {
      "mimeType": "image/ktx2",
      "uri": "Bark_Texture.ktx2"
    }
  ],
  "buffers": [
    {
      "uri": "Doors_GothicArch.bin",
      "byteLength": 18024
    },
    {
      "byteLength": 52824,
      "extensions": {
        "EXT_meshopt_compression": {
          "fallback": true
        }
      }
    }
  ],
  "materials": [
    {
      "name": "Wood",
      "doubleSided": true,
      "pbrMetallicRoughness": {
        "baseColorFactor": [
          0.15292437374591827,
          0.10439527034759521,
          0.05163053795695305,
          1
        ],
        "roughnessFactor": 0.690034806728363,
        "metallicFactor": 0,
        "baseColorTexture": {
          "index": 0
        }
      }
    },
    {
      "name": "DarkWood",
      "doubleSided": true,
      "pbrMetallicRoughness": {
        "baseColorFactor": [
          0.08713703602552414,
          0.05797602981328964,
          0.02801351808011532,
          1
        ],
        "roughnessFactor": 0.690034806728363,
        "metallicFactor": 0,
        "baseColorTexture": {
          "index": 0
        }
      }
    },
    {
      "name": "Metal",
      "doubleSided": true,
      "pbrMetallicRoughness": {
        "baseColorFactor": [
          0.09704122692346573,
          0.10234932601451874,
          0.11927313357591629,
          1
        ],
        "roughnessFactor": 0.690034806728363,
        "metallicFactor": 0
      }
    },
    {
      "name": "Metal_Light",
      "doubleSided": true,
      "pbrMetallicRoughness": {
        "baseColorFactor": [
          0.17861980199813843,
          0.18874633312225342,
          0.22110147774219513,
          1
        ],
        "roughnessFactor": 0.690034806728363,
        "metallicFactor": 0
      }
    }
  ],
  "meshes": [
    {
      "name": "Cylinder.001",
      "primitives": [
        {
          "attributes": {
            "NORMAL": 1,
            "COLOR_0": 2,
            "POSITION": 16,
            "TEXCOORD_0": 17,
            "COLOR_1": 2
          },
          "mode": 4,
          "material": 0,
          "indices": 0
        },
        {
          "attributes": {
            "NORMAL": 5,
            "COLOR_0": 6,
            "POSITION": 18,
            "TEXCOORD_0": 19,
            "COLOR_1": 6
          },
          "mode": 4,
          "material": 1,
          "indices": 4
        },
        {
          "attributes": {
            "NORMAL": 8,
            "COLOR_0": 9,
            "POSITION": 20,
            "TEXCOORD_0": 21,
            "COLOR_1": 9
          },
          "mode": 4,
          "material": 2,
          "indices": 7
        },
        {
          "attributes": {
            "NORMAL": 11,
            "COLOR_0": 12,
            "POSITION": 22,
            "TEXCOORD_0": 23,
            "COLOR_1": 12
          },
          "mode": 4,
          "material": 3,
          "indices": 10
        }
      ]
    },
    {
      "name": "Cylinder.049",
      "primitives": [
        {
          "attributes": {
            "NORMAL": 3,
            "POSITION": 24,
            "COLOR_0": 2,
            "TEXCOORD_0": 17,
            "COLOR_1": 2
          },
          "mode": 4,
          "material": 0,
          "indices": 0
        },
        {
          "attributes": {
            "NORMAL": 13,
            "POSITION": 25,
            "COLOR_0": 6,
            "TEXCOORD_0": 19,
            "COLOR_1": 6
          },
          "mode": 4,
          "material": 1,
          "indices": 4
        },
        {
          "attributes": {
            "NORMAL": 14,
            "POSITION": 26,
            "COLOR_0": 9,
            "TEXCOORD_0": 21,
            "COLOR_1": 9
          },
          "mode": 4,
          "material": 2,
          "indices": 7
        },
        {
          "attributes": {
            "NORMAL": 15,
            "POSITION": 27,
            "COLOR_0": 12,
            "TEXCOORD_0": 23,
            "COLOR_1": 12
          },
          "mode": 4,
          "material": 3,
          "indices": 10
        }
      ]
    }
  ],
  "nodes": [
    {
      "name": "Doors_GothicArch_L",
      "translation": [
        -0.5832328796386719,
        1.598800778388977,
        0
      ],
      "scale": [
        1.6048060655593872,
        1.6048060655593872,
        1.6048060655593872
      ],
      "mesh": 0
    },
    {
      "name": "Doors_GothicArch_R",
      "translation": [
        0.5832328945398331,
        1.598800778388977,
        2.3096799850463867e-7
      ],
      "scale": [
        1.6048060655593872,
        1.6048060655593872,
        1.6048060655593872
      ],
      "mesh": 1
    }
  ],
  "scenes": [
    {
      "name": "Scene",
      "nodes": [
        0,
        1
      ]
    }
  ],
  "scene": 0,
  "extensionsUsed": [
    "EXT_meshopt_compression",
    "KHR_mesh_quantization",
    "KHR_texture_basisu"
  ],
  "extensionsRequired": [
    "EXT_meshopt_compression",
    "KHR_mesh_quantization",
    "KHR_texture_basisu"
  ]
}