{
  "asset": {
    "generator": "glTF-Transform v4.5.0",
    "version": "2.0"
  },
  "accessors": [
    {
      "type": "SCALAR",
      "componentType": 5123,
      "count": 1824,
      "normalized": false,
      "byteOffset": 0,
      "bufferView": 0
    },
    {
      "type": "VEC3",
      "componentType": 5120,
      "count": 680,
      "normalized": true,
      "byteOffset": 0,
      "bufferView": 1
    },
    {
      "type": "VEC4",
      "componentType": 5121,
      "count": 680,
      "normalized": true,
      "byteOffset": 0,
      "bufferView": 2
    },
    {
      "type": "SCALAR",
      "componentType": 5123,
      "count": 3732,
      "normalized": false,
      "byteOffset": 3648,
      "bufferView": 0
    },
    {
      "type": "VEC3",
      "componentType": 5120,
      "count": 1644,
      "normalized": true,
      "byteOffset": 0,
      "bufferView": 3
    },
    {
      "type": "VEC4",
      "componentType": 5121,
      "count": 1644,
      "normalized": true,
      "byteOffset": 0,
      "bufferView": 4
    },
    {
      "type": "SCALAR",
      "componentType": 5123,
      "count": 252,
      "normalized": false,
      "byteOffset": 11112,
      "bufferView": 0
    },
    {
      "type": "VEC3",
      "componentType": 5120,
      "count": 112,
      "normalized": true,
      "byteOffset": 0,
      "bufferView": 5
    },
    {
      "type": "VEC4",
      "componentType": 5121,
      "count": 112,
      "normalized": true,
      "byteOffset": 0,
      "bufferView": 6
    },
    {
      "type": "SCALAR",
      "componentType": 5123,
      "count": 480,
      "normalized": false,
      "byteOffset": 11616,
      "bufferView": 0
    },
    {
      "type": "VEC3",
      "componentType": 5120,
      "count": 320,
      "normalized": true,
      "byteOffset": 0,
      "bufferView": 7
    },
    {
      "type": "VEC4",
      "componentType": 5121,
      "count": 320,
      "normalized": true,
      "byteOffset": 0,
      "bufferView": 8
    },
    {
      "type": "VEC3",
      "componentType": 5122,
      "count": 680,
      "max": [
        27839,
        28951,
        3076
      ],
      "min": [
        -27839,
        -27587,
        -3076
      ],
      "normalized": true,
      "byteOffset": 0,
      "bufferView": 9
    },
    {
      "type": "VEC2",
      "componentType": 5123,
      "count": 680,
      "normalized": true,
      "byteOffset": 0,
      "bufferView": 10
    },
    {
      "type": "VEC3",
      "componentType": 5122,
      "count": 1644,
      "max": [
        25659,
        32767,
        1388
      ],
      "min": [
        -25387,
        -28775,
        -1388
      ],
      "normalized": true,
      "byteOffset": 0,
      "bufferView": 11
    },
    {
      "type": "VEC2",
      "componentType": 5123,
      "count": 1644,
      "normalized": true,
      "byteOffset": 0,
      "bufferView": 12
    },
    {
      "type": "VEC3",
      "componentType": 5122,
      "count": 112,
      "max": [
        25659,
        -27587,
        1664
      ],
      "min": [
        -25387,
        -32767,
        -1664
      ],
      "normalized": true,
      "byteOffset": 0,
      "bufferView": 13
    },
    {
      "type": "VEC2",
      "componentType": 5123,
      "count": 112,
      "normalized": true,
      "byteOffset": 0,
      "bufferView": 14
    },
    {
      "type": "VEC3",
      "componentType": 5122,
      "count": 320,
      "max": [
        22942,
        -29423,
        1800
      ],
      "min": [
        -22666,
        -31311,
        -1800
      ],
      "normalized": true,
      "byteOffset": 0,
      "bufferView": 15
    },
    {
      "type": "VEC2",
      "componentType": 5123,
      "count": 320,
      "normalized": true,
      "byteOffset": 0,
      "bufferView": 16
    }
  ],
  "bufferViews": [
    {
      "buffer": 1,
      "byteOffset": 0,
      "byteLength": 12576,
      "target": 34963,
      "extensions": {
        "EXT_meshopt_compression": {
          "buffer": 0,
          "byteOffset": 0,
          "byteLength": 2145,
          "mode": "TRIANGLES",
          "byteStride": 2,
          "count": 6288
        }
      }
    },
    {
      "buffer": 1,
      "byteOffset": 12576,
      "byteLength": 2720,
      "target": 34962,
      "byteStride": 4,
      "extensions": {
        "EXT_meshopt_compression": {
          "buffer": 0,
          "byteOffset": 2148,
          "byteLength": 563,
          "mode": "ATTRIBUTES",
          "filter": "OCTAHEDRAL",
          "byteStride": 4,
          "count": 680
        }
      }
    },
    {
      "buffer": 1,
      "byteOffset": 15296,
      "byteLength": 2720,
      "target": 34962,
      "byteStride": 4,
      "extensions": {
        "EXT_meshopt_compression": {
          "buffer": 0,
          "byteOffset": 2712,
          "byteLength": 77,
          "mode": "ATTRIBUTES",
          "byteStride": 4,
          "count": 680
        }
      }
    },
    {
      "buffer": 1,
      "byteOffset": 18016,
      "byteLength": 6576,
      "target": 34962,
      "byteStride": 4,
      "extensions": {
        "EXT_meshopt_compression": {
          "buffer": 0,
          "byteOffset": 2792,
          "byteLength": 1706,
          "mode": "ATTRIBUTES",
          "filter": "OCTAHEDRAL",
          "byteStride": 4,
          "count": 1644
        }
      }
    },
    {
      "buffer": 1,
      "byteOffset": 24592,
      "byteLength": 6576,
      "target": 34962,
      "byteStride": 4,
      "extensions": {
        "EXT_meshopt_compression": {
          "buffer": 0,
          "byteOffset": 4500,
          "byteLength": 137,
          "mode": "ATTRIBUTES",
          "byteStride": 4,
          "count": 1644
        }
      }
    },
    {
      "buffer": 1,
      "byteOffset": 31168,
      "byteLength": 448,
      "target": 34962,
      "byteStride": 4,
      "extensions": {
        "EXT_meshopt_compression": {
          "buffer": 0,
          "byteOffset": 4640,
          "byteLength": 126,
          "mode": "ATTRIBUTES",
          "filter": "OCTAHEDRAL",
          "byteStride": 4,
          "count": 112
        }
      }
    },
    {
      "buffer": 1,
      "byteOffset": 31616,
      "byteLength": 448,
      "target": 34962,
      "byteStride": 4,
      "extensions": {
        "EXT_meshopt_compression": {
          "buffer": 0,
          "byteOffset": 4768,
          "byteLength": 41,
          "mode": "ATTRIBUTES",
          "byteStride": 4,
          "count": 112
        }
      }
    },
    {
      "buffer": 1,
      "byteOffset": 32064,
      "byteLength": 1280,
      "target": 34962,
      "byteStride": 4,
      "extensions": {
        "EXT_meshopt_compression": {
          "buffer": 0,
          "byteOffset": 4812,
          "byteLength": 339,
          "mode": "ATTRIBUTES",
          "filter": "OCTAHEDRAL",
          "byteStride": 4,
          "count": 320
        }
      }
    },
    {
      "buffer": 1,
      "byteOffset": 33344,
      "byteLength": 1280,
      "target": 34962,
      "byteStride": 4,
      "extensions": {
        "EXT_meshopt_compression": {
          "buffer": 0,
          "byteOffset": 5152,
          "byteLength": 53,
          "mode": "ATTRIBUTES",
          "byteStride": 4,
          "count": 320
        }
      }
    },
    {
      "buffer": 1,
      "byteOffset": 34624,
      "byteLength": 5440,
      "target": 34962,
      "byteStride": 8,
      "extensions": {
        "EXT_meshopt_compression": {
          "buffer": 0,
          "byteOffset": 5208,
          "byteLength": 3147,
          "mode": "ATTRIBUTES",
          "byteStride": 8,
          "count": 680
        }
      }
    },
    {
      "buffer": 1,
      "byteOffset": 40064,
      "byteLength": 2720,
      "target": 34962,
      "byteStride": 4,
      "extensions": {
        "EXT_meshopt_compression": {
          "buffer": 0,
          "byteOffset": 8356,
          "byteLength": 77,
          "mode": "ATTRIBUTES",
          "byteStride": 4,
          "count": 680
        }
      }
    },
    {
      "buffer": 1,
      "byteOffset": 42784,
      "byteLength": 13152,
      "target": 34962,
      "byteStride": 8,
      "extensions": {
        "EXT_meshopt_compression": {
          "buffer": 0,
          "byteOffset": 8436,
          "byteLength": 7395,
          "mode": "ATTRIBUTES",
          "byteStride": 8,
          "count": 1644
        }
      }
    },
    {
      "buffer": 1,
      "byteOffset": 55936,
      "byteLength": 6576,
      "target": 34962,
      "byteStride": 4,
      "extensions": {
        "EXT_meshopt_compression": {
          "buffer": 0,
          "byteOffset": 15832,
          "byteLength": 137,
          "mode": "ATTRIBUTES",
          "byteStride": 4,
          "count": 1644
        }
      }
    },
    {
      "buffer": 1,
      "byteOffset": 62512,
      "byteLength": 896,
      "target": 34962,
      "byteStride": 8,
      "extensions": {
        "EXT_meshopt_compression": {
          "buffer": 0,
          "byteOffset": 15972,
          "byteLength": 510,
          "mode": "ATTRIBUTES",
          "byteStride": 8,
          "count": 112
        }
      }
    },
    {
      "buffer": 1,
      "byteOffset": 63408,
      "byteLength": 448,
      "target": 34962,
      "byteStride": 4,
      "extensions": {
        "EXT_meshopt_compression": {
          "buffer": 0,
          "byteOffset": 16484,
          "byteLength": 41,
          "mode": "ATTRIBUTES",
          "byteStride": 4,
          "count": 112
        }
      }
    },
    {
      "buffer": 1,
      "byteOffset": 63856,
      "byteLength": 2560,
      "target": 34962,
      "byteStride": 8,
      "extensions": {
        "EXT_meshopt_compression": {
          "buffer": 0,
          "byteOffset": 16528,
          "byteLength": 1420,
          "mode": "ATTRIBUTES",
          "byteStride": 8,
          "count": 320
        }
      }
    },
    {
      "buffer": 1,
      "byteOffset": 66416,
      "byteLength": 1280,
      "target": 34962,
      "byteStride": 4,
      "extensions": {
        "EXT_meshopt_compression": {
          "buffer": 0,
          "byteOffset": 17948,
          "byteLength": 53,
          "mode": "ATTRIBUTES",
          "byteStride": 4,
          "count": 320
        }
      }
    }
  ],
  "samplers": [
    {
      "wrapS": 10497,
      "wrapT": 10497
    }
  ],
  "textures": [
    {
      "sampler": 0,
      "extensions": {
        "KHR_texture_basisu": {
          "source": 0
        }
      }
    }
  ],
  "images": [
    {
      "mimeType": "image/ktx2",
      "uri": "Bark_Texture.ktx2"
    }
  ],
  "buffers": [
    {
      "uri": "Doors_RoundArch_Covered.bin",
      "byteLength": 18004
    },
    {
      "byteLength": 67696,
      "extensions": {
        "EXT_meshopt_compression": {
          "fallback": true
        }
      }
    }
  ],
  "materials": [
    {
      "name": "Wood",
      "doubleSided": true,
      "pbrMetallicRoughness": {
        "baseColorFactor": [
          0.15292437374591827,
          0.10439527034759521,
          0.05163053795695305,
          1
        ],
        "roughnessFactor": 0.690034806728363,
        "metallicFactor": 0,
        "baseColorTexture": {
          "index": 0
        }
      }
    },
    {
      "name": "DarkWood",
      "doubleSided": true,
      "pbrMetallicRoughness": {
        "baseColorFactor": [
          0.08713703602552414,
          0.05797602981328964,
          0.02801351808011532,
          1
        ],
        "roughnessFactor": 0.690034806728363,
        "metallicFactor": 0,
        "baseColorTexture": {
          "index": 0
        }
      }
    },
    {
      "name": "Metal",
      "doubleSided": true,
      "pbrMetallicRoughness": {
        "baseColorFactor": [
          0.09704122692346573,
          0.10234932601451874,
          0.11927313357591629,
          1
        ],
        "roughnessFactor": 0.690034806728363,
        "metallicFactor": 0
      }
    },
    {
      "name": "Metal_Light",
      "doubleSided": true,
      "pbrMetallicRoughness": {
        "baseColorFactor": [
          0.17861980199813843,
          0.18874633312225342,
          0.22110147774219513,
          1
        ],
        "roughnessFactor": 0.690034806728363,
        "metallicFactor": 0
      }
    }
  ],
  "meshes": [
    {
      "name": "Cylinder.031",
      "primitives": [
        {
          "attributes": {
            "NORMAL": 1,
            "COLOR_0": 2,
            "POSITION": 12,
            "TEXCOORD_0": 13,
            "COLOR_1": 2
          },
          "mode": 4,
          "material": 0,
          "indices": 0
        },
        {
          "attributes": {
            "NORMAL": 4,
            "COLOR_0": 5,
            "POSITION": 14,
            "TEXCOORD_0": 15,
            "COLOR_1": 5
          },
          "mode": 4,
          "material": 1,
          "indices": 3
        },
        {
          "attributes": {
            "NORMAL": 7,
            "COLOR_0": 8,
            "POSITION": 16,
            "TEXCOORD_0": 17,
            "COLOR_1": 8
          },
          "mode": 4,
          "material": 2,
          "indices": 6
        },
        {
          "attributes": {
            "NORMAL": 10,
            "COLOR_0": 11,
            "POSITION": 18,
            "TEXCOORD_0": 19,
            "COLOR_1": 11
          },
          "mode": 4,
          "material": 3,
          "indices": 9
        }
      ]
    }
  ],
  "nodes": [
    {
      "name": "Doors_RoundArch_Covered",
      "translation": [
        -0.006213247776031494,
        1.478683590888977,
        0
      ],
      "scale": [
        1.4846888780593872,
        1.4846888780593872,
        1.4846888780593872
      ],
      "mesh": 0
    }
  ],
  "scenes": [
    {
      "name": "Scene",
      "nodes": [
        0
      ]
    }
  ],
  "scene": 0,
  "extensionsUsed": [
    "EXT_meshopt_compression",
    "KHR_mesh_quantization",
    "KHR_texture_basisu"
  ],
  "extensionsRequired": [
    "EXT_meshopt_compression",
    "KHR_mesh_quantization",
    "KHR_texture_basisu"
  ]
}