{
  "asset": {
    "generator": "glTF-Transform v4.5.0",
    "version": "2.0"
  },
  "accessors": [
    {
      "type": "SCALAR",
      "componentType": 5123,
      "count": 144,
      "normalized": false,
      "byteOffset": 0,
      "bufferView": 0
    },
    {
      "type": "VEC3",
      "componentType": 5120,
      "count": 52,
      "normalized": true,
      "byteOffset": 0,
      "bufferView": 1
    },
    {
      "type": "VEC4",
      "componentType": 5121,
      "count": 52,
      "normalized": true,
      "byteOffset": 0,
      "bufferView": 2
    },
    {
      "type": "VEC3",
      "componentType": 5120,
      "count": 52,
      "normalized": true,
      "byteOffset": 0,
      "bufferView": 3
    },
    {
      "type": "SCALAR",
      "componentType": 5123,
      "count": 1866,
      "normalized": false,
      "byteOffset": 288,
      "bufferView": 0
    },
    {
      "type": "VEC3",
      "componentType": 5120,
      "count": 777,
      "normalized": true,
      "byteOffset": 0,
      "bufferView": 4
    },
    {
      "type": "VEC4",
      "componentType": 5121,
      "count": 777,
      "normalized": true,
      "byteOffset": 0,
      "bufferView": 5
    },
    {
      "type": "SCALAR",
      "componentType": 5123,
      "count": 858,
      "normalized": false,
      "byteOffset": 4020,
      "bufferView": 0
    },
    {
      "type": "VEC3",
      "componentType": 5120,
      "count": 320,
      "normalized": true,
      "byteOffset": 0,
      "bufferView": 6
    },
    {
      "type": "VEC4",
      "componentType": 5121,
      "count": 320,
      "normalized": true,
      "byteOffset": 0,
      "bufferView": 7
    },
    {
      "type": "SCALAR",
      "componentType": 5123,
      "count": 408,
      "normalized": false,
      "byteOffset": 5736,
      "bufferView": 0
    },
    {
      "type": "VEC3",
      "componentType": 5120,
      "count": 256,
      "normalized": true,
      "byteOffset": 0,
      "bufferView": 8
    },
    {
      "type": "VEC4",
      "componentType": 5121,
      "count": 256,
      "normalized": true,
      "byteOffset": 0,
      "bufferView": 9
    },
    {
      "type": "VEC3",
      "componentType": 5120,
      "count": 777,
      "normalized": true,
      "byteOffset": 0,
      "bufferView": 10
    },
    {
      "type": "VEC3",
      "componentType": 5120,
      "count": 320,
      "normalized": true,
      "byteOffset": 0,
      "bufferView": 11
    },
    {
      "type": "VEC3",
      "componentType": 5120,
      "count": 256,
      "normalized": true,
      "byteOffset": 0,
      "bufferView": 12
    },
    {
      "type": "VEC3",
      "componentType": 5122,
      "count": 52,
      "max": [
        10373,
        28951,
        996
      ],
      "min": [
        -9749,
        -27587,
        -996
      ],
      "normalized": true,
      "byteOffset": 0,
      "bufferView": 13
    },
    {
      "type": "VEC2",
      "componentType": 5123,
      "count": 52,
      "normalized": true,
      "byteOffset": 0,
      "bufferView": 14
    },
    {
      "type": "VEC3",
      "componentType": 5122,
      "count": 777,
      "max": [
        12649,
        32767,
        1388
      ],
      "min": [
        -12649,
        -28775,
        -1388
      ],
      "normalized": true,
      "byteOffset": 0,
      "bufferView": 15
    },
    {
      "type": "VEC2",
      "componentType": 5123,
      "count": 777,
      "normalized": true,
      "byteOffset": 0,
      "bufferView": 16
    },
    {
      "type": "VEC3",
      "componentType": 5122,
      "count": 320,
      "max": [
        12649,
        -3268,
        2632
      ],
      "min": [
        -12649,
        -32767,
        -2632
      ],
      "normalized": true,
      "byteOffset": 0,
      "bufferView": 17
    },
    {
      "type": "VEC2",
      "componentType": 5123,
      "count": 320,
      "normalized": true,
      "byteOffset": 0,
      "bufferView": 18
    },
    {
      "type": "VEC3",
      "componentType": 5122,
      "count": 256,
      "max": [
        10005,
        -6272,
        3028
      ],
      "min": [
        -9933,
        -31311,
        -3028
      ],
      "normalized": true,
      "byteOffset": 0,
      "bufferView": 19
    },
    {
      "type": "VEC2",
      "componentType": 5123,
      "count": 256,
      "normalized": true,
      "byteOffset": 0,
      "bufferView": 20
    },
    {
      "type": "VEC3",
      "componentType": 5122,
      "count": 52,
      "max": [
        9749,
        28951,
        996
      ],
      "min": [
        -10373,
        -27587,
        -996
      ],
      "normalized": true,
      "byteOffset": 0,
      "bufferView": 21
    },
    {
      "type": "VEC3",
      "componentType": 5122,
      "count": 777,
      "max": [
        12649,
        32767,
        1388
      ],
      "min": [
        -12649,
        -28775,
        -1388
      ],
      "normalized": true,
      "byteOffset": 0,
      "bufferView": 22
    },
    {
      "type": "VEC3",
      "componentType": 5122,
      "count": 320,
      "max": [
        12649,
        -3268,
        2632
      ],
      "min": [
        -12649,
        -32767,
        -2632
      ],
      "normalized": true,
      "byteOffset": 0,
      "bufferView": 23
    },
    {
      "type": "VEC3",
      "componentType": 5122,
      "count": 256,
      "max": [
        9933,
        -6272,
        3028
      ],
      "min": [
        -10005,
        -31311,
        -3028
      ],
      "normalized": true,
      "byteOffset": 0,
      "bufferView": 24
    }
  ],
  "bufferViews": [
    {
      "buffer": 1,
      "byteOffset": 0,
      "byteLength": 6552,
      "target": 34963,
      "extensions": {
        "EXT_meshopt_compression": {
          "buffer": 0,
          "byteOffset": 0,
          "byteLength": 1139,
          "mode": "TRIANGLES",
          "byteStride": 2,
          "count": 3276
        }
      }
    },
    {
      "buffer": 1,
      "byteOffset": 6552,
      "byteLength": 208,
      "target": 34962,
      "byteStride": 4,
      "extensions": {
        "EXT_meshopt_compression": {
          "buffer": 0,
          "byteOffset": 1140,
          "byteLength": 47,
          "mode": "ATTRIBUTES",
          "filter": "OCTAHEDRAL",
          "byteStride": 4,
          "count": 52
        }
      }
    },
    {
      "buffer": 1,
      "byteOffset": 6760,
      "byteLength": 208,
      "target": 34962,
      "byteStride": 4,
      "extensions": {
        "EXT_meshopt_compression": {
          "buffer": 0,
          "byteOffset": 1188,
          "byteLength": 37,
          "mode": "ATTRIBUTES",
          "byteStride": 4,
          "count": 52
        }
      }
    },
    {
      "buffer": 1,
      "byteOffset": 6968,
      "byteLength": 208,
      "target": 34962,
      "byteStride": 4,
      "extensions": {
        "EXT_meshopt_compression": {
          "buffer": 0,
          "byteOffset": 1228,
          "byteLength": 47,
          "mode": "ATTRIBUTES",
          "filter": "OCTAHEDRAL",
          "byteStride": 4,
          "count": 52
        }
      }
    },
    {
      "buffer": 1,
      "byteOffset": 7176,
      "byteLength": 3108,
      "target": 34962,
      "byteStride": 4,
      "extensions": {
        "EXT_meshopt_compression": {
          "buffer": 0,
          "byteOffset": 1276,
          "byteLength": 812,
          "mode": "ATTRIBUTES",
          "filter": "OCTAHEDRAL",
          "byteStride": 4,
          "count": 777
        }
      }
    },
    {
      "buffer": 1,
      "byteOffset": 10284,
      "byteLength": 3108,
      "target": 34962,
      "byteStride": 4,
      "extensions": {
        "EXT_meshopt_compression": {
          "buffer": 0,
          "byteOffset": 2088,
          "byteLength": 85,
          "mode": "ATTRIBUTES",
          "byteStride": 4,
          "count": 777
        }
      }
    },
    {
      "buffer": 1,
      "byteOffset": 13392,
      "byteLength": 1280,
      "target": 34962,
      "byteStride": 4,
      "extensions": {
        "EXT_meshopt_compression": {
          "buffer": 0,
          "byteOffset": 2176,
          "byteLength": 466,
          "mode": "ATTRIBUTES",
          "filter": "OCTAHEDRAL",
          "byteStride": 4,
          "count": 320
        }
      }
    },
    {
      "buffer": 1,
      "byteOffset": 14672,
      "byteLength": 1280,
      "target": 34962,
      "byteStride": 4,
      "extensions": {
        "EXT_meshopt_compression": {
          "buffer": 0,
          "byteOffset": 2644,
          "byteLength": 53,
          "mode": "ATTRIBUTES",
          "byteStride": 4,
          "count": 320
        }
      }
    },
    {
      "buffer": 1,
      "byteOffset": 15952,
      "byteLength": 1024,
      "target": 34962,
      "byteStride": 4,
      "extensions": {
        "EXT_meshopt_compression": {
          "buffer": 0,
          "byteOffset": 2700,
          "byteLength": 269,
          "mode": "ATTRIBUTES",
          "filter": "OCTAHEDRAL",
          "byteStride": 4,
          "count": 256
        }
      }
    },
    {
      "buffer": 1,
      "byteOffset": 16976,
      "byteLength": 1024,
      "target": 34962,
      "byteStride": 4,
      "extensions": {
        "EXT_meshopt_compression": {
          "buffer": 0,
          "byteOffset": 2972,
          "byteLength": 49,
          "mode": "ATTRIBUTES",
          "byteStride": 4,
          "count": 256
        }
      }
    },
    {
      "buffer": 1,
      "byteOffset": 18000,
      "byteLength": 3108,
      "target": 34962,
      "byteStride": 4,
      "extensions": {
        "EXT_meshopt_compression": {
          "buffer": 0,
          "byteOffset": 3024,
          "byteLength": 813,
          "mode": "ATTRIBUTES",
          "filter": "OCTAHEDRAL",
          "byteStride": 4,
          "count": 777
        }
      }
    },
    {
      "buffer": 1,
      "byteOffset": 21108,
      "byteLength": 1280,
      "target": 34962,
      "byteStride": 4,
      "extensions": {
        "EXT_meshopt_compression": {
          "buffer": 0,
          "byteOffset": 3840,
          "byteLength": 466,
          "mode": "ATTRIBUTES",
          "filter": "OCTAHEDRAL",
          "byteStride": 4,
          "count": 320
        }
      }
    },
    {
      "buffer": 1,
      "byteOffset": 22388,
      "byteLength": 1024,
      "target": 34962,
      "byteStride": 4,
      "extensions": {
        "EXT_meshopt_compression": {
          "buffer": 0,
          "byteOffset": 4308,
          "byteLength": 268,
          "mode": "ATTRIBUTES",
          "filter": "OCTAHEDRAL",
          "byteStride": 4,
          "count": 256
        }
      }
    },
    {
      "buffer": 1,
      "byteOffset": 23412,
      "byteLength": 416,
      "target": 34962,
      "byteStride": 8,
      "extensions": {
        "EXT_meshopt_compression": {
          "buffer": 0,
          "byteOffset": 4576,
          "byteLength": 251,
          "mode": "ATTRIBUTES",
          "byteStride": 8,
          "count": 52
        }
      }
    },
    {
      "buffer": 1,
      "byteOffset": 23828,
      "byteLength": 208,
      "target": 34962,
      "byteStride": 4,
      "extensions": {
        "EXT_meshopt_compression": {
          "buffer": 0,
          "byteOffset": 4828,
          "byteLength": 37,
          "mode": "ATTRIBUTES",
          "byteStride": 4,
          "count": 52
        }
      }
    },
    {
      "buffer": 1,
      "byteOffset": 24036,
      "byteLength": 6216,
      "target": 34962,
      "byteStride": 8,
      "extensions": {
        "EXT_meshopt_compression": {
          "buffer": 0,
          "byteOffset": 4868,
          "byteLength": 3554,
          "mode": "ATTRIBUTES",
          "byteStride": 8,
          "count": 777
        }
      }
    },
    {
      "buffer": 1,
      "byteOffset": 30252,
      "byteLength": 3108,
      "target": 34962,
      "byteStride": 4,
      "extensions": {
        "EXT_meshopt_compression": {
          "buffer": 0,
          "byteOffset": 8424,
          "byteLength": 85,
          "mode": "ATTRIBUTES",
          "byteStride": 4,
          "count": 777
        }
      }
    },
    {
      "buffer": 1,
      "byteOffset": 33360,
      "byteLength": 2560,
      "target": 34962,
      "byteStride": 8,
      "extensions": {
        "EXT_meshopt_compression": {
          "buffer": 0,
          "byteOffset": 8512,
          "byteLength": 1515,
          "mode": "ATTRIBUTES",
          "byteStride": 8,
          "count": 320
        }
      }
    },
    {
      "buffer": 1,
      "byteOffset": 35920,
      "byteLength": 1280,
      "target": 34962,
      "byteStride": 4,
      "extensions": {
        "EXT_meshopt_compression": {
          "buffer": 0,
          "byteOffset": 10028,
          "byteLength": 53,
          "mode": "ATTRIBUTES",
          "byteStride": 4,
          "count": 320
        }
      }
    },
    {
      "buffer": 1,
      "byteOffset": 37200,
      "byteLength": 2048,
      "target": 34962,
      "byteStride": 8,
      "extensions": {
        "EXT_meshopt_compression": {
          "buffer": 0,
          "byteOffset": 10084,
          "byteLength": 1107,
          "mode": "ATTRIBUTES",
          "byteStride": 8,
          "count": 256
        }
      }
    },
    {
      "buffer": 1,
      "byteOffset": 39248,
      "byteLength": 1024,
      "target": 34962,
      "byteStride": 4,
      "extensions": {
        "EXT_meshopt_compression": {
          "buffer": 0,
          "byteOffset": 11192,
          "byteLength": 49,
          "mode": "ATTRIBUTES",
          "byteStride": 4,
          "count": 256
        }
      }
    },
    {
      "buffer": 1,
      "byteOffset": 40272,
      "byteLength": 416,
      "target": 34962,
      "byteStride": 8,
      "extensions": {
        "EXT_meshopt_compression": {
          "buffer": 0,
          "byteOffset": 11244,
          "byteLength": 251,
          "mode": "ATTRIBUTES",
          "byteStride": 8,
          "count": 52
        }
      }
    },
    {
      "buffer": 1,
      "byteOffset": 40688,
      "byteLength": 6216,
      "target": 34962,
      "byteStride": 8,
      "extensions": {
        "EXT_meshopt_compression": {
          "buffer": 0,
          "byteOffset": 11496,
          "byteLength": 3554,
          "mode": "ATTRIBUTES",
          "byteStride": 8,
          "count": 777
        }
      }
    },
    {
      "buffer": 1,
      "byteOffset": 46904,
      "byteLength": 2560,
      "target": 34962,
      "byteStride": 8,
      "extensions": {
        "EXT_meshopt_compression": {
          "buffer": 0,
          "byteOffset": 15052,
          "byteLength": 1515,
          "mode": "ATTRIBUTES",
          "byteStride": 8,
          "count": 320
        }
      }
    },
    {
      "buffer": 1,
      "byteOffset": 49464,
      "byteLength": 2048,
      "target": 34962,
      "byteStride": 8,
      "extensions": {
        "EXT_meshopt_compression": {
          "buffer": 0,
          "byteOffset": 16568,
          "byteLength": 1107,
          "mode": "ATTRIBUTES",
          "byteStride": 8,
          "count": 256
        }
      }
    }
  ],
  "samplers": [
    {
      "wrapS": 10497,
      "wrapT": 10497
    }
  ],
  "textures": [
    {
      "sampler": 0,
      "extensions": {
        "KHR_texture_basisu": {
          "source": 0
        }
      }
    }
  ],
  "images": [
    {
      "mimeType": "image/ktx2",
      "uri": "Bark_Texture.ktx2"
    }
  ],
  "buffers": [
    {
      "uri": "Doors_RoundArch.bin",
      "byteLength": 17676
    },
    {
      "byteLength": 51512,
      "extensions": {
        "EXT_meshopt_compression": {
          "fallback": true
        }
      }
    }
  ],
  "materials": [
    {
      "name": "Wood",
      "doubleSided": true,
      "pbrMetallicRoughness": {
        "baseColorFactor": [
          0.15292437374591827,
          0.10439527034759521,
          0.05163053795695305,
          1
        ],
        "roughnessFactor": 0.690034806728363,
        "metallicFactor": 0,
        "baseColorTexture": {
          "index": 0
        }
      }
    },
    {
      "name": "DarkWood",
      "doubleSided": true,
      "pbrMetallicRoughness": {
        "baseColorFactor": [
          0.08713703602552414,
          0.05797602981328964,
          0.02801351808011532,
          1
        ],
        "roughnessFactor": 0.690034806728363,
        "metallicFactor": 0,
        "baseColorTexture": {
          "index": 0
        }
      }
    },
    {
      "name": "Metal",
      "doubleSided": true,
      "pbrMetallicRoughness": {
        "baseColorFactor": [
          0.09704122692346573,
          0.10234932601451874,
          0.11927313357591629,
          1
        ],
        "roughnessFactor": 0.690034806728363,
        "metallicFactor": 0
      }
    },
    {
      "name": "Metal_Light",
      "doubleSided": true,
      "pbrMetallicRoughness": {
        "baseColorFactor": [
          0.17861980199813843,
          0.18874633312225342,
          0.22110147774219513,
          1
        ],
        "roughnessFactor": 0.690034806728363,
        "metallicFactor": 0
      }
    }
  ],
  "meshes": [
    {
      "name": "Cylinder.006",
      "primitives": [
        {
          "attributes": {
            "NORMAL": 1,
            "COLOR_0": 2,
            "POSITION": 16,
            "TEXCOORD_0": 17,
            "COLOR_1": 2
          },
          "mode": 4,
          "material": 0,
          "indices": 0
        },
        {
          "attributes": {
            "NORMAL": 5,
            "COLOR_0": 6,
            "POSITION": 18,
            "TEXCOORD_0": 19,
            "COLOR_1": 6
          },
          "mode": 4,
          "material": 1,
          "indices": 4
        },
        {
          "attributes": {
            "NORMAL": 8,
            "COLOR_0": 9,
            "POSITION": 20,
            "TEXCOORD_0": 21,
            "COLOR_1": 9
          },
          "mode": 4,
          "material": 2,
          "indices": 7
        },
        {
          "attributes": {
            "NORMAL": 11,
            "COLOR_0": 12,
            "POSITION": 22,
            "TEXCOORD_0": 23,
            "COLOR_1": 12
          },
          "mode": 4,
          "material": 3,
          "indices": 10
        }
      ]
    },
    {
      "name": "Cylinder.045",
      "primitives": [
        {
          "attributes": {
            "NORMAL": 3,
            "POSITION": 24,
            "COLOR_0": 2,
            "TEXCOORD_0": 17,
            "COLOR_1": 2
          },
          "mode": 4,
          "material": 0,
          "indices": 0
        },
        {
          "attributes": {
            "NORMAL": 13,
            "POSITION": 25,
            "COLOR_0": 6,
            "TEXCOORD_0": 19,
            "COLOR_1": 6
          },
          "mode": 4,
          "material": 1,
          "indices": 4
        },
        {
          "attributes": {
            "NORMAL": 14,
            "POSITION": 26,
            "COLOR_0": 9,
            "TEXCOORD_0": 21,
            "COLOR_1": 9
          },
          "mode": 4,
          "material": 2,
          "indices": 7
        },
        {
          "attributes": {
            "NORMAL": 15,
            "POSITION": 27,
            "COLOR_0": 12,
            "TEXCOORD_0": 23,
            "COLOR_1": 12
          },
          "mode": 4,
          "material": 3,
          "indices": 10
        }
      ]
    }
  ],
  "nodes": [
    {
      "name": "Doors_RoundArch_L",
      "translation": [
        -0.5832328796386719,
        1.478683590888977,
        0
      ],
      "scale": [
        1.4846888780593872,
        1.4846888780593872,
        1.4846888780593872
      ],
      "mesh": 0
    },
    {
      "name": "Doors_RoundArch_R",
      "translation": [
        0.5832328945398331,
        1.478683590888977,
        2.3096799850463867e-7
      ],
      "scale": [
        1.4846888780593872,
        1.4846888780593872,
        1.4846888780593872
      ],
      "mesh": 1
    }
  ],
  "scenes": [
    {
      "name": "Scene",
      "nodes": [
        0,
        1
      ]
    }
  ],
  "scene": 0,
  "extensionsUsed": [
    "EXT_meshopt_compression",
    "KHR_mesh_quantization",
    "KHR_texture_basisu"
  ],
  "extensionsRequired": [
    "EXT_meshopt_compression",
    "KHR_mesh_quantization",
    "KHR_texture_basisu"
  ]
}