{
  "asset": {
    "generator": "glTF-Transform v4.5.0",
    "version": "2.0"
  },
  "accessors": [
    {
      "type": "SCALAR",
      "componentType": 5123,
      "count": 837,
      "normalized": false,
      "byteOffset": 0,
      "bufferView": 0
    },
    {
      "type": "VEC3",
      "componentType": 5120,
      "count": 531,
      "normalized": true,
      "byteOffset": 0,
      "bufferView": 1
    },
    {
      "type": "SCALAR",
      "componentType": 5123,
      "count": 144,
      "normalized": false,
      "byteOffset": 1674,
      "bufferView": 0
    },
    {
      "type": "VEC3",
      "componentType": 5120,
      "count": 116,
      "normalized": true,
      "byteOffset": 0,
      "bufferView": 2
    },
    {
      "type": "VEC3",
      "componentType": 5122,
      "count": 531,
      "max": [
        27159,
        20450,
        27291
      ],
      "min": [
        -27355,
        -32767,
        -27383
      ],
      "normalized": true,
      "byteOffset": 0,
      "bufferView": 3
    },
    {
      "type": "VEC3",
      "componentType": 5122,
      "count": 116,
      "max": [
        27355,
        32767,
        27383
      ],
      "min": [
        -27271,
        -32767,
        -18406
      ],
      "normalized": true,
      "byteOffset": 0,
      "bufferView": 4
    }
  ],
  "bufferViews": [
    {
      "buffer": 1,
      "byteOffset": 0,
      "byteLength": 1962,
      "target": 34963,
      "extensions": {
        "EXT_meshopt_compression": {
          "buffer": 0,
          "byteOffset": 0,
          "byteLength": 345,
          "mode": "TRIANGLES",
          "byteStride": 2,
          "count": 981
        }
      }
    },
    {
      "buffer": 1,
      "byteOffset": 1964,
      "byteLength": 2124,
      "target": 34962,
      "byteStride": 4,
      "extensions": {
        "EXT_meshopt_compression": {
          "buffer": 0,
          "byteOffset": 348,
          "byteLength": 560,
          "mode": "ATTRIBUTES",
          "filter": "OCTAHEDRAL",
          "byteStride": 4,
          "count": 531
        }
      }
    },
    {
      "buffer": 1,
      "byteOffset": 4088,
      "byteLength": 464,
      "target": 34962,
      "byteStride": 4,
      "extensions": {
        "EXT_meshopt_compression": {
          "buffer": 0,
          "byteOffset": 908,
          "byteLength": 157,
          "mode": "ATTRIBUTES",
          "filter": "OCTAHEDRAL",
          "byteStride": 4,
          "count": 116
        }
      }
    },
    {
      "buffer": 1,
      "byteOffset": 4552,
      "byteLength": 4248,
      "target": 34962,
      "byteStride": 8,
      "extensions": {
        "EXT_meshopt_compression": {
          "buffer": 0,
          "byteOffset": 1068,
          "byteLength": 3127,
          "mode": "ATTRIBUTES",
          "byteStride": 8,
          "count": 531
        }
      }
    },
    {
      "buffer": 1,
      "byteOffset": 8800,
      "byteLength": 928,
      "target": 34962,
      "byteStride": 8,
      "extensions": {
        "EXT_meshopt_compression": {
          "buffer": 0,
          "byteOffset": 4196,
          "byteLength": 603,
          "mode": "ATTRIBUTES",
          "byteStride": 8,
          "count": 116
        }
      }
    }
  ],
  "buffers": [
    {
      "uri": "Floor_Hole_Corner.bin",
      "byteLength": 4800
    },
    {
      "byteLength": 9728,
      "extensions": {
        "EXT_meshopt_compression": {
          "fallback": true
        }
      }
    }
  ],
  "materials": [
    {
      "name": "Main",
      "doubleSided": true,
      "pbrMetallicRoughness": {
        "baseColorFactor": [
          0.15896087884902954,
          0.16202940046787262,
          0.1247718334197998,
          1
        ],
        "roughnessFactor": 0.690034806728363,
        "metallicFactor": 0
      }
    },
    {
      "name": "Highlights",
      "doubleSided": true,
      "pbrMetallicRoughness": {
        "baseColorFactor": [
          0.289932519197464,
          0.29568690061569214,
          0.22595453262329102,
          1
        ],
        "roughnessFactor": 0.690034806728363,
        "metallicFactor": 0
      }
    }
  ],
  "meshes": [
    {
      "name": "Cube.032",
      "primitives": [
        {
          "attributes": {
            "NORMAL": 1,
            "POSITION": 4
          },
          "mode": 4,
          "material": 0,
          "indices": 0
        },
        {
          "attributes": {
            "NORMAL": 3,
            "POSITION": 5
          },
          "mode": 4,
          "material": 1,
          "indices": 2
        }
      ]
    }
  ],
  "nodes": [
    {
      "name": "Floor_Hole_Corner",
      "translation": [
        0.0026858150959014893,
        -0.01054305495566954,
        0.0016543269157409668
      ],
      "scale": [
        1.194632649421692,
        0.07135540909841698,
        1.194632649421692
      ],
      "mesh": 0
    }
  ],
  "scenes": [
    {
      "name": "Scene",
      "nodes": [
        0
      ]
    }
  ],
  "scene": 0,
  "extensionsUsed": [
    "EXT_meshopt_compression",
    "KHR_mesh_quantization"
  ],
  "extensionsRequired": [
    "EXT_meshopt_compression",
    "KHR_mesh_quantization"
  ]
}