{
  "asset": {
    "generator": "glTF-Transform v4.5.0",
    "version": "2.0"
  },
  "accessors": [
    {
      "type": "SCALAR",
      "componentType": 5123,
      "count": 576,
      "normalized": false,
      "byteOffset": 0,
      "bufferView": 0
    },
    {
      "type": "VEC3",
      "componentType": 5120,
      "count": 402,
      "normalized": true,
      "byteOffset": 0,
      "bufferView": 1
    },
    {
      "type": "VEC3",
      "componentType": 5122,
      "count": 402,
      "max": [
        12093,
        32767,
        10585
      ],
      "min": [
        -12093,
        -32767,
        -10585
      ],
      "normalized": true,
      "byteOffset": 0,
      "bufferView": 2
    }
  ],
  "bufferViews": [
    {
      "buffer": 1,
      "byteOffset": 0,
      "byteLength": 1152,
      "target": 34963,
      "extensions": {
        "EXT_meshopt_compression": {
          "buffer": 0,
          "byteOffset": 0,
          "byteLength": 209,
          "mode": "TRIANGLES",
          "byteStride": 2,
          "count": 576
        }
      }
    },
    {
      "buffer": 1,
      "byteOffset": 1152,
      "byteLength": 1608,
      "target": 34962,
      "byteStride": 4,
      "extensions": {
        "EXT_meshopt_compression": {
          "buffer": 0,
          "byteOffset": 212,
          "byteLength": 460,
          "mode": "ATTRIBUTES",
          "filter": "OCTAHEDRAL",
          "byteStride": 4,
          "count": 402
        }
      }
    },
    {
      "buffer": 1,
      "byteOffset": 2760,
      "byteLength": 3216,
      "target": 34962,
      "byteStride": 8,
      "extensions": {
        "EXT_meshopt_compression": {
          "buffer": 0,
          "byteOffset": 672,
          "byteLength": 2159,
          "mode": "ATTRIBUTES",
          "byteStride": 8,
          "count": 402
        }
      }
    }
  ],
  "buffers": [
    {
      "uri": "Grass.bin",
      "byteLength": 2832
    },
    {
      "byteLength": 5976,
      "extensions": {
        "EXT_meshopt_compression": {
          "fallback": true
        }
      }
    }
  ],
  "materials": [
    {
      "name": "Green",
      "doubleSided": true,
      "pbrMetallicRoughness": {
        "baseColorFactor": [
          0.08744194358587265,
          0.15232062339782715,
          0.05986013635993004,
          1
        ],
        "roughnessFactor": 0.690034806728363,
        "metallicFactor": 0
      }
    }
  ],
  "meshes": [
    {
      "name": "Plane.005",
      "primitives": [
        {
          "attributes": {
            "NORMAL": 1,
            "POSITION": 2
          },
          "mode": 4,
          "material": 0,
          "indices": 0
        }
      ]
    }
  ],
  "nodes": [
    {
      "name": "Grass",
      "translation": [
        -0.010032735764980316,
        0.4905291711911559,
        -0.000583842396736145
      ],
      "scale": [
        0.5063914740458131,
        0.5063914740458131,
        0.5063914740458131
      ],
      "mesh": 0
    }
  ],
  "scenes": [
    {
      "name": "Scene",
      "nodes": [
        0
      ]
    }
  ],
  "scene": 0,
  "extensionsUsed": [
    "EXT_meshopt_compression",
    "KHR_mesh_quantization"
  ],
  "extensionsRequired": [
    "EXT_meshopt_compression",
    "KHR_mesh_quantization"
  ]
}