{
  "asset": {
    "generator": "glTF-Transform v4.5.0",
    "version": "2.0"
  },
  "accessors": [
    {
      "type": "SCALAR",
      "componentType": 5123,
      "count": 1176,
      "normalized": false,
      "byteOffset": 0,
      "bufferView": 0
    },
    {
      "type": "VEC3",
      "componentType": 5120,
      "count": 373,
      "normalized": true,
      "byteOffset": 0,
      "bufferView": 1
    },
    {
      "type": "SCALAR",
      "componentType": 5123,
      "count": 120,
      "normalized": false,
      "byteOffset": 2352,
      "bufferView": 0
    },
    {
      "type": "VEC3",
      "componentType": 5120,
      "count": 46,
      "normalized": true,
      "byteOffset": 0,
      "bufferView": 2
    },
    {
      "type": "VEC3",
      "componentType": 5122,
      "count": 373,
      "max": [
        32767,
        28175,
        32759
      ],
      "min": [
        -32767,
        -28175,
        -32759
      ],
      "normalized": true,
      "byteOffset": 0,
      "bufferView": 3
    },
    {
      "type": "VEC3",
      "componentType": 5122,
      "count": 46,
      "max": [
        11637,
        21718,
        29831
      ],
      "min": [
        -29895,
        5372,
        -29831
      ],
      "normalized": true,
      "byteOffset": 0,
      "bufferView": 4
    }
  ],
  "bufferViews": [
    {
      "buffer": 1,
      "byteOffset": 0,
      "byteLength": 2592,
      "target": 34963,
      "extensions": {
        "EXT_meshopt_compression": {
          "buffer": 0,
          "byteOffset": 0,
          "byteLength": 478,
          "mode": "TRIANGLES",
          "byteStride": 2,
          "count": 1296
        }
      }
    },
    {
      "buffer": 1,
      "byteOffset": 2592,
      "byteLength": 1492,
      "target": 34962,
      "byteStride": 4,
      "extensions": {
        "EXT_meshopt_compression": {
          "buffer": 0,
          "byteOffset": 480,
          "byteLength": 665,
          "mode": "ATTRIBUTES",
          "filter": "OCTAHEDRAL",
          "byteStride": 4,
          "count": 373
        }
      }
    },
    {
      "buffer": 1,
      "byteOffset": 4084,
      "byteLength": 184,
      "target": 34962,
      "byteStride": 4,
      "extensions": {
        "EXT_meshopt_compression": {
          "buffer": 0,
          "byteOffset": 1148,
          "byteLength": 121,
          "mode": "ATTRIBUTES",
          "filter": "OCTAHEDRAL",
          "byteStride": 4,
          "count": 46
        }
      }
    },
    {
      "buffer": 1,
      "byteOffset": 4268,
      "byteLength": 2984,
      "target": 34962,
      "byteStride": 8,
      "extensions": {
        "EXT_meshopt_compression": {
          "buffer": 0,
          "byteOffset": 1272,
          "byteLength": 2304,
          "mode": "ATTRIBUTES",
          "byteStride": 8,
          "count": 373
        }
      }
    },
    {
      "buffer": 1,
      "byteOffset": 7252,
      "byteLength": 368,
      "target": 34962,
      "byteStride": 8,
      "extensions": {
        "EXT_meshopt_compression": {
          "buffer": 0,
          "byteOffset": 3576,
          "byteLength": 328,
          "mode": "ATTRIBUTES",
          "byteStride": 8,
          "count": 46
        }
      }
    }
  ],
  "buffers": [
    {
      "uri": "Pot1_Broken.bin",
      "byteLength": 3904
    },
    {
      "byteLength": 7620,
      "extensions": {
        "EXT_meshopt_compression": {
          "fallback": true
        }
      }
    }
  ],
  "materials": [
    {
      "name": "Pot_Main",
      "doubleSided": true,
      "pbrMetallicRoughness": {
        "baseColorFactor": [
          0.3626789152622223,
          0.2465943545103073,
          0.10028184950351715,
          1
        ],
        "roughnessFactor": 0.690034806728363,
        "metallicFactor": 0
      }
    },
    {
      "name": "Pot_Detail",
      "doubleSided": true,
      "pbrMetallicRoughness": {
        "baseColorFactor": [
          0.4385388493537903,
          0.09992167353630066,
          0.058856524527072906,
          1
        ],
        "roughnessFactor": 0.690034806728363,
        "metallicFactor": 0
      }
    }
  ],
  "meshes": [
    {
      "name": "Cube.108",
      "primitives": [
        {
          "attributes": {
            "NORMAL": 1,
            "POSITION": 4
          },
          "mode": 4,
          "material": 0,
          "indices": 0
        },
        {
          "attributes": {
            "NORMAL": 3,
            "POSITION": 5
          },
          "mode": 4,
          "material": 1,
          "indices": 2
        }
      ]
    }
  ],
  "nodes": [
    {
      "name": "Pot1_Broken",
      "translation": [
        0,
        0.32429595524445176,
        0
      ],
      "scale": [
        0.3842211961746216,
        0.3842211961746216,
        0.3842211961746216
      ],
      "mesh": 0
    }
  ],
  "scenes": [
    {
      "name": "Scene",
      "nodes": [
        0
      ]
    }
  ],
  "scene": 0,
  "extensionsUsed": [
    "EXT_meshopt_compression",
    "KHR_mesh_quantization"
  ],
  "extensionsRequired": [
    "EXT_meshopt_compression",
    "KHR_mesh_quantization"
  ]
}