{
  "asset": {
    "generator": "glTF-Transform v4.5.0",
    "version": "2.0"
  },
  "accessors": [
    {
      "type": "SCALAR",
      "componentType": 5123,
      "count": 906,
      "normalized": false,
      "byteOffset": 0,
      "bufferView": 0
    },
    {
      "type": "VEC3",
      "componentType": 5120,
      "count": 282,
      "normalized": true,
      "byteOffset": 0,
      "bufferView": 1
    },
    {
      "type": "SCALAR",
      "componentType": 5123,
      "count": 60,
      "normalized": false,
      "byteOffset": 1812,
      "bufferView": 0
    },
    {
      "type": "VEC3",
      "componentType": 5120,
      "count": 22,
      "normalized": true,
      "byteOffset": 0,
      "bufferView": 2
    },
    {
      "type": "VEC3",
      "componentType": 5122,
      "count": 282,
      "max": [
        32767,
        30419,
        32759
      ],
      "min": [
        -32767,
        -30419,
        -32759
      ],
      "normalized": true,
      "byteOffset": 0,
      "bufferView": 3
    },
    {
      "type": "VEC3",
      "componentType": 5122,
      "count": 22,
      "max": [
        30575,
        21846,
        30511
      ],
      "min": [
        -11925,
        140,
        -30511
      ],
      "normalized": true,
      "byteOffset": 0,
      "bufferView": 4
    }
  ],
  "bufferViews": [
    {
      "buffer": 1,
      "byteOffset": 0,
      "byteLength": 1932,
      "target": 34963,
      "extensions": {
        "EXT_meshopt_compression": {
          "buffer": 0,
          "byteOffset": 0,
          "byteLength": 367,
          "mode": "TRIANGLES",
          "byteStride": 2,
          "count": 966
        }
      }
    },
    {
      "buffer": 1,
      "byteOffset": 1932,
      "byteLength": 1128,
      "target": 34962,
      "byteStride": 4,
      "extensions": {
        "EXT_meshopt_compression": {
          "buffer": 0,
          "byteOffset": 368,
          "byteLength": 514,
          "mode": "ATTRIBUTES",
          "filter": "OCTAHEDRAL",
          "byteStride": 4,
          "count": 282
        }
      }
    },
    {
      "buffer": 1,
      "byteOffset": 3060,
      "byteLength": 88,
      "target": 34962,
      "byteStride": 4,
      "extensions": {
        "EXT_meshopt_compression": {
          "buffer": 0,
          "byteOffset": 884,
          "byteLength": 82,
          "mode": "ATTRIBUTES",
          "filter": "OCTAHEDRAL",
          "byteStride": 4,
          "count": 22
        }
      }
    },
    {
      "buffer": 1,
      "byteOffset": 3148,
      "byteLength": 2256,
      "target": 34962,
      "byteStride": 8,
      "extensions": {
        "EXT_meshopt_compression": {
          "buffer": 0,
          "byteOffset": 968,
          "byteLength": 1758,
          "mode": "ATTRIBUTES",
          "byteStride": 8,
          "count": 282
        }
      }
    },
    {
      "buffer": 1,
      "byteOffset": 5404,
      "byteLength": 176,
      "target": 34962,
      "byteStride": 8,
      "extensions": {
        "EXT_meshopt_compression": {
          "buffer": 0,
          "byteOffset": 2728,
          "byteLength": 194,
          "mode": "ATTRIBUTES",
          "byteStride": 8,
          "count": 22
        }
      }
    }
  ],
  "buffers": [
    {
      "uri": "Pot2_Broken.bin",
      "byteLength": 2924
    },
    {
      "byteLength": 5580,
      "extensions": {
        "EXT_meshopt_compression": {
          "fallback": true
        }
      }
    }
  ],
  "materials": [
    {
      "name": "Pot_Main",
      "doubleSided": true,
      "pbrMetallicRoughness": {
        "baseColorFactor": [
          0.3626789152622223,
          0.2465943545103073,
          0.10028184950351715,
          1
        ],
        "roughnessFactor": 0.690034806728363,
        "metallicFactor": 0
      }
    },
    {
      "name": "Pot_Detail",
      "doubleSided": true,
      "pbrMetallicRoughness": {
        "baseColorFactor": [
          0.4385388493537903,
          0.09992167353630066,
          0.058856524527072906,
          1
        ],
        "roughnessFactor": 0.690034806728363,
        "metallicFactor": 0
      }
    }
  ],
  "meshes": [
    {
      "name": "Cube.109",
      "primitives": [
        {
          "attributes": {
            "NORMAL": 1,
            "POSITION": 4
          },
          "mode": 4,
          "material": 0,
          "indices": 0
        },
        {
          "attributes": {
            "NORMAL": 3,
            "POSITION": 5
          },
          "mode": 4,
          "material": 1,
          "indices": 2
        }
      ]
    }
  ],
  "nodes": [
    {
      "name": "Pot2_Broken",
      "translation": [
        0,
        0.21239859011257067,
        0
      ],
      "scale": [
        0.2308746874332428,
        0.2308746874332428,
        0.2308746874332428
      ],
      "mesh": 0
    }
  ],
  "scenes": [
    {
      "name": "Scene",
      "nodes": [
        0
      ]
    }
  ],
  "scene": 0,
  "extensionsUsed": [
    "EXT_meshopt_compression",
    "KHR_mesh_quantization"
  ],
  "extensionsRequired": [
    "EXT_meshopt_compression",
    "KHR_mesh_quantization"
  ]
}