{
  "asset": {
    "generator": "glTF-Transform v4.5.0",
    "version": "2.0"
  },
  "accessors": [
    {
      "type": "SCALAR",
      "componentType": 5123,
      "count": 6456,
      "normalized": false,
      "byteOffset": 0,
      "bufferView": 0
    },
    {
      "type": "VEC3",
      "componentType": 5120,
      "count": 2134,
      "normalized": true,
      "byteOffset": 0,
      "bufferView": 1
    },
    {
      "type": "VEC3",
      "componentType": 5122,
      "count": 2134,
      "max": [
        11793,
        32767,
        14657
      ],
      "min": [
        -11793,
        -32767,
        -14657
      ],
      "normalized": true,
      "byteOffset": 0,
      "bufferView": 2
    }
  ],
  "bufferViews": [
    {
      "buffer": 1,
      "byteOffset": 0,
      "byteLength": 12912,
      "target": 34963,
      "extensions": {
        "EXT_meshopt_compression": {
          "buffer": 0,
          "byteOffset": 0,
          "byteLength": 2373,
          "mode": "TRIANGLES",
          "byteStride": 2,
          "count": 6456
        }
      }
    },
    {
      "buffer": 1,
      "byteOffset": 12912,
      "byteLength": 8536,
      "target": 34962,
      "byteStride": 4,
      "extensions": {
        "EXT_meshopt_compression": {
          "buffer": 0,
          "byteOffset": 2376,
          "byteLength": 3596,
          "mode": "ATTRIBUTES",
          "filter": "OCTAHEDRAL",
          "byteStride": 4,
          "count": 2134
        }
      }
    },
    {
      "buffer": 1,
      "byteOffset": 21448,
      "byteLength": 17072,
      "target": 34962,
      "byteStride": 8,
      "extensions": {
        "EXT_meshopt_compression": {
          "buffer": 0,
          "byteOffset": 5972,
          "byteLength": 10461,
          "mode": "ATTRIBUTES",
          "byteStride": 8,
          "count": 2134
        }
      }
    }
  ],
  "buffers": [
    {
      "uri": "Statue_Fox.bin",
      "byteLength": 16436
    },
    {
      "byteLength": 38520,
      "extensions": {
        "EXT_meshopt_compression": {
          "fallback": true
        }
      }
    }
  ],
  "materials": [
    {
      "name": "Stone",
      "doubleSided": true,
      "pbrMetallicRoughness": {
        "baseColorFactor": [
          0.1498711258172989,
          0.1498711258172989,
          0.1498711258172989,
          1
        ],
        "roughnessFactor": 0.690034806728363,
        "metallicFactor": 0
      }
    }
  ],
  "meshes": [
    {
      "name": "Cylinder.036",
      "primitives": [
        {
          "attributes": {
            "NORMAL": 1,
            "POSITION": 2
          },
          "mode": 4,
          "material": 0,
          "indices": 0
        }
      ]
    }
  ],
  "nodes": [
    {
      "name": "Statue_Fox",
      "translation": [
        0.07875317335128784,
        1.876226782798767,
        -0.06289160251617432
      ],
      "scale": [
        1.876226782798767,
        1.876226782798767,
        1.876226782798767
      ],
      "mesh": 0
    }
  ],
  "scenes": [
    {
      "name": "Scene",
      "nodes": [
        0
      ]
    }
  ],
  "scene": 0,
  "extensionsUsed": [
    "EXT_meshopt_compression",
    "KHR_mesh_quantization"
  ],
  "extensionsRequired": [
    "EXT_meshopt_compression",
    "KHR_mesh_quantization"
  ]
}