{
  "asset": {
    "generator": "glTF-Transform v4.5.0",
    "version": "2.0"
  },
  "accessors": [
    {
      "type": "SCALAR",
      "componentType": 5123,
      "count": 12126,
      "normalized": false,
      "byteOffset": 0,
      "bufferView": 0
    },
    {
      "type": "VEC3",
      "componentType": 5120,
      "count": 4164,
      "normalized": true,
      "byteOffset": 0,
      "bufferView": 1
    },
    {
      "type": "VEC3",
      "componentType": 5122,
      "count": 4164,
      "max": [
        16309,
        32767,
        8993
      ],
      "min": [
        -16309,
        -32767,
        -8993
      ],
      "normalized": true,
      "byteOffset": 0,
      "bufferView": 2
    }
  ],
  "bufferViews": [
    {
      "buffer": 1,
      "byteOffset": 0,
      "byteLength": 24252,
      "target": 34963,
      "extensions": {
        "EXT_meshopt_compression": {
          "buffer": 0,
          "byteOffset": 0,
          "byteLength": 4438,
          "mode": "TRIANGLES",
          "byteStride": 2,
          "count": 12126
        }
      }
    },
    {
      "buffer": 1,
      "byteOffset": 24252,
      "byteLength": 16656,
      "target": 34962,
      "byteStride": 4,
      "extensions": {
        "EXT_meshopt_compression": {
          "buffer": 0,
          "byteOffset": 4440,
          "byteLength": 6945,
          "mode": "ATTRIBUTES",
          "filter": "OCTAHEDRAL",
          "byteStride": 4,
          "count": 4164
        }
      }
    },
    {
      "buffer": 1,
      "byteOffset": 40908,
      "byteLength": 33312,
      "target": 34962,
      "byteStride": 8,
      "extensions": {
        "EXT_meshopt_compression": {
          "buffer": 0,
          "byteOffset": 11388,
          "byteLength": 19204,
          "mode": "ATTRIBUTES",
          "byteStride": 8,
          "count": 4164
        }
      }
    }
  ],
  "buffers": [
    {
      "uri": "Statue_Stag.bin",
      "byteLength": 30592
    },
    {
      "byteLength": 74220,
      "extensions": {
        "EXT_meshopt_compression": {
          "fallback": true
        }
      }
    }
  ],
  "materials": [
    {
      "name": "Stone",
      "doubleSided": true,
      "pbrMetallicRoughness": {
        "baseColorFactor": [
          0.1498711258172989,
          0.1498711258172989,
          0.1498711258172989,
          1
        ],
        "roughnessFactor": 0.690034806728363,
        "metallicFactor": 0
      }
    }
  ],
  "meshes": [
    {
      "name": "Cylinder.029",
      "primitives": [
        {
          "attributes": {
            "NORMAL": 1,
            "POSITION": 2
          },
          "mode": 4,
          "material": 0,
          "indices": 0
        }
      ]
    }
  ],
  "nodes": [
    {
      "name": "Statue_Stag",
      "translation": [
        -0.5567285120487213,
        2.3168065547943115,
        0.033005863428115845
      ],
      "scale": [
        2.3168065547943115,
        2.3168065547943115,
        2.3168065547943115
      ],
      "mesh": 0
    }
  ],
  "scenes": [
    {
      "name": "Scene",
      "nodes": [
        0
      ]
    }
  ],
  "scene": 0,
  "extensionsUsed": [
    "EXT_meshopt_compression",
    "KHR_mesh_quantization"
  ],
  "extensionsRequired": [
    "EXT_meshopt_compression",
    "KHR_mesh_quantization"
  ]
}