{
  "asset": {
    "generator": "glTF-Transform v4.5.0",
    "version": "2.0"
  },
  "accessors": [
    {
      "type": "SCALAR",
      "componentType": 5123,
      "count": 10767,
      "normalized": false,
      "byteOffset": 0,
      "bufferView": 0
    },
    {
      "type": "VEC3",
      "componentType": 5120,
      "count": 5478,
      "normalized": true,
      "byteOffset": 0,
      "bufferView": 1
    },
    {
      "type": "SCALAR",
      "componentType": 5123,
      "count": 1536,
      "normalized": false,
      "byteOffset": 21534,
      "bufferView": 0
    },
    {
      "type": "VEC3",
      "componentType": 5120,
      "count": 964,
      "normalized": true,
      "byteOffset": 0,
      "bufferView": 2
    },
    {
      "type": "SCALAR",
      "componentType": 5123,
      "count": 537,
      "normalized": false,
      "byteOffset": 24606,
      "bufferView": 0
    },
    {
      "type": "VEC3",
      "componentType": 5120,
      "count": 505,
      "normalized": true,
      "byteOffset": 0,
      "bufferView": 3
    },
    {
      "type": "SCALAR",
      "componentType": 5123,
      "count": 456,
      "normalized": false,
      "byteOffset": 25680,
      "bufferView": 0
    },
    {
      "type": "VEC3",
      "componentType": 5120,
      "count": 186,
      "normalized": true,
      "byteOffset": 0,
      "bufferView": 4
    },
    {
      "type": "VEC3",
      "componentType": 5122,
      "count": 5478,
      "max": [
        23922,
        32767,
        5300
      ],
      "min": [
        -23922,
        -32767,
        -5300
      ],
      "normalized": true,
      "byteOffset": 0,
      "bufferView": 5
    },
    {
      "type": "VEC3",
      "componentType": 5122,
      "count": 964,
      "max": [
        19954,
        23990,
        5260
      ],
      "min": [
        -19958,
        -1992,
        -5260
      ],
      "normalized": true,
      "byteOffset": 0,
      "bufferView": 6
    },
    {
      "type": "VEC3",
      "componentType": 5122,
      "count": 505,
      "max": [
        23922,
        32743,
        4280
      ],
      "min": [
        -23922,
        -27127,
        -4272
      ],
      "normalized": true,
      "byteOffset": 0,
      "bufferView": 7
    },
    {
      "type": "VEC3",
      "componentType": 5122,
      "count": 186,
      "max": [
        23922,
        30435,
        3008
      ],
      "min": [
        -23922,
        -2056,
        -3008
      ],
      "normalized": true,
      "byteOffset": 0,
      "bufferView": 8
    }
  ],
  "bufferViews": [
    {
      "buffer": 1,
      "byteOffset": 0,
      "byteLength": 26592,
      "target": 34963,
      "extensions": {
        "EXT_meshopt_compression": {
          "buffer": 0,
          "byteOffset": 0,
          "byteLength": 4469,
          "mode": "TRIANGLES",
          "byteStride": 2,
          "count": 13296
        }
      }
    },
    {
      "buffer": 1,
      "byteOffset": 26592,
      "byteLength": 21912,
      "target": 34962,
      "byteStride": 4,
      "extensions": {
        "EXT_meshopt_compression": {
          "buffer": 0,
          "byteOffset": 4472,
          "byteLength": 4920,
          "mode": "ATTRIBUTES",
          "filter": "OCTAHEDRAL",
          "byteStride": 4,
          "count": 5478
        }
      }
    },
    {
      "buffer": 1,
      "byteOffset": 48504,
      "byteLength": 3856,
      "target": 34962,
      "byteStride": 4,
      "extensions": {
        "EXT_meshopt_compression": {
          "buffer": 0,
          "byteOffset": 9392,
          "byteLength": 989,
          "mode": "ATTRIBUTES",
          "filter": "OCTAHEDRAL",
          "byteStride": 4,
          "count": 964
        }
      }
    },
    {
      "buffer": 1,
      "byteOffset": 52360,
      "byteLength": 2020,
      "target": 34962,
      "byteStride": 4,
      "extensions": {
        "EXT_meshopt_compression": {
          "buffer": 0,
          "byteOffset": 10384,
          "byteLength": 630,
          "mode": "ATTRIBUTES",
          "filter": "OCTAHEDRAL",
          "byteStride": 4,
          "count": 505
        }
      }
    },
    {
      "buffer": 1,
      "byteOffset": 54380,
      "byteLength": 744,
      "target": 34962,
      "byteStride": 4,
      "extensions": {
        "EXT_meshopt_compression": {
          "buffer": 0,
          "byteOffset": 11016,
          "byteLength": 148,
          "mode": "ATTRIBUTES",
          "filter": "OCTAHEDRAL",
          "byteStride": 4,
          "count": 186
        }
      }
    },
    {
      "buffer": 1,
      "byteOffset": 55124,
      "byteLength": 43824,
      "target": 34962,
      "byteStride": 8,
      "extensions": {
        "EXT_meshopt_compression": {
          "buffer": 0,
          "byteOffset": 11164,
          "byteLength": 26261,
          "mode": "ATTRIBUTES",
          "byteStride": 8,
          "count": 5478
        }
      }
    },
    {
      "buffer": 1,
      "byteOffset": 98948,
      "byteLength": 7712,
      "target": 34962,
      "byteStride": 8,
      "extensions": {
        "EXT_meshopt_compression": {
          "buffer": 0,
          "byteOffset": 37428,
          "byteLength": 4525,
          "mode": "ATTRIBUTES",
          "byteStride": 8,
          "count": 964
        }
      }
    },
    {
      "buffer": 1,
      "byteOffset": 106660,
      "byteLength": 4040,
      "target": 34962,
      "byteStride": 8,
      "extensions": {
        "EXT_meshopt_compression": {
          "buffer": 0,
          "byteOffset": 41956,
          "byteLength": 2522,
          "mode": "ATTRIBUTES",
          "byteStride": 8,
          "count": 505
        }
      }
    },
    {
      "buffer": 1,
      "byteOffset": 110700,
      "byteLength": 1488,
      "target": 34962,
      "byteStride": 8,
      "extensions": {
        "EXT_meshopt_compression": {
          "buffer": 0,
          "byteOffset": 44480,
          "byteLength": 867,
          "mode": "ATTRIBUTES",
          "byteStride": 8,
          "count": 186
        }
      }
    }
  ],
  "buffers": [
    {
      "uri": "Support_Center.bin",
      "byteLength": 45348
    },
    {
      "byteLength": 112188,
      "extensions": {
        "EXT_meshopt_compression": {
          "fallback": true
        }
      }
    }
  ],
  "materials": [
    {
      "name": "Main",
      "doubleSided": true,
      "pbrMetallicRoughness": {
        "baseColorFactor": [
          0.15896087884902954,
          0.16202940046787262,
          0.1247718334197998,
          1
        ],
        "roughnessFactor": 0.690034806728363,
        "metallicFactor": 0
      }
    },
    {
      "name": "Black",
      "doubleSided": true,
      "pbrMetallicRoughness": {
        "baseColorFactor": [
          0.04425261169672012,
          0.04425261169672012,
          0.04425261169672012,
          1
        ],
        "roughnessFactor": 0.690034806728363,
        "metallicFactor": 0
      }
    },
    {
      "name": "Highlights",
      "doubleSided": true,
      "pbrMetallicRoughness": {
        "baseColorFactor": [
          0.289932519197464,
          0.29568690061569214,
          0.22595453262329102,
          1
        ],
        "roughnessFactor": 0.690034806728363,
        "metallicFactor": 0
      }
    },
    {
      "name": "Main2",
      "doubleSided": true,
      "pbrMetallicRoughness": {
        "baseColorFactor": [
          0.22696588933467865,
          0.22696588933467865,
          0.16513220965862274,
          1
        ],
        "roughnessFactor": 0.690034806728363,
        "metallicFactor": 0
      }
    }
  ],
  "meshes": [
    {
      "name": "Cylinder.048",
      "primitives": [
        {
          "attributes": {
            "NORMAL": 1,
            "POSITION": 8
          },
          "mode": 4,
          "material": 0,
          "indices": 0
        },
        {
          "attributes": {
            "NORMAL": 3,
            "POSITION": 9
          },
          "mode": 4,
          "material": 1,
          "indices": 2
        },
        {
          "attributes": {
            "NORMAL": 5,
            "POSITION": 10
          },
          "mode": 4,
          "material": 2,
          "indices": 4
        },
        {
          "attributes": {
            "NORMAL": 7,
            "POSITION": 11
          },
          "mode": 4,
          "material": 3,
          "indices": 6
        }
      ]
    }
  ],
  "nodes": [
    {
      "name": "Support_Center",
      "translation": [
        0.00007659196853637695,
        2.0547797679901123,
        0
      ],
      "scale": [
        2.0547797679901123,
        2.0547797679901123,
        2.0547797679901123
      ],
      "mesh": 0
    }
  ],
  "scenes": [
    {
      "name": "Scene",
      "nodes": [
        0
      ]
    }
  ],
  "scene": 0,
  "extensionsUsed": [
    "EXT_meshopt_compression",
    "KHR_mesh_quantization"
  ],
  "extensionsRequired": [
    "EXT_meshopt_compression",
    "KHR_mesh_quantization"
  ]
}