{
  "asset": {
    "generator": "glTF-Transform v4.5.0",
    "version": "2.0"
  },
  "accessors": [
    {
      "type": "SCALAR",
      "componentType": 5123,
      "count": 9105,
      "normalized": false,
      "byteOffset": 0,
      "bufferView": 0
    },
    {
      "type": "VEC3",
      "componentType": 5120,
      "count": 4832,
      "normalized": true,
      "byteOffset": 0,
      "bufferView": 1
    },
    {
      "type": "SCALAR",
      "componentType": 5123,
      "count": 780,
      "normalized": false,
      "byteOffset": 18210,
      "bufferView": 0
    },
    {
      "type": "VEC3",
      "componentType": 5120,
      "count": 492,
      "normalized": true,
      "byteOffset": 0,
      "bufferView": 2
    },
    {
      "type": "SCALAR",
      "componentType": 5123,
      "count": 579,
      "normalized": false,
      "byteOffset": 19770,
      "bufferView": 0
    },
    {
      "type": "VEC3",
      "componentType": 5120,
      "count": 517,
      "normalized": true,
      "byteOffset": 0,
      "bufferView": 3
    },
    {
      "type": "SCALAR",
      "componentType": 5123,
      "count": 246,
      "normalized": false,
      "byteOffset": 20928,
      "bufferView": 0
    },
    {
      "type": "VEC3",
      "componentType": 5120,
      "count": 120,
      "normalized": true,
      "byteOffset": 0,
      "bufferView": 4
    },
    {
      "type": "VEC3",
      "componentType": 5122,
      "count": 4832,
      "max": [
        13161,
        32767,
        5272
      ],
      "min": [
        -13161,
        -32767,
        -5272
      ],
      "normalized": true,
      "byteOffset": 0,
      "bufferView": 5
    },
    {
      "type": "VEC3",
      "componentType": 5122,
      "count": 492,
      "max": [
        9157,
        24178,
        5228
      ],
      "min": [
        -13085,
        -1888,
        -5228
      ],
      "normalized": true,
      "byteOffset": 0,
      "bufferView": 6
    },
    {
      "type": "VEC3",
      "componentType": 5122,
      "count": 517,
      "max": [
        13133,
        32767,
        5272
      ],
      "min": [
        -13161,
        -27107,
        -5272
      ],
      "normalized": true,
      "byteOffset": 0,
      "bufferView": 7
    },
    {
      "type": "VEC3",
      "componentType": 5122,
      "count": 120,
      "max": [
        13133,
        30643,
        3020
      ],
      "min": [
        -10865,
        -1956,
        -3020
      ],
      "normalized": true,
      "byteOffset": 0,
      "bufferView": 8
    }
  ],
  "bufferViews": [
    {
      "buffer": 1,
      "byteOffset": 0,
      "byteLength": 21420,
      "target": 34963,
      "extensions": {
        "EXT_meshopt_compression": {
          "buffer": 0,
          "byteOffset": 0,
          "byteLength": 3599,
          "mode": "TRIANGLES",
          "byteStride": 2,
          "count": 10710
        }
      }
    },
    {
      "buffer": 1,
      "byteOffset": 21420,
      "byteLength": 19328,
      "target": 34962,
      "byteStride": 4,
      "extensions": {
        "EXT_meshopt_compression": {
          "buffer": 0,
          "byteOffset": 3600,
          "byteLength": 4391,
          "mode": "ATTRIBUTES",
          "filter": "OCTAHEDRAL",
          "byteStride": 4,
          "count": 4832
        }
      }
    },
    {
      "buffer": 1,
      "byteOffset": 40748,
      "byteLength": 1968,
      "target": 34962,
      "byteStride": 4,
      "extensions": {
        "EXT_meshopt_compression": {
          "buffer": 0,
          "byteOffset": 7992,
          "byteLength": 515,
          "mode": "ATTRIBUTES",
          "filter": "OCTAHEDRAL",
          "byteStride": 4,
          "count": 492
        }
      }
    },
    {
      "buffer": 1,
      "byteOffset": 42716,
      "byteLength": 2068,
      "target": 34962,
      "byteStride": 4,
      "extensions": {
        "EXT_meshopt_compression": {
          "buffer": 0,
          "byteOffset": 8508,
          "byteLength": 640,
          "mode": "ATTRIBUTES",
          "filter": "OCTAHEDRAL",
          "byteStride": 4,
          "count": 517
        }
      }
    },
    {
      "buffer": 1,
      "byteOffset": 44784,
      "byteLength": 480,
      "target": 34962,
      "byteStride": 4,
      "extensions": {
        "EXT_meshopt_compression": {
          "buffer": 0,
          "byteOffset": 9148,
          "byteLength": 115,
          "mode": "ATTRIBUTES",
          "filter": "OCTAHEDRAL",
          "byteStride": 4,
          "count": 120
        }
      }
    },
    {
      "buffer": 1,
      "byteOffset": 45264,
      "byteLength": 38656,
      "target": 34962,
      "byteStride": 8,
      "extensions": {
        "EXT_meshopt_compression": {
          "buffer": 0,
          "byteOffset": 9264,
          "byteLength": 23006,
          "mode": "ATTRIBUTES",
          "byteStride": 8,
          "count": 4832
        }
      }
    },
    {
      "buffer": 1,
      "byteOffset": 83920,
      "byteLength": 3936,
      "target": 34962,
      "byteStride": 8,
      "extensions": {
        "EXT_meshopt_compression": {
          "buffer": 0,
          "byteOffset": 32272,
          "byteLength": 2321,
          "mode": "ATTRIBUTES",
          "byteStride": 8,
          "count": 492
        }
      }
    },
    {
      "buffer": 1,
      "byteOffset": 87856,
      "byteLength": 4136,
      "target": 34962,
      "byteStride": 8,
      "extensions": {
        "EXT_meshopt_compression": {
          "buffer": 0,
          "byteOffset": 34596,
          "byteLength": 2545,
          "mode": "ATTRIBUTES",
          "byteStride": 8,
          "count": 517
        }
      }
    },
    {
      "buffer": 1,
      "byteOffset": 91992,
      "byteLength": 960,
      "target": 34962,
      "byteStride": 8,
      "extensions": {
        "EXT_meshopt_compression": {
          "buffer": 0,
          "byteOffset": 37144,
          "byteLength": 534,
          "mode": "ATTRIBUTES",
          "byteStride": 8,
          "count": 120
        }
      }
    }
  ],
  "buffers": [
    {
      "uri": "Support_Left.bin",
      "byteLength": 37680
    },
    {
      "byteLength": 92952,
      "extensions": {
        "EXT_meshopt_compression": {
          "fallback": true
        }
      }
    }
  ],
  "materials": [
    {
      "name": "Main",
      "doubleSided": true,
      "pbrMetallicRoughness": {
        "baseColorFactor": [
          0.15896087884902954,
          0.16202940046787262,
          0.1247718334197998,
          1
        ],
        "roughnessFactor": 0.690034806728363,
        "metallicFactor": 0
      }
    },
    {
      "name": "Black",
      "doubleSided": true,
      "pbrMetallicRoughness": {
        "baseColorFactor": [
          0.04425261169672012,
          0.04425261169672012,
          0.04425261169672012,
          1
        ],
        "roughnessFactor": 0.690034806728363,
        "metallicFactor": 0
      }
    },
    {
      "name": "Highlights",
      "doubleSided": true,
      "pbrMetallicRoughness": {
        "baseColorFactor": [
          0.289932519197464,
          0.29568690061569214,
          0.22595453262329102,
          1
        ],
        "roughnessFactor": 0.690034806728363,
        "metallicFactor": 0
      }
    },
    {
      "name": "Main2",
      "doubleSided": true,
      "pbrMetallicRoughness": {
        "baseColorFactor": [
          0.22696588933467865,
          0.22696588933467865,
          0.16513220965862274,
          1
        ],
        "roughnessFactor": 0.690034806728363,
        "metallicFactor": 0
      }
    }
  ],
  "meshes": [
    {
      "name": "Cylinder.053",
      "primitives": [
        {
          "attributes": {
            "NORMAL": 1,
            "POSITION": 8
          },
          "mode": 4,
          "material": 0,
          "indices": 0
        },
        {
          "attributes": {
            "NORMAL": 3,
            "POSITION": 9
          },
          "mode": 4,
          "material": 1,
          "indices": 2
        },
        {
          "attributes": {
            "NORMAL": 5,
            "POSITION": 10
          },
          "mode": 4,
          "material": 2,
          "indices": 4
        },
        {
          "attributes": {
            "NORMAL": 7,
            "POSITION": 11
          },
          "mode": 4,
          "material": 3,
          "indices": 6
        }
      ]
    }
  ],
  "nodes": [
    {
      "name": "Support_Left",
      "translation": [
        0.6792033165693283,
        2.048043379712908,
        0
      ],
      "scale": [
        2.048084607195051,
        2.048084607195051,
        2.048084607195051
      ],
      "mesh": 0
    }
  ],
  "scenes": [
    {
      "name": "Scene",
      "nodes": [
        0
      ]
    }
  ],
  "scene": 0,
  "extensionsUsed": [
    "EXT_meshopt_compression",
    "KHR_mesh_quantization"
  ],
  "extensionsRequired": [
    "EXT_meshopt_compression",
    "KHR_mesh_quantization"
  ]
}