{
  "asset": {
    "generator": "glTF-Transform v4.5.0",
    "version": "2.0"
  },
  "accessors": [
    {
      "type": "SCALAR",
      "componentType": 5123,
      "count": 1032,
      "normalized": false,
      "byteOffset": 0,
      "bufferView": 0
    },
    {
      "type": "VEC3",
      "componentType": 5120,
      "count": 366,
      "normalized": true,
      "byteOffset": 0,
      "bufferView": 1
    },
    {
      "type": "SCALAR",
      "componentType": 5123,
      "count": 126,
      "normalized": false,
      "byteOffset": 2064,
      "bufferView": 0
    },
    {
      "type": "VEC3",
      "componentType": 5120,
      "count": 25,
      "normalized": true,
      "byteOffset": 0,
      "bufferView": 2
    },
    {
      "type": "VEC3",
      "componentType": 5122,
      "count": 366,
      "max": [
        7788,
        14457,
        12253
      ],
      "min": [
        -7788,
        -32767,
        -12253
      ],
      "normalized": true,
      "byteOffset": 0,
      "bufferView": 3
    },
    {
      "type": "VEC3",
      "componentType": 5122,
      "count": 25,
      "max": [
        4540,
        32767,
        10285
      ],
      "min": [
        -5136,
        2800,
        1000
      ],
      "normalized": true,
      "byteOffset": 0,
      "bufferView": 4
    }
  ],
  "bufferViews": [
    {
      "buffer": 1,
      "byteOffset": 0,
      "byteLength": 2316,
      "target": 34963,
      "extensions": {
        "EXT_meshopt_compression": {
          "buffer": 0,
          "byteOffset": 0,
          "byteLength": 412,
          "mode": "TRIANGLES",
          "byteStride": 2,
          "count": 1158
        }
      }
    },
    {
      "buffer": 1,
      "byteOffset": 2316,
      "byteLength": 1464,
      "target": 34962,
      "byteStride": 4,
      "extensions": {
        "EXT_meshopt_compression": {
          "buffer": 0,
          "byteOffset": 412,
          "byteLength": 646,
          "mode": "ATTRIBUTES",
          "filter": "OCTAHEDRAL",
          "byteStride": 4,
          "count": 366
        }
      }
    },
    {
      "buffer": 1,
      "byteOffset": 3780,
      "byteLength": 100,
      "target": 34962,
      "byteStride": 4,
      "extensions": {
        "EXT_meshopt_compression": {
          "buffer": 0,
          "byteOffset": 1060,
          "byteLength": 94,
          "mode": "ATTRIBUTES",
          "filter": "OCTAHEDRAL",
          "byteStride": 4,
          "count": 25
        }
      }
    },
    {
      "buffer": 1,
      "byteOffset": 3880,
      "byteLength": 2928,
      "target": 34962,
      "byteStride": 8,
      "extensions": {
        "EXT_meshopt_compression": {
          "buffer": 0,
          "byteOffset": 1156,
          "byteLength": 1823,
          "mode": "ATTRIBUTES",
          "byteStride": 8,
          "count": 366
        }
      }
    },
    {
      "buffer": 1,
      "byteOffset": 6808,
      "byteLength": 200,
      "target": 34962,
      "byteStride": 8,
      "extensions": {
        "EXT_meshopt_compression": {
          "buffer": 0,
          "byteOffset": 2980,
          "byteLength": 207,
          "mode": "ATTRIBUTES",
          "byteStride": 8,
          "count": 25
        }
      }
    }
  ],
  "buffers": [
    {
      "uri": "Torch.bin",
      "byteLength": 3188
    },
    {
      "byteLength": 7008,
      "extensions": {
        "EXT_meshopt_compression": {
          "fallback": true
        }
      }
    }
  ],
  "materials": [
    {
      "name": "DarkMetal",
      "doubleSided": true,
      "pbrMetallicRoughness": {
        "baseColorFactor": [
          0.041473258286714554,
          0.03704424947500229,
          0.060716427862644196,
          1
        ],
        "roughnessFactor": 0.690034806728363,
        "metallicFactor": 0
      }
    },
    {
      "name": "Fire",
      "doubleSided": true,
      "pbrMetallicRoughness": {
        "baseColorFactor": [
          0.5711249709129333,
          0.17027759552001953,
          0.024706603959202766,
          1
        ],
        "roughnessFactor": 0.690034806728363,
        "metallicFactor": 0
      }
    }
  ],
  "meshes": [
    {
      "name": "Cylinder.042",
      "primitives": [
        {
          "attributes": {
            "NORMAL": 1,
            "POSITION": 4
          },
          "mode": 4,
          "material": 0,
          "indices": 0
        },
        {
          "attributes": {
            "NORMAL": 3,
            "POSITION": 5
          },
          "mode": 4,
          "material": 1,
          "indices": 2
        }
      ]
    }
  ],
  "nodes": [
    {
      "name": "Torch",
      "translation": [
        0,
        0.3144329637289047,
        -0.07471954822540283
      ],
      "scale": [
        0.5852178484201431,
        0.5852178484201431,
        0.5852178484201431
      ],
      "mesh": 0
    }
  ],
  "scenes": [
    {
      "name": "Scene",
      "nodes": [
        0
      ]
    }
  ],
  "scene": 0,
  "extensionsUsed": [
    "EXT_meshopt_compression",
    "KHR_mesh_quantization"
  ],
  "extensionsRequired": [
    "EXT_meshopt_compression",
    "KHR_mesh_quantization"
  ]
}