{
  "asset": {
    "generator": "glTF-Transform v4.5.0",
    "version": "2.0"
  },
  "accessors": [
    {
      "type": "SCALAR",
      "componentType": 5123,
      "count": 4380,
      "normalized": false,
      "byteOffset": 0,
      "bufferView": 0
    },
    {
      "type": "VEC3",
      "componentType": 5120,
      "count": 2610,
      "normalized": true,
      "byteOffset": 0,
      "bufferView": 1
    },
    {
      "type": "SCALAR",
      "componentType": 5123,
      "count": 432,
      "normalized": false,
      "byteOffset": 8760,
      "bufferView": 0
    },
    {
      "type": "VEC3",
      "componentType": 5120,
      "count": 296,
      "normalized": true,
      "byteOffset": 0,
      "bufferView": 2
    },
    {
      "type": "VEC3",
      "componentType": 5122,
      "count": 2610,
      "max": [
        25211,
        32767,
        25159
      ],
      "min": [
        -25211,
        -32767,
        -25159
      ],
      "normalized": true,
      "byteOffset": 0,
      "bufferView": 3
    },
    {
      "type": "VEC3",
      "componentType": 5122,
      "count": 296,
      "max": [
        24254,
        25919,
        21270
      ],
      "min": [
        -25019,
        -31079,
        -20914
      ],
      "normalized": true,
      "byteOffset": 0,
      "bufferView": 4
    }
  ],
  "bufferViews": [
    {
      "buffer": 1,
      "byteOffset": 0,
      "byteLength": 9624,
      "target": 34963,
      "extensions": {
        "EXT_meshopt_compression": {
          "buffer": 0,
          "byteOffset": 0,
          "byteLength": 1624,
          "mode": "TRIANGLES",
          "byteStride": 2,
          "count": 4812
        }
      }
    },
    {
      "buffer": 1,
      "byteOffset": 9624,
      "byteLength": 10440,
      "target": 34962,
      "byteStride": 4,
      "extensions": {
        "EXT_meshopt_compression": {
          "buffer": 0,
          "byteOffset": 1624,
          "byteLength": 2619,
          "mode": "ATTRIBUTES",
          "filter": "OCTAHEDRAL",
          "byteStride": 4,
          "count": 2610
        }
      }
    },
    {
      "buffer": 1,
      "byteOffset": 20064,
      "byteLength": 1184,
      "target": 34962,
      "byteStride": 4,
      "extensions": {
        "EXT_meshopt_compression": {
          "buffer": 0,
          "byteOffset": 4244,
          "byteLength": 343,
          "mode": "ATTRIBUTES",
          "filter": "OCTAHEDRAL",
          "byteStride": 4,
          "count": 296
        }
      }
    },
    {
      "buffer": 1,
      "byteOffset": 21248,
      "byteLength": 20880,
      "target": 34962,
      "byteStride": 8,
      "extensions": {
        "EXT_meshopt_compression": {
          "buffer": 0,
          "byteOffset": 4588,
          "byteLength": 14102,
          "mode": "ATTRIBUTES",
          "byteStride": 8,
          "count": 2610
        }
      }
    },
    {
      "buffer": 1,
      "byteOffset": 42128,
      "byteLength": 2368,
      "target": 34962,
      "byteStride": 8,
      "extensions": {
        "EXT_meshopt_compression": {
          "buffer": 0,
          "byteOffset": 18692,
          "byteLength": 1470,
          "mode": "ATTRIBUTES",
          "byteStride": 8,
          "count": 296
        }
      }
    }
  ],
  "buffers": [
    {
      "uri": "Wall_ArchRound_Broken.bin",
      "byteLength": 20164
    },
    {
      "byteLength": 44496,
      "extensions": {
        "EXT_meshopt_compression": {
          "fallback": true
        }
      }
    }
  ],
  "materials": [
    {
      "name": "Main",
      "doubleSided": true,
      "pbrMetallicRoughness": {
        "baseColorFactor": [
          0.15896087884902954,
          0.16202940046787262,
          0.1247718334197998,
          1
        ],
        "roughnessFactor": 0.690034806728363,
        "metallicFactor": 0
      }
    },
    {
      "name": "Highlights",
      "doubleSided": true,
      "pbrMetallicRoughness": {
        "baseColorFactor": [
          0.289932519197464,
          0.29568690061569214,
          0.22595453262329102,
          1
        ],
        "roughnessFactor": 0.690034806728363,
        "metallicFactor": 0
      }
    }
  ],
  "meshes": [
    {
      "name": "Cube.059",
      "primitives": [
        {
          "attributes": {
            "NORMAL": 1,
            "POSITION": 4
          },
          "mode": 4,
          "material": 0,
          "indices": 0
        },
        {
          "attributes": {
            "NORMAL": 3,
            "POSITION": 5
          },
          "mode": 4,
          "material": 1,
          "indices": 2
        }
      ]
    }
  ],
  "nodes": [
    {
      "name": "Wall_ArchRound_Broken",
      "translation": [
        -0.0004432201385498047,
        1.9950533016294465,
        -0.09530281268347557
      ],
      "rotation": [
        0.7071068286895688,
        0,
        0,
        0.7071067336835231
      ],
      "scale": [
        2.59496533870697,
        0.15499730256645713,
        2.5949656873635694
      ],
      "mesh": 0
    }
  ],
  "scenes": [
    {
      "name": "Scene",
      "nodes": [
        0
      ]
    }
  ],
  "scene": 0,
  "extensionsUsed": [
    "EXT_meshopt_compression",
    "KHR_mesh_quantization"
  ],
  "extensionsRequired": [
    "EXT_meshopt_compression",
    "KHR_mesh_quantization"
  ]
}