{
  "asset": {
    "generator": "glTF-Transform v4.5.0",
    "version": "2.0"
  },
  "accessors": [
    {
      "type": "SCALAR",
      "componentType": 5123,
      "count": 2916,
      "normalized": false,
      "byteOffset": 0,
      "bufferView": 0
    },
    {
      "type": "VEC3",
      "componentType": 5120,
      "count": 1696,
      "normalized": true,
      "byteOffset": 0,
      "bufferView": 1
    },
    {
      "type": "SCALAR",
      "componentType": 5123,
      "count": 528,
      "normalized": false,
      "byteOffset": 5832,
      "bufferView": 0
    },
    {
      "type": "VEC3",
      "componentType": 5120,
      "count": 300,
      "normalized": true,
      "byteOffset": 0,
      "bufferView": 2
    },
    {
      "type": "SCALAR",
      "componentType": 5123,
      "count": 222,
      "normalized": false,
      "byteOffset": 6888,
      "bufferView": 0
    },
    {
      "type": "VEC3",
      "componentType": 5120,
      "count": 148,
      "normalized": true,
      "byteOffset": 0,
      "bufferView": 3
    },
    {
      "type": "VEC3",
      "componentType": 5122,
      "count": 1696,
      "max": [
        12861,
        29775,
        12841
      ],
      "min": [
        -12861,
        -32015,
        -12841
      ],
      "normalized": true,
      "byteOffset": 0,
      "bufferView": 4
    },
    {
      "type": "VEC2",
      "componentType": 5123,
      "count": 1696,
      "normalized": true,
      "byteOffset": 0,
      "bufferView": 5
    },
    {
      "type": "VEC3",
      "componentType": 5122,
      "count": 300,
      "max": [
        12653,
        32767,
        9121
      ],
      "min": [
        -11917,
        -32767,
        -9049
      ],
      "normalized": true,
      "byteOffset": 0,
      "bufferView": 6
    },
    {
      "type": "VEC2",
      "componentType": 5123,
      "count": 300,
      "normalized": true,
      "byteOffset": 0,
      "bufferView": 7
    },
    {
      "type": "VEC3",
      "componentType": 5122,
      "count": 148,
      "max": [
        4332,
        -5900,
        8369
      ],
      "min": [
        -4312,
        -14777,
        -8741
      ],
      "normalized": true,
      "byteOffset": 0,
      "bufferView": 8
    },
    {
      "type": "VEC2",
      "componentType": 5123,
      "count": 148,
      "normalized": true,
      "byteOffset": 0,
      "bufferView": 9
    }
  ],
  "bufferViews": [
    {
      "buffer": 1,
      "byteOffset": 0,
      "byteLength": 7332,
      "target": 34963,
      "extensions": {
        "EXT_meshopt_compression": {
          "buffer": 0,
          "byteOffset": 0,
          "byteLength": 1249,
          "mode": "TRIANGLES",
          "byteStride": 2,
          "count": 3666
        }
      }
    },
    {
      "buffer": 1,
      "byteOffset": 7332,
      "byteLength": 6784,
      "target": 34962,
      "byteStride": 4,
      "extensions": {
        "EXT_meshopt_compression": {
          "buffer": 0,
          "byteOffset": 1252,
          "byteLength": 1687,
          "mode": "ATTRIBUTES",
          "filter": "OCTAHEDRAL",
          "byteStride": 4,
          "count": 1696
        }
      }
    },
    {
      "buffer": 1,
      "byteOffset": 14116,
      "byteLength": 1200,
      "target": 34962,
      "byteStride": 4,
      "extensions": {
        "EXT_meshopt_compression": {
          "buffer": 0,
          "byteOffset": 2940,
          "byteLength": 259,
          "mode": "ATTRIBUTES",
          "filter": "OCTAHEDRAL",
          "byteStride": 4,
          "count": 300
        }
      }
    },
    {
      "buffer": 1,
      "byteOffset": 15316,
      "byteLength": 592,
      "target": 34962,
      "byteStride": 4,
      "extensions": {
        "EXT_meshopt_compression": {
          "buffer": 0,
          "byteOffset": 3200,
          "byteLength": 165,
          "mode": "ATTRIBUTES",
          "filter": "OCTAHEDRAL",
          "byteStride": 4,
          "count": 148
        }
      }
    },
    {
      "buffer": 1,
      "byteOffset": 15908,
      "byteLength": 13568,
      "target": 34962,
      "byteStride": 8,
      "extensions": {
        "EXT_meshopt_compression": {
          "buffer": 0,
          "byteOffset": 3368,
          "byteLength": 9157,
          "mode": "ATTRIBUTES",
          "byteStride": 8,
          "count": 1696
        }
      }
    },
    {
      "buffer": 1,
      "byteOffset": 29476,
      "byteLength": 6784,
      "target": 34962,
      "byteStride": 4,
      "extensions": {
        "EXT_meshopt_compression": {
          "buffer": 0,
          "byteOffset": 12528,
          "byteLength": 141,
          "mode": "ATTRIBUTES",
          "byteStride": 4,
          "count": 1696
        }
      }
    },
    {
      "buffer": 1,
      "byteOffset": 36260,
      "byteLength": 2400,
      "target": 34962,
      "byteStride": 8,
      "extensions": {
        "EXT_meshopt_compression": {
          "buffer": 0,
          "byteOffset": 12672,
          "byteLength": 1315,
          "mode": "ATTRIBUTES",
          "byteStride": 8,
          "count": 300
        }
      }
    },
    {
      "buffer": 1,
      "byteOffset": 38660,
      "byteLength": 1200,
      "target": 34962,
      "byteStride": 4,
      "extensions": {
        "EXT_meshopt_compression": {
          "buffer": 0,
          "byteOffset": 13988,
          "byteLength": 53,
          "mode": "ATTRIBUTES",
          "byteStride": 4,
          "count": 300
        }
      }
    },
    {
      "buffer": 1,
      "byteOffset": 39860,
      "byteLength": 1184,
      "target": 34962,
      "byteStride": 8,
      "extensions": {
        "EXT_meshopt_compression": {
          "buffer": 0,
          "byteOffset": 14044,
          "byteLength": 651,
          "mode": "ATTRIBUTES",
          "byteStride": 8,
          "count": 148
        }
      }
    },
    {
      "buffer": 1,
      "byteOffset": 41044,
      "byteLength": 592,
      "target": 34962,
      "byteStride": 4,
      "extensions": {
        "EXT_meshopt_compression": {
          "buffer": 0,
          "byteOffset": 14696,
          "byteLength": 45,
          "mode": "ATTRIBUTES",
          "byteStride": 4,
          "count": 148
        }
      }
    }
  ],
  "buffers": [
    {
      "uri": "Window_Bars.bin",
      "byteLength": 14744
    },
    {
      "byteLength": 41636,
      "extensions": {
        "EXT_meshopt_compression": {
          "fallback": true
        }
      }
    }
  ],
  "materials": [
    {
      "name": "Main",
      "doubleSided": true,
      "pbrMetallicRoughness": {
        "baseColorFactor": [
          0.15896087884902954,
          0.16202940046787262,
          0.1247718334197998,
          1
        ],
        "roughnessFactor": 0.690034806728363,
        "metallicFactor": 0
      }
    },
    {
      "name": "Highlights",
      "doubleSided": true,
      "pbrMetallicRoughness": {
        "baseColorFactor": [
          0.289932519197464,
          0.29568690061569214,
          0.22595453262329102,
          1
        ],
        "roughnessFactor": 0.690034806728363,
        "metallicFactor": 0
      }
    },
    {
      "name": "Metal",
      "doubleSided": true,
      "pbrMetallicRoughness": {
        "baseColorFactor": [
          0.09704122692346573,
          0.10234932601451874,
          0.11927313357591629,
          1
        ],
        "roughnessFactor": 0.690034806728363,
        "metallicFactor": 0
      }
    }
  ],
  "meshes": [
    {
      "name": "Cube.015",
      "primitives": [
        {
          "attributes": {
            "NORMAL": 1,
            "POSITION": 6,
            "TEXCOORD_0": 7
          },
          "mode": 4,
          "material": 0,
          "indices": 0
        },
        {
          "attributes": {
            "NORMAL": 3,
            "POSITION": 8,
            "TEXCOORD_0": 9
          },
          "mode": 4,
          "material": 1,
          "indices": 2
        },
        {
          "attributes": {
            "NORMAL": 5,
            "POSITION": 10,
            "TEXCOORD_0": 11
          },
          "mode": 4,
          "material": 2,
          "indices": 4
        }
      ]
    }
  ],
  "nodes": [
    {
      "name": "Window_Bars",
      "translation": [
        0.0018526315689086914,
        0.9954976904712021,
        -0.11515581247197333
      ],
      "rotation": [
        -0.7071068882942236,
        0,
        0,
        0.7071066740788552
      ],
      "scale": [
        2.5354956686496735,
        0.1514451531177166,
        2.5354955818633984
      ],
      "mesh": 0
    }
  ],
  "scenes": [
    {
      "name": "Scene",
      "nodes": [
        0
      ]
    }
  ],
  "scene": 0,
  "extensionsUsed": [
    "EXT_meshopt_compression",
    "KHR_mesh_quantization"
  ],
  "extensionsRequired": [
    "EXT_meshopt_compression",
    "KHR_mesh_quantization"
  ]
}