{
  "asset": {
    "generator": "glTF-Transform v4.5.0",
    "version": "2.0"
  },
  "accessors": [
    {
      "type": "SCALAR",
      "componentType": 5123,
      "count": 4080,
      "normalized": false,
      "byteOffset": 0,
      "bufferView": 0
    },
    {
      "type": "VEC3",
      "componentType": 5120,
      "count": 825,
      "normalized": true,
      "byteOffset": 0,
      "bufferView": 1
    },
    {
      "type": "VEC2",
      "componentType": 5126,
      "count": 825,
      "normalized": false,
      "byteOffset": 0,
      "bufferView": 2
    },
    {
      "type": "VEC3",
      "componentType": 5122,
      "count": 825,
      "max": [
        18130,
        32767,
        19302
      ],
      "min": [
        -18130,
        -32767,
        -19302
      ],
      "normalized": true,
      "byteOffset": 0,
      "bufferView": 3
    }
  ],
  "bufferViews": [
    {
      "buffer": 1,
      "byteOffset": 0,
      "byteLength": 8160,
      "target": 34963,
      "extensions": {
        "EXT_meshopt_compression": {
          "buffer": 0,
          "byteOffset": 0,
          "byteLength": 1544,
          "mode": "TRIANGLES",
          "byteStride": 2,
          "count": 4080
        }
      }
    },
    {
      "buffer": 1,
      "byteOffset": 8160,
      "byteLength": 3300,
      "target": 34962,
      "byteStride": 4,
      "extensions": {
        "EXT_meshopt_compression": {
          "buffer": 0,
          "byteOffset": 1544,
          "byteLength": 1719,
          "mode": "ATTRIBUTES",
          "filter": "OCTAHEDRAL",
          "byteStride": 4,
          "count": 825
        }
      }
    },
    {
      "buffer": 1,
      "byteOffset": 11460,
      "byteLength": 6600,
      "target": 34962,
      "byteStride": 8,
      "extensions": {
        "EXT_meshopt_compression": {
          "buffer": 0,
          "byteOffset": 3264,
          "byteLength": 4932,
          "mode": "ATTRIBUTES",
          "byteStride": 8,
          "count": 825
        }
      }
    },
    {
      "buffer": 1,
      "byteOffset": 18060,
      "byteLength": 6600,
      "target": 34962,
      "byteStride": 8,
      "extensions": {
        "EXT_meshopt_compression": {
          "buffer": 0,
          "byteOffset": 8196,
          "byteLength": 4168,
          "mode": "ATTRIBUTES",
          "byteStride": 8,
          "count": 825
        }
      }
    }
  ],
  "samplers": [
    {
      "magFilter": 9729,
      "minFilter": 9987,
      "wrapS": 10497,
      "wrapT": 10497
    }
  ],
  "textures": [
    {
      "sampler": 0,
      "extensions": {
        "KHR_texture_basisu": {
          "source": 1
        }
      }
    },
    {
      "sampler": 0,
      "extensions": {
        "KHR_texture_basisu": {
          "source": 0
        }
      }
    }
  ],
  "images": [
    {
      "mimeType": "image/ktx2",
      "uri": "NormalTree_Bark_Normal.ktx2"
    },
    {
      "mimeType": "image/ktx2",
      "uri": "NormalTree_Bark.ktx2"
    }
  ],
  "buffers": [
    {
      "uri": "DeadTree_5.bin",
      "byteLength": 12364
    },
    {
      "byteLength": 24660,
      "extensions": {
        "EXT_meshopt_compression": {
          "fallback": true
        }
      }
    }
  ],
  "materials": [
    {
      "name": "NormalTree_Bark",
      "doubleSided": true,
      "pbrMetallicRoughness": {
        "roughnessFactor": 0.5,
        "metallicFactor": 0,
        "baseColorTexture": {
          "index": 0
        }
      },
      "normalTexture": {
        "index": 1
      }
    }
  ],
  "meshes": [
    {
      "name": "Cylinder.005",
      "primitives": [
        {
          "attributes": {
            "NORMAL": 1,
            "TEXCOORD_0": 2,
            "POSITION": 3
          },
          "mode": 4,
          "material": 0,
          "indices": 0
        }
      ]
    }
  ],
  "nodes": [
    {
      "name": "DeadTree_5",
      "translation": [
        0.05554661154747009,
        1.3014074210077524,
        -0.042788177728652954
      ],
      "scale": [
        1.3018123265355825,
        1.3018123265355825,
        1.3018123265355825
      ],
      "mesh": 0
    }
  ],
  "scenes": [
    {
      "name": "Scene",
      "nodes": [
        0
      ]
    }
  ],
  "scene": 0,
  "extensionsUsed": [
    "EXT_meshopt_compression",
    "KHR_mesh_quantization",
    "KHR_texture_basisu"
  ],
  "extensionsRequired": [
    "EXT_meshopt_compression",
    "KHR_mesh_quantization",
    "KHR_texture_basisu"
  ]
}