{
	"asset":{
		"generator":"Khronos glTF Blender I/O v5.2.40",
		"version":"2.0"
	},
	"extensionsUsed":[
		"KHR_materials_specular"
	],
	"scene":0,
	"scenes":[
		{
			"name":"Scene",
			"nodes":[
				0
			]
		}
	],
	"nodes":[
		{
			"mesh":0,
			"name":"PineTree_2"
		}
	],
	"materials":[
		{
			"doubleSided":true,
			"extensions":{
				"KHR_materials_specular":{
					"specularColorFactor":[
						2.0,
						2.0,
						2.0
					]
				}
			},
			"name":"PineTree_Bark",
			"normalTexture":{
				"index":0
			},
			"pbrMetallicRoughness":{
				"baseColorTexture":{
					"index":1
				},
				"roughnessFactor":0.5527864098548889
			}
		},
		{
			"alphaMode":"BLEND",
			"doubleSided":true,
			"extensions":{
				"KHR_materials_specular":{
					"specularColorFactor":[
						2.0,
						2.0,
						2.0
					]
				}
			},
			"name":"PineTree_Leaves",
			"pbrMetallicRoughness":{
				"baseColorTexture":{
					"index":2
				},
				"roughnessFactor":0.5527864098548889
			}
		}
	],
	"meshes":[
		{
			"name":"Cube.004",
			"primitives":[
				{
					"attributes":{
						"POSITION":0,
						"NORMAL":1,
						"TEXCOORD_0":2
					},
					"indices":3,
					"material":0
				},
				{
					"attributes":{
						"POSITION":4,
						"NORMAL":5,
						"TEXCOORD_0":6
					},
					"indices":7,
					"material":1
				}
			]
		}
	],
	"textures":[
		{
			"sampler":0,
			"source":0
		},
		{
			"sampler":0,
			"source":1
		},
		{
			"sampler":0,
			"source":2
		}
	],
	"images":[
		{
			"mimeType":"image/png",
			"name":"PineTree_Bark_Normal",
			"uri":"PineTree_Bark_Normal.png"
		},
		{
			"mimeType":"image/jpeg",
			"name":"PineTree_Bark",
			"uri":"PineTree_Bark.jpg"
		},
		{
			"mimeType":"image/png",
			"name":"PineTree_Leaves",
			"uri":"PineTree_Leaves.png"
		}
	],
	"accessors":[
		{
			"bufferView":0,
			"componentType":5126,
			"count":976,
			"max":[
				0.7040790319442749,
				6.912871837615967,
				0.4176293909549713
			],
			"min":[
				-0.5983111262321472,
				0.004260551184415817,
				-0.4644191265106201
			],
			"type":"VEC3"
		},
		{
			"bufferView":1,
			"componentType":5126,
			"count":976,
			"type":"VEC3"
		},
		{
			"bufferView":2,
			"componentType":5126,
			"count":976,
			"type":"VEC2"
		},
		{
			"bufferView":3,
			"componentType":5123,
			"count":4800,
			"type":"SCALAR"
		},
		{
			"bufferView":4,
			"componentType":5126,
			"count":972,
			"max":[
				1.7228964567184448,
				6.884300231933594,
				1.5616792440414429
			],
			"min":[
				-1.5540348291397095,
				2.2981085777282715,
				-1.4178131818771362
			],
			"type":"VEC3"
		},
		{
			"bufferView":5,
			"componentType":5126,
			"count":972,
			"type":"VEC3"
		},
		{
			"bufferView":6,
			"componentType":5126,
			"count":972,
			"type":"VEC2"
		},
		{
			"bufferView":7,
			"componentType":5123,
			"count":3348,
			"type":"SCALAR"
		}
	],
	"bufferViews":[
		{
			"buffer":0,
			"byteLength":11712,
			"byteOffset":0,
			"target":34962
		},
		{
			"buffer":0,
			"byteLength":11712,
			"byteOffset":11712,
			"target":34962
		},
		{
			"buffer":0,
			"byteLength":7808,
			"byteOffset":23424,
			"target":34962
		},
		{
			"buffer":0,
			"byteLength":9600,
			"byteOffset":31232,
			"target":34963
		},
		{
			"buffer":0,
			"byteLength":11664,
			"byteOffset":40832,
			"target":34962
		},
		{
			"buffer":0,
			"byteLength":11664,
			"byteOffset":52496,
			"target":34962
		},
		{
			"buffer":0,
			"byteLength":7776,
			"byteOffset":64160,
			"target":34962
		},
		{
			"buffer":0,
			"byteLength":6696,
			"byteOffset":71936,
			"target":34963
		}
	],
	"samplers":[
		{
			"magFilter":9729,
			"minFilter":9987
		}
	],
	"buffers":[
		{
			"byteLength":78632,
			"uri":"PineTree_2.bin"
		}
	]
}
