{
	"asset":{
		"generator":"Khronos glTF Blender I/O v5.2.40",
		"version":"2.0"
	},
	"extensionsUsed":[
		"KHR_materials_specular"
	],
	"scene":0,
	"scenes":[
		{
			"name":"Scene",
			"nodes":[
				0
			]
		}
	],
	"nodes":[
		{
			"mesh":0,
			"name":"Rock_5"
		}
	],
	"materials":[
		{
			"doubleSided":true,
			"extensions":{
				"KHR_materials_specular":{
					"specularColorFactor":[
						2.0,
						2.0,
						2.0
					]
				}
			},
			"name":"Rock",
			"pbrMetallicRoughness":{
				"baseColorTexture":{
					"index":0
				},
				"roughnessFactor":0.5527864098548889
			}
		}
	],
	"meshes":[
		{
			"name":"Cube.005",
			"primitives":[
				{
					"attributes":{
						"POSITION":0,
						"NORMAL":1,
						"TEXCOORD_0":2
					},
					"indices":3,
					"material":0
				}
			]
		}
	],
	"textures":[
		{
			"sampler":0,
			"source":0
		}
	],
	"images":[
		{
			"mimeType":"image/jpeg",
			"name":"Rocks",
			"uri":"Rocks.jpg"
		}
	],
	"accessors":[
		{
			"bufferView":0,
			"componentType":5126,
			"count":855,
			"max":[
				0.4322183132171631,
				1.5929020643234253,
				0.6944564580917358
			],
			"min":[
				-0.8584786057472229,
				-0.10166077315807343,
				-0.6228621602058411
			],
			"type":"VEC3"
		},
		{
			"bufferView":1,
			"componentType":5126,
			"count":855,
			"type":"VEC3"
		},
		{
			"bufferView":2,
			"componentType":5126,
			"count":855,
			"type":"VEC2"
		},
		{
			"bufferView":3,
			"componentType":5123,
			"count":1896,
			"type":"SCALAR"
		}
	],
	"bufferViews":[
		{
			"buffer":0,
			"byteLength":10260,
			"byteOffset":0,
			"target":34962
		},
		{
			"buffer":0,
			"byteLength":10260,
			"byteOffset":10260,
			"target":34962
		},
		{
			"buffer":0,
			"byteLength":6840,
			"byteOffset":20520,
			"target":34962
		},
		{
			"buffer":0,
			"byteLength":3792,
			"byteOffset":27360,
			"target":34963
		}
	],
	"samplers":[
		{
			"magFilter":9729,
			"minFilter":9987
		}
	],
	"buffers":[
		{
			"byteLength":31152,
			"uri":"Rock_5.bin"
		}
	]
}
