{
  "asset": {
    "generator": "glTF-Transform v4.5.0",
    "version": "2.0"
  },
  "accessors": [
    {
      "type": "SCALAR",
      "componentType": 5123,
      "count": 5115,
      "normalized": false,
      "byteOffset": 0,
      "bufferView": 0
    },
    {
      "type": "VEC3",
      "componentType": 5120,
      "count": 2149,
      "normalized": true,
      "byteOffset": 0,
      "bufferView": 1
    },
    {
      "type": "VEC2",
      "componentType": 5126,
      "count": 2149,
      "normalized": false,
      "byteOffset": 0,
      "bufferView": 2
    },
    {
      "type": "SCALAR",
      "componentType": 5123,
      "count": 5400,
      "normalized": false,
      "byteOffset": 10230,
      "bufferView": 0
    },
    {
      "type": "VEC3",
      "componentType": 5120,
      "count": 3600,
      "normalized": true,
      "byteOffset": 0,
      "bufferView": 3
    },
    {
      "type": "VEC4",
      "componentType": 5121,
      "count": 2149,
      "normalized": true,
      "byteOffset": 0,
      "bufferView": 4
    },
    {
      "type": "VEC3",
      "componentType": 5122,
      "count": 2149,
      "max": [
        6940,
        24394,
        7252
      ],
      "min": [
        -6212,
        -32767,
        -6096
      ],
      "normalized": true,
      "byteOffset": 0,
      "bufferView": 5
    },
    {
      "type": "VEC4",
      "componentType": 5121,
      "count": 3600,
      "normalized": true,
      "byteOffset": 0,
      "bufferView": 6
    },
    {
      "type": "VEC3",
      "componentType": 5122,
      "count": 3600,
      "max": [
        14125,
        32767,
        14745
      ],
      "min": [
        -14125,
        -13165,
        -14745
      ],
      "normalized": true,
      "byteOffset": 0,
      "bufferView": 7
    },
    {
      "type": "VEC2",
      "componentType": 5123,
      "count": 3600,
      "normalized": true,
      "byteOffset": 0,
      "bufferView": 8
    }
  ],
  "bufferViews": [
    {
      "buffer": 1,
      "byteOffset": 0,
      "byteLength": 21030,
      "target": 34963,
      "extensions": {
        "EXT_meshopt_compression": {
          "buffer": 0,
          "byteOffset": 0,
          "byteLength": 4342,
          "mode": "TRIANGLES",
          "byteStride": 2,
          "count": 10515
        }
      }
    },
    {
      "buffer": 1,
      "byteOffset": 21032,
      "byteLength": 8596,
      "target": 34962,
      "byteStride": 4,
      "extensions": {
        "EXT_meshopt_compression": {
          "buffer": 0,
          "byteOffset": 4344,
          "byteLength": 4407,
          "mode": "ATTRIBUTES",
          "filter": "OCTAHEDRAL",
          "byteStride": 4,
          "count": 2149
        }
      }
    },
    {
      "buffer": 1,
      "byteOffset": 29628,
      "byteLength": 17192,
      "target": 34962,
      "byteStride": 8,
      "extensions": {
        "EXT_meshopt_compression": {
          "buffer": 0,
          "byteOffset": 8752,
          "byteLength": 13138,
          "mode": "ATTRIBUTES",
          "byteStride": 8,
          "count": 2149
        }
      }
    },
    {
      "buffer": 1,
      "byteOffset": 46820,
      "byteLength": 14400,
      "target": 34962,
      "byteStride": 4,
      "extensions": {
        "EXT_meshopt_compression": {
          "buffer": 0,
          "byteOffset": 21892,
          "byteLength": 7460,
          "mode": "ATTRIBUTES",
          "filter": "OCTAHEDRAL",
          "byteStride": 4,
          "count": 3600
        }
      }
    },
    {
      "buffer": 1,
      "byteOffset": 61220,
      "byteLength": 8596,
      "target": 34962,
      "byteStride": 4,
      "extensions": {
        "EXT_meshopt_compression": {
          "buffer": 0,
          "byteOffset": 29352,
          "byteLength": 1441,
          "mode": "ATTRIBUTES",
          "byteStride": 4,
          "count": 2149
        }
      }
    },
    {
      "buffer": 1,
      "byteOffset": 69816,
      "byteLength": 17192,
      "target": 34962,
      "byteStride": 8,
      "extensions": {
        "EXT_meshopt_compression": {
          "buffer": 0,
          "byteOffset": 30796,
          "byteLength": 10126,
          "mode": "ATTRIBUTES",
          "byteStride": 8,
          "count": 2149
        }
      }
    },
    {
      "buffer": 1,
      "byteOffset": 87008,
      "byteLength": 14400,
      "target": 34962,
      "byteStride": 4,
      "extensions": {
        "EXT_meshopt_compression": {
          "buffer": 0,
          "byteOffset": 40924,
          "byteLength": 261,
          "mode": "ATTRIBUTES",
          "byteStride": 4,
          "count": 3600
        }
      }
    },
    {
      "buffer": 1,
      "byteOffset": 101408,
      "byteLength": 28800,
      "target": 34962,
      "byteStride": 8,
      "extensions": {
        "EXT_meshopt_compression": {
          "buffer": 0,
          "byteOffset": 41188,
          "byteLength": 22063,
          "mode": "ATTRIBUTES",
          "byteStride": 8,
          "count": 3600
        }
      }
    },
    {
      "buffer": 1,
      "byteOffset": 130208,
      "byteLength": 14400,
      "target": 34962,
      "byteStride": 4,
      "extensions": {
        "EXT_meshopt_compression": {
          "buffer": 0,
          "byteOffset": 63252,
          "byteLength": 10801,
          "mode": "ATTRIBUTES",
          "byteStride": 4,
          "count": 3600
        }
      }
    }
  ],
  "samplers": [
    {
      "magFilter": 9729,
      "minFilter": 9987,
      "wrapS": 10497,
      "wrapT": 10497
    }
  ],
  "textures": [
    {
      "sampler": 0,
      "extensions": {
        "KHR_texture_basisu": {
          "source": 1
        }
      }
    },
    {
      "sampler": 0,
      "extensions": {
        "KHR_texture_basisu": {
          "source": 0
        }
      }
    },
    {
      "sampler": 0,
      "extensions": {
        "KHR_texture_basisu": {
          "source": 2
        }
      }
    }
  ],
  "images": [
    {
      "mimeType": "image/ktx2",
      "uri": "Bark_NormalTree_Normal.ktx2"
    },
    {
      "mimeType": "image/ktx2",
      "uri": "Bark_NormalTree.ktx2"
    },
    {
      "mimeType": "image/ktx2",
      "uri": "Leaves_NormalTree_C.ktx2"
    }
  ],
  "buffers": [
    {
      "uri": "CommonTree_3.bin",
      "byteLength": 74056
    },
    {
      "byteLength": 144608,
      "extensions": {
        "EXT_meshopt_compression": {
          "fallback": true
        }
      }
    }
  ],
  "materials": [
    {
      "name": "Bark_NormalTree",
      "alphaMode": "MASK",
      "alphaCutoff": 0.20000000298023224,
      "doubleSided": true,
      "pbrMetallicRoughness": {
        "metallicFactor": 0,
        "baseColorTexture": {
          "index": 0
        }
      },
      "normalTexture": {
        "index": 1
      }
    },
    {
      "name": "Leaves_NormalTree",
      "alphaMode": "MASK",
      "alphaCutoff": 0.20000000298023224,
      "doubleSided": true,
      "pbrMetallicRoughness": {
        "metallicFactor": 0,
        "baseColorTexture": {
          "index": 2
        }
      }
    }
  ],
  "meshes": [
    {
      "name": "tree.025",
      "primitives": [
        {
          "attributes": {
            "NORMAL": 1,
            "TEXCOORD_0": 2,
            "COLOR_0": 5,
            "POSITION": 6
          },
          "mode": 4,
          "material": 0,
          "indices": 0
        },
        {
          "attributes": {
            "NORMAL": 4,
            "COLOR_0": 7,
            "POSITION": 8,
            "TEXCOORD_0": 9
          },
          "mode": 4,
          "material": 1,
          "indices": 3
        }
      ]
    }
  ],
  "nodes": [
    {
      "name": "CommonTree_3",
      "translation": [
        0.044957876205444336,
        4.469822928309441,
        0.05957293510437012
      ],
      "scale": [
        4.7125949412584305,
        4.7125949412584305,
        4.7125949412584305
      ],
      "mesh": 0
    }
  ],
  "scenes": [
    {
      "name": "Scene",
      "nodes": [
        0
      ]
    }
  ],
  "scene": 0,
  "extensionsUsed": [
    "EXT_meshopt_compression",
    "KHR_mesh_quantization",
    "KHR_texture_basisu"
  ],
  "extensionsRequired": [
    "EXT_meshopt_compression",
    "KHR_mesh_quantization",
    "KHR_texture_basisu"
  ]
}