{
  "asset": {
    "generator": "glTF-Transform v4.5.0",
    "version": "2.0"
  },
  "accessors": [
    {
      "type": "SCALAR",
      "componentType": 5123,
      "count": 19671,
      "normalized": false,
      "byteOffset": 0,
      "bufferView": 0
    },
    {
      "type": "VEC3",
      "componentType": 5120,
      "count": 8635,
      "normalized": true,
      "byteOffset": 0,
      "bufferView": 1
    },
    {
      "type": "VEC2",
      "componentType": 5126,
      "count": 8635,
      "normalized": false,
      "byteOffset": 0,
      "bufferView": 2
    },
    {
      "type": "VEC4",
      "componentType": 5121,
      "count": 8635,
      "normalized": true,
      "byteOffset": 0,
      "bufferView": 3
    },
    {
      "type": "VEC3",
      "componentType": 5122,
      "count": 8635,
      "max": [
        19194,
        32767,
        18194
      ],
      "min": [
        -19194,
        -32767,
        -18194
      ],
      "normalized": true,
      "byteOffset": 0,
      "bufferView": 4
    }
  ],
  "bufferViews": [
    {
      "buffer": 1,
      "byteOffset": 0,
      "byteLength": 39342,
      "target": 34963,
      "extensions": {
        "EXT_meshopt_compression": {
          "buffer": 0,
          "byteOffset": 0,
          "byteLength": 9603,
          "mode": "TRIANGLES",
          "byteStride": 2,
          "count": 19671
        }
      }
    },
    {
      "buffer": 1,
      "byteOffset": 39344,
      "byteLength": 34540,
      "target": 34962,
      "byteStride": 4,
      "extensions": {
        "EXT_meshopt_compression": {
          "buffer": 0,
          "byteOffset": 9604,
          "byteLength": 17763,
          "mode": "ATTRIBUTES",
          "filter": "OCTAHEDRAL",
          "byteStride": 4,
          "count": 8635
        }
      }
    },
    {
      "buffer": 1,
      "byteOffset": 73884,
      "byteLength": 69080,
      "target": 34962,
      "byteStride": 8,
      "extensions": {
        "EXT_meshopt_compression": {
          "buffer": 0,
          "byteOffset": 27368,
          "byteLength": 52751,
          "mode": "ATTRIBUTES",
          "byteStride": 8,
          "count": 8635
        }
      }
    },
    {
      "buffer": 1,
      "byteOffset": 142964,
      "byteLength": 34540,
      "target": 34962,
      "byteStride": 4,
      "extensions": {
        "EXT_meshopt_compression": {
          "buffer": 0,
          "byteOffset": 80120,
          "byteLength": 1709,
          "mode": "ATTRIBUTES",
          "byteStride": 4,
          "count": 8635
        }
      }
    },
    {
      "buffer": 1,
      "byteOffset": 177504,
      "byteLength": 69080,
      "target": 34962,
      "byteStride": 8,
      "extensions": {
        "EXT_meshopt_compression": {
          "buffer": 0,
          "byteOffset": 81832,
          "byteLength": 40631,
          "mode": "ATTRIBUTES",
          "byteStride": 8,
          "count": 8635
        }
      }
    }
  ],
  "samplers": [
    {
      "magFilter": 9729,
      "minFilter": 9987,
      "wrapS": 10497,
      "wrapT": 10497
    }
  ],
  "textures": [
    {
      "sampler": 0,
      "extensions": {
        "KHR_texture_basisu": {
          "source": 1
        }
      }
    },
    {
      "sampler": 0,
      "extensions": {
        "KHR_texture_basisu": {
          "source": 0
        }
      }
    }
  ],
  "images": [
    {
      "mimeType": "image/ktx2",
      "uri": "Bark_DeadTree_Normal.ktx2"
    },
    {
      "mimeType": "image/ktx2",
      "uri": "Bark_DeadTree.ktx2"
    }
  ],
  "buffers": [
    {
      "uri": "DeadTree_2.bin",
      "byteLength": 122464
    },
    {
      "byteLength": 246584,
      "extensions": {
        "EXT_meshopt_compression": {
          "fallback": true
        }
      }
    }
  ],
  "materials": [
    {
      "name": "Bark_DeadTree",
      "doubleSided": true,
      "pbrMetallicRoughness": {
        "metallicFactor": 0,
        "baseColorTexture": {
          "index": 0
        }
      },
      "normalTexture": {
        "index": 1
      }
    }
  ],
  "meshes": [
    {
      "name": "tree.043",
      "primitives": [
        {
          "attributes": {
            "NORMAL": 1,
            "TEXCOORD_0": 2,
            "COLOR_0": 3,
            "POSITION": 4
          },
          "mode": 4,
          "material": 0,
          "indices": 0
        }
      ]
    }
  ],
  "nodes": [
    {
      "name": "DeadTree_2",
      "translation": [
        1.0324651002883911,
        5.4085609912872314,
        0.6663919687271118
      ],
      "scale": [
        5.744115591049194,
        5.744115591049194,
        5.744115591049194
      ],
      "mesh": 0
    }
  ],
  "scenes": [
    {
      "name": "Scene",
      "nodes": [
        0
      ]
    }
  ],
  "scene": 0,
  "extensionsUsed": [
    "EXT_meshopt_compression",
    "KHR_mesh_quantization",
    "KHR_texture_basisu"
  ],
  "extensionsRequired": [
    "EXT_meshopt_compression",
    "KHR_mesh_quantization",
    "KHR_texture_basisu"
  ]
}