{
  "asset": {
    "generator": "glTF-Transform v4.5.0",
    "version": "2.0"
  },
  "accessors": [
    {
      "type": "SCALAR",
      "componentType": 5123,
      "count": 486,
      "normalized": false,
      "byteOffset": 0,
      "bufferView": 0
    },
    {
      "type": "VEC3",
      "componentType": 5120,
      "count": 99,
      "normalized": true,
      "byteOffset": 0,
      "bufferView": 1
    },
    {
      "type": "SCALAR",
      "componentType": 5123,
      "count": 1440,
      "normalized": false,
      "byteOffset": 972,
      "bufferView": 0
    },
    {
      "type": "VEC3",
      "componentType": 5120,
      "count": 400,
      "normalized": true,
      "byteOffset": 0,
      "bufferView": 2
    },
    {
      "type": "VEC2",
      "componentType": 5126,
      "count": 400,
      "normalized": false,
      "byteOffset": 0,
      "bufferView": 3
    },
    {
      "type": "VEC4",
      "componentType": 5121,
      "count": 99,
      "normalized": true,
      "byteOffset": 0,
      "bufferView": 4
    },
    {
      "type": "VEC3",
      "componentType": 5122,
      "count": 99,
      "max": [
        14525,
        30211,
        6148
      ],
      "min": [
        -14525,
        -32767,
        -9421
      ],
      "normalized": true,
      "byteOffset": 0,
      "bufferView": 5
    },
    {
      "type": "VEC2",
      "componentType": 5123,
      "count": 99,
      "normalized": true,
      "byteOffset": 0,
      "bufferView": 6
    },
    {
      "type": "VEC4",
      "componentType": 5121,
      "count": 400,
      "normalized": true,
      "byteOffset": 0,
      "bufferView": 7
    },
    {
      "type": "VEC3",
      "componentType": 5122,
      "count": 400,
      "max": [
        9465,
        32767,
        10469
      ],
      "min": [
        -11577,
        -1428,
        -10469
      ],
      "normalized": true,
      "byteOffset": 0,
      "bufferView": 8
    }
  ],
  "bufferViews": [
    {
      "buffer": 1,
      "byteOffset": 0,
      "byteLength": 3852,
      "target": 34963,
      "extensions": {
        "EXT_meshopt_compression": {
          "buffer": 0,
          "byteOffset": 0,
          "byteLength": 733,
          "mode": "TRIANGLES",
          "byteStride": 2,
          "count": 1926
        }
      }
    },
    {
      "buffer": 1,
      "byteOffset": 3852,
      "byteLength": 396,
      "target": 34962,
      "byteStride": 4,
      "extensions": {
        "EXT_meshopt_compression": {
          "buffer": 0,
          "byteOffset": 736,
          "byteLength": 234,
          "mode": "ATTRIBUTES",
          "filter": "OCTAHEDRAL",
          "byteStride": 4,
          "count": 99
        }
      }
    },
    {
      "buffer": 1,
      "byteOffset": 4248,
      "byteLength": 1600,
      "target": 34962,
      "byteStride": 4,
      "extensions": {
        "EXT_meshopt_compression": {
          "buffer": 0,
          "byteOffset": 972,
          "byteLength": 825,
          "mode": "ATTRIBUTES",
          "filter": "OCTAHEDRAL",
          "byteStride": 4,
          "count": 400
        }
      }
    },
    {
      "buffer": 1,
      "byteOffset": 5848,
      "byteLength": 3200,
      "target": 34962,
      "byteStride": 8,
      "extensions": {
        "EXT_meshopt_compression": {
          "buffer": 0,
          "byteOffset": 1800,
          "byteLength": 2489,
          "mode": "ATTRIBUTES",
          "byteStride": 8,
          "count": 400
        }
      }
    },
    {
      "buffer": 1,
      "byteOffset": 9048,
      "byteLength": 396,
      "target": 34962,
      "byteStride": 4,
      "extensions": {
        "EXT_meshopt_compression": {
          "buffer": 0,
          "byteOffset": 4292,
          "byteLength": 254,
          "mode": "ATTRIBUTES",
          "byteStride": 4,
          "count": 99
        }
      }
    },
    {
      "buffer": 1,
      "byteOffset": 9444,
      "byteLength": 792,
      "target": 34962,
      "byteStride": 8,
      "extensions": {
        "EXT_meshopt_compression": {
          "buffer": 0,
          "byteOffset": 4548,
          "byteLength": 535,
          "mode": "ATTRIBUTES",
          "byteStride": 8,
          "count": 99
        }
      }
    },
    {
      "buffer": 1,
      "byteOffset": 10236,
      "byteLength": 396,
      "target": 34962,
      "byteStride": 4,
      "extensions": {
        "EXT_meshopt_compression": {
          "buffer": 0,
          "byteOffset": 5084,
          "byteLength": 341,
          "mode": "ATTRIBUTES",
          "byteStride": 4,
          "count": 99
        }
      }
    },
    {
      "buffer": 1,
      "byteOffset": 10632,
      "byteLength": 1600,
      "target": 34962,
      "byteStride": 4,
      "extensions": {
        "EXT_meshopt_compression": {
          "buffer": 0,
          "byteOffset": 5428,
          "byteLength": 313,
          "mode": "ATTRIBUTES",
          "byteStride": 4,
          "count": 400
        }
      }
    },
    {
      "buffer": 1,
      "byteOffset": 12232,
      "byteLength": 3200,
      "target": 34962,
      "byteStride": 8,
      "extensions": {
        "EXT_meshopt_compression": {
          "buffer": 0,
          "byteOffset": 5744,
          "byteLength": 2194,
          "mode": "ATTRIBUTES",
          "byteStride": 8,
          "count": 400
        }
      }
    }
  ],
  "samplers": [
    {
      "magFilter": 9729,
      "minFilter": 9987,
      "wrapS": 10497,
      "wrapT": 10497
    }
  ],
  "textures": [
    {
      "sampler": 0,
      "extensions": {
        "KHR_texture_basisu": {
          "source": 0
        }
      }
    },
    {
      "sampler": 0,
      "extensions": {
        "KHR_texture_basisu": {
          "source": 1
        }
      }
    }
  ],
  "images": [
    {
      "mimeType": "image/ktx2",
      "uri": "Leaves.ktx2"
    },
    {
      "mimeType": "image/ktx2",
      "uri": "Flowers.ktx2"
    }
  ],
  "buffers": [
    {
      "uri": "Flower_4_Single.bin",
      "byteLength": 7940
    },
    {
      "byteLength": 15432,
      "extensions": {
        "EXT_meshopt_compression": {
          "fallback": true
        }
      }
    }
  ],
  "materials": [
    {
      "name": "Leaves",
      "alphaMode": "MASK",
      "alphaCutoff": 0.20000000298023224,
      "doubleSided": true,
      "pbrMetallicRoughness": {
        "metallicFactor": 0,
        "baseColorTexture": {
          "index": 0
        }
      }
    },
    {
      "name": "Flowers",
      "alphaMode": "MASK",
      "alphaCutoff": 0.20000000298023224,
      "doubleSided": true,
      "pbrMetallicRoughness": {
        "metallicFactor": 0,
        "baseColorTexture": {
          "index": 1
        }
      }
    }
  ],
  "meshes": [
    {
      "name": "Plane.001",
      "primitives": [
        {
          "attributes": {
            "NORMAL": 1,
            "COLOR_0": 5,
            "POSITION": 6,
            "TEXCOORD_0": 7
          },
          "mode": 4,
          "material": 0,
          "indices": 0
        },
        {
          "attributes": {
            "NORMAL": 3,
            "TEXCOORD_0": 4,
            "COLOR_0": 8,
            "POSITION": 9
          },
          "mode": 4,
          "material": 1,
          "indices": 2
        }
      ]
    }
  ],
  "nodes": [
    {
      "name": "Flower_4_Single",
      "translation": [
        0.03113776445388794,
        1.1791490679606795,
        -0.015370190143585205
      ],
      "scale": [
        1.2095795506611466,
        1.2095795506611466,
        1.2095795506611466
      ],
      "mesh": 0
    }
  ],
  "scenes": [
    {
      "name": "Scene",
      "nodes": [
        0
      ]
    }
  ],
  "scene": 0,
  "extensionsUsed": [
    "EXT_meshopt_compression",
    "KHR_mesh_quantization",
    "KHR_texture_basisu"
  ],
  "extensionsRequired": [
    "EXT_meshopt_compression",
    "KHR_mesh_quantization",
    "KHR_texture_basisu"
  ]
}