{
  "asset": {
    "generator": "glTF-Transform v4.5.0",
    "version": "2.0"
  },
  "accessors": [
    {
      "type": "SCALAR",
      "componentType": 5123,
      "count": 2130,
      "normalized": false,
      "byteOffset": 0,
      "bufferView": 0
    },
    {
      "type": "VEC3",
      "componentType": 5120,
      "count": 533,
      "normalized": true,
      "byteOffset": 0,
      "bufferView": 1
    },
    {
      "type": "SCALAR",
      "componentType": 5123,
      "count": 135,
      "normalized": false,
      "byteOffset": 4260,
      "bufferView": 0
    },
    {
      "type": "VEC3",
      "componentType": 5120,
      "count": 48,
      "normalized": true,
      "byteOffset": 0,
      "bufferView": 2
    },
    {
      "type": "VEC4",
      "componentType": 5121,
      "count": 533,
      "normalized": true,
      "byteOffset": 0,
      "bufferView": 3
    },
    {
      "type": "VEC3",
      "componentType": 5122,
      "count": 533,
      "max": [
        20974,
        24923,
        22666
      ],
      "min": [
        -22290,
        -32767,
        -17110
      ],
      "normalized": true,
      "byteOffset": 0,
      "bufferView": 4
    },
    {
      "type": "VEC2",
      "componentType": 5123,
      "count": 533,
      "normalized": true,
      "byteOffset": 0,
      "bufferView": 5
    },
    {
      "type": "VEC4",
      "componentType": 5121,
      "count": 48,
      "normalized": true,
      "byteOffset": 0,
      "bufferView": 6
    },
    {
      "type": "VEC3",
      "componentType": 5122,
      "count": 48,
      "max": [
        23734,
        32767,
        25375
      ],
      "min": [
        -23734,
        14633,
        -25375
      ],
      "normalized": true,
      "byteOffset": 0,
      "bufferView": 7
    },
    {
      "type": "VEC2",
      "componentType": 5123,
      "count": 48,
      "normalized": true,
      "byteOffset": 0,
      "bufferView": 8
    }
  ],
  "bufferViews": [
    {
      "buffer": 1,
      "byteOffset": 0,
      "byteLength": 4530,
      "target": 34963,
      "extensions": {
        "EXT_meshopt_compression": {
          "buffer": 0,
          "byteOffset": 0,
          "byteLength": 820,
          "mode": "TRIANGLES",
          "byteStride": 2,
          "count": 2265
        }
      }
    },
    {
      "buffer": 1,
      "byteOffset": 4532,
      "byteLength": 2132,
      "target": 34962,
      "byteStride": 4,
      "extensions": {
        "EXT_meshopt_compression": {
          "buffer": 0,
          "byteOffset": 820,
          "byteLength": 1106,
          "mode": "ATTRIBUTES",
          "filter": "OCTAHEDRAL",
          "byteStride": 4,
          "count": 533
        }
      }
    },
    {
      "buffer": 1,
      "byteOffset": 6664,
      "byteLength": 192,
      "target": 34962,
      "byteStride": 4,
      "extensions": {
        "EXT_meshopt_compression": {
          "buffer": 0,
          "byteOffset": 1928,
          "byteLength": 133,
          "mode": "ATTRIBUTES",
          "filter": "OCTAHEDRAL",
          "byteStride": 4,
          "count": 48
        }
      }
    },
    {
      "buffer": 1,
      "byteOffset": 6856,
      "byteLength": 2132,
      "target": 34962,
      "byteStride": 4,
      "extensions": {
        "EXT_meshopt_compression": {
          "buffer": 0,
          "byteOffset": 2064,
          "byteLength": 993,
          "mode": "ATTRIBUTES",
          "byteStride": 4,
          "count": 533
        }
      }
    },
    {
      "buffer": 1,
      "byteOffset": 8988,
      "byteLength": 4264,
      "target": 34962,
      "byteStride": 8,
      "extensions": {
        "EXT_meshopt_compression": {
          "buffer": 0,
          "byteOffset": 3060,
          "byteLength": 2926,
          "mode": "ATTRIBUTES",
          "byteStride": 8,
          "count": 533
        }
      }
    },
    {
      "buffer": 1,
      "byteOffset": 13252,
      "byteLength": 2132,
      "target": 34962,
      "byteStride": 4,
      "extensions": {
        "EXT_meshopt_compression": {
          "buffer": 0,
          "byteOffset": 5988,
          "byteLength": 1826,
          "mode": "ATTRIBUTES",
          "byteStride": 4,
          "count": 533
        }
      }
    },
    {
      "buffer": 1,
      "byteOffset": 15384,
      "byteLength": 192,
      "target": 34962,
      "byteStride": 4,
      "extensions": {
        "EXT_meshopt_compression": {
          "buffer": 0,
          "byteOffset": 7816,
          "byteLength": 37,
          "mode": "ATTRIBUTES",
          "byteStride": 4,
          "count": 48
        }
      }
    },
    {
      "buffer": 1,
      "byteOffset": 15576,
      "byteLength": 384,
      "target": 34962,
      "byteStride": 8,
      "extensions": {
        "EXT_meshopt_compression": {
          "buffer": 0,
          "byteOffset": 7856,
          "byteLength": 318,
          "mode": "ATTRIBUTES",
          "byteStride": 8,
          "count": 48
        }
      }
    },
    {
      "buffer": 1,
      "byteOffset": 15960,
      "byteLength": 192,
      "target": 34962,
      "byteStride": 4,
      "extensions": {
        "EXT_meshopt_compression": {
          "buffer": 0,
          "byteOffset": 8176,
          "byteLength": 229,
          "mode": "ATTRIBUTES",
          "byteStride": 4,
          "count": 48
        }
      }
    }
  ],
  "samplers": [
    {
      "magFilter": 9729,
      "minFilter": 9987,
      "wrapS": 10497,
      "wrapT": 10497
    }
  ],
  "textures": [
    {
      "sampler": 0,
      "extensions": {
        "KHR_texture_basisu": {
          "source": 0
        }
      }
    },
    {
      "sampler": 0,
      "extensions": {
        "KHR_texture_basisu": {
          "source": 1
        }
      }
    }
  ],
  "images": [
    {
      "mimeType": "image/ktx2",
      "uri": "Leaves.ktx2"
    },
    {
      "mimeType": "image/ktx2",
      "uri": "Flowers.ktx2"
    }
  ],
  "buffers": [
    {
      "uri": "Flower_3_Group.bin",
      "byteLength": 8408
    },
    {
      "byteLength": 16152,
      "extensions": {
        "EXT_meshopt_compression": {
          "fallback": true
        }
      }
    }
  ],
  "materials": [
    {
      "name": "Leaves",
      "alphaMode": "MASK",
      "alphaCutoff": 0.20000000298023224,
      "doubleSided": true,
      "pbrMetallicRoughness": {
        "metallicFactor": 0,
        "baseColorTexture": {
          "index": 0
        }
      }
    },
    {
      "name": "Flowers",
      "alphaMode": "MASK",
      "alphaCutoff": 0.20000000298023224,
      "doubleSided": true,
      "pbrMetallicRoughness": {
        "metallicFactor": 0,
        "baseColorTexture": {
          "index": 1
        }
      }
    }
  ],
  "meshes": [
    {
      "name": "Plane.021",
      "primitives": [
        {
          "attributes": {
            "NORMAL": 1,
            "COLOR_0": 4,
            "POSITION": 5,
            "TEXCOORD_0": 6
          },
          "mode": 4,
          "material": 0,
          "indices": 0
        },
        {
          "attributes": {
            "NORMAL": 3,
            "COLOR_0": 7,
            "POSITION": 8,
            "TEXCOORD_0": 9
          },
          "mode": 4,
          "material": 1,
          "indices": 2
        }
      ]
    }
  ],
  "nodes": [
    {
      "name": "Flower_3_Group",
      "translation": [
        0.13063696026802063,
        0.992833960801363,
        -0.006198227405548096
      ],
      "scale": [
        1.0274175517261028,
        1.0274175517261028,
        1.0274175517261028
      ],
      "mesh": 0
    }
  ],
  "scenes": [
    {
      "name": "Scene",
      "nodes": [
        0
      ]
    }
  ],
  "scene": 0,
  "extensionsUsed": [
    "EXT_meshopt_compression",
    "KHR_mesh_quantization",
    "KHR_texture_basisu"
  ],
  "extensionsRequired": [
    "EXT_meshopt_compression",
    "KHR_mesh_quantization",
    "KHR_texture_basisu"
  ]
}