{
  "asset": {
    "generator": "glTF-Transform v4.5.0",
    "version": "2.0"
  },
  "accessors": [
    {
      "type": "SCALAR",
      "componentType": 5123,
      "count": 465,
      "normalized": false,
      "byteOffset": 0,
      "bufferView": 0
    },
    {
      "type": "VEC3",
      "componentType": 5120,
      "count": 153,
      "normalized": true,
      "byteOffset": 0,
      "bufferView": 1
    },
    {
      "type": "VEC4",
      "componentType": 5121,
      "count": 153,
      "normalized": true,
      "byteOffset": 0,
      "bufferView": 2
    },
    {
      "type": "VEC3",
      "componentType": 5122,
      "count": 153,
      "max": [
        15689,
        32767,
        18110
      ],
      "min": [
        -15689,
        -32767,
        -18110
      ],
      "normalized": true,
      "byteOffset": 0,
      "bufferView": 3
    },
    {
      "type": "VEC2",
      "componentType": 5123,
      "count": 153,
      "normalized": true,
      "byteOffset": 0,
      "bufferView": 4
    }
  ],
  "bufferViews": [
    {
      "buffer": 1,
      "byteOffset": 0,
      "byteLength": 930,
      "target": 34963,
      "extensions": {
        "EXT_meshopt_compression": {
          "buffer": 0,
          "byteOffset": 0,
          "byteLength": 172,
          "mode": "TRIANGLES",
          "byteStride": 2,
          "count": 465
        }
      }
    },
    {
      "buffer": 1,
      "byteOffset": 932,
      "byteLength": 612,
      "target": 34962,
      "byteStride": 4,
      "extensions": {
        "EXT_meshopt_compression": {
          "buffer": 0,
          "byteOffset": 172,
          "byteLength": 89,
          "mode": "ATTRIBUTES",
          "filter": "OCTAHEDRAL",
          "byteStride": 4,
          "count": 153
        }
      }
    },
    {
      "buffer": 1,
      "byteOffset": 1544,
      "byteLength": 612,
      "target": 34962,
      "byteStride": 4,
      "extensions": {
        "EXT_meshopt_compression": {
          "buffer": 0,
          "byteOffset": 264,
          "byteLength": 417,
          "mode": "ATTRIBUTES",
          "byteStride": 4,
          "count": 153
        }
      }
    },
    {
      "buffer": 1,
      "byteOffset": 2156,
      "byteLength": 1224,
      "target": 34962,
      "byteStride": 8,
      "extensions": {
        "EXT_meshopt_compression": {
          "buffer": 0,
          "byteOffset": 684,
          "byteLength": 930,
          "mode": "ATTRIBUTES",
          "byteStride": 8,
          "count": 153
        }
      }
    },
    {
      "buffer": 1,
      "byteOffset": 3380,
      "byteLength": 612,
      "target": 34962,
      "byteStride": 4,
      "extensions": {
        "EXT_meshopt_compression": {
          "buffer": 0,
          "byteOffset": 1616,
          "byteLength": 546,
          "mode": "ATTRIBUTES",
          "byteStride": 4,
          "count": 153
        }
      }
    }
  ],
  "samplers": [
    {
      "magFilter": 9729,
      "minFilter": 9987,
      "wrapS": 10497,
      "wrapT": 10497
    }
  ],
  "textures": [
    {
      "sampler": 0,
      "extensions": {
        "KHR_texture_basisu": {
          "source": 0
        }
      }
    }
  ],
  "images": [
    {
      "mimeType": "image/ktx2",
      "uri": "Grass.ktx2"
    }
  ],
  "buffers": [
    {
      "uri": "Grass_Common_Short.bin",
      "byteLength": 2164
    },
    {
      "byteLength": 3992,
      "extensions": {
        "EXT_meshopt_compression": {
          "fallback": true
        }
      }
    }
  ],
  "materials": [
    {
      "name": "Grass",
      "doubleSided": true,
      "pbrMetallicRoughness": {
        "metallicFactor": 0,
        "baseColorTexture": {
          "index": 0
        }
      }
    }
  ],
  "meshes": [
    {
      "name": "Plane.014",
      "primitives": [
        {
          "attributes": {
            "NORMAL": 1,
            "COLOR_0": 2,
            "POSITION": 3,
            "TEXCOORD_0": 4
          },
          "mode": 4,
          "material": 0,
          "indices": 0
        }
      ]
    }
  ],
  "nodes": [
    {
      "name": "Grass_Common_Short",
      "translation": [
        -0.0362071692943573,
        0.6446665050461888,
        -0.11074553430080414
      ],
      "scale": [
        0.6670517204329371,
        0.6670517204329371,
        0.6670517204329371
      ],
      "mesh": 0
    }
  ],
  "scenes": [
    {
      "name": "Scene",
      "nodes": [
        0
      ]
    }
  ],
  "scene": 0,
  "extensionsUsed": [
    "EXT_meshopt_compression",
    "KHR_mesh_quantization",
    "KHR_texture_basisu"
  ],
  "extensionsRequired": [
    "EXT_meshopt_compression",
    "KHR_mesh_quantization",
    "KHR_texture_basisu"
  ]
}