{
  "asset": {
    "generator": "glTF-Transform v4.5.0",
    "version": "2.0"
  },
  "accessors": [
    {
      "type": "SCALAR",
      "componentType": 5123,
      "count": 978,
      "normalized": false,
      "byteOffset": 0,
      "bufferView": 0
    },
    {
      "type": "VEC3",
      "componentType": 5120,
      "count": 303,
      "normalized": true,
      "byteOffset": 0,
      "bufferView": 1
    },
    {
      "type": "VEC4",
      "componentType": 5121,
      "count": 303,
      "normalized": true,
      "byteOffset": 0,
      "bufferView": 2
    },
    {
      "type": "VEC3",
      "componentType": 5122,
      "count": 303,
      "max": [
        15661,
        32767,
        17378
      ],
      "min": [
        -15661,
        -32767,
        -17378
      ],
      "normalized": true,
      "byteOffset": 0,
      "bufferView": 3
    },
    {
      "type": "VEC2",
      "componentType": 5123,
      "count": 303,
      "normalized": true,
      "byteOffset": 0,
      "bufferView": 4
    }
  ],
  "bufferViews": [
    {
      "buffer": 1,
      "byteOffset": 0,
      "byteLength": 1956,
      "target": 34963,
      "extensions": {
        "EXT_meshopt_compression": {
          "buffer": 0,
          "byteOffset": 0,
          "byteLength": 343,
          "mode": "TRIANGLES",
          "byteStride": 2,
          "count": 978
        }
      }
    },
    {
      "buffer": 1,
      "byteOffset": 1956,
      "byteLength": 1212,
      "target": 34962,
      "byteStride": 4,
      "extensions": {
        "EXT_meshopt_compression": {
          "buffer": 0,
          "byteOffset": 344,
          "byteLength": 143,
          "mode": "ATTRIBUTES",
          "filter": "OCTAHEDRAL",
          "byteStride": 4,
          "count": 303
        }
      }
    },
    {
      "buffer": 1,
      "byteOffset": 3168,
      "byteLength": 1212,
      "target": 34962,
      "byteStride": 4,
      "extensions": {
        "EXT_meshopt_compression": {
          "buffer": 0,
          "byteOffset": 488,
          "byteLength": 761,
          "mode": "ATTRIBUTES",
          "byteStride": 4,
          "count": 303
        }
      }
    },
    {
      "buffer": 1,
      "byteOffset": 4380,
      "byteLength": 2424,
      "target": 34962,
      "byteStride": 8,
      "extensions": {
        "EXT_meshopt_compression": {
          "buffer": 0,
          "byteOffset": 1252,
          "byteLength": 1698,
          "mode": "ATTRIBUTES",
          "byteStride": 8,
          "count": 303
        }
      }
    },
    {
      "buffer": 1,
      "byteOffset": 6804,
      "byteLength": 1212,
      "target": 34962,
      "byteStride": 4,
      "extensions": {
        "EXT_meshopt_compression": {
          "buffer": 0,
          "byteOffset": 2952,
          "byteLength": 1007,
          "mode": "ATTRIBUTES",
          "byteStride": 4,
          "count": 303
        }
      }
    }
  ],
  "samplers": [
    {
      "magFilter": 9729,
      "minFilter": 9987,
      "wrapS": 10497,
      "wrapT": 10497
    }
  ],
  "textures": [
    {
      "sampler": 0,
      "extensions": {
        "KHR_texture_basisu": {
          "source": 0
        }
      }
    }
  ],
  "images": [
    {
      "mimeType": "image/ktx2",
      "uri": "Grass.ktx2"
    }
  ],
  "buffers": [
    {
      "uri": "Grass_Common_Tall.bin",
      "byteLength": 3960
    },
    {
      "byteLength": 8016,
      "extensions": {
        "EXT_meshopt_compression": {
          "fallback": true
        }
      }
    }
  ],
  "materials": [
    {
      "name": "Grass",
      "doubleSided": true,
      "pbrMetallicRoughness": {
        "metallicFactor": 0,
        "baseColorTexture": {
          "index": 0
        }
      }
    }
  ],
  "meshes": [
    {
      "name": "Plane.013",
      "primitives": [
        {
          "attributes": {
            "NORMAL": 1,
            "COLOR_0": 2,
            "POSITION": 3,
            "TEXCOORD_0": 4
          },
          "mode": 4,
          "material": 0,
          "indices": 0
        }
      ]
    }
  ],
  "nodes": [
    {
      "name": "Grass_Common_Tall",
      "translation": [
        0.04397696256637573,
        0.9049853906035423,
        0.017522573471069336
      ],
      "scale": [
        0.9363476410508156,
        0.9363476410508156,
        0.9363476410508156
      ],
      "mesh": 0
    }
  ],
  "scenes": [
    {
      "name": "Scene",
      "nodes": [
        0
      ]
    }
  ],
  "scene": 0,
  "extensionsUsed": [
    "EXT_meshopt_compression",
    "KHR_mesh_quantization",
    "KHR_texture_basisu"
  ],
  "extensionsRequired": [
    "EXT_meshopt_compression",
    "KHR_mesh_quantization",
    "KHR_texture_basisu"
  ]
}