{
  "asset": {
    "generator": "glTF-Transform v4.5.0",
    "version": "2.0"
  },
  "accessors": [
    {
      "type": "SCALAR",
      "componentType": 5123,
      "count": 1482,
      "normalized": false,
      "byteOffset": 0,
      "bufferView": 0
    },
    {
      "type": "VEC3",
      "componentType": 5120,
      "count": 559,
      "normalized": true,
      "byteOffset": 0,
      "bufferView": 1
    },
    {
      "type": "VEC4",
      "componentType": 5121,
      "count": 559,
      "normalized": true,
      "byteOffset": 0,
      "bufferView": 2
    },
    {
      "type": "VEC3",
      "componentType": 5122,
      "count": 559,
      "max": [
        32767,
        26563,
        29979
      ],
      "min": [
        -32767,
        -26563,
        -29979
      ],
      "normalized": true,
      "byteOffset": 0,
      "bufferView": 3
    },
    {
      "type": "VEC2",
      "componentType": 5123,
      "count": 559,
      "normalized": true,
      "byteOffset": 0,
      "bufferView": 4
    }
  ],
  "bufferViews": [
    {
      "buffer": 1,
      "byteOffset": 0,
      "byteLength": 2964,
      "target": 34963,
      "extensions": {
        "EXT_meshopt_compression": {
          "buffer": 0,
          "byteOffset": 0,
          "byteLength": 529,
          "mode": "TRIANGLES",
          "byteStride": 2,
          "count": 1482
        }
      }
    },
    {
      "buffer": 1,
      "byteOffset": 2964,
      "byteLength": 2236,
      "target": 34962,
      "byteStride": 4,
      "extensions": {
        "EXT_meshopt_compression": {
          "buffer": 0,
          "byteOffset": 532,
          "byteLength": 535,
          "mode": "ATTRIBUTES",
          "filter": "OCTAHEDRAL",
          "byteStride": 4,
          "count": 559
        }
      }
    },
    {
      "buffer": 1,
      "byteOffset": 5200,
      "byteLength": 2236,
      "target": 34962,
      "byteStride": 4,
      "extensions": {
        "EXT_meshopt_compression": {
          "buffer": 0,
          "byteOffset": 1068,
          "byteLength": 1533,
          "mode": "ATTRIBUTES",
          "byteStride": 4,
          "count": 559
        }
      }
    },
    {
      "buffer": 1,
      "byteOffset": 7436,
      "byteLength": 4472,
      "target": 34962,
      "byteStride": 8,
      "extensions": {
        "EXT_meshopt_compression": {
          "buffer": 0,
          "byteOffset": 2604,
          "byteLength": 3151,
          "mode": "ATTRIBUTES",
          "byteStride": 8,
          "count": 559
        }
      }
    },
    {
      "buffer": 1,
      "byteOffset": 11908,
      "byteLength": 2236,
      "target": 34962,
      "byteStride": 4,
      "extensions": {
        "EXT_meshopt_compression": {
          "buffer": 0,
          "byteOffset": 5756,
          "byteLength": 1806,
          "mode": "ATTRIBUTES",
          "byteStride": 4,
          "count": 559
        }
      }
    }
  ],
  "samplers": [
    {
      "magFilter": 9729,
      "minFilter": 9987,
      "wrapS": 10497,
      "wrapT": 10497
    }
  ],
  "textures": [
    {
      "sampler": 0,
      "extensions": {
        "KHR_texture_basisu": {
          "source": 0
        }
      }
    }
  ],
  "images": [
    {
      "mimeType": "image/ktx2",
      "uri": "Grass.ktx2"
    }
  ],
  "buffers": [
    {
      "uri": "Grass_Wispy_Short.bin",
      "byteLength": 7564
    },
    {
      "byteLength": 14144,
      "extensions": {
        "EXT_meshopt_compression": {
          "fallback": true
        }
      }
    }
  ],
  "materials": [
    {
      "name": "Grass",
      "doubleSided": true,
      "pbrMetallicRoughness": {
        "metallicFactor": 0,
        "baseColorTexture": {
          "index": 0
        }
      }
    }
  ],
  "meshes": [
    {
      "name": "Plane.033",
      "primitives": [
        {
          "attributes": {
            "NORMAL": 1,
            "COLOR_0": 2,
            "POSITION": 3,
            "TEXCOORD_0": 4
          },
          "mode": 4,
          "material": 0,
          "indices": 0
        }
      ]
    }
  ],
  "nodes": [
    {
      "name": "Grass_Wispy_Short",
      "translation": [
        -0.06695055961608887,
        0.45017335563898087,
        0.022061169147491455
      ],
      "scale": [
        0.66109299659729,
        0.66109299659729,
        0.66109299659729
      ],
      "mesh": 0
    }
  ],
  "scenes": [
    {
      "name": "Scene",
      "nodes": [
        0
      ]
    }
  ],
  "scene": 0,
  "extensionsUsed": [
    "EXT_meshopt_compression",
    "KHR_mesh_quantization",
    "KHR_texture_basisu"
  ],
  "extensionsRequired": [
    "EXT_meshopt_compression",
    "KHR_mesh_quantization",
    "KHR_texture_basisu"
  ]
}