{
  "asset": {
    "generator": "glTF-Transform v4.5.0",
    "version": "2.0"
  },
  "accessors": [
    {
      "type": "SCALAR",
      "componentType": 5123,
      "count": 312,
      "normalized": false,
      "byteOffset": 0,
      "bufferView": 0
    },
    {
      "type": "VEC3",
      "componentType": 5120,
      "count": 216,
      "normalized": true,
      "byteOffset": 0,
      "bufferView": 1
    },
    {
      "type": "VEC3",
      "componentType": 5122,
      "count": 216,
      "max": [
        32395,
        9685,
        32767
      ],
      "min": [
        -32395,
        -9685,
        -32767
      ],
      "normalized": true,
      "byteOffset": 0,
      "bufferView": 2
    },
    {
      "type": "VEC2",
      "componentType": 5123,
      "count": 216,
      "normalized": true,
      "byteOffset": 0,
      "bufferView": 3
    }
  ],
  "bufferViews": [
    {
      "buffer": 1,
      "byteOffset": 0,
      "byteLength": 624,
      "target": 34963,
      "extensions": {
        "EXT_meshopt_compression": {
          "buffer": 0,
          "byteOffset": 0,
          "byteLength": 121,
          "mode": "TRIANGLES",
          "byteStride": 2,
          "count": 312
        }
      }
    },
    {
      "buffer": 1,
      "byteOffset": 624,
      "byteLength": 864,
      "target": 34962,
      "byteStride": 4,
      "extensions": {
        "EXT_meshopt_compression": {
          "buffer": 0,
          "byteOffset": 124,
          "byteLength": 248,
          "mode": "ATTRIBUTES",
          "filter": "OCTAHEDRAL",
          "byteStride": 4,
          "count": 216
        }
      }
    },
    {
      "buffer": 1,
      "byteOffset": 1488,
      "byteLength": 1728,
      "target": 34962,
      "byteStride": 8,
      "extensions": {
        "EXT_meshopt_compression": {
          "buffer": 0,
          "byteOffset": 372,
          "byteLength": 1303,
          "mode": "ATTRIBUTES",
          "byteStride": 8,
          "count": 216
        }
      }
    },
    {
      "buffer": 1,
      "byteOffset": 3216,
      "byteLength": 864,
      "target": 34962,
      "byteStride": 4,
      "extensions": {
        "EXT_meshopt_compression": {
          "buffer": 0,
          "byteOffset": 1676,
          "byteLength": 896,
          "mode": "ATTRIBUTES",
          "byteStride": 4,
          "count": 216
        }
      }
    }
  ],
  "samplers": [
    {
      "magFilter": 9729,
      "minFilter": 9987,
      "wrapS": 10497,
      "wrapT": 10497
    }
  ],
  "textures": [
    {
      "sampler": 0,
      "extensions": {
        "KHR_texture_basisu": {
          "source": 0
        }
      }
    }
  ],
  "images": [
    {
      "mimeType": "image/ktx2",
      "uri": "PathRocks_Diffuse.ktx2"
    }
  ],
  "buffers": [
    {
      "uri": "Pebble_Square_1.bin",
      "byteLength": 2572
    },
    {
      "byteLength": 4080,
      "extensions": {
        "EXT_meshopt_compression": {
          "fallback": true
        }
      }
    }
  ],
  "materials": [
    {
      "name": "PathRocks",
      "doubleSided": true,
      "pbrMetallicRoughness": {
        "metallicFactor": 0,
        "baseColorTexture": {
          "index": 0
        }
      }
    }
  ],
  "meshes": [
    {
      "name": "Cube.017_Retopology.006",
      "primitives": [
        {
          "attributes": {
            "NORMAL": 1,
            "POSITION": 2,
            "TEXCOORD_0": 3
          },
          "mode": 4,
          "material": 0,
          "indices": 0
        }
      ]
    }
  ],
  "nodes": [
    {
      "name": "Pebble_Square_1",
      "translation": [
        -0.016030922532081604,
        0.06276319397147745,
        0.017945952713489532
      ],
      "scale": [
        0.2198215052485466,
        0.2198215052485466,
        0.2198215052485466
      ],
      "mesh": 0
    }
  ],
  "scenes": [
    {
      "name": "Scene",
      "nodes": [
        0
      ]
    }
  ],
  "scene": 0,
  "extensionsUsed": [
    "EXT_meshopt_compression",
    "KHR_mesh_quantization",
    "KHR_texture_basisu"
  ],
  "extensionsRequired": [
    "EXT_meshopt_compression",
    "KHR_mesh_quantization",
    "KHR_texture_basisu"
  ]
}