{
  "asset": {
    "generator": "glTF-Transform v4.5.0",
    "version": "2.0"
  },
  "accessors": [
    {
      "type": "SCALAR",
      "componentType": 5123,
      "count": 9531,
      "normalized": false,
      "byteOffset": 0,
      "bufferView": 0
    },
    {
      "type": "VEC3",
      "componentType": 5120,
      "count": 4076,
      "normalized": true,
      "byteOffset": 0,
      "bufferView": 1
    },
    {
      "type": "VEC2",
      "componentType": 5126,
      "count": 4076,
      "normalized": false,
      "byteOffset": 0,
      "bufferView": 2
    },
    {
      "type": "SCALAR",
      "componentType": 5123,
      "count": 2310,
      "normalized": false,
      "byteOffset": 19062,
      "bufferView": 0
    },
    {
      "type": "VEC3",
      "componentType": 5120,
      "count": 1170,
      "normalized": true,
      "byteOffset": 0,
      "bufferView": 3
    },
    {
      "type": "VEC4",
      "componentType": 5121,
      "count": 4076,
      "normalized": true,
      "byteOffset": 0,
      "bufferView": 4
    },
    {
      "type": "VEC3",
      "componentType": 5122,
      "count": 4076,
      "max": [
        11781,
        30447,
        13777
      ],
      "min": [
        -10041,
        -32767,
        -14957
      ],
      "normalized": true,
      "byteOffset": 0,
      "bufferView": 5
    },
    {
      "type": "VEC4",
      "componentType": 5121,
      "count": 1170,
      "normalized": true,
      "byteOffset": 0,
      "bufferView": 6
    },
    {
      "type": "VEC3",
      "componentType": 5122,
      "count": 1170,
      "max": [
        22142,
        32767,
        20326
      ],
      "min": [
        -22142,
        -11325,
        -20326
      ],
      "normalized": true,
      "byteOffset": 0,
      "bufferView": 7
    },
    {
      "type": "VEC2",
      "componentType": 5123,
      "count": 1170,
      "normalized": true,
      "byteOffset": 0,
      "bufferView": 8
    }
  ],
  "bufferViews": [
    {
      "buffer": 1,
      "byteOffset": 0,
      "byteLength": 23682,
      "target": 34963,
      "extensions": {
        "EXT_meshopt_compression": {
          "buffer": 0,
          "byteOffset": 0,
          "byteLength": 5634,
          "mode": "TRIANGLES",
          "byteStride": 2,
          "count": 11841
        }
      }
    },
    {
      "buffer": 1,
      "byteOffset": 23684,
      "byteLength": 16304,
      "target": 34962,
      "byteStride": 4,
      "extensions": {
        "EXT_meshopt_compression": {
          "buffer": 0,
          "byteOffset": 5636,
          "byteLength": 8287,
          "mode": "ATTRIBUTES",
          "filter": "OCTAHEDRAL",
          "byteStride": 4,
          "count": 4076
        }
      }
    },
    {
      "buffer": 1,
      "byteOffset": 39988,
      "byteLength": 32608,
      "target": 34962,
      "byteStride": 8,
      "extensions": {
        "EXT_meshopt_compression": {
          "buffer": 0,
          "byteOffset": 13924,
          "byteLength": 24629,
          "mode": "ATTRIBUTES",
          "byteStride": 8,
          "count": 4076
        }
      }
    },
    {
      "buffer": 1,
      "byteOffset": 72596,
      "byteLength": 4680,
      "target": 34962,
      "byteStride": 4,
      "extensions": {
        "EXT_meshopt_compression": {
          "buffer": 0,
          "byteOffset": 38556,
          "byteLength": 2443,
          "mode": "ATTRIBUTES",
          "filter": "OCTAHEDRAL",
          "byteStride": 4,
          "count": 1170
        }
      }
    },
    {
      "buffer": 1,
      "byteOffset": 77276,
      "byteLength": 16304,
      "target": 34962,
      "byteStride": 4,
      "extensions": {
        "EXT_meshopt_compression": {
          "buffer": 0,
          "byteOffset": 41000,
          "byteLength": 1174,
          "mode": "ATTRIBUTES",
          "byteStride": 4,
          "count": 4076
        }
      }
    },
    {
      "buffer": 1,
      "byteOffset": 93580,
      "byteLength": 32608,
      "target": 34962,
      "byteStride": 8,
      "extensions": {
        "EXT_meshopt_compression": {
          "buffer": 0,
          "byteOffset": 42176,
          "byteLength": 18420,
          "mode": "ATTRIBUTES",
          "byteStride": 8,
          "count": 4076
        }
      }
    },
    {
      "buffer": 1,
      "byteOffset": 126188,
      "byteLength": 4680,
      "target": 34962,
      "byteStride": 4,
      "extensions": {
        "EXT_meshopt_compression": {
          "buffer": 0,
          "byteOffset": 60596,
          "byteLength": 109,
          "mode": "ATTRIBUTES",
          "byteStride": 4,
          "count": 1170
        }
      }
    },
    {
      "buffer": 1,
      "byteOffset": 130868,
      "byteLength": 9360,
      "target": 34962,
      "byteStride": 8,
      "extensions": {
        "EXT_meshopt_compression": {
          "buffer": 0,
          "byteOffset": 60708,
          "byteLength": 6957,
          "mode": "ATTRIBUTES",
          "byteStride": 8,
          "count": 1170
        }
      }
    },
    {
      "buffer": 1,
      "byteOffset": 140228,
      "byteLength": 4680,
      "target": 34962,
      "byteStride": 4,
      "extensions": {
        "EXT_meshopt_compression": {
          "buffer": 0,
          "byteOffset": 67668,
          "byteLength": 4562,
          "mode": "ATTRIBUTES",
          "byteStride": 4,
          "count": 1170
        }
      }
    }
  ],
  "samplers": [
    {
      "magFilter": 9729,
      "minFilter": 9987,
      "wrapS": 10497,
      "wrapT": 10497
    }
  ],
  "textures": [
    {
      "sampler": 0,
      "extensions": {
        "KHR_texture_basisu": {
          "source": 1
        }
      }
    },
    {
      "sampler": 0,
      "extensions": {
        "KHR_texture_basisu": {
          "source": 0
        }
      }
    },
    {
      "sampler": 0,
      "extensions": {
        "KHR_texture_basisu": {
          "source": 2
        }
      }
    }
  ],
  "images": [
    {
      "mimeType": "image/ktx2",
      "uri": "Bark_NormalTree_Normal.ktx2"
    },
    {
      "mimeType": "image/ktx2",
      "uri": "Bark_NormalTree.ktx2"
    },
    {
      "mimeType": "image/ktx2",
      "uri": "Leaf_Pine_C.ktx2"
    }
  ],
  "buffers": [
    {
      "uri": "Pine_1.bin",
      "byteLength": 72232
    },
    {
      "byteLength": 144908,
      "extensions": {
        "EXT_meshopt_compression": {
          "fallback": true
        }
      }
    }
  ],
  "materials": [
    {
      "name": "Bark_NormalTree",
      "alphaMode": "MASK",
      "alphaCutoff": 0.20000000298023224,
      "doubleSided": true,
      "pbrMetallicRoughness": {
        "metallicFactor": 0,
        "baseColorTexture": {
          "index": 0
        }
      },
      "normalTexture": {
        "index": 1
      }
    },
    {
      "name": "Leaves_Pine",
      "alphaMode": "MASK",
      "alphaCutoff": 0.20000000298023224,
      "doubleSided": true,
      "pbrMetallicRoughness": {
        "metallicFactor": 0,
        "baseColorTexture": {
          "index": 2
        }
      }
    }
  ],
  "meshes": [
    {
      "name": "tree.028",
      "primitives": [
        {
          "attributes": {
            "NORMAL": 1,
            "TEXCOORD_0": 2,
            "COLOR_0": 5,
            "POSITION": 6
          },
          "mode": 4,
          "material": 0,
          "indices": 0
        },
        {
          "attributes": {
            "NORMAL": 4,
            "COLOR_0": 7,
            "POSITION": 8,
            "TEXCOORD_0": 9
          },
          "mode": 4,
          "material": 1,
          "indices": 3
        }
      ]
    }
  ],
  "nodes": [
    {
      "name": "Pine_1",
      "translation": [
        0.023529887199401855,
        3.423370234668255,
        -0.20773112773895264
      ],
      "scale": [
        3.658458836376667,
        3.658458836376667,
        3.658458836376667
      ],
      "mesh": 0
    }
  ],
  "scenes": [
    {
      "name": "Scene",
      "nodes": [
        0
      ]
    }
  ],
  "scene": 0,
  "extensionsUsed": [
    "EXT_meshopt_compression",
    "KHR_mesh_quantization",
    "KHR_texture_basisu"
  ],
  "extensionsRequired": [
    "EXT_meshopt_compression",
    "KHR_mesh_quantization",
    "KHR_texture_basisu"
  ]
}