{
  "asset": {
    "generator": "glTF-Transform v4.5.0",
    "version": "2.0"
  },
  "accessors": [
    {
      "type": "SCALAR",
      "componentType": 5123,
      "count": 6762,
      "normalized": false,
      "byteOffset": 0,
      "bufferView": 0
    },
    {
      "type": "VEC3",
      "componentType": 5120,
      "count": 4556,
      "normalized": true,
      "byteOffset": 0,
      "bufferView": 1
    },
    {
      "type": "VEC3",
      "componentType": 5122,
      "count": 4556,
      "max": [
        22858,
        1732,
        32767
      ],
      "min": [
        -22858,
        -1732,
        -32767
      ],
      "normalized": true,
      "byteOffset": 0,
      "bufferView": 2
    },
    {
      "type": "VEC2",
      "componentType": 5123,
      "count": 4556,
      "normalized": true,
      "byteOffset": 0,
      "bufferView": 3
    }
  ],
  "bufferViews": [
    {
      "buffer": 1,
      "byteOffset": 0,
      "byteLength": 13524,
      "target": 34963,
      "extensions": {
        "EXT_meshopt_compression": {
          "buffer": 0,
          "byteOffset": 0,
          "byteLength": 2273,
          "mode": "TRIANGLES",
          "byteStride": 2,
          "count": 6762
        }
      }
    },
    {
      "buffer": 1,
      "byteOffset": 13524,
      "byteLength": 18224,
      "target": 34962,
      "byteStride": 4,
      "extensions": {
        "EXT_meshopt_compression": {
          "buffer": 0,
          "byteOffset": 2276,
          "byteLength": 4623,
          "mode": "ATTRIBUTES",
          "filter": "OCTAHEDRAL",
          "byteStride": 4,
          "count": 4556
        }
      }
    },
    {
      "buffer": 1,
      "byteOffset": 31748,
      "byteLength": 36448,
      "target": 34962,
      "byteStride": 8,
      "extensions": {
        "EXT_meshopt_compression": {
          "buffer": 0,
          "byteOffset": 6900,
          "byteLength": 23195,
          "mode": "ATTRIBUTES",
          "byteStride": 8,
          "count": 4556
        }
      }
    },
    {
      "buffer": 1,
      "byteOffset": 68196,
      "byteLength": 18224,
      "target": 34962,
      "byteStride": 4,
      "extensions": {
        "EXT_meshopt_compression": {
          "buffer": 0,
          "byteOffset": 30096,
          "byteLength": 16239,
          "mode": "ATTRIBUTES",
          "byteStride": 4,
          "count": 4556
        }
      }
    }
  ],
  "samplers": [
    {
      "magFilter": 9729,
      "minFilter": 9987,
      "wrapS": 10497,
      "wrapT": 10497
    }
  ],
  "textures": [
    {
      "sampler": 0,
      "extensions": {
        "KHR_texture_basisu": {
          "source": 0
        }
      }
    }
  ],
  "images": [
    {
      "mimeType": "image/ktx2",
      "uri": "PathRocks_Diffuse.ktx2"
    }
  ],
  "buffers": [
    {
      "uri": "RockPath_Round_Thin.bin",
      "byteLength": 46336
    },
    {
      "byteLength": 86420,
      "extensions": {
        "EXT_meshopt_compression": {
          "fallback": true
        }
      }
    }
  ],
  "materials": [
    {
      "name": "PathRocks",
      "doubleSided": true,
      "pbrMetallicRoughness": {
        "metallicFactor": 0,
        "baseColorTexture": {
          "index": 0
        }
      }
    }
  ],
  "meshes": [
    {
      "name": "Cube.017_Retopology.074",
      "primitives": [
        {
          "attributes": {
            "NORMAL": 1,
            "POSITION": 2,
            "TEXCOORD_0": 3
          },
          "mode": 4,
          "material": 0,
          "indices": 0
        }
      ]
    }
  ],
  "nodes": [
    {
      "name": "RockPath_Round_Thin",
      "translation": [
        0.03160262107849121,
        0.04630659148097038,
        -0.04149830341339111
      ],
      "scale": [
        1.0446031093597412,
        1.0446031093597412,
        1.0446031093597412
      ],
      "mesh": 0
    }
  ],
  "scenes": [
    {
      "name": "Scene",
      "nodes": [
        0
      ]
    }
  ],
  "scene": 0,
  "extensionsUsed": [
    "EXT_meshopt_compression",
    "KHR_mesh_quantization",
    "KHR_texture_basisu"
  ],
  "extensionsRequired": [
    "EXT_meshopt_compression",
    "KHR_mesh_quantization",
    "KHR_texture_basisu"
  ]
}