{
  "asset": {
    "generator": "glTF-Transform v4.5.0",
    "version": "2.0"
  },
  "accessors": [
    {
      "type": "SCALAR",
      "componentType": 5123,
      "count": 1677,
      "normalized": false,
      "byteOffset": 0,
      "bufferView": 0
    },
    {
      "type": "VEC3",
      "componentType": 5120,
      "count": 1165,
      "normalized": true,
      "byteOffset": 0,
      "bufferView": 1
    },
    {
      "type": "VEC3",
      "componentType": 5122,
      "count": 1165,
      "max": [
        32767,
        4928,
        31887
      ],
      "min": [
        -32767,
        -4928,
        -31887
      ],
      "normalized": true,
      "byteOffset": 0,
      "bufferView": 2
    },
    {
      "type": "VEC2",
      "componentType": 5123,
      "count": 1165,
      "normalized": true,
      "byteOffset": 0,
      "bufferView": 3
    }
  ],
  "bufferViews": [
    {
      "buffer": 1,
      "byteOffset": 0,
      "byteLength": 3354,
      "target": 34963,
      "extensions": {
        "EXT_meshopt_compression": {
          "buffer": 0,
          "byteOffset": 0,
          "byteLength": 576,
          "mode": "TRIANGLES",
          "byteStride": 2,
          "count": 1677
        }
      }
    },
    {
      "buffer": 1,
      "byteOffset": 3356,
      "byteLength": 4660,
      "target": 34962,
      "byteStride": 4,
      "extensions": {
        "EXT_meshopt_compression": {
          "buffer": 0,
          "byteOffset": 576,
          "byteLength": 1210,
          "mode": "ATTRIBUTES",
          "filter": "OCTAHEDRAL",
          "byteStride": 4,
          "count": 1165
        }
      }
    },
    {
      "buffer": 1,
      "byteOffset": 8016,
      "byteLength": 9320,
      "target": 34962,
      "byteStride": 8,
      "extensions": {
        "EXT_meshopt_compression": {
          "buffer": 0,
          "byteOffset": 1788,
          "byteLength": 6713,
          "mode": "ATTRIBUTES",
          "byteStride": 8,
          "count": 1165
        }
      }
    },
    {
      "buffer": 1,
      "byteOffset": 17336,
      "byteLength": 4660,
      "target": 34962,
      "byteStride": 4,
      "extensions": {
        "EXT_meshopt_compression": {
          "buffer": 0,
          "byteOffset": 8504,
          "byteLength": 4522,
          "mode": "ATTRIBUTES",
          "byteStride": 4,
          "count": 1165
        }
      }
    }
  ],
  "samplers": [
    {
      "magFilter": 9729,
      "minFilter": 9987,
      "wrapS": 10497,
      "wrapT": 10497
    }
  ],
  "textures": [
    {
      "sampler": 0,
      "extensions": {
        "KHR_texture_basisu": {
          "source": 0
        }
      }
    }
  ],
  "images": [
    {
      "mimeType": "image/ktx2",
      "uri": "PathRocks_Diffuse.ktx2"
    }
  ],
  "buffers": [
    {
      "uri": "RockPath_Square_Small_2.bin",
      "byteLength": 13028
    },
    {
      "byteLength": 21996,
      "extensions": {
        "EXT_meshopt_compression": {
          "fallback": true
        }
      }
    }
  ],
  "materials": [
    {
      "name": "PathRocks",
      "doubleSided": true,
      "pbrMetallicRoughness": {
        "metallicFactor": 0,
        "baseColorTexture": {
          "index": 0
        }
      }
    }
  ],
  "meshes": [
    {
      "name": "Cube.017_Retopology.011",
      "primitives": [
        {
          "attributes": {
            "NORMAL": 1,
            "POSITION": 2,
            "TEXCOORD_0": 3
          },
          "mode": 4,
          "material": 0,
          "indices": 0
        }
      ]
    }
  ],
  "nodes": [
    {
      "name": "RockPath_Square_Small_2",
      "translation": [
        -0.001178354024887085,
        0.061462154146283865,
        -0.010913431644439697
      ],
      "scale": [
        0.4963609278202057,
        0.4963609278202057,
        0.4963609278202057
      ],
      "mesh": 0
    }
  ],
  "scenes": [
    {
      "name": "Scene",
      "nodes": [
        0
      ]
    }
  ],
  "scene": 0,
  "extensionsUsed": [
    "EXT_meshopt_compression",
    "KHR_mesh_quantization",
    "KHR_texture_basisu"
  ],
  "extensionsRequired": [
    "EXT_meshopt_compression",
    "KHR_mesh_quantization",
    "KHR_texture_basisu"
  ]
}