{
  "asset": {
    "generator": "glTF-Transform v4.5.0",
    "version": "2.0"
  },
  "accessors": [
    {
      "type": "SCALAR",
      "componentType": 5123,
      "count": 21246,
      "normalized": false,
      "byteOffset": 0,
      "bufferView": 0
    },
    {
      "type": "VEC3",
      "componentType": 5120,
      "count": 9603,
      "normalized": true,
      "byteOffset": 0,
      "bufferView": 1
    },
    {
      "type": "VEC2",
      "componentType": 5126,
      "count": 9603,
      "normalized": false,
      "byteOffset": 0,
      "bufferView": 2
    },
    {
      "type": "SCALAR",
      "componentType": 5123,
      "count": 9066,
      "normalized": false,
      "byteOffset": 42492,
      "bufferView": 0
    },
    {
      "type": "VEC3",
      "componentType": 5120,
      "count": 6044,
      "normalized": true,
      "byteOffset": 0,
      "bufferView": 3
    },
    {
      "type": "VEC4",
      "componentType": 5121,
      "count": 9603,
      "normalized": true,
      "byteOffset": 0,
      "bufferView": 4
    },
    {
      "type": "VEC3",
      "componentType": 5122,
      "count": 9603,
      "max": [
        14377,
        28135,
        13753
      ],
      "min": [
        -13697,
        -32767,
        -14709
      ],
      "normalized": true,
      "byteOffset": 0,
      "bufferView": 5
    },
    {
      "type": "VEC4",
      "componentType": 5121,
      "count": 6044,
      "normalized": true,
      "byteOffset": 0,
      "bufferView": 6
    },
    {
      "type": "VEC3",
      "componentType": 5122,
      "count": 6044,
      "max": [
        19866,
        32767,
        19638
      ],
      "min": [
        -19866,
        -10637,
        -19638
      ],
      "normalized": true,
      "byteOffset": 0,
      "bufferView": 7
    },
    {
      "type": "VEC2",
      "componentType": 5123,
      "count": 6044,
      "normalized": true,
      "byteOffset": 0,
      "bufferView": 8
    }
  ],
  "bufferViews": [
    {
      "buffer": 1,
      "byteOffset": 0,
      "byteLength": 60624,
      "target": 34963,
      "extensions": {
        "EXT_meshopt_compression": {
          "buffer": 0,
          "byteOffset": 0,
          "byteLength": 13368,
          "mode": "TRIANGLES",
          "byteStride": 2,
          "count": 30312
        }
      }
    },
    {
      "buffer": 1,
      "byteOffset": 60624,
      "byteLength": 38412,
      "target": 34962,
      "byteStride": 4,
      "extensions": {
        "EXT_meshopt_compression": {
          "buffer": 0,
          "byteOffset": 13368,
          "byteLength": 19711,
          "mode": "ATTRIBUTES",
          "filter": "OCTAHEDRAL",
          "byteStride": 4,
          "count": 9603
        }
      }
    },
    {
      "buffer": 1,
      "byteOffset": 99036,
      "byteLength": 76824,
      "target": 34962,
      "byteStride": 8,
      "extensions": {
        "EXT_meshopt_compression": {
          "buffer": 0,
          "byteOffset": 33080,
          "byteLength": 57293,
          "mode": "ATTRIBUTES",
          "byteStride": 8,
          "count": 9603
        }
      }
    },
    {
      "buffer": 1,
      "byteOffset": 175860,
      "byteLength": 24176,
      "target": 34962,
      "byteStride": 4,
      "extensions": {
        "EXT_meshopt_compression": {
          "buffer": 0,
          "byteOffset": 90376,
          "byteLength": 12491,
          "mode": "ATTRIBUTES",
          "filter": "OCTAHEDRAL",
          "byteStride": 4,
          "count": 6044
        }
      }
    },
    {
      "buffer": 1,
      "byteOffset": 200036,
      "byteLength": 38412,
      "target": 34962,
      "byteStride": 4,
      "extensions": {
        "EXT_meshopt_compression": {
          "buffer": 0,
          "byteOffset": 102868,
          "byteLength": 1602,
          "mode": "ATTRIBUTES",
          "byteStride": 4,
          "count": 9603
        }
      }
    },
    {
      "buffer": 1,
      "byteOffset": 238448,
      "byteLength": 76824,
      "target": 34962,
      "byteStride": 8,
      "extensions": {
        "EXT_meshopt_compression": {
          "buffer": 0,
          "byteOffset": 104472,
          "byteLength": 42838,
          "mode": "ATTRIBUTES",
          "byteStride": 8,
          "count": 9603
        }
      }
    },
    {
      "buffer": 1,
      "byteOffset": 315272,
      "byteLength": 24176,
      "target": 34962,
      "byteStride": 4,
      "extensions": {
        "EXT_meshopt_compression": {
          "buffer": 0,
          "byteOffset": 147312,
          "byteLength": 413,
          "mode": "ATTRIBUTES",
          "byteStride": 4,
          "count": 6044
        }
      }
    },
    {
      "buffer": 1,
      "byteOffset": 339448,
      "byteLength": 48352,
      "target": 34962,
      "byteStride": 8,
      "extensions": {
        "EXT_meshopt_compression": {
          "buffer": 0,
          "byteOffset": 147728,
          "byteLength": 37000,
          "mode": "ATTRIBUTES",
          "byteStride": 8,
          "count": 6044
        }
      }
    },
    {
      "buffer": 1,
      "byteOffset": 387800,
      "byteLength": 24176,
      "target": 34962,
      "byteStride": 4,
      "extensions": {
        "EXT_meshopt_compression": {
          "buffer": 0,
          "byteOffset": 184728,
          "byteLength": 18245,
          "mode": "ATTRIBUTES",
          "byteStride": 4,
          "count": 6044
        }
      }
    }
  ],
  "samplers": [
    {
      "magFilter": 9729,
      "minFilter": 9987,
      "wrapS": 10497,
      "wrapT": 10497
    }
  ],
  "textures": [
    {
      "sampler": 0,
      "extensions": {
        "KHR_texture_basisu": {
          "source": 1
        }
      }
    },
    {
      "sampler": 0,
      "extensions": {
        "KHR_texture_basisu": {
          "source": 0
        }
      }
    },
    {
      "sampler": 0,
      "extensions": {
        "KHR_texture_basisu": {
          "source": 2
        }
      }
    }
  ],
  "images": [
    {
      "mimeType": "image/ktx2",
      "uri": "Bark_TwistedTree_Normal.ktx2"
    },
    {
      "mimeType": "image/ktx2",
      "uri": "Bark_TwistedTree.ktx2"
    },
    {
      "mimeType": "image/ktx2",
      "uri": "Leaves_TwistedTree_C.ktx2"
    }
  ],
  "buffers": [
    {
      "uri": "TwistedTree_5.bin",
      "byteLength": 202976
    },
    {
      "byteLength": 411976,
      "extensions": {
        "EXT_meshopt_compression": {
          "fallback": true
        }
      }
    }
  ],
  "materials": [
    {
      "name": "Bark_TwistedTree",
      "doubleSided": true,
      "pbrMetallicRoughness": {
        "metallicFactor": 0,
        "baseColorTexture": {
          "index": 0
        }
      },
      "normalTexture": {
        "index": 1
      }
    },
    {
      "name": "Leaves_TwistedTree",
      "alphaMode": "MASK",
      "alphaCutoff": 0.20000000298023224,
      "doubleSided": true,
      "pbrMetallicRoughness": {
        "metallicFactor": 0,
        "baseColorTexture": {
          "index": 2
        }
      }
    }
  ],
  "meshes": [
    {
      "name": "tree.042",
      "primitives": [
        {
          "attributes": {
            "NORMAL": 1,
            "TEXCOORD_0": 2,
            "COLOR_0": 5,
            "POSITION": 6
          },
          "mode": 4,
          "material": 0,
          "indices": 0
        },
        {
          "attributes": {
            "NORMAL": 4,
            "COLOR_0": 7,
            "POSITION": 8,
            "TEXCOORD_0": 9
          },
          "mode": 4,
          "material": 1,
          "indices": 3
        }
      ]
    }
  ],
  "nodes": [
    {
      "name": "TwistedTree_5",
      "translation": [
        1.0009187459945679,
        7.6296131536364555,
        -1.6454826593399048
      ],
      "scale": [
        7.831087835133076,
        7.831087835133076,
        7.831087835133076
      ],
      "mesh": 0
    }
  ],
  "scenes": [
    {
      "name": "Scene",
      "nodes": [
        0
      ]
    }
  ],
  "scene": 0,
  "extensionsUsed": [
    "EXT_meshopt_compression",
    "KHR_mesh_quantization",
    "KHR_texture_basisu"
  ],
  "extensionsRequired": [
    "EXT_meshopt_compression",
    "KHR_mesh_quantization",
    "KHR_texture_basisu"
  ]
}