{"asset": {"generator": "Khronos glTF Blender I/O v5.2.40", "version": "2.0"}, "scene": 0, "scenes": [{"name": "Scene", "nodes": [0]}], "nodes": [{"mesh": 0, "name": "BearTrap_Open", "scale": [0.7957726716995239, 0.7957726716995239, 0.7957726716995239]}], "materials": [{"alphaMode": "OPAQUE", "doubleSided": true, "name": "Metal", "pbrMetallicRoughness": {"baseColorFactor": [0.09704122692346573, 0.10234932601451874, 0.11927313357591629, 1.0], "metallicFactor": 0, "roughnessFactor": 0.690034806728363}}], "meshes": [{"name": "Cube.033", "primitives": [{"attributes": {"POSITION": 0, "NORMAL": 1}, "indices": 2, "material": 0}]}], "accessors": [{"bufferView": 0, "componentType": 5126, "count": 818, "max": [0.751857578754425, 0.31522005796432495, 1.0404629707336426], "min": [-0.751857578754425, -0.024115709587931633, -0.7408983111381531], "type": "VEC3"}, {"bufferView": 1, "componentType": 5126, "count": 818, "type": "VEC3"}, {"bufferView": 2, "componentType": 5123, "count": 1824, "type": "SCALAR"}], "bufferViews": [{"buffer": 0, "byteLength": 9816, "byteOffset": 0, "target": 34962}, {"buffer": 0, "byteLength": 9816, "byteOffset": 9816, "target": 34962}, {"buffer": 0, "byteLength": 3648, "byteOffset": 19632, "target": 34963}], "buffers": [{"byteLength": 23280, "uri": "BearTrap_Open.bin"}]}