{"asset": {"generator": "Khronos glTF Blender I/O v5.2.40", "version": "2.0"}, "scene": 0, "scenes": [{"name": "Scene", "nodes": [0]}], "nodes": [{"mesh": 0, "name": "Bookcase_Full"}], "materials": [{"alphaMode": "OPAQUE", "doubleSided": true, "name": "Wood", "pbrMetallicRoughness": {"baseColorFactor": [0.15292437374591827, 0.10439527034759521, 0.05163053795695305, 1.0], "metallicFactor": 0, "roughnessFactor": 0.690034806728363, "baseColorTexture": {"index": 0}}}, {"alphaMode": "OPAQUE", "doubleSided": true, "name": "DarkWood", "pbrMetallicRoughness": {"baseColorFactor": [0.08713703602552414, 0.05797602981328964, 0.02801351808011532, 1.0], "metallicFactor": 0, "roughnessFactor": 0.690034806728363, "baseColorTexture": {"index": 0}}}, {"alphaMode": "OPAQUE", "doubleSided": true, "name": "Pages", "pbrMetallicRoughness": {"baseColorFactor": [0.40003857016563416, 0.3703821301460266, 0.23540449142456055, 1.0], "metallicFactor": 0, "roughnessFactor": 0.690034806728363}}, {"alphaMode": "OPAQUE", "doubleSided": true, "name": "Book2", "pbrMetallicRoughness": {"baseColorFactor": [0.0746932104229927, 0.12687918543815613, 0.04346667230129242, 1.0], "metallicFactor": 0, "roughnessFactor": 0.690034806728363}}, {"alphaMode": "OPAQUE", "doubleSided": true, "name": "Book", "pbrMetallicRoughness": {"baseColorFactor": [0.17320168018341064, 0.03870757296681404, 0.03360006585717201, 1.0], "metallicFactor": 0, "roughnessFactor": 0.690034806728363}}, {"alphaMode": "OPAQUE", "doubleSided": true, "name": "Book3", "pbrMetallicRoughness": {"baseColorFactor": [0.08404484391212463, 0.027922865003347397, 0.17320069670677185, 1.0], "metallicFactor": 0, "roughnessFactor": 0.690034806728363}}, {"alphaMode": "OPAQUE", "doubleSided": true, "name": "Book4", "pbrMetallicRoughness": {"baseColorFactor": [0.027892066165804863, 0.0555395781993866, 0.12687887251377106, 1.0], "metallicFactor": 0, "roughnessFactor": 0.690034806728363}}], "meshes": [{"name": "Cylinder.044", "primitives": [{"attributes": {"POSITION": 0, "NORMAL": 1, "TEXCOORD_0": 2, "COLOR_0": 3, "COLOR_1": 4}, "indices": 5, "material": 0}, {"attributes": {"POSITION": 6, "NORMAL": 7, "TEXCOORD_0": 8, "COLOR_0": 9, "COLOR_1": 10}, "indices": 11, "material": 1}, {"attributes": {"POSITION": 12, "NORMAL": 13, "TEXCOORD_0": 14, "COLOR_0": 15, "COLOR_1": 16}, "indices": 17, "material": 2}, {"attributes": {"POSITION": 18, "NORMAL": 19, "TEXCOORD_0": 20, "COLOR_0": 21, "COLOR_1": 22}, "indices": 23, "material": 3}, {"attributes": {"POSITION": 24, "NORMAL": 25, "TEXCOORD_0": 26, "COLOR_0": 27, "COLOR_1": 28}, "indices": 29, "material": 4}, {"attributes": {"POSITION": 30, "NORMAL": 31, "TEXCOORD_0": 32, "COLOR_0": 33, "COLOR_1": 34}, "indices": 35, "material": 5}, {"attributes": {"POSITION": 36, "NORMAL": 37, "TEXCOORD_0": 38, "COLOR_0": 39, "COLOR_1": 40}, "indices": 41, "material": 6}]}], "accessors": [{"bufferView": 0, "componentType": 5126, "count": 324, "max": [1.0392625331878662, 2.6295032501220703, 0.3131300210952759], "min": [-1.0392625331878662, -0.024672389030456543, -0.34508392214775085], "type": "VEC3"}, {"bufferView": 1, "componentType": 5126, "count": 324, "type": "VEC3"}, {"bufferView": 2, "componentType": 5126, "count": 324, "type": "VEC2"}, {"bufferView": 3, "componentType": 5121, "count": 324, "normalized": true, "type": "VEC4"}, {"bufferView": 4, "componentType": 5123, "count": 324, "normalized": true, "type": "VEC4"}, {"bufferView": 5, "componentType": 5123, "count": 744, "type": "SCALAR"}, {"bufferView": 6, "componentType": 5126, "count": 1164, "max": [0.9977239370346069, 2.5696072578430176, 0.3118046224117279], "min": [-0.9977239370346069, 0.10621362924575806, -0.3193744719028473], "type": "VEC3"}, {"bufferView": 7, "componentType": 5126, "count": 1164, "type": "VEC3"}, {"bufferView": 8, "componentType": 5126, "count": 1164, "type": "VEC2"}, {"bufferView": 9, "componentType": 5121, "count": 1164, "normalized": true, "type": "VEC4"}, {"bufferView": 10, "componentType": 5123, "count": 1164, "normalized": true, "type": "VEC4"}, {"bufferView": 11, "componentType": 5123, "count": 3036, "type": "SCALAR"}, {"bufferView": 12, "componentType": 5126, "count": 420, "max": [0.9299060106277466, 2.3801069259643555, 0.13629208505153656], "min": [-0.9437186121940613, 0.17332808673381805, -0.1441992223262787], "type": "VEC3"}, {"bufferView": 13, "componentType": 5126, "count": 420, "type": "VEC3"}, {"bufferView": 14, "componentType": 5126, "count": 420, "type": "VEC2"}, {"bufferView": 15, "componentType": 5121, "count": 420, "normalized": true, "type": "VEC4"}, {"bufferView": 16, "componentType": 5123, "count": 420, "normalized": true, "type": "VEC4"}, {"bufferView": 17, "componentType": 5123, "count": 630, "type": "SCALAR"}, {"bufferView": 18, "componentType": 5126, "count": 456, "max": [0.9234646558761597, 2.088508367538452, 0.14590153098106384], "min": [-0.8654963970184326, 0.159866064786911, -0.15380874276161194], "type": "VEC3"}, {"bufferView": 19, "componentType": 5126, "count": 456, "type": "VEC3"}, {"bufferView": 20, "componentType": 5126, "count": 456, "type": "VEC2"}, {"bufferView": 21, "componentType": 5121, "count": 456, "normalized": true, "type": "VEC4"}, {"bufferView": 22, "componentType": 5123, "count": 456, "normalized": true, "type": "VEC4"}, {"bufferView": 23, "componentType": 5123, "count": 972, "type": "SCALAR"}, {"bufferView": 24, "componentType": 5126, "count": 760, "max": [0.8268357515335083, 2.392399311065674, 0.1376028060913086], "min": [-0.9355862140655518, 0.159866064786911, -0.15380874276161194], "type": "VEC3"}, {"bufferView": 25, "componentType": 5126, "count": 760, "type": "VEC3"}, {"bufferView": 26, "componentType": 5126, "count": 760, "type": "VEC2"}, {"bufferView": 27, "componentType": 5121, "count": 760, "normalized": true, "type": "VEC4"}, {"bufferView": 28, "componentType": 5123, "count": 760, "normalized": true, "type": "VEC4"}, {"bufferView": 29, "componentType": 5123, "count": 1620, "type": "SCALAR"}, {"bufferView": 30, "componentType": 5126, "count": 684, "max": [0.8213542699813843, 2.392399549484253, 0.145901620388031], "min": [-0.906653642654419, 0.1610356569290161, -0.14550992846488953], "type": "VEC3"}, {"bufferView": 31, "componentType": 5126, "count": 684, "type": "VEC3"}, {"bufferView": 32, "componentType": 5126, "count": 684, "type": "VEC2"}, {"bufferView": 33, "componentType": 5121, "count": 684, "normalized": true, "type": "VEC4"}, {"bufferView": 34, "componentType": 5123, "count": 684, "normalized": true, "type": "VEC4"}, {"bufferView": 35, "componentType": 5123, "count": 1458, "type": "SCALAR"}, {"bufferView": 36, "componentType": 5126, "count": 760, "max": [0.9480936527252197, 2.312361001968384, 0.14590154588222504], "min": [-0.961906373500824, 0.1610356569290161, -0.15380871295928955], "type": "VEC3"}, {"bufferView": 37, "componentType": 5126, "count": 760, "type": "VEC3"}, {"bufferView": 38, "componentType": 5126, "count": 760, "type": "VEC2"}, {"bufferView": 39, "componentType": 5121, "count": 760, "normalized": true, "type": "VEC4"}, {"bufferView": 40, "componentType": 5123, "count": 760, "normalized": true, "type": "VEC4"}, {"bufferView": 41, "componentType": 5123, "count": 1620, "type": "SCALAR"}], "bufferViews": [{"buffer": 0, "byteLength": 3888, "byteOffset": 0, "target": 34962}, {"buffer": 0, "byteLength": 3888, "byteOffset": 3888, "target": 34962}, {"buffer": 0, "byteLength": 2592, "byteOffset": 7776, "target": 34962}, {"buffer": 0, "byteLength": 1296, "byteOffset": 10368, "target": 34962}, {"buffer": 0, "byteLength": 2592, "byteOffset": 11664, "target": 34962}, {"buffer": 0, "byteLength": 1488, "byteOffset": 14256, "target": 34963}, {"buffer": 0, "byteLength": 13968, "byteOffset": 15744, "target": 34962}, {"buffer": 0, "byteLength": 13968, "byteOffset": 29712, "target": 34962}, {"buffer": 0, "byteLength": 9312, "byteOffset": 43680, "target": 34962}, {"buffer": 0, "byteLength": 4656, "byteOffset": 52992, "target": 34962}, {"buffer": 0, "byteLength": 9312, "byteOffset": 57648, "target": 34962}, {"buffer": 0, "byteLength": 6072, "byteOffset": 66960, "target": 34963}, {"buffer": 0, "byteLength": 5040, "byteOffset": 73032, "target": 34962}, {"buffer": 0, "byteLength": 5040, "byteOffset": 78072, "target": 34962}, {"buffer": 0, "byteLength": 3360, "byteOffset": 83112, "target": 34962}, {"buffer": 0, "byteLength": 1680, "byteOffset": 86472, "target": 34962}, {"buffer": 0, "byteLength": 3360, "byteOffset": 88152, "target": 34962}, {"buffer": 0, "byteLength": 1260, "byteOffset": 91512, "target": 34963}, {"buffer": 0, "byteLength": 5472, "byteOffset": 92772, "target": 34962}, {"buffer": 0, "byteLength": 5472, "byteOffset": 98244, "target": 34962}, {"buffer": 0, "byteLength": 3648, "byteOffset": 103716, "target": 34962}, {"buffer": 0, "byteLength": 1824, "byteOffset": 107364, "target": 34962}, {"buffer": 0, "byteLength": 3648, "byteOffset": 109188, "target": 34962}, {"buffer": 0, "byteLength": 1944, "byteOffset": 112836, "target": 34963}, {"buffer": 0, "byteLength": 9120, "byteOffset": 114780, "target": 34962}, {"buffer": 0, "byteLength": 9120, "byteOffset": 123900, "target": 34962}, {"buffer": 0, "byteLength": 6080, "byteOffset": 133020, "target": 34962}, {"buffer": 0, "byteLength": 3040, "byteOffset": 139100, "target": 34962}, {"buffer": 0, "byteLength": 6080, "byteOffset": 142140, "target": 34962}, {"buffer": 0, "byteLength": 3240, "byteOffset": 148220, "target": 34963}, {"buffer": 0, "byteLength": 8208, "byteOffset": 151460, "target": 34962}, {"buffer": 0, "byteLength": 8208, "byteOffset": 159668, "target": 34962}, {"buffer": 0, "byteLength": 5472, "byteOffset": 167876, "target": 34962}, {"buffer": 0, "byteLength": 2736, "byteOffset": 173348, "target": 34962}, {"buffer": 0, "byteLength": 5472, "byteOffset": 176084, "target": 34962}, {"buffer": 0, "byteLength": 2916, "byteOffset": 181556, "target": 34963}, {"buffer": 0, "byteLength": 9120, "byteOffset": 184472, "target": 34962}, {"buffer": 0, "byteLength": 9120, "byteOffset": 193592, "target": 34962}, {"buffer": 0, "byteLength": 6080, "byteOffset": 202712, "target": 34962}, {"buffer": 0, "byteLength": 3040, "byteOffset": 208792, "target": 34962}, {"buffer": 0, "byteLength": 6080, "byteOffset": 211832, "target": 34962}, {"buffer": 0, "byteLength": 3240, "byteOffset": 217912, "target": 34963}], "buffers": [{"byteLength": 221152, "uri": "Bookcase_Full.bin"}], "images": [{"uri": "Bark_Texture.jpg"}], "textures": [{"source": 0}]}