{"asset": {"generator": "Khronos glTF Blender I/O v5.2.40", "version": "2.0"}, "scene": 0, "scenes": [{"name": "Scene", "nodes": [0]}], "nodes": [{"mesh": 0, "name": "Brick", "rotation": [-0.70710688829422, 0, 0, 0.7071066498756409], "scale": [1, 0.05973000079393387, 1]}], "materials": [{"alphaMode": "OPAQUE", "doubleSided": true, "name": "Main", "pbrMetallicRoughness": {"baseColorFactor": [0.15896087884902954, 0.16202940046787262, 0.1247718334197998, 1.0], "metallicFactor": 0, "roughnessFactor": 0.690034806728363}}, {"alphaMode": "OPAQUE", "doubleSided": true, "name": "Highlights", "pbrMetallicRoughness": {"baseColorFactor": [0.289932519197464, 0.29568690061569214, 0.22595453262329102, 1.0], "metallicFactor": 0, "roughnessFactor": 0.690034806728363}}], "meshes": [{"name": "Cube.676", "primitives": [{"attributes": {"POSITION": 0, "NORMAL": 1}, "indices": 2, "material": 0}, {"attributes": {"POSITION": 3, "NORMAL": 4}, "indices": 5, "material": 1}]}], "accessors": [{"bufferView": 0, "componentType": 5126, "count": 120, "max": [0.2761094570159912, 2.625544786453247, 0.3176478147506714], "min": [-0.253953218460083, -2.143651008605957, -0.0017421285156160593], "type": "VEC3"}, {"bufferView": 1, "componentType": 5126, "count": 120, "type": "VEC3"}, {"bufferView": 2, "componentType": 5123, "count": 216, "type": "SCALAR"}, {"bufferView": 3, "componentType": 5126, "count": 12, "max": [0.24814409017562866, 2.624356985092163, 0.3039749264717102], "min": [-0.23752684891223907, -2.1180694103240967, 0.09614905714988708], "type": "VEC3"}, {"bufferView": 4, "componentType": 5126, "count": 12, "type": "VEC3"}, {"bufferView": 5, "componentType": 5123, "count": 12, "type": "SCALAR"}], "bufferViews": [{"buffer": 0, "byteLength": 1440, "byteOffset": 0, "target": 34962}, {"buffer": 0, "byteLength": 1440, "byteOffset": 1440, "target": 34962}, {"buffer": 0, "byteLength": 432, "byteOffset": 2880, "target": 34963}, {"buffer": 0, "byteLength": 144, "byteOffset": 3312, "target": 34962}, {"buffer": 0, "byteLength": 144, "byteOffset": 3456, "target": 34962}, {"buffer": 0, "byteLength": 24, "byteOffset": 3600, "target": 34963}], "buffers": [{"byteLength": 3624, "uri": "Brick.bin"}]}