{"asset": {"generator": "Khronos glTF Blender I/O v5.2.40", "version": "2.0"}, "scene": 0, "scenes": [{"name": "Scene", "nodes": [0]}], "nodes": [{"mesh": 0, "name": "Bricks", "rotation": [-0.70710688829422, 0, 0, 0.7071066498756409], "scale": [1, 0.05973000079393387, 1]}], "materials": [{"alphaMode": "OPAQUE", "doubleSided": true, "name": "Main", "pbrMetallicRoughness": {"baseColorFactor": [0.15896087884902954, 0.16202940046787262, 0.1247718334197998, 1.0], "metallicFactor": 0, "roughnessFactor": 0.690034806728363}}, {"alphaMode": "OPAQUE", "doubleSided": true, "name": "Highlights", "pbrMetallicRoughness": {"baseColorFactor": [0.289932519197464, 0.29568690061569214, 0.22595453262329102, 1.0], "metallicFactor": 0, "roughnessFactor": 0.690034806728363}}], "meshes": [{"name": "Cube.676", "primitives": [{"attributes": {"POSITION": 0, "NORMAL": 1}, "indices": 2, "material": 0}, {"attributes": {"POSITION": 3, "NORMAL": 4}, "indices": 5, "material": 1}]}], "accessors": [{"bufferView": 0, "componentType": 5126, "count": 512, "max": [0.7436065077781677, 13.170011520385742, 0.544407844543457], "min": [-1.080749750137329, -13.787084579467773, -0.0017560124397277832], "type": "VEC3"}, {"bufferView": 1, "componentType": 5126, "count": 512, "type": "VEC3"}, {"bufferView": 2, "componentType": 5123, "count": 900, "type": "SCALAR"}, {"bufferView": 3, "componentType": 5126, "count": 28, "max": [0.7115668058395386, 9.377711296081543, 0.41026172041893005], "min": [-0.570188045501709, -8.105851173400879, 0.26952216029167175], "type": "VEC3"}, {"bufferView": 4, "componentType": 5126, "count": 28, "type": "VEC3"}, {"bufferView": 5, "componentType": 5123, "count": 36, "type": "SCALAR"}], "bufferViews": [{"buffer": 0, "byteLength": 6144, "byteOffset": 0, "target": 34962}, {"buffer": 0, "byteLength": 6144, "byteOffset": 6144, "target": 34962}, {"buffer": 0, "byteLength": 1800, "byteOffset": 12288, "target": 34963}, {"buffer": 0, "byteLength": 336, "byteOffset": 14088, "target": 34962}, {"buffer": 0, "byteLength": 336, "byteOffset": 14424, "target": 34962}, {"buffer": 0, "byteLength": 72, "byteOffset": 14760, "target": 34963}], "buffers": [{"byteLength": 14832, "uri": "Bricks.bin"}]}