{"asset": {"generator": "Khronos glTF Blender I/O v5.2.40", "version": "2.0"}, "scene": 0, "scenes": [{"name": "Scene", "nodes": [0]}], "nodes": [{"mesh": 0, "name": "BridgeSection"}], "materials": [{"alphaMode": "OPAQUE", "doubleSided": true, "name": "Main", "pbrMetallicRoughness": {"baseColorFactor": [0.15896087884902954, 0.16202940046787262, 0.1247718334197998, 1.0], "metallicFactor": 0, "roughnessFactor": 0.690034806728363}}, {"alphaMode": "OPAQUE", "doubleSided": true, "name": "Highlights", "pbrMetallicRoughness": {"baseColorFactor": [0.289932519197464, 0.29568690061569214, 0.22595453262329102, 1.0], "metallicFactor": 0, "roughnessFactor": 0.690034806728363}}], "meshes": [{"name": "Cylinder.030", "primitives": [{"attributes": {"POSITION": 0, "NORMAL": 1}, "indices": 2, "material": 0}, {"attributes": {"POSITION": 3, "NORMAL": 4}, "indices": 5, "material": 1}]}], "accessors": [{"bufferView": 0, "componentType": 5126, "count": 2056, "max": [1.264341115951538, 0.3350071907043457, 0.7297899723052979], "min": [-1.3149298429489136, -0.10807119309902191, -1.4968425035476685], "type": "VEC3"}, {"bufferView": 1, "componentType": 5126, "count": 2056, "type": "VEC3"}, {"bufferView": 2, "componentType": 5123, "count": 5160, "type": "SCALAR"}, {"bufferView": 3, "componentType": 5126, "count": 276, "max": [1.2407857179641724, 0.3350071907043457, 0.7195053100585938], "min": [-1.2913743257522583, -0.10807119309902191, -1.484095811843872], "type": "VEC3"}, {"bufferView": 4, "componentType": 5126, "count": 276, "type": "VEC3"}, {"bufferView": 5, "componentType": 5123, "count": 504, "type": "SCALAR"}], "bufferViews": [{"buffer": 0, "byteLength": 24672, "byteOffset": 0, "target": 34962}, {"buffer": 0, "byteLength": 24672, "byteOffset": 24672, "target": 34962}, {"buffer": 0, "byteLength": 10320, "byteOffset": 49344, "target": 34963}, {"buffer": 0, "byteLength": 3312, "byteOffset": 59664, "target": 34962}, {"buffer": 0, "byteLength": 3312, "byteOffset": 62976, "target": 34962}, {"buffer": 0, "byteLength": 1008, "byteOffset": 66288, "target": 34963}], "buffers": [{"byteLength": 67296, "uri": "BridgeSection.bin"}]}