{"asset": {"generator": "Khronos glTF Blender I/O v5.2.40", "version": "2.0"}, "scene": 0, "scenes": [{"name": "Scene", "nodes": [0]}], "nodes": [{"mesh": 0, "name": "Curve_2"}], "materials": [{"alphaMode": "OPAQUE", "doubleSided": true, "name": "Main", "pbrMetallicRoughness": {"baseColorFactor": [0.15896087884902954, 0.16202940046787262, 0.1247718334197998, 1.0], "metallicFactor": 0, "roughnessFactor": 0.690034806728363}}, {"alphaMode": "OPAQUE", "doubleSided": true, "name": "Highlights", "pbrMetallicRoughness": {"baseColorFactor": [0.289932519197464, 0.29568690061569214, 0.22595453262329102, 1.0], "metallicFactor": 0, "roughnessFactor": 0.690034806728363}}], "meshes": [{"name": "Cube.532", "primitives": [{"attributes": {"POSITION": 0, "NORMAL": 1}, "indices": 2, "material": 0}, {"attributes": {"POSITION": 3, "NORMAL": 4}, "indices": 5, "material": 1}]}], "accessors": [{"bufferView": 0, "componentType": 5126, "count": 3916, "max": [2.2527756690979004, 1.9958676099777222, -0.006527988240122795], "min": [-0.022073768079280853, -0.0015011592768132687, -2.0754692554473877], "type": "VEC3"}, {"bufferView": 1, "componentType": 5126, "count": 3916, "type": "VEC3"}, {"bufferView": 2, "componentType": 5123, "count": 6474, "type": "SCALAR"}, {"bufferView": 3, "componentType": 5126, "count": 296, "max": [2.2458767890930176, 1.7012594938278198, -0.074604831635952], "min": [0.000268518429948017, 0.295421838760376, -2.0496044158935547], "type": "VEC3"}, {"bufferView": 4, "componentType": 5126, "count": 296, "type": "VEC3"}, {"bufferView": 5, "componentType": 5123, "count": 432, "type": "SCALAR"}], "bufferViews": [{"buffer": 0, "byteLength": 46992, "byteOffset": 0, "target": 34962}, {"buffer": 0, "byteLength": 46992, "byteOffset": 46992, "target": 34962}, {"buffer": 0, "byteLength": 12948, "byteOffset": 93984, "target": 34963}, {"buffer": 0, "byteLength": 3552, "byteOffset": 106932, "target": 34962}, {"buffer": 0, "byteLength": 3552, "byteOffset": 110484, "target": 34962}, {"buffer": 0, "byteLength": 864, "byteOffset": 114036, "target": 34963}], "buffers": [{"byteLength": 114900, "uri": "Curve_2.bin"}]}