{"asset": {"generator": "Khronos glTF Blender I/O v5.2.40", "version": "2.0"}, "extensionsUsed": ["KHR_materials_specular"], "scene": 0, "scenes": [{"name": "Scene", "nodes": [0]}], "nodes": [{"mesh": 0, "name": "Curve_1_Overgrown"}], "materials": [{"alphaMode": "OPAQUE", "doubleSided": true, "name": "Main", "pbrMetallicRoughness": {"baseColorFactor": [0.15896087884902954, 0.16202940046787262, 0.1247718334197998, 1.0], "metallicFactor": 0, "roughnessFactor": 0.690034806728363}}, {"alphaMode": "OPAQUE", "doubleSided": true, "name": "Highlights", "pbrMetallicRoughness": {"baseColorFactor": [0.289932519197464, 0.29568690061569214, 0.22595453262329102, 1.0], "metallicFactor": 0, "roughnessFactor": 0.690034806728363}}, {"doubleSided": true, "extensions": {"KHR_materials_specular": {"specularColorFactor": [2.0, 2.0, 2.0]}}, "name": "Leaf_Texture", "pbrMetallicRoughness": {"baseColorFactor": [0.800000011920929, 0.800000011920929, 0.800000011920929, 1], "roughnessFactor": 0.5527864098548889, "baseColorTexture": {"index": 0}}}, {"doubleSided": true, "extensions": {"KHR_materials_specular": {"specularColorFactor": [2.0, 2.0, 2.0]}}, "name": "Green", "pbrMetallicRoughness": {"baseColorFactor": [0.800000011920929, 0.800000011920929, 0.800000011920929, 1], "roughnessFactor": 0.5527864098548889}}], "meshes": [{"name": "Cube.531", "primitives": [{"attributes": {"POSITION": 0, "NORMAL": 1, "TEXCOORD_0": 2}, "indices": 3, "material": 0}, {"attributes": {"POSITION": 4, "NORMAL": 5, "TEXCOORD_0": 6}, "indices": 7, "material": 1}, {"attributes": {"POSITION": 8, "NORMAL": 9, "TEXCOORD_0": 10}, "indices": 11, "material": 2}, {"attributes": {"POSITION": 12, "NORMAL": 13, "TEXCOORD_0": 14}, "indices": 15, "material": 3}]}], "accessors": [{"bufferView": 0, "componentType": 5126, "count": 3882, "max": [0.022074202075600624, 1.9958676099777222, -0.006528518628329039], "min": [-2.2527754306793213, -0.0015011592768132687, -2.075469493865967], "type": "VEC3"}, {"bufferView": 1, "componentType": 5126, "count": 3882, "type": "VEC3"}, {"bufferView": 2, "componentType": 5126, "count": 3882, "type": "VEC2"}, {"bufferView": 3, "componentType": 5123, "count": 6402, "type": "SCALAR"}, {"bufferView": 4, "componentType": 5126, "count": 280, "max": [-0.0002680903417058289, 1.7012594938278198, -0.07460536807775497], "min": [-2.2458765506744385, 0.295421838760376, -2.049604654312134], "type": "VEC3"}, {"bufferView": 5, "componentType": 5126, "count": 280, "type": "VEC3"}, {"bufferView": 6, "componentType": 5126, "count": 280, "type": "VEC2"}, {"bufferView": 7, "componentType": 5123, "count": 408, "type": "SCALAR"}, {"bufferView": 8, "componentType": 5126, "count": 212, "max": [-0.12086039036512375, 1.9993565082550049, -0.0689595639705658], "min": [-2.282715320587158, 0.08082382380962372, -2.073843240737915], "type": "VEC3"}, {"bufferView": 9, "componentType": 5126, "count": 212, "type": "VEC3"}, {"bufferView": 10, "componentType": 5126, "count": 212, "type": "VEC2"}, {"bufferView": 11, "componentType": 5123, "count": 342, "type": "SCALAR"}, {"bufferView": 12, "componentType": 5126, "count": 98, "max": [-0.012165321037173271, 1.9594712257385254, -0.02146228589117527], "min": [-2.185899496078491, 0.03899732232093811, -2.013460159301758], "type": "VEC3"}, {"bufferView": 13, "componentType": 5126, "count": 98, "type": "VEC3"}, {"bufferView": 14, "componentType": 5126, "count": 98, "type": "VEC2"}, {"bufferView": 15, "componentType": 5123, "count": 180, "type": "SCALAR"}], "bufferViews": [{"buffer": 0, "byteLength": 46584, "byteOffset": 0, "target": 34962}, {"buffer": 0, "byteLength": 46584, "byteOffset": 46584, "target": 34962}, {"buffer": 0, "byteLength": 31056, "byteOffset": 93168, "target": 34962}, {"buffer": 0, "byteLength": 12804, "byteOffset": 124224, "target": 34963}, {"buffer": 0, "byteLength": 3360, "byteOffset": 137028, "target": 34962}, {"buffer": 0, "byteLength": 3360, "byteOffset": 140388, "target": 34962}, {"buffer": 0, "byteLength": 2240, "byteOffset": 143748, "target": 34962}, {"buffer": 0, "byteLength": 816, "byteOffset": 145988, "target": 34963}, {"buffer": 0, "byteLength": 2544, "byteOffset": 146804, "target": 34962}, {"buffer": 0, "byteLength": 2544, "byteOffset": 149348, "target": 34962}, {"buffer": 0, "byteLength": 1696, "byteOffset": 151892, "target": 34962}, {"buffer": 0, "byteLength": 684, "byteOffset": 153588, "target": 34963}, {"buffer": 0, "byteLength": 1176, "byteOffset": 154272, "target": 34962}, {"buffer": 0, "byteLength": 1176, "byteOffset": 155448, "target": 34962}, {"buffer": 0, "byteLength": 784, "byteOffset": 156624, "target": 34962}, {"buffer": 0, "byteLength": 360, "byteOffset": 157408, "target": 34963}], "buffers": [{"byteLength": 157768, "uri": "Curve_1_Overgrown.bin"}], "images": [{"uri": "Leaf_Texture.png"}], "textures": [{"source": 0}]}