{"asset": {"generator": "Khronos glTF Blender I/O v5.2.40", "version": "2.0"}, "extensionsUsed": ["KHR_materials_specular"], "scene": 0, "scenes": [{"name": "Scene", "nodes": [0]}], "nodes": [{"mesh": 0, "name": "DeadTree_3"}], "materials": [{"doubleSided": true, "extensions": {"KHR_materials_specular": {"specularColorFactor": [2.0, 2.0, 2.0]}}, "name": "Bark", "pbrMetallicRoughness": {"baseColorFactor": [0.800000011920929, 0.800000011920929, 0.800000011920929, 1], "roughnessFactor": 0.5527864098548889, "baseColorTexture": {"index": 0}}}], "meshes": [{"name": "Cylinder.017", "primitives": [{"attributes": {"POSITION": 0, "NORMAL": 1, "TEXCOORD_0": 2}, "indices": 3, "material": 0}]}], "accessors": [{"bufferView": 0, "componentType": 5126, "count": 998, "max": [1.0800037384033203, 2.808666706085205, 1.0820167064666748], "min": [-1.171828031539917, -0.0006899399450048804, -1.176037073135376], "type": "VEC3"}, {"bufferView": 1, "componentType": 5126, "count": 998, "type": "VEC3"}, {"bufferView": 2, "componentType": 5126, "count": 998, "type": "VEC2"}, {"bufferView": 3, "componentType": 5123, "count": 4176, "type": "SCALAR"}], "bufferViews": [{"buffer": 0, "byteLength": 11976, "byteOffset": 0, "target": 34962}, {"buffer": 0, "byteLength": 11976, "byteOffset": 11976, "target": 34962}, {"buffer": 0, "byteLength": 7984, "byteOffset": 23952, "target": 34962}, {"buffer": 0, "byteLength": 8352, "byteOffset": 31936, "target": 34963}], "buffers": [{"byteLength": 40288, "uri": "DeadTree_3.bin"}], "images": [{"uri": "Bark_Texture.jpg"}], "textures": [{"source": 0}]}