{"asset": {"generator": "Khronos glTF Blender I/O v5.2.40", "version": "2.0"}, "scene": 0, "scenes": [{"name": "Scene", "nodes": [0, 1]}], "nodes": [{"mesh": 0, "name": "Doors_GothicArch_L", "translation": [-1, 0, 0]}, {"mesh": 1, "name": "Doors_GothicArch_R", "translation": [1, 0, 0]}], "materials": [{"alphaMode": "OPAQUE", "doubleSided": true, "name": "Wood", "pbrMetallicRoughness": {"baseColorFactor": [0.15292437374591827, 0.10439527034759521, 0.05163053795695305, 1.0], "metallicFactor": 0, "roughnessFactor": 0.690034806728363, "baseColorTexture": {"index": 0}}}, {"alphaMode": "OPAQUE", "doubleSided": true, "name": "DarkWood", "pbrMetallicRoughness": {"baseColorFactor": [0.08713703602552414, 0.05797602981328964, 0.02801351808011532, 1.0], "metallicFactor": 0, "roughnessFactor": 0.690034806728363, "baseColorTexture": {"index": 0}}}, {"alphaMode": "OPAQUE", "doubleSided": true, "name": "Metal", "pbrMetallicRoughness": {"baseColorFactor": [0.09704122692346573, 0.10234932601451874, 0.11927313357591629, 1.0], "metallicFactor": 0, "roughnessFactor": 0.690034806728363}}, {"alphaMode": "OPAQUE", "doubleSided": true, "name": "Metal_Light", "pbrMetallicRoughness": {"baseColorFactor": [0.17861980199813843, 0.18874633312225342, 0.22110147774219513, 1.0], "metallicFactor": 0, "roughnessFactor": 0.690034806728363}}], "meshes": [{"name": "Cylinder.001", "primitives": [{"attributes": {"POSITION": 0, "NORMAL": 1, "TEXCOORD_0": 2, "COLOR_0": 3, "COLOR_1": 4}, "indices": 5, "material": 0}, {"attributes": {"POSITION": 6, "NORMAL": 7, "TEXCOORD_0": 8, "COLOR_0": 9, "COLOR_1": 10}, "indices": 11, "material": 1}, {"attributes": {"POSITION": 12, "NORMAL": 13, "TEXCOORD_0": 14, "COLOR_0": 15, "COLOR_1": 16}, "indices": 17, "material": 2}, {"attributes": {"POSITION": 18, "NORMAL": 19, "TEXCOORD_0": 20, "COLOR_0": 21, "COLOR_1": 22}, "indices": 23, "material": 3}]}, {"name": "Cylinder.049", "primitives": [{"attributes": {"POSITION": 24, "NORMAL": 25, "TEXCOORD_0": 26, "COLOR_0": 27, "COLOR_1": 28}, "indices": 5, "material": 0}, {"attributes": {"POSITION": 29, "NORMAL": 30, "TEXCOORD_0": 31, "COLOR_0": 32, "COLOR_1": 33}, "indices": 34, "material": 1}, {"attributes": {"POSITION": 35, "NORMAL": 36, "TEXCOORD_0": 37, "COLOR_0": 38, "COLOR_1": 39}, "indices": 40, "material": 2}, {"attributes": {"POSITION": 41, "NORMAL": 42, "TEXCOORD_0": 43, "COLOR_0": 44, "COLOR_1": 45}, "indices": 46, "material": 3}]}], "accessors": [{"bufferView": 0, "componentType": 5126, "count": 52, "max": [0.8866811990737915, 3.0254080295562744, 0.04514420032501221], "min": [-0.025029540061950684, 0.22875046730041504, -0.04514420032501221], "type": "VEC3"}, {"bufferView": 1, "componentType": 5126, "count": 52, "type": "VEC3"}, {"bufferView": 2, "componentType": 5126, "count": 52, "type": "VEC2"}, {"bufferView": 3, "componentType": 5121, "count": 52, "normalized": true, "type": "VEC4"}, {"bufferView": 4, "componentType": 5123, "count": 52, "normalized": true, "type": "VEC4"}, {"bufferView": 5, "componentType": 5123, "count": 144, "type": "SCALAR"}, {"bufferView": 6, "componentType": 5126, "count": 818, "max": [0.989986777305603, 3.2036068439483643, 0.06289885193109512], "min": [-0.15644657611846924, 0.17493963241577148, -0.06289885193109512], "type": "VEC3"}, {"bufferView": 7, "componentType": 5126, "count": 818, "type": "VEC3"}, {"bufferView": 8, "componentType": 5126, "count": 818, "type": "VEC2"}, {"bufferView": 9, "componentType": 5121, "count": 818, "normalized": true, "type": "VEC4"}, {"bufferView": 10, "componentType": 5123, "count": 818, "normalized": true, "type": "VEC4"}, {"bufferView": 11, "componentType": 5123, "count": 1866, "type": "SCALAR"}, {"bufferView": 12, "componentType": 5126, "count": 320, "max": [0.989986777305603, 1.3306325674057007, 0.11931649595499039], "min": [-0.15645253658294678, -0.006005287170410156, -0.11931649595499039], "type": "VEC3"}, {"bufferView": 13, "componentType": 5126, "count": 320, "type": "VEC3"}, {"bufferView": 14, "componentType": 5126, "count": 320, "type": "VEC2"}, {"bufferView": 15, "componentType": 5121, "count": 320, "normalized": true, "type": "VEC4"}, {"bufferView": 16, "componentType": 5123, "count": 320, "normalized": true, "type": "VEC4"}, {"bufferView": 17, "componentType": 5123, "count": 858, "type": "SCALAR"}, {"bufferView": 18, "componentType": 5126, "count": 256, "max": [0.8700534105300903, 1.1945585012435913, 0.13713876903057098], "min": [-0.03325784206390381, 0.06634056568145752, -0.13713876903057098], "type": "VEC3"}, {"bufferView": 19, "componentType": 5126, "count": 256, "type": "VEC3"}, {"bufferView": 20, "componentType": 5126, "count": 256, "type": "VEC2"}, {"bufferView": 21, "componentType": 5121, "count": 256, "normalized": true, "type": "VEC4"}, {"bufferView": 22, "componentType": 5123, "count": 256, "normalized": true, "type": "VEC4"}, {"bufferView": 23, "componentType": 5123, "count": 408, "type": "SCALAR"}, {"bufferView": 24, "componentType": 5126, "count": 52, "max": [0.025029554963111877, 3.0254080295562744, 0.04514449089765549], "min": [-0.8866811990737915, 0.22875046730041504, -0.04514418542385101], "type": "VEC3"}, {"bufferView": 25, "componentType": 5126, "count": 52, "type": "VEC3"}, {"bufferView": 26, "componentType": 5126, "count": 52, "type": "VEC2"}, {"bufferView": 27, "componentType": 5121, "count": 52, "normalized": true, "type": "VEC4"}, {"bufferView": 28, "componentType": 5123, "count": 52, "normalized": true, "type": "VEC4"}, {"bufferView": 29, "componentType": 5126, "count": 818, "max": [0.15644659101963043, 3.2036068439483643, 0.06289917230606079], "min": [-0.989986777305603, 0.17493963241577148, -0.06289888173341751], "type": "VEC3"}, {"bufferView": 30, "componentType": 5126, "count": 818, "type": "VEC3"}, {"bufferView": 31, "componentType": 5126, "count": 818, "type": "VEC2"}, {"bufferView": 32, "componentType": 5121, "count": 818, "normalized": true, "type": "VEC4"}, {"bufferView": 33, "componentType": 5123, "count": 818, "normalized": true, "type": "VEC4"}, {"bufferView": 34, "componentType": 5123, "count": 1866, "type": "SCALAR"}, {"bufferView": 35, "componentType": 5126, "count": 320, "max": [0.15645256638526917, 1.3306325674057007, 0.11931677162647247], "min": [-0.989986777305603, -0.006005287170410156, -0.11931630223989487], "type": "VEC3"}, {"bufferView": 36, "componentType": 5126, "count": 320, "type": "VEC3"}, {"bufferView": 37, "componentType": 5126, "count": 320, "type": "VEC2"}, {"bufferView": 38, "componentType": 5121, "count": 320, "normalized": true, "type": "VEC4"}, {"bufferView": 39, "componentType": 5123, "count": 320, "normalized": true, "type": "VEC4"}, {"bufferView": 40, "componentType": 5123, "count": 858, "type": "SCALAR"}, {"bufferView": 41, "componentType": 5126, "count": 256, "max": [0.0332578606903553, 1.1945585012435913, 0.13713902235031128], "min": [-0.8700534105300903, 0.06634056568145752, -0.13713856041431427], "type": "VEC3"}, {"bufferView": 42, "componentType": 5126, "count": 256, "type": "VEC3"}, {"bufferView": 43, "componentType": 5126, "count": 256, "type": "VEC2"}, {"bufferView": 44, "componentType": 5121, "count": 256, "normalized": true, "type": "VEC4"}, {"bufferView": 45, "componentType": 5123, "count": 256, "normalized": true, "type": "VEC4"}, {"bufferView": 46, "componentType": 5123, "count": 408, "type": "SCALAR"}], "bufferViews": [{"buffer": 0, "byteLength": 624, "byteOffset": 0, "target": 34962}, {"buffer": 0, "byteLength": 624, "byteOffset": 624, "target": 34962}, {"buffer": 0, "byteLength": 416, "byteOffset": 1248, "target": 34962}, {"buffer": 0, "byteLength": 208, "byteOffset": 1664, "target": 34962}, {"buffer": 0, "byteLength": 416, "byteOffset": 1872, "target": 34962}, {"buffer": 0, "byteLength": 288, "byteOffset": 2288, "target": 34963}, {"buffer": 0, "byteLength": 9816, "byteOffset": 2576, "target": 34962}, {"buffer": 0, "byteLength": 9816, "byteOffset": 12392, "target": 34962}, {"buffer": 0, "byteLength": 6544, "byteOffset": 22208, "target": 34962}, {"buffer": 0, "byteLength": 3272, "byteOffset": 28752, "target": 34962}, {"buffer": 0, "byteLength": 6544, "byteOffset": 32024, "target": 34962}, {"buffer": 0, "byteLength": 3732, "byteOffset": 38568, "target": 34963}, {"buffer": 0, "byteLength": 3840, "byteOffset": 42300, "target": 34962}, {"buffer": 0, "byteLength": 3840, "byteOffset": 46140, "target": 34962}, {"buffer": 0, "byteLength": 2560, "byteOffset": 49980, "target": 34962}, {"buffer": 0, "byteLength": 1280, "byteOffset": 52540, "target": 34962}, {"buffer": 0, "byteLength": 2560, "byteOffset": 53820, "target": 34962}, {"buffer": 0, "byteLength": 1716, "byteOffset": 56380, "target": 34963}, {"buffer": 0, "byteLength": 3072, "byteOffset": 58096, "target": 34962}, {"buffer": 0, "byteLength": 3072, "byteOffset": 61168, "target": 34962}, {"buffer": 0, "byteLength": 2048, "byteOffset": 64240, "target": 34962}, {"buffer": 0, "byteLength": 1024, "byteOffset": 66288, "target": 34962}, {"buffer": 0, "byteLength": 2048, "byteOffset": 67312, "target": 34962}, {"buffer": 0, "byteLength": 816, "byteOffset": 69360, "target": 34963}, {"buffer": 0, "byteLength": 624, "byteOffset": 70176, "target": 34962}, {"buffer": 0, "byteLength": 624, "byteOffset": 70800, "target": 34962}, {"buffer": 0, "byteLength": 416, "byteOffset": 71424, "target": 34962}, {"buffer": 0, "byteLength": 208, "byteOffset": 71840, "target": 34962}, {"buffer": 0, "byteLength": 416, "byteOffset": 72048, "target": 34962}, {"buffer": 0, "byteLength": 9816, "byteOffset": 72464, "target": 34962}, {"buffer": 0, "byteLength": 9816, "byteOffset": 82280, "target": 34962}, {"buffer": 0, "byteLength": 6544, "byteOffset": 92096, "target": 34962}, {"buffer": 0, "byteLength": 3272, "byteOffset": 98640, "target": 34962}, {"buffer": 0, "byteLength": 6544, "byteOffset": 101912, "target": 34962}, {"buffer": 0, "byteLength": 3732, "byteOffset": 108456, "target": 34963}, {"buffer": 0, "byteLength": 3840, "byteOffset": 112188, "target": 34962}, {"buffer": 0, "byteLength": 3840, "byteOffset": 116028, "target": 34962}, {"buffer": 0, "byteLength": 2560, "byteOffset": 119868, "target": 34962}, {"buffer": 0, "byteLength": 1280, "byteOffset": 122428, "target": 34962}, {"buffer": 0, "byteLength": 2560, "byteOffset": 123708, "target": 34962}, {"buffer": 0, "byteLength": 1716, "byteOffset": 126268, "target": 34963}, {"buffer": 0, "byteLength": 3072, "byteOffset": 127984, "target": 34962}, {"buffer": 0, "byteLength": 3072, "byteOffset": 131056, "target": 34962}, {"buffer": 0, "byteLength": 2048, "byteOffset": 134128, "target": 34962}, {"buffer": 0, "byteLength": 1024, "byteOffset": 136176, "target": 34962}, {"buffer": 0, "byteLength": 2048, "byteOffset": 137200, "target": 34962}, {"buffer": 0, "byteLength": 816, "byteOffset": 139248, "target": 34963}], "buffers": [{"byteLength": 140064, "uri": "Doors_GothicArch.bin"}], "images": [{"uri": "Bark_Texture.jpg"}], "textures": [{"source": 0}]}