{"asset": {"generator": "Khronos glTF Blender I/O v5.2.40", "version": "2.0"}, "scene": 0, "scenes": [{"name": "Scene", "nodes": [0]}], "nodes": [{"mesh": 0, "name": "Flag_Wall"}], "materials": [{"alphaMode": "OPAQUE", "doubleSided": true, "name": "Flag", "pbrMetallicRoughness": {"baseColorFactor": [0.2633514106273651, 0.0846899077296257, 0.022547682747244835, 1.0], "metallicFactor": 0, "roughnessFactor": 0.690034806728363}}], "meshes": [{"name": "Cylinder.040", "primitives": [{"attributes": {"POSITION": 0, "NORMAL": 1}, "indices": 2, "material": 0}]}], "accessors": [{"bufferView": 0, "componentType": 5126, "count": 202, "max": [0.4617334008216858, 1.98466157913208, 0.20340757071971893], "min": [-0.4617334008216858, -0.033263564109802246, -0.11263348907232285], "type": "VEC3"}, {"bufferView": 1, "componentType": 5126, "count": 202, "type": "VEC3"}, {"bufferView": 2, "componentType": 5123, "count": 612, "type": "SCALAR"}], "bufferViews": [{"buffer": 0, "byteLength": 2424, "byteOffset": 0, "target": 34962}, {"buffer": 0, "byteLength": 2424, "byteOffset": 2424, "target": 34962}, {"buffer": 0, "byteLength": 1224, "byteOffset": 4848, "target": 34963}], "buffers": [{"byteLength": 6072, "uri": "Flag_Wall.bin"}]}