{"asset": {"generator": "Khronos glTF Blender I/O v5.2.40", "version": "2.0"}, "scene": 0, "scenes": [{"name": "Scene", "nodes": [0]}], "nodes": [{"mesh": 0, "name": "Flag_GothicArch"}], "materials": [{"alphaMode": "OPAQUE", "doubleSided": true, "name": "Flag", "pbrMetallicRoughness": {"baseColorFactor": [0.2633514106273651, 0.0846899077296257, 0.022547682747244835, 1.0], "metallicFactor": 0, "roughnessFactor": 0.690034806728363}}], "meshes": [{"name": "Cylinder.039", "primitives": [{"attributes": {"POSITION": 0, "NORMAL": 1}, "indices": 2, "material": 0}]}], "accessors": [{"bufferView": 0, "componentType": 5126, "count": 159, "max": [1.0818090438842773, 3.4660465717315674, 0.20340752601623535], "min": [-1.1062769889831543, 2.2503554821014404, -0.11263357102870941], "type": "VEC3"}, {"bufferView": 1, "componentType": 5126, "count": 159, "type": "VEC3"}, {"bufferView": 2, "componentType": 5123, "count": 432, "type": "SCALAR"}], "bufferViews": [{"buffer": 0, "byteLength": 1908, "byteOffset": 0, "target": 34962}, {"buffer": 0, "byteLength": 1908, "byteOffset": 1908, "target": 34962}, {"buffer": 0, "byteLength": 864, "byteOffset": 3816, "target": 34963}], "buffers": [{"byteLength": 4680, "uri": "Flag_GothicArch.bin"}]}