{"asset": {"generator": "Khronos glTF Blender I/O v5.2.40", "version": "2.0"}, "scene": 0, "scenes": [{"name": "Scene", "nodes": [0]}], "nodes": [{"mesh": 0, "name": "Floor_Hole_Corner", "scale": [1, 0.05973000079393387, 1]}], "materials": [{"alphaMode": "OPAQUE", "doubleSided": true, "name": "Main", "pbrMetallicRoughness": {"baseColorFactor": [0.15896087884902954, 0.16202940046787262, 0.1247718334197998, 1.0], "metallicFactor": 0, "roughnessFactor": 0.690034806728363}}, {"alphaMode": "OPAQUE", "doubleSided": true, "name": "Highlights", "pbrMetallicRoughness": {"baseColorFactor": [0.289932519197464, 0.29568690061569214, 0.22595453262329102, 1.0], "metallicFactor": 0, "roughnessFactor": 0.690034806728363}}], "meshes": [{"name": "Cube.032", "primitives": [{"attributes": {"POSITION": 0, "NORMAL": 1}, "indices": 2, "material": 0}, {"attributes": {"POSITION": 3, "NORMAL": 4}, "indices": 5, "material": 1}]}], "accessors": [{"bufferView": 0, "componentType": 5126, "count": 531, "max": [0.9929031133651733, 0.5690498352050781, 0.9966189861297607], "min": [-0.994628369808197, -1.3711445331573486, -0.9966913461685181], "type": "VEC3"}, {"bufferView": 1, "componentType": 5126, "count": 531, "type": "VEC3"}, {"bufferView": 2, "componentType": 5123, "count": 837, "type": "SCALAR"}, {"bufferView": 3, "componentType": 5126, "count": 116, "max": [1, 1.0181207656860352, 1], "min": [-0.9915086030960083, -1.3711445331573486, -0.6693829894065857], "type": "VEC3"}, {"bufferView": 4, "componentType": 5126, "count": 116, "type": "VEC3"}, {"bufferView": 5, "componentType": 5123, "count": 144, "type": "SCALAR"}], "bufferViews": [{"buffer": 0, "byteLength": 6372, "byteOffset": 0, "target": 34962}, {"buffer": 0, "byteLength": 6372, "byteOffset": 6372, "target": 34962}, {"buffer": 0, "byteLength": 1674, "byteOffset": 12744, "target": 34963}, {"buffer": 0, "byteLength": 1392, "byteOffset": 14420, "target": 34962}, {"buffer": 0, "byteLength": 1392, "byteOffset": 15812, "target": 34962}, {"buffer": 0, "byteLength": 288, "byteOffset": 17204, "target": 34963}], "buffers": [{"byteLength": 17492, "uri": "Floor_Hole_Corner.bin"}]}