{"asset": {"generator": "Khronos glTF Blender I/O v5.2.40", "version": "2.0"}, "scene": 0, "scenes": [{"name": "Scene", "nodes": [0]}], "nodes": [{"mesh": 0, "name": "Rail_Divider"}], "materials": [{"alphaMode": "OPAQUE", "doubleSided": true, "name": "Main", "pbrMetallicRoughness": {"baseColorFactor": [0.15896087884902954, 0.16202940046787262, 0.1247718334197998, 1.0], "metallicFactor": 0, "roughnessFactor": 0.690034806728363}}], "meshes": [{"name": "Cylinder.035", "primitives": [{"attributes": {"POSITION": 0, "NORMAL": 1}, "indices": 2, "material": 0}]}], "accessors": [{"bufferView": 0, "componentType": 5126, "count": 240, "max": [0.19476139545440674, 0.48577630519866943, 0.1856745481491089], "min": [-0.16782188415527344, -0.0025023731868714094, -0.1769089698791504], "type": "VEC3"}, {"bufferView": 1, "componentType": 5126, "count": 240, "type": "VEC3"}, {"bufferView": 2, "componentType": 5123, "count": 624, "type": "SCALAR"}], "bufferViews": [{"buffer": 0, "byteLength": 2880, "byteOffset": 0, "target": 34962}, {"buffer": 0, "byteLength": 2880, "byteOffset": 2880, "target": 34962}, {"buffer": 0, "byteLength": 1248, "byteOffset": 5760, "target": 34963}], "buffers": [{"byteLength": 7008, "uri": "Rail_Divider.bin"}]}