{"asset": {"generator": "Khronos glTF Blender I/O v5.2.40", "version": "2.0"}, "scene": 0, "scenes": [{"name": "Scene", "nodes": [0]}], "nodes": [{"mesh": 0, "name": "Stairs"}], "materials": [{"alphaMode": "OPAQUE", "doubleSided": true, "name": "Main", "pbrMetallicRoughness": {"baseColorFactor": [0.15896087884902954, 0.16202940046787262, 0.1247718334197998, 1.0], "metallicFactor": 0, "roughnessFactor": 0.690034806728363}}, {"alphaMode": "OPAQUE", "doubleSided": true, "name": "Highlights", "pbrMetallicRoughness": {"baseColorFactor": [0.289932519197464, 0.29568690061569214, 0.22595453262329102, 1.0], "metallicFactor": 0, "roughnessFactor": 0.690034806728363}}], "meshes": [{"name": "Cylinder.025", "primitives": [{"attributes": {"POSITION": 0, "NORMAL": 1}, "indices": 2, "material": 0}, {"attributes": {"POSITION": 3, "NORMAL": 4}, "indices": 5, "material": 1}]}], "accessors": [{"bufferView": 0, "componentType": 5126, "count": 3534, "max": [1.0104655027389526, 0.9028695225715637, 1.0750442743301392], "min": [-1.004916787147522, -0.018902640789747238, -1.076859712600708], "type": "VEC3"}, {"bufferView": 1, "componentType": 5126, "count": 3534, "type": "VEC3"}, {"bufferView": 2, "componentType": 5123, "count": 6456, "type": "SCALAR"}, {"bufferView": 3, "componentType": 5126, "count": 336, "max": [1.0099536180496216, 0.9028695225715637, 1.062791347503662], "min": [-0.9995072484016418, -0.012327784672379494, -1.0598232746124268], "type": "VEC3"}, {"bufferView": 4, "componentType": 5126, "count": 336, "type": "VEC3"}, {"bufferView": 5, "componentType": 5123, "count": 360, "type": "SCALAR"}], "bufferViews": [{"buffer": 0, "byteLength": 42408, "byteOffset": 0, "target": 34962}, {"buffer": 0, "byteLength": 42408, "byteOffset": 42408, "target": 34962}, {"buffer": 0, "byteLength": 12912, "byteOffset": 84816, "target": 34963}, {"buffer": 0, "byteLength": 4032, "byteOffset": 97728, "target": 34962}, {"buffer": 0, "byteLength": 4032, "byteOffset": 101760, "target": 34962}, {"buffer": 0, "byteLength": 720, "byteOffset": 105792, "target": 34963}], "buffers": [{"byteLength": 106512, "uri": "Stairs.bin"}]}