{"asset": {"generator": "Khronos glTF Blender I/O v5.2.40", "version": "2.0"}, "scene": 0, "scenes": [{"name": "Scene", "nodes": [0]}], "nodes": [{"mesh": 0, "name": "Stairs_2", "scale": [1.424695611000061, 1.424695611000061, 1.4403623342514038]}], "materials": [{"alphaMode": "OPAQUE", "doubleSided": true, "name": "Main", "pbrMetallicRoughness": {"baseColorFactor": [0.15896087884902954, 0.16202940046787262, 0.1247718334197998, 1.0], "metallicFactor": 0, "roughnessFactor": 0.690034806728363}}, {"alphaMode": "OPAQUE", "doubleSided": true, "name": "Highlights", "pbrMetallicRoughness": {"baseColorFactor": [0.289932519197464, 0.29568690061569214, 0.22595453262329102, 1.0], "metallicFactor": 0, "roughnessFactor": 0.690034806728363}}], "meshes": [{"name": "Cylinder.024", "primitives": [{"attributes": {"POSITION": 0, "NORMAL": 1}, "indices": 2, "material": 0}, {"attributes": {"POSITION": 3, "NORMAL": 4}, "indices": 5, "material": 1}]}], "accessors": [{"bufferView": 0, "componentType": 5126, "count": 3214, "max": [0.7545782327651978, 1.2484469413757324, 0.6976832747459412], "min": [-0.7558525204658508, -0.0021257400512695312, -0.7015356421470642], "type": "VEC3"}, {"bufferView": 1, "componentType": 5126, "count": 3214, "type": "VEC3"}, {"bufferView": 2, "componentType": 5123, "count": 5925, "type": "SCALAR"}, {"bufferView": 3, "componentType": 5126, "count": 269, "max": [0.7281988859176636, 1.2484469413757324, 0.6939276456832886], "min": [-0.7438945174217224, -0.0021257400512695312, -0.7011802792549133], "type": "VEC3"}, {"bufferView": 4, "componentType": 5126, "count": 269, "type": "VEC3"}, {"bufferView": 5, "componentType": 5123, "count": 291, "type": "SCALAR"}], "bufferViews": [{"buffer": 0, "byteLength": 38568, "byteOffset": 0, "target": 34962}, {"buffer": 0, "byteLength": 38568, "byteOffset": 38568, "target": 34962}, {"buffer": 0, "byteLength": 11850, "byteOffset": 77136, "target": 34963}, {"buffer": 0, "byteLength": 3228, "byteOffset": 88988, "target": 34962}, {"buffer": 0, "byteLength": 3228, "byteOffset": 92216, "target": 34962}, {"buffer": 0, "byteLength": 582, "byteOffset": 95444, "target": 34963}], "buffers": [{"byteLength": 96028, "uri": "Stairs_2.bin"}]}