{"asset": {"generator": "Khronos glTF Blender I/O v5.2.40", "version": "2.0"}, "scene": 0, "scenes": [{"name": "Scene", "nodes": [0]}], "nodes": [{"mesh": 0, "name": "Statue_Fox"}], "materials": [{"alphaMode": "OPAQUE", "doubleSided": true, "name": "Stone", "pbrMetallicRoughness": {"baseColorFactor": [0.1498711258172989, 0.1498711258172989, 0.1498711258172989, 1.0], "metallicFactor": 0, "roughnessFactor": 0.690034806728363}}], "meshes": [{"name": "Cylinder.036", "primitives": [{"attributes": {"POSITION": 0, "NORMAL": 1}, "indices": 2, "material": 0}]}], "accessors": [{"bufferView": 0, "componentType": 5126, "count": 2134, "max": [0.7540774941444397, 3.752453565597534, 0.7764104008674622], "min": [-0.596571147441864, 0, -0.9021936058998108], "type": "VEC3"}, {"bufferView": 1, "componentType": 5126, "count": 2134, "type": "VEC3"}, {"bufferView": 2, "componentType": 5123, "count": 6456, "type": "SCALAR"}], "bufferViews": [{"buffer": 0, "byteLength": 25608, "byteOffset": 0, "target": 34962}, {"buffer": 0, "byteLength": 25608, "byteOffset": 25608, "target": 34962}, {"buffer": 0, "byteLength": 12912, "byteOffset": 51216, "target": 34963}], "buffers": [{"byteLength": 64128, "uri": "Statue_Fox.bin"}]}