{"asset": {"generator": "Khronos glTF Blender I/O v5.2.40", "version": "2.0"}, "scene": 0, "scenes": [{"name": "Scene", "nodes": [0]}], "nodes": [{"mesh": 0, "name": "Support_Tall", "scale": [1.3328630924224854, 1.3328630924224854, 1.3328630924224854]}], "materials": [{"alphaMode": "OPAQUE", "doubleSided": true, "name": "Main", "pbrMetallicRoughness": {"baseColorFactor": [0.15896087884902954, 0.16202940046787262, 0.1247718334197998, 1.0], "metallicFactor": 0, "roughnessFactor": 0.690034806728363}}, {"alphaMode": "OPAQUE", "doubleSided": true, "name": "Highlights", "pbrMetallicRoughness": {"baseColorFactor": [0.289932519197464, 0.29568690061569214, 0.22595453262329102, 1.0], "metallicFactor": 0, "roughnessFactor": 0.690034806728363}}], "meshes": [{"name": "Cylinder.012", "primitives": [{"attributes": {"POSITION": 0, "NORMAL": 1}, "indices": 2, "material": 0}, {"attributes": {"POSITION": 3, "NORMAL": 4}, "indices": 5, "material": 1}]}], "accessors": [{"bufferView": 0, "componentType": 5126, "count": 804, "max": [0.30179792642593384, 3.0927257537841797, 0.24549515545368195], "min": [-0.2947952151298523, -4.1993334889411926e-05, -0.24549515545368195], "type": "VEC3"}, {"bufferView": 1, "componentType": 5126, "count": 804, "type": "VEC3"}, {"bufferView": 2, "componentType": 5123, "count": 1956, "type": "SCALAR"}, {"bufferView": 3, "componentType": 5126, "count": 54, "max": [0.1329060196876526, 3.0431129932403564, 0.24549515545368195], "min": [-0.2947952151298523, 0.35995906591415405, -0.24549515545368195], "type": "VEC3"}, {"bufferView": 4, "componentType": 5126, "count": 54, "type": "VEC3"}, {"bufferView": 5, "componentType": 5123, "count": 66, "type": "SCALAR"}], "bufferViews": [{"buffer": 0, "byteLength": 9648, "byteOffset": 0, "target": 34962}, {"buffer": 0, "byteLength": 9648, "byteOffset": 9648, "target": 34962}, {"buffer": 0, "byteLength": 3912, "byteOffset": 19296, "target": 34963}, {"buffer": 0, "byteLength": 648, "byteOffset": 23208, "target": 34962}, {"buffer": 0, "byteLength": 648, "byteOffset": 23856, "target": 34962}, {"buffer": 0, "byteLength": 132, "byteOffset": 24504, "target": 34963}], "buffers": [{"byteLength": 24636, "uri": "Support_Tall.bin"}]}