{"asset": {"generator": "Khronos glTF Blender I/O v5.2.40", "version": "2.0"}, "scene": 0, "scenes": [{"name": "Scene", "nodes": [0]}], "nodes": [{"mesh": 0, "name": "Support_Right", "rotation": [0, -1, 0, 1.9470718370939721e-07]}], "materials": [{"alphaMode": "OPAQUE", "doubleSided": true, "name": "Main", "pbrMetallicRoughness": {"baseColorFactor": [0.15896087884902954, 0.16202940046787262, 0.1247718334197998, 1.0], "metallicFactor": 0, "roughnessFactor": 0.690034806728363}}, {"alphaMode": "OPAQUE", "doubleSided": true, "name": "Black", "pbrMetallicRoughness": {"baseColorFactor": [0.04425261169672012, 0.04425261169672012, 0.04425261169672012, 1.0], "metallicFactor": 0, "roughnessFactor": 0.690034806728363}}, {"alphaMode": "OPAQUE", "doubleSided": true, "name": "Highlights", "pbrMetallicRoughness": {"baseColorFactor": [0.289932519197464, 0.29568690061569214, 0.22595453262329102, 1.0], "metallicFactor": 0, "roughnessFactor": 0.690034806728363}}, {"alphaMode": "OPAQUE", "doubleSided": true, "name": "Main2", "pbrMetallicRoughness": {"baseColorFactor": [0.22696588933467865, 0.22696588933467865, 0.16513220965862274, 1.0], "metallicFactor": 0, "roughnessFactor": 0.690034806728363}}], "meshes": [{"name": "Cylinder.062", "primitives": [{"attributes": {"POSITION": 0, "NORMAL": 1}, "indices": 2, "material": 0}, {"attributes": {"POSITION": 3, "NORMAL": 4}, "indices": 5, "material": 1}, {"attributes": {"POSITION": 6, "NORMAL": 7}, "indices": 8, "material": 2}, {"attributes": {"POSITION": 9, "NORMAL": 10}, "indices": 11, "material": 3}]}], "accessors": [{"bufferView": 0, "componentType": 5126, "count": 4832, "max": [1.501825213432312, 4.096127986907959, 0.3294687271118164], "min": [-0.1434185802936554, -4.122748214285821e-05, -0.3294687271118164], "type": "VEC3"}, {"bufferView": 1, "componentType": 5126, "count": 4832, "type": "VEC3"}, {"bufferView": 2, "componentType": 5123, "count": 9105, "type": "SCALAR"}, {"bufferView": 3, "componentType": 5126, "count": 492, "max": [1.2514305114746094, 3.559246778488159, 0.3269108533859253], "min": [-0.13863292336463928, 1.9299408197402954, -0.3269108533859253], "type": "VEC3"}, {"bufferView": 4, "componentType": 5126, "count": 492, "type": "VEC3"}, {"bufferView": 5, "componentType": 5123, "count": 780, "type": "SCALAR"}, {"bufferView": 6, "componentType": 5126, "count": 517, "max": [1.4999772310256958, 4.096127986907959, 0.3294687271118164], "min": [-0.1434185802936554, 0.3536610007286072, -0.3294687271118164], "type": "VEC3"}, {"bufferView": 7, "componentType": 5126, "count": 517, "type": "VEC3"}, {"bufferView": 8, "componentType": 5123, "count": 579, "type": "SCALAR"}, {"bufferView": 9, "componentType": 5126, "count": 120, "max": [1.4999772310256958, 3.9632391929626465, 0.18871062994003296], "min": [4.5724610231445695e-07, 1.9257317781448364, -0.1887107491493225], "type": "VEC3"}, {"bufferView": 10, "componentType": 5126, "count": 120, "type": "VEC3"}, {"bufferView": 11, "componentType": 5123, "count": 246, "type": "SCALAR"}], "bufferViews": [{"buffer": 0, "byteLength": 57984, "byteOffset": 0, "target": 34962}, {"buffer": 0, "byteLength": 57984, "byteOffset": 57984, "target": 34962}, {"buffer": 0, "byteLength": 18210, "byteOffset": 115968, "target": 34963}, {"buffer": 0, "byteLength": 5904, "byteOffset": 134180, "target": 34962}, {"buffer": 0, "byteLength": 5904, "byteOffset": 140084, "target": 34962}, {"buffer": 0, "byteLength": 1560, "byteOffset": 145988, "target": 34963}, {"buffer": 0, "byteLength": 6204, "byteOffset": 147548, "target": 34962}, {"buffer": 0, "byteLength": 6204, "byteOffset": 153752, "target": 34962}, {"buffer": 0, "byteLength": 1158, "byteOffset": 159956, "target": 34963}, {"buffer": 0, "byteLength": 1440, "byteOffset": 161116, "target": 34962}, {"buffer": 0, "byteLength": 1440, "byteOffset": 162556, "target": 34962}, {"buffer": 0, "byteLength": 492, "byteOffset": 163996, "target": 34963}], "buffers": [{"byteLength": 164488, "uri": "Support_Right.bin"}]}