{"asset": {"generator": "Khronos glTF Blender I/O v5.2.40", "version": "2.0"}, "scene": 0, "scenes": [{"name": "Scene", "nodes": [0]}], "nodes": [{"mesh": 0, "name": "Torch"}], "materials": [{"alphaMode": "OPAQUE", "doubleSided": true, "name": "DarkMetal", "pbrMetallicRoughness": {"baseColorFactor": [0.041473258286714554, 0.03704424947500229, 0.060716427862644196, 1.0], "metallicFactor": 0, "roughnessFactor": 0.690034806728363}}, {"alphaMode": "OPAQUE", "doubleSided": true, "name": "Fire", "pbrMetallicRoughness": {"baseColorFactor": [0.5711249709129333, 0.17027759552001953, 0.024706603959202766, 1.0], "metallicFactor": 0, "roughnessFactor": 0.690034806728363}}], "meshes": [{"name": "Cylinder.042", "primitives": [{"attributes": {"POSITION": 0, "NORMAL": 1}, "indices": 2, "material": 0}, {"attributes": {"POSITION": 3, "NORMAL": 4}, "indices": 5, "material": 1}]}], "accessors": [{"bufferView": 0, "componentType": 5126, "count": 366, "max": [0.13913729786872864, 0.5726706385612488, 0.14410406351089478], "min": [-0.13913729786872864, -0.2707848846912384, -0.29354315996170044], "type": "VEC3"}, {"bufferView": 1, "componentType": 5126, "count": 366, "type": "VEC3"}, {"bufferView": 2, "componentType": 5123, "count": 1032, "type": "SCALAR"}, {"bufferView": 3, "componentType": 5126, "count": 25, "max": [0.0810689926147461, 0.8996508121490479, 0.10895431041717529], "min": [-0.09170244634151459, 0.36445581912994385, -0.05686970800161362], "type": "VEC3"}, {"bufferView": 4, "componentType": 5126, "count": 25, "type": "VEC3"}, {"bufferView": 5, "componentType": 5123, "count": 126, "type": "SCALAR"}], "bufferViews": [{"buffer": 0, "byteLength": 4392, "byteOffset": 0, "target": 34962}, {"buffer": 0, "byteLength": 4392, "byteOffset": 4392, "target": 34962}, {"buffer": 0, "byteLength": 2064, "byteOffset": 8784, "target": 34963}, {"buffer": 0, "byteLength": 300, "byteOffset": 10848, "target": 34962}, {"buffer": 0, "byteLength": 300, "byteOffset": 11148, "target": 34962}, {"buffer": 0, "byteLength": 252, "byteOffset": 11448, "target": 34963}], "buffers": [{"byteLength": 11700, "uri": "Torch.bin"}]}