{"asset": {"generator": "Khronos glTF Blender I/O v5.2.40", "version": "2.0"}, "extensionsUsed": ["KHR_materials_specular"], "scene": 0, "scenes": [{"name": "Scene", "nodes": [0]}], "nodes": [{"mesh": 0, "name": "Tree_3"}], "materials": [{"doubleSided": true, "extensions": {"KHR_materials_specular": {"specularColorFactor": [2.0, 2.0, 2.0]}}, "name": "Bark", "pbrMetallicRoughness": {"baseColorFactor": [0.800000011920929, 0.800000011920929, 0.800000011920929, 1], "roughnessFactor": 0.5527864098548889, "baseColorTexture": {"index": 0}}}, {"doubleSided": true, "extensions": {"KHR_materials_specular": {"specularColorFactor": [2.0, 2.0, 2.0]}}, "name": "Texture_Leaves", "pbrMetallicRoughness": {"baseColorFactor": [0.800000011920929, 0.800000011920929, 0.800000011920929, 1], "roughnessFactor": 0.5527864098548889, "baseColorTexture": {"index": 1}}}], "meshes": [{"name": "Cylinder.000", "primitives": [{"attributes": {"POSITION": 0, "NORMAL": 1, "TEXCOORD_0": 2}, "indices": 3, "material": 0}, {"attributes": {"POSITION": 4, "NORMAL": 5, "TEXCOORD_0": 6}, "indices": 7, "material": 1}]}], "accessors": [{"bufferView": 0, "componentType": 5126, "count": 400, "max": [0.722692608833313, 2.629964828491211, 0.09362801164388657], "min": [-0.7316693067550659, 0.01084374263882637, -0.14287151396274567], "type": "VEC3"}, {"bufferView": 1, "componentType": 5126, "count": 400, "type": "VEC3"}, {"bufferView": 2, "componentType": 5126, "count": 400, "type": "VEC2"}, {"bufferView": 3, "componentType": 5123, "count": 1548, "type": "SCALAR"}, {"bufferView": 4, "componentType": 5126, "count": 578, "max": [1.3449933528900146, 2.9416615962982178, 1.0709525346755981], "min": [-1.4288511276245117, 1.2757993936538696, -1.165046215057373], "type": "VEC3"}, {"bufferView": 5, "componentType": 5126, "count": 578, "type": "VEC3"}, {"bufferView": 6, "componentType": 5126, "count": 578, "type": "VEC2"}, {"bufferView": 7, "componentType": 5123, "count": 2448, "type": "SCALAR"}], "bufferViews": [{"buffer": 0, "byteLength": 4800, "byteOffset": 0, "target": 34962}, {"buffer": 0, "byteLength": 4800, "byteOffset": 4800, "target": 34962}, {"buffer": 0, "byteLength": 3200, "byteOffset": 9600, "target": 34962}, {"buffer": 0, "byteLength": 3096, "byteOffset": 12800, "target": 34963}, {"buffer": 0, "byteLength": 6936, "byteOffset": 15896, "target": 34962}, {"buffer": 0, "byteLength": 6936, "byteOffset": 22832, "target": 34962}, {"buffer": 0, "byteLength": 4624, "byteOffset": 29768, "target": 34962}, {"buffer": 0, "byteLength": 4896, "byteOffset": 34392, "target": 34963}], "buffers": [{"byteLength": 39288, "uri": "Tree_3.bin"}], "images": [{"uri": "Bark_Texture.jpg"}, {"uri": "Leaf_Texture.png"}], "textures": [{"source": 0}, {"source": 1}]}