{"asset": {"generator": "Khronos glTF Blender I/O v5.2.40", "version": "2.0"}, "scene": 0, "scenes": [{"name": "Scene", "nodes": [0]}], "nodes": [{"mesh": 0, "name": "Wall"}], "materials": [{"alphaMode": "OPAQUE", "doubleSided": true, "name": "Main", "pbrMetallicRoughness": {"baseColorFactor": [0.15896087884902954, 0.16202940046787262, 0.1247718334197998, 1.0], "metallicFactor": 0, "roughnessFactor": 0.690034806728363}}, {"alphaMode": "OPAQUE", "doubleSided": true, "name": "Highlights", "pbrMetallicRoughness": {"baseColorFactor": [0.289932519197464, 0.29568690061569214, 0.22595453262329102, 1.0], "metallicFactor": 0, "roughnessFactor": 0.690034806728363}}], "meshes": [{"name": "Cube.354", "primitives": [{"attributes": {"POSITION": 0, "NORMAL": 1}, "indices": 2, "material": 0}, {"attributes": {"POSITION": 3, "NORMAL": 4}, "indices": 5, "material": 1}]}], "accessors": [{"bufferView": 0, "componentType": 5126, "count": 2144, "max": [0.9993463754653931, 1.9997763633728027, 0.03299354016780853], "min": [-0.9990781545639038, -0.00106331380084157, -0.25294965505599976], "type": "VEC3"}, {"bufferView": 1, "componentType": 5126, "count": 2144, "type": "VEC3"}, {"bufferView": 2, "componentType": 5123, "count": 3624, "type": "SCALAR"}, {"bufferView": 3, "componentType": 5126, "count": 184, "max": [0.9810592532157898, 1.6865431070327759, 0.02482674829661846], "min": [-0.9204298257827759, 0.295421838760376, -0.24478286504745483], "type": "VEC3"}, {"bufferView": 4, "componentType": 5126, "count": 184, "type": "VEC3"}, {"bufferView": 5, "componentType": 5123, "count": 264, "type": "SCALAR"}], "bufferViews": [{"buffer": 0, "byteLength": 25728, "byteOffset": 0, "target": 34962}, {"buffer": 0, "byteLength": 25728, "byteOffset": 25728, "target": 34962}, {"buffer": 0, "byteLength": 7248, "byteOffset": 51456, "target": 34963}, {"buffer": 0, "byteLength": 2208, "byteOffset": 58704, "target": 34962}, {"buffer": 0, "byteLength": 2208, "byteOffset": 60912, "target": 34962}, {"buffer": 0, "byteLength": 528, "byteOffset": 63120, "target": 34963}], "buffers": [{"byteLength": 63648, "uri": "Wall.bin"}]}