{"asset": {"generator": "Khronos glTF Blender I/O v5.2.40", "version": "2.0"}, "extensionsUsed": ["KHR_materials_specular"], "scene": 0, "scenes": [{"name": "Scene", "nodes": [0]}], "nodes": [{"mesh": 0, "name": "Wall_Overgrown"}], "materials": [{"alphaMode": "OPAQUE", "doubleSided": true, "name": "Main", "pbrMetallicRoughness": {"baseColorFactor": [0.15896087884902954, 0.16202940046787262, 0.1247718334197998, 1.0], "metallicFactor": 0, "roughnessFactor": 0.690034806728363}}, {"alphaMode": "OPAQUE", "doubleSided": true, "name": "Highlights", "pbrMetallicRoughness": {"baseColorFactor": [0.289932519197464, 0.29568690061569214, 0.22595453262329102, 1.0], "metallicFactor": 0, "roughnessFactor": 0.690034806728363}}, {"doubleSided": true, "extensions": {"KHR_materials_specular": {"specularColorFactor": [2.0, 2.0, 2.0]}}, "name": "Leaf_Texture", "pbrMetallicRoughness": {"baseColorFactor": [0.800000011920929, 0.800000011920929, 0.800000011920929, 1], "roughnessFactor": 0.5527864098548889, "baseColorTexture": {"index": 0}}}, {"doubleSided": true, "extensions": {"KHR_materials_specular": {"specularColorFactor": [2.0, 2.0, 2.0]}}, "name": "Green", "pbrMetallicRoughness": {"baseColorFactor": [0.800000011920929, 0.800000011920929, 0.800000011920929, 1], "roughnessFactor": 0.5527864098548889}}], "meshes": [{"name": "Cube.060", "primitives": [{"attributes": {"POSITION": 0, "NORMAL": 1, "TEXCOORD_0": 2}, "indices": 3, "material": 0}, {"attributes": {"POSITION": 4, "NORMAL": 5, "TEXCOORD_0": 6}, "indices": 7, "material": 1}, {"attributes": {"POSITION": 8, "NORMAL": 9, "TEXCOORD_0": 10}, "indices": 11, "material": 2}, {"attributes": {"POSITION": 12, "NORMAL": 13, "TEXCOORD_0": 14}, "indices": 15, "material": 3}]}], "accessors": [{"bufferView": 0, "componentType": 5126, "count": 1644, "max": [0.9970556497573853, 1.9891207218170166, 0.03299354016780853], "min": [-0.9933503866195679, 0.01256274152547121, -0.25294965505599976], "type": "VEC3"}, {"bufferView": 1, "componentType": 5126, "count": 1644, "type": "VEC3"}, {"bufferView": 2, "componentType": 5126, "count": 1644, "type": "VEC2"}, {"bufferView": 3, "componentType": 5123, "count": 3648, "type": "SCALAR"}, {"bufferView": 4, "componentType": 5126, "count": 116, "max": [0.9810592532157898, 1.7012594938278198, 0.02482674829661846], "min": [-0.9204298257827759, 0.295421838760376, -0.24478286504745483], "type": "VEC3"}, {"bufferView": 5, "componentType": 5126, "count": 116, "type": "VEC3"}, {"bufferView": 6, "componentType": 5126, "count": 116, "type": "VEC2"}, {"bufferView": 7, "componentType": 5123, "count": 264, "type": "SCALAR"}, {"bufferView": 8, "componentType": 5126, "count": 108, "max": [0.9535671472549438, 1.9971097707748413, 0.04253307357430458], "min": [-0.9345366954803467, 0.19062428176403046, -0.26134634017944336], "type": "VEC3"}, {"bufferView": 9, "componentType": 5126, "count": 108, "type": "VEC3"}, {"bufferView": 10, "componentType": 5126, "count": 108, "type": "VEC2"}, {"bufferView": 11, "componentType": 5123, "count": 162, "type": "SCALAR"}, {"bufferView": 12, "componentType": 5126, "count": 24, "max": [0.9727110862731934, 1.9594712257385254, -0.00782233290374279], "min": [-0.9727168083190918, 0.038997285068035126, -0.21213388442993164], "type": "VEC3"}, {"bufferView": 13, "componentType": 5126, "count": 24, "type": "VEC3"}, {"bufferView": 14, "componentType": 5126, "count": 24, "type": "VEC2"}, {"bufferView": 15, "componentType": 5123, "count": 36, "type": "SCALAR"}], "bufferViews": [{"buffer": 0, "byteLength": 19728, "byteOffset": 0, "target": 34962}, {"buffer": 0, "byteLength": 19728, "byteOffset": 19728, "target": 34962}, {"buffer": 0, "byteLength": 13152, "byteOffset": 39456, "target": 34962}, {"buffer": 0, "byteLength": 7296, "byteOffset": 52608, "target": 34963}, {"buffer": 0, "byteLength": 1392, "byteOffset": 59904, "target": 34962}, {"buffer": 0, "byteLength": 1392, "byteOffset": 61296, "target": 34962}, {"buffer": 0, "byteLength": 928, "byteOffset": 62688, "target": 34962}, {"buffer": 0, "byteLength": 528, "byteOffset": 63616, "target": 34963}, {"buffer": 0, "byteLength": 1296, "byteOffset": 64144, "target": 34962}, {"buffer": 0, "byteLength": 1296, "byteOffset": 65440, "target": 34962}, {"buffer": 0, "byteLength": 864, "byteOffset": 66736, "target": 34962}, {"buffer": 0, "byteLength": 324, "byteOffset": 67600, "target": 34963}, {"buffer": 0, "byteLength": 288, "byteOffset": 67924, "target": 34962}, {"buffer": 0, "byteLength": 288, "byteOffset": 68212, "target": 34962}, {"buffer": 0, "byteLength": 192, "byteOffset": 68500, "target": 34962}, {"buffer": 0, "byteLength": 72, "byteOffset": 68692, "target": 34963}], "buffers": [{"byteLength": 68764, "uri": "Wall_Overgrown.bin"}], "images": [{"uri": "Leaf_Texture.png"}], "textures": [{"source": 0}]}