{"asset": {"generator": "Khronos glTF Blender I/O v5.2.40", "version": "2.0"}, "scene": 0, "scenes": [{"name": "Scene", "nodes": [0]}], "nodes": [{"mesh": 0, "name": "Wall_Double_Hole", "rotation": [-0.70710688829422, 0, 0, 0.7071066498756409], "scale": [1, 0.05973000079393387, 1]}], "materials": [{"alphaMode": "OPAQUE", "doubleSided": true, "name": "Main", "pbrMetallicRoughness": {"baseColorFactor": [0.15896087884902954, 0.16202940046787262, 0.1247718334197998, 1.0], "metallicFactor": 0, "roughnessFactor": 0.690034806728363}}, {"alphaMode": "OPAQUE", "doubleSided": true, "name": "Highlights", "pbrMetallicRoughness": {"baseColorFactor": [0.289932519197464, 0.29568690061569214, 0.22595453262329102, 1.0], "metallicFactor": 0, "roughnessFactor": 0.690034806728363}}], "meshes": [{"name": "Cube.013", "primitives": [{"attributes": {"POSITION": 0, "NORMAL": 1}, "indices": 2, "material": 0}, {"attributes": {"POSITION": 3, "NORMAL": 4}, "indices": 5, "material": 1}]}], "accessors": [{"bufferView": 0, "componentType": 5126, "count": 3048, "max": [0.9970556497573853, 4.685234546661377, 1.978804349899292], "min": [-0.9965256452560425, -4.781296253204346, 0.0030291080474853516], "type": "VEC3"}, {"bufferView": 1, "componentType": 5126, "count": 3048, "type": "VEC3"}, {"bufferView": 2, "componentType": 5123, "count": 5256, "type": "SCALAR"}, {"bufferView": 3, "componentType": 5126, "count": 272, "max": [0.9810592532157898, 4.551421642303467, 1.9709194898605347], "min": [-0.9805291891098022, -4.647482395172119, 0.010913968086242676], "type": "VEC3"}, {"bufferView": 4, "componentType": 5126, "count": 272, "type": "VEC3"}, {"bufferView": 5, "componentType": 5123, "count": 384, "type": "SCALAR"}], "bufferViews": [{"buffer": 0, "byteLength": 36576, "byteOffset": 0, "target": 34962}, {"buffer": 0, "byteLength": 36576, "byteOffset": 36576, "target": 34962}, {"buffer": 0, "byteLength": 10512, "byteOffset": 73152, "target": 34963}, {"buffer": 0, "byteLength": 3264, "byteOffset": 83664, "target": 34962}, {"buffer": 0, "byteLength": 3264, "byteOffset": 86928, "target": 34962}, {"buffer": 0, "byteLength": 768, "byteOffset": 90192, "target": 34963}], "buffers": [{"byteLength": 90960, "uri": "Wall_Double_Hole.bin"}]}