{"asset": {"generator": "Khronos glTF Blender I/O v5.2.40", "version": "2.0"}, "scene": 0, "scenes": [{"name": "Scene", "nodes": [0]}], "nodes": [{"mesh": 0, "name": "Wall_Hole"}], "materials": [{"alphaMode": "OPAQUE", "doubleSided": true, "name": "Main", "pbrMetallicRoughness": {"baseColorFactor": [0.15896087884902954, 0.16202940046787262, 0.1247718334197998, 1.0], "metallicFactor": 0, "roughnessFactor": 0.690034806728363}}, {"alphaMode": "OPAQUE", "doubleSided": true, "name": "Highlights", "pbrMetallicRoughness": {"baseColorFactor": [0.289932519197464, 0.29568690061569214, 0.22595453262329102, 1.0], "metallicFactor": 0, "roughnessFactor": 0.690034806728363}}], "meshes": [{"name": "Cube.055", "primitives": [{"attributes": {"POSITION": 0, "NORMAL": 1}, "indices": 2, "material": 0}, {"attributes": {"POSITION": 3, "NORMAL": 4}, "indices": 5, "material": 1}]}], "accessors": [{"bufferView": 0, "componentType": 5126, "count": 1488, "max": [0.9993463754653931, 2.0354199409484863, 0.032819442451000214], "min": [-0.9990782141685486, 0.034580230712890625, -0.2527755796909332], "type": "VEC3"}, {"bufferView": 1, "componentType": 5126, "count": 1488, "type": "VEC3"}, {"bufferView": 2, "componentType": 5123, "count": 2532, "type": "SCALAR"}, {"bufferView": 3, "componentType": 5126, "count": 148, "max": [0.9810592532157898, 1.7389347553253174, 0.024826742708683014], "min": [-0.9204298257827759, 0.3478134870529175, -0.24478286504745483], "type": "VEC3"}, {"bufferView": 4, "componentType": 5126, "count": 148, "type": "VEC3"}, {"bufferView": 5, "componentType": 5123, "count": 204, "type": "SCALAR"}], "bufferViews": [{"buffer": 0, "byteLength": 17856, "byteOffset": 0, "target": 34962}, {"buffer": 0, "byteLength": 17856, "byteOffset": 17856, "target": 34962}, {"buffer": 0, "byteLength": 5064, "byteOffset": 35712, "target": 34963}, {"buffer": 0, "byteLength": 1776, "byteOffset": 40776, "target": 34962}, {"buffer": 0, "byteLength": 1776, "byteOffset": 42552, "target": 34962}, {"buffer": 0, "byteLength": 408, "byteOffset": 44328, "target": 34963}], "buffers": [{"byteLength": 44736, "uri": "Wall_Hole.bin"}]}