{"asset": {"generator": "Khronos glTF Blender I/O v5.2.40", "version": "2.0"}, "scene": 0, "scenes": [{"name": "Scene", "nodes": [0]}], "nodes": [{"mesh": 0, "name": "Window_Open_Double", "rotation": [-0.70710688829422, 0, 0, 0.7071066498756409], "scale": [1, 0.05973000079393387, 1]}], "materials": [{"alphaMode": "OPAQUE", "doubleSided": true, "name": "Main", "pbrMetallicRoughness": {"baseColorFactor": [0.15896087884902954, 0.16202940046787262, 0.1247718334197998, 1.0], "metallicFactor": 0, "roughnessFactor": 0.690034806728363}}, {"alphaMode": "OPAQUE", "doubleSided": true, "name": "Highlights", "pbrMetallicRoughness": {"baseColorFactor": [0.289932519197464, 0.29568690061569214, 0.22595453262329102, 1.0], "metallicFactor": 0, "roughnessFactor": 0.690034806728363}}], "meshes": [{"name": "Cube.656", "primitives": [{"attributes": {"POSITION": 0, "NORMAL": 1}, "indices": 2, "material": 0}, {"attributes": {"POSITION": 3, "NORMAL": 4}, "indices": 5, "material": 1}]}], "accessors": [{"bufferView": 0, "componentType": 5126, "count": 3028, "max": [0.9970556497573853, 4.231968879699707, 3.9891207218170166], "min": [-0.9933503866195679, -0.5494654774665833, 0.0018747970461845398], "type": "VEC3"}, {"bufferView": 1, "componentType": 5126, "count": 3028, "type": "VEC3"}, {"bufferView": 2, "componentType": 5123, "count": 5160, "type": "SCALAR"}, {"bufferView": 3, "componentType": 5126, "count": 420, "max": [0.9810592532157898, 4.2129435539245605, 3.7012596130371094], "min": [-0.9694505929946899, -0.864546537399292, 0.295421838760376], "type": "VEC3"}, {"bufferView": 4, "componentType": 5126, "count": 420, "type": "VEC3"}, {"bufferView": 5, "componentType": 5123, "count": 696, "type": "SCALAR"}], "bufferViews": [{"buffer": 0, "byteLength": 36336, "byteOffset": 0, "target": 34962}, {"buffer": 0, "byteLength": 36336, "byteOffset": 36336, "target": 34962}, {"buffer": 0, "byteLength": 10320, "byteOffset": 72672, "target": 34963}, {"buffer": 0, "byteLength": 5040, "byteOffset": 82992, "target": 34962}, {"buffer": 0, "byteLength": 5040, "byteOffset": 88032, "target": 34962}, {"buffer": 0, "byteLength": 1392, "byteOffset": 93072, "target": 34963}], "buffers": [{"byteLength": 94464, "uri": "Window_Open_Double.bin"}]}