{"asset": {"generator": "Khronos glTF Blender I/O v5.2.40", "version": "2.0"}, "scene": 0, "scenes": [{"name": "Scene", "nodes": [0]}], "nodes": [{"mesh": 0, "name": "Window_Bars", "rotation": [-0.70710688829422, 0, 0, 0.7071066498756409], "scale": [1, 0.05973000079393387, 1]}], "materials": [{"alphaMode": "OPAQUE", "doubleSided": true, "name": "Main", "pbrMetallicRoughness": {"baseColorFactor": [0.15896087884902954, 0.16202940046787262, 0.1247718334197998, 1.0], "metallicFactor": 0, "roughnessFactor": 0.690034806728363}}, {"alphaMode": "OPAQUE", "doubleSided": true, "name": "Highlights", "pbrMetallicRoughness": {"baseColorFactor": [0.289932519197464, 0.29568690061569214, 0.22595453262329102, 1.0], "metallicFactor": 0, "roughnessFactor": 0.690034806728363}}, {"alphaMode": "OPAQUE", "doubleSided": true, "name": "Metal", "pbrMetallicRoughness": {"baseColorFactor": [0.09704122692346573, 0.10234932601451874, 0.11927313357591629, 1.0], "metallicFactor": 0, "roughnessFactor": 0.690034806728363}}], "meshes": [{"name": "Cube.015", "primitives": [{"attributes": {"POSITION": 0, "NORMAL": 1, "TEXCOORD_0": 2}, "indices": 3, "material": 0}, {"attributes": {"POSITION": 4, "NORMAL": 5, "TEXCOORD_0": 6}, "indices": 7, "material": 1}, {"attributes": {"POSITION": 8, "NORMAL": 9, "TEXCOORD_0": 10}, "indices": 11, "material": 2}]}], "accessors": [{"bufferView": 0, "componentType": 5126, "count": 1696, "max": [0.9970556497573853, 4.231968879699707, 1.9891207218170166], "min": [-0.9933503866195679, -0.5494639873504639, 0.0018747970461845398], "type": "VEC3"}, {"bufferView": 1, "componentType": 5126, "count": 1696, "type": "VEC3"}, {"bufferView": 2, "componentType": 5126, "count": 1696, "type": "VEC2"}, {"bufferView": 3, "componentType": 5123, "count": 2916, "type": "SCALAR"}, {"bufferView": 4, "componentType": 5126, "count": 300, "max": [0.9810592532157898, 4.463429927825928, 1.7012594938278198], "min": [-0.9204298257827759, -0.6075614094734192, 0.295421838760376], "type": "VEC3"}, {"bufferView": 5, "componentType": 5126, "count": 300, "type": "VEC3"}, {"bufferView": 6, "componentType": 5126, "count": 300, "type": "VEC2"}, {"bufferView": 7, "componentType": 5123, "count": 528, "type": "SCALAR"}, {"bufferView": 8, "componentType": 5126, "count": 148, "max": [0.33715489506721497, 1.4714970588684082, 1.6431937217712402], "min": [-0.33192065358161926, 0.7844329476356506, 0.31928664445877075], "type": "VEC3"}, {"bufferView": 9, "componentType": 5126, "count": 148, "type": "VEC3"}, {"bufferView": 10, "componentType": 5126, "count": 148, "type": "VEC2"}, {"bufferView": 11, "componentType": 5123, "count": 222, "type": "SCALAR"}], "bufferViews": [{"buffer": 0, "byteLength": 20352, "byteOffset": 0, "target": 34962}, {"buffer": 0, "byteLength": 20352, "byteOffset": 20352, "target": 34962}, {"buffer": 0, "byteLength": 13568, "byteOffset": 40704, "target": 34962}, {"buffer": 0, "byteLength": 5832, "byteOffset": 54272, "target": 34963}, {"buffer": 0, "byteLength": 3600, "byteOffset": 60104, "target": 34962}, {"buffer": 0, "byteLength": 3600, "byteOffset": 63704, "target": 34962}, {"buffer": 0, "byteLength": 2400, "byteOffset": 67304, "target": 34962}, {"buffer": 0, "byteLength": 1056, "byteOffset": 69704, "target": 34963}, {"buffer": 0, "byteLength": 1776, "byteOffset": 70760, "target": 34962}, {"buffer": 0, "byteLength": 1776, "byteOffset": 72536, "target": 34962}, {"buffer": 0, "byteLength": 1184, "byteOffset": 74312, "target": 34962}, {"buffer": 0, "byteLength": 444, "byteOffset": 75496, "target": 34963}], "buffers": [{"byteLength": 75940, "uri": "Window_Bars.bin"}]}