{
  "asset": {
    "generator": "glTF-Transform v4.5.0",
    "version": "2.0"
  },
  "accessors": [
    {
      "type": "SCALAR",
      "componentType": 5123,
      "count": 2712,
      "normalized": false,
      "byteOffset": 0,
      "bufferView": 0
    },
    {
      "type": "VEC3",
      "componentType": 5120,
      "count": 1640,
      "normalized": true,
      "byteOffset": 0,
      "bufferView": 1
    },
    {
      "type": "VEC2",
      "componentType": 5126,
      "count": 1640,
      "normalized": false,
      "byteOffset": 0,
      "bufferView": 2
    },
    {
      "type": "SCALAR",
      "componentType": 5123,
      "count": 10188,
      "normalized": false,
      "byteOffset": 5424,
      "bufferView": 0
    },
    {
      "type": "VEC3",
      "componentType": 5120,
      "count": 2968,
      "normalized": true,
      "byteOffset": 0,
      "bufferView": 3
    },
    {
      "type": "VEC2",
      "componentType": 5126,
      "count": 2968,
      "normalized": false,
      "byteOffset": 0,
      "bufferView": 4
    },
    {
      "type": "VEC2",
      "componentType": 5126,
      "count": 2968,
      "normalized": false,
      "byteOffset": 0,
      "bufferView": 5
    },
    {
      "type": "VEC3",
      "componentType": 5122,
      "count": 1640,
      "max": [
        21890,
        12653,
        32071
      ],
      "min": [
        -21890,
        -15681,
        -32387
      ],
      "normalized": true,
      "byteOffset": 0,
      "bufferView": 6
    },
    {
      "type": "VEC2",
      "componentType": 5123,
      "count": 1640,
      "normalized": true,
      "byteOffset": 0,
      "bufferView": 7
    },
    {
      "type": "VEC3",
      "componentType": 5122,
      "count": 2968,
      "max": [
        22806,
        15681,
        32767
      ],
      "min": [
        -22806,
        -14885,
        -32767
      ],
      "normalized": true,
      "byteOffset": 0,
      "bufferView": 8
    }
  ],
  "bufferViews": [
    {
      "buffer": 1,
      "byteOffset": 0,
      "byteLength": 25800,
      "target": 34963,
      "extensions": {
        "EXT_meshopt_compression": {
          "buffer": 0,
          "byteOffset": 0,
          "byteLength": 4557,
          "mode": "TRIANGLES",
          "byteStride": 2,
          "count": 12900
        }
      }
    },
    {
      "buffer": 1,
      "byteOffset": 25800,
      "byteLength": 6560,
      "target": 34962,
      "byteStride": 4,
      "extensions": {
        "EXT_meshopt_compression": {
          "buffer": 0,
          "byteOffset": 4560,
          "byteLength": 1227,
          "mode": "ATTRIBUTES",
          "filter": "OCTAHEDRAL",
          "byteStride": 4,
          "count": 1640
        }
      }
    },
    {
      "buffer": 1,
      "byteOffset": 32360,
      "byteLength": 13120,
      "target": 34962,
      "byteStride": 8,
      "extensions": {
        "EXT_meshopt_compression": {
          "buffer": 0,
          "byteOffset": 5788,
          "byteLength": 9613,
          "mode": "ATTRIBUTES",
          "byteStride": 8,
          "count": 1640
        }
      }
    },
    {
      "buffer": 1,
      "byteOffset": 45480,
      "byteLength": 11872,
      "target": 34962,
      "byteStride": 4,
      "extensions": {
        "EXT_meshopt_compression": {
          "buffer": 0,
          "byteOffset": 15404,
          "byteLength": 3199,
          "mode": "ATTRIBUTES",
          "filter": "OCTAHEDRAL",
          "byteStride": 4,
          "count": 2968
        }
      }
    },
    {
      "buffer": 1,
      "byteOffset": 57352,
      "byteLength": 23744,
      "target": 34962,
      "byteStride": 8,
      "extensions": {
        "EXT_meshopt_compression": {
          "buffer": 0,
          "byteOffset": 18604,
          "byteLength": 16725,
          "mode": "ATTRIBUTES",
          "byteStride": 8,
          "count": 2968
        }
      }
    },
    {
      "buffer": 1,
      "byteOffset": 81096,
      "byteLength": 23744,
      "target": 34962,
      "byteStride": 8,
      "extensions": {
        "EXT_meshopt_compression": {
          "buffer": 0,
          "byteOffset": 35332,
          "byteLength": 10967,
          "mode": "ATTRIBUTES",
          "byteStride": 8,
          "count": 2968
        }
      }
    },
    {
      "buffer": 1,
      "byteOffset": 104840,
      "byteLength": 13120,
      "target": 34962,
      "byteStride": 8,
      "extensions": {
        "EXT_meshopt_compression": {
          "buffer": 0,
          "byteOffset": 46300,
          "byteLength": 7198,
          "mode": "ATTRIBUTES",
          "byteStride": 8,
          "count": 1640
        }
      }
    },
    {
      "buffer": 1,
      "byteOffset": 117960,
      "byteLength": 6560,
      "target": 34962,
      "byteStride": 4,
      "extensions": {
        "EXT_meshopt_compression": {
          "buffer": 0,
          "byteOffset": 53500,
          "byteLength": 137,
          "mode": "ATTRIBUTES",
          "byteStride": 4,
          "count": 1640
        }
      }
    },
    {
      "buffer": 1,
      "byteOffset": 124520,
      "byteLength": 23744,
      "target": 34962,
      "byteStride": 8,
      "extensions": {
        "EXT_meshopt_compression": {
          "buffer": 0,
          "byteOffset": 53640,
          "byteLength": 15021,
          "mode": "ATTRIBUTES",
          "byteStride": 8,
          "count": 2968
        }
      }
    }
  ],
  "samplers": [
    {
      "magFilter": 9729,
      "minFilter": 9987,
      "wrapS": 10497,
      "wrapT": 10497
    }
  ],
  "textures": [
    {
      "sampler": 0,
      "extensions": {
        "KHR_texture_basisu": {
          "source": 1
        }
      }
    },
    {
      "sampler": 0,
      "extensions": {
        "KHR_texture_basisu": {
          "source": 0
        }
      }
    },
    {
      "sampler": 0,
      "extensions": {
        "KHR_texture_basisu": {
          "source": 3
        }
      }
    },
    {
      "sampler": 0,
      "extensions": {
        "KHR_texture_basisu": {
          "source": 2
        }
      }
    }
  ],
  "images": [
    {
      "mimeType": "image/ktx2",
      "uri": "T_WoodTrim_Normal.ktx2"
    },
    {
      "mimeType": "image/ktx2",
      "uri": "T_WoodTrim_BaseColor.ktx2"
    },
    {
      "mimeType": "image/ktx2",
      "uri": "T_RoundTiles_Normal.ktx2"
    },
    {
      "mimeType": "image/ktx2",
      "uri": "T_RoundTiles_BaseColor.ktx2"
    }
  ],
  "buffers": [
    {
      "uri": "Roof_RoundTiles_6x10.bin",
      "byteLength": 68664
    },
    {
      "byteLength": 148264,
      "extensions": {
        "EXT_meshopt_compression": {
          "fallback": true
        }
      }
    }
  ],
  "materials": [
    {
      "name": "MI_WoodTrim",
      "doubleSided": true,
      "pbrMetallicRoughness": {
        "metallicFactor": 0,
        "baseColorTexture": {
          "index": 0
        }
      },
      "normalTexture": {
        "index": 1
      }
    },
    {
      "name": "MI_RoundTiles",
      "doubleSided": true,
      "pbrMetallicRoughness": {
        "metallicFactor": 0,
        "baseColorTexture": {
          "index": 2
        }
      },
      "normalTexture": {
        "index": 3
      }
    }
  ],
  "meshes": [
    {
      "name": "Cube.030",
      "primitives": [
        {
          "attributes": {
            "NORMAL": 1,
            "TEXCOORD_0": 2,
            "POSITION": 7,
            "TEXCOORD_1": 8
          },
          "mode": 4,
          "material": 0,
          "indices": 0
        },
        {
          "attributes": {
            "NORMAL": 4,
            "TEXCOORD_0": 5,
            "TEXCOORD_1": 6,
            "POSITION": 9
          },
          "mode": 4,
          "material": 1,
          "indices": 3
        }
      ]
    }
  ],
  "nodes": [
    {
      "name": "Roof_RoundTiles_6x10",
      "translation": [
        0,
        2.0539588928222656,
        0.028512239456176758
      ],
      "scale": [
        5.926093339920044,
        5.926093339920044,
        5.926093339920044
      ],
      "mesh": 0
    }
  ],
  "scenes": [
    {
      "name": "Scene",
      "nodes": [
        0
      ]
    }
  ],
  "scene": 0,
  "extensionsUsed": [
    "EXT_meshopt_compression",
    "KHR_mesh_quantization",
    "KHR_texture_basisu"
  ],
  "extensionsRequired": [
    "EXT_meshopt_compression",
    "KHR_mesh_quantization",
    "KHR_texture_basisu"
  ]
}