{
  "asset": {
    "generator": "glTF-Transform v4.5.0",
    "version": "2.0"
  },
  "accessors": [
    {
      "type": "SCALAR",
      "componentType": 5123,
      "count": 2934,
      "normalized": false,
      "byteOffset": 0,
      "bufferView": 0
    },
    {
      "type": "VEC3",
      "componentType": 5120,
      "count": 1072,
      "normalized": true,
      "byteOffset": 0,
      "bufferView": 1
    },
    {
      "type": "VEC3",
      "componentType": 5122,
      "count": 1072,
      "max": [
        12729,
        32767,
        4124
      ],
      "min": [
        -12729,
        -32767,
        -4124
      ],
      "normalized": true,
      "byteOffset": 0,
      "bufferView": 2
    },
    {
      "type": "VEC2",
      "componentType": 5123,
      "count": 1072,
      "normalized": true,
      "byteOffset": 0,
      "bufferView": 3
    }
  ],
  "bufferViews": [
    {
      "buffer": 1,
      "byteOffset": 0,
      "byteLength": 5868,
      "target": 34963,
      "extensions": {
        "EXT_meshopt_compression": {
          "buffer": 0,
          "byteOffset": 0,
          "byteLength": 1024,
          "mode": "TRIANGLES",
          "byteStride": 2,
          "count": 2934
        }
      }
    },
    {
      "buffer": 1,
      "byteOffset": 5868,
      "byteLength": 4288,
      "target": 34962,
      "byteStride": 4,
      "extensions": {
        "EXT_meshopt_compression": {
          "buffer": 0,
          "byteOffset": 1024,
          "byteLength": 1986,
          "mode": "ATTRIBUTES",
          "filter": "OCTAHEDRAL",
          "byteStride": 4,
          "count": 1072
        }
      }
    },
    {
      "buffer": 1,
      "byteOffset": 10156,
      "byteLength": 8576,
      "target": 34962,
      "byteStride": 8,
      "extensions": {
        "EXT_meshopt_compression": {
          "buffer": 0,
          "byteOffset": 3012,
          "byteLength": 5305,
          "mode": "ATTRIBUTES",
          "byteStride": 8,
          "count": 1072
        }
      }
    },
    {
      "buffer": 1,
      "byteOffset": 18732,
      "byteLength": 4288,
      "target": 34962,
      "byteStride": 4,
      "extensions": {
        "EXT_meshopt_compression": {
          "buffer": 0,
          "byteOffset": 8320,
          "byteLength": 3978,
          "mode": "ATTRIBUTES",
          "byteStride": 4,
          "count": 1072
        }
      }
    }
  ],
  "samplers": [
    {
      "magFilter": 9729,
      "minFilter": 9987,
      "wrapS": 10497,
      "wrapT": 10497
    }
  ],
  "textures": [
    {
      "sampler": 0,
      "extensions": {
        "KHR_texture_basisu": {
          "source": 1
        }
      }
    },
    {
      "sampler": 0,
      "extensions": {
        "KHR_texture_basisu": {
          "source": 0
        }
      }
    }
  ],
  "images": [
    {
      "mimeType": "image/ktx2",
      "uri": "Axe/AXE01_Material.005_Normal_Utility%20-%20Raw.ktx2"
    },
    {
      "mimeType": "image/ktx2",
      "uri": "Axe/AXE01_Material.005_BaseColor_Utility%20-%20sRGB%20-%20Texture.ktx2"
    }
  ],
  "buffers": [
    {
      "uri": "Axe.bin",
      "byteLength": 12300
    },
    {
      "byteLength": 23020,
      "extensions": {
        "EXT_meshopt_compression": {
          "fallback": true
        }
      }
    }
  ],
  "materials": [
    {
      "name": "Material.003",
      "doubleSided": true,
      "pbrMetallicRoughness": {
        "baseColorTexture": {
          "index": 0
        }
      },
      "normalTexture": {
        "index": 1
      }
    }
  ],
  "meshes": [
    {
      "name": "material.002",
      "primitives": [
        {
          "attributes": {
            "NORMAL": 1,
            "POSITION": 2,
            "TEXCOORD_0": 3
          },
          "mode": 4,
          "material": 0,
          "indices": 0
        }
      ]
    }
  ],
  "nodes": [
    {
      "name": "SM_axe",
      "translation": [
        -0.06903363391757011,
        0.2798236906528473,
        8.568167686462402e-8
      ],
      "scale": [
        0.36426785588264465,
        0.36426785588264465,
        0.36426785588264465
      ],
      "mesh": 0
    }
  ],
  "scenes": [
    {
      "name": "Scene",
      "nodes": [
        0
      ]
    }
  ],
  "scene": 0,
  "extensionsUsed": [
    "EXT_meshopt_compression",
    "KHR_mesh_quantization",
    "KHR_texture_basisu"
  ],
  "extensionsRequired": [
    "EXT_meshopt_compression",
    "KHR_mesh_quantization",
    "KHR_texture_basisu"
  ]
}