{
  "asset": {
    "generator": "glTF-Transform v4.5.0",
    "version": "2.0"
  },
  "accessors": [
    {
      "type": "SCALAR",
      "componentType": 5123,
      "count": 3636,
      "normalized": false,
      "byteOffset": 0,
      "bufferView": 0
    },
    {
      "type": "VEC3",
      "componentType": 5120,
      "count": 1501,
      "normalized": true,
      "byteOffset": 0,
      "bufferView": 1
    },
    {
      "type": "VEC2",
      "componentType": 5126,
      "count": 1501,
      "normalized": false,
      "byteOffset": 0,
      "bufferView": 2
    },
    {
      "type": "VEC3",
      "componentType": 5122,
      "count": 1501,
      "max": [
        6572,
        32767,
        2260
      ],
      "min": [
        -6572,
        -32767,
        -2260
      ],
      "normalized": true,
      "byteOffset": 0,
      "bufferView": 3
    }
  ],
  "bufferViews": [
    {
      "buffer": 1,
      "byteOffset": 0,
      "byteLength": 7272,
      "target": 34963,
      "extensions": {
        "EXT_meshopt_compression": {
          "buffer": 0,
          "byteOffset": 0,
          "byteLength": 1318,
          "mode": "TRIANGLES",
          "byteStride": 2,
          "count": 3636
        }
      }
    },
    {
      "buffer": 1,
      "byteOffset": 7272,
      "byteLength": 6004,
      "target": 34962,
      "byteStride": 4,
      "extensions": {
        "EXT_meshopt_compression": {
          "buffer": 0,
          "byteOffset": 1320,
          "byteLength": 3003,
          "mode": "ATTRIBUTES",
          "filter": "OCTAHEDRAL",
          "byteStride": 4,
          "count": 1501
        }
      }
    },
    {
      "buffer": 1,
      "byteOffset": 13276,
      "byteLength": 12008,
      "target": 34962,
      "byteStride": 8,
      "extensions": {
        "EXT_meshopt_compression": {
          "buffer": 0,
          "byteOffset": 4324,
          "byteLength": 8945,
          "mode": "ATTRIBUTES",
          "byteStride": 8,
          "count": 1501
        }
      }
    },
    {
      "buffer": 1,
      "byteOffset": 25284,
      "byteLength": 12008,
      "target": 34962,
      "byteStride": 8,
      "extensions": {
        "EXT_meshopt_compression": {
          "buffer": 0,
          "byteOffset": 13272,
          "byteLength": 7070,
          "mode": "ATTRIBUTES",
          "byteStride": 8,
          "count": 1501
        }
      }
    }
  ],
  "samplers": [
    {
      "magFilter": 9729,
      "minFilter": 9987,
      "wrapS": 10497,
      "wrapT": 10497
    }
  ],
  "textures": [
    {
      "sampler": 0,
      "extensions": {
        "KHR_texture_basisu": {
          "source": 1
        }
      }
    },
    {
      "sampler": 0,
      "extensions": {
        "KHR_texture_basisu": {
          "source": 0
        }
      }
    }
  ],
  "images": [
    {
      "mimeType": "image/ktx2",
      "uri": "Dagger/DAGGER01_Material.009_Normal_Utility%20-%20Raw.ktx2"
    },
    {
      "mimeType": "image/ktx2",
      "uri": "Dagger/DAGGER01_Material.009_BaseColor_Utility%20-%20sRGB%20-%20Texture.ktx2"
    }
  ],
  "buffers": [
    {
      "uri": "Dagger.bin",
      "byteLength": 20344
    },
    {
      "byteLength": 37292,
      "extensions": {
        "EXT_meshopt_compression": {
          "fallback": true
        }
      }
    }
  ],
  "materials": [
    {
      "name": "Material.002",
      "doubleSided": true,
      "pbrMetallicRoughness": {
        "baseColorTexture": {
          "index": 0
        }
      },
      "normalTexture": {
        "index": 1
      }
    }
  ],
  "meshes": [
    {
      "name": "material",
      "primitives": [
        {
          "attributes": {
            "NORMAL": 1,
            "TEXCOORD_0": 2,
            "POSITION": 3
          },
          "mode": 4,
          "material": 0,
          "indices": 0
        }
      ]
    }
  ],
  "nodes": [
    {
      "name": "SM_Dagger",
      "translation": [
        -0.0006912313401699066,
        0.20033987239003181,
        0.000032825395464897156
      ],
      "scale": [
        0.2902246229350567,
        0.2902246229350567,
        0.2902246229350567
      ],
      "mesh": 0
    }
  ],
  "scenes": [
    {
      "name": "Scene",
      "nodes": [
        0
      ]
    }
  ],
  "scene": 0,
  "extensionsUsed": [
    "EXT_meshopt_compression",
    "KHR_mesh_quantization",
    "KHR_texture_basisu"
  ],
  "extensionsRequired": [
    "EXT_meshopt_compression",
    "KHR_mesh_quantization",
    "KHR_texture_basisu"
  ]
}