{
  "asset": {
    "generator": "glTF-Transform v4.5.0",
    "version": "2.0"
  },
  "accessors": [
    {
      "type": "SCALAR",
      "componentType": 5123,
      "count": 10836,
      "normalized": false,
      "byteOffset": 0,
      "bufferView": 0
    },
    {
      "type": "VEC3",
      "componentType": 5120,
      "count": 4182,
      "normalized": true,
      "byteOffset": 0,
      "bufferView": 1
    },
    {
      "type": "VEC2",
      "componentType": 5126,
      "count": 4182,
      "normalized": false,
      "byteOffset": 0,
      "bufferView": 2
    },
    {
      "type": "VEC3",
      "componentType": 5122,
      "count": 4182,
      "max": [
        7344,
        32767,
        2536
      ],
      "min": [
        -7344,
        -32767,
        -2536
      ],
      "normalized": true,
      "byteOffset": 0,
      "bufferView": 3
    }
  ],
  "bufferViews": [
    {
      "buffer": 1,
      "byteOffset": 0,
      "byteLength": 21672,
      "target": 34963,
      "extensions": {
        "EXT_meshopt_compression": {
          "buffer": 0,
          "byteOffset": 0,
          "byteLength": 3728,
          "mode": "TRIANGLES",
          "byteStride": 2,
          "count": 10836
        }
      }
    },
    {
      "buffer": 1,
      "byteOffset": 21672,
      "byteLength": 16728,
      "target": 34962,
      "byteStride": 4,
      "extensions": {
        "EXT_meshopt_compression": {
          "buffer": 0,
          "byteOffset": 3728,
          "byteLength": 7015,
          "mode": "ATTRIBUTES",
          "filter": "OCTAHEDRAL",
          "byteStride": 4,
          "count": 4182
        }
      }
    },
    {
      "buffer": 1,
      "byteOffset": 38400,
      "byteLength": 33456,
      "target": 34962,
      "byteStride": 8,
      "extensions": {
        "EXT_meshopt_compression": {
          "buffer": 0,
          "byteOffset": 10744,
          "byteLength": 25532,
          "mode": "ATTRIBUTES",
          "byteStride": 8,
          "count": 4182
        }
      }
    },
    {
      "buffer": 1,
      "byteOffset": 71856,
      "byteLength": 33456,
      "target": 34962,
      "byteStride": 8,
      "extensions": {
        "EXT_meshopt_compression": {
          "buffer": 0,
          "byteOffset": 36276,
          "byteLength": 19449,
          "mode": "ATTRIBUTES",
          "byteStride": 8,
          "count": 4182
        }
      }
    }
  ],
  "samplers": [
    {
      "magFilter": 9729,
      "minFilter": 9987,
      "wrapS": 10497,
      "wrapT": 10497
    }
  ],
  "textures": [
    {
      "sampler": 0,
      "extensions": {
        "KHR_texture_basisu": {
          "source": 1
        }
      }
    },
    {
      "sampler": 0,
      "extensions": {
        "KHR_texture_basisu": {
          "source": 0
        }
      }
    }
  ],
  "images": [
    {
      "mimeType": "image/ktx2",
      "uri": "Greatsword/GreatSword01B_Material.007_Normal_Utility%20-%20Raw.ktx2"
    },
    {
      "mimeType": "image/ktx2",
      "uri": "Greatsword/GreatSword01B_Material.007_BaseColor_Utility%20-%20sRGB%20-%20Texture.ktx2"
    }
  ],
  "buffers": [
    {
      "uri": "Greatsword.bin",
      "byteLength": 55728
    },
    {
      "byteLength": 105312,
      "extensions": {
        "EXT_meshopt_compression": {
          "fallback": true
        }
      }
    }
  ],
  "materials": [
    {
      "name": "Material.001",
      "doubleSided": true,
      "pbrMetallicRoughness": {
        "baseColorTexture": {
          "index": 0
        }
      },
      "normalTexture": {
        "index": 1
      }
    }
  ],
  "meshes": [
    {
      "name": "material.008",
      "primitives": [
        {
          "attributes": {
            "NORMAL": 1,
            "TEXCOORD_0": 2,
            "POSITION": 3
          },
          "mode": 4,
          "material": 0,
          "indices": 0
        }
      ]
    }
  ],
  "nodes": [
    {
      "name": "SM_Greatsword",
      "translation": [
        0,
        0.60698152333498,
        0
      ],
      "scale": [
        0.7693991586565971,
        0.7693991586565971,
        0.7693991586565971
      ],
      "mesh": 0
    }
  ],
  "scenes": [
    {
      "name": "Scene",
      "nodes": [
        0
      ]
    }
  ],
  "scene": 0,
  "extensionsUsed": [
    "EXT_meshopt_compression",
    "KHR_mesh_quantization",
    "KHR_texture_basisu"
  ],
  "extensionsRequired": [
    "EXT_meshopt_compression",
    "KHR_mesh_quantization",
    "KHR_texture_basisu"
  ]
}