{
  "asset": {
    "generator": "glTF-Transform v4.5.0",
    "version": "2.0"
  },
  "accessors": [
    {
      "type": "SCALAR",
      "componentType": 5123,
      "count": 15192,
      "normalized": false,
      "byteOffset": 0,
      "bufferView": 0
    },
    {
      "type": "VEC3",
      "componentType": 5120,
      "count": 5557,
      "normalized": true,
      "byteOffset": 0,
      "bufferView": 1
    },
    {
      "type": "VEC2",
      "componentType": 5126,
      "count": 5557,
      "normalized": false,
      "byteOffset": 0,
      "bufferView": 2
    },
    {
      "type": "VEC3",
      "componentType": 5122,
      "count": 5557,
      "max": [
        6340,
        32767,
        2772
      ],
      "min": [
        -6340,
        -32767,
        -2772
      ],
      "normalized": true,
      "byteOffset": 0,
      "bufferView": 3
    }
  ],
  "bufferViews": [
    {
      "buffer": 1,
      "byteOffset": 0,
      "byteLength": 30384,
      "target": 34963,
      "extensions": {
        "EXT_meshopt_compression": {
          "buffer": 0,
          "byteOffset": 0,
          "byteLength": 5364,
          "mode": "TRIANGLES",
          "byteStride": 2,
          "count": 15192
        }
      }
    },
    {
      "buffer": 1,
      "byteOffset": 30384,
      "byteLength": 22228,
      "target": 34962,
      "byteStride": 4,
      "extensions": {
        "EXT_meshopt_compression": {
          "buffer": 0,
          "byteOffset": 5364,
          "byteLength": 10128,
          "mode": "ATTRIBUTES",
          "filter": "OCTAHEDRAL",
          "byteStride": 4,
          "count": 5557
        }
      }
    },
    {
      "buffer": 1,
      "byteOffset": 52612,
      "byteLength": 44456,
      "target": 34962,
      "byteStride": 8,
      "extensions": {
        "EXT_meshopt_compression": {
          "buffer": 0,
          "byteOffset": 15492,
          "byteLength": 31857,
          "mode": "ATTRIBUTES",
          "byteStride": 8,
          "count": 5557
        }
      }
    },
    {
      "buffer": 1,
      "byteOffset": 97068,
      "byteLength": 44456,
      "target": 34962,
      "byteStride": 8,
      "extensions": {
        "EXT_meshopt_compression": {
          "buffer": 0,
          "byteOffset": 47352,
          "byteLength": 24983,
          "mode": "ATTRIBUTES",
          "byteStride": 8,
          "count": 5557
        }
      }
    }
  ],
  "samplers": [
    {
      "magFilter": 9729,
      "minFilter": 9987,
      "wrapS": 10497,
      "wrapT": 10497
    }
  ],
  "textures": [
    {
      "sampler": 0,
      "extensions": {
        "KHR_texture_basisu": {
          "source": 1
        }
      }
    },
    {
      "sampler": 0,
      "extensions": {
        "KHR_texture_basisu": {
          "source": 0
        }
      }
    }
  ],
  "images": [
    {
      "mimeType": "image/ktx2",
      "uri": "Longsword/SWOR01_DefaultMaterial_Normal_Utility%20-%20Raw.ktx2"
    },
    {
      "mimeType": "image/ktx2",
      "uri": "Longsword/SWOR01_DefaultMaterial_BaseColor_Utility%20-%20sRGB%20-%20Texture.ktx2"
    }
  ],
  "buffers": [
    {
      "uri": "Longsword.bin",
      "byteLength": 72336
    },
    {
      "byteLength": 141524,
      "extensions": {
        "EXT_meshopt_compression": {
          "fallback": true
        }
      }
    }
  ],
  "materials": [
    {
      "name": "Material.014",
      "doubleSided": true,
      "pbrMetallicRoughness": {
        "baseColorTexture": {
          "index": 0
        }
      },
      "normalTexture": {
        "index": 1
      }
    }
  ],
  "meshes": [
    {
      "name": "material.003",
      "primitives": [
        {
          "attributes": {
            "NORMAL": 1,
            "TEXCOORD_0": 2,
            "POSITION": 3
          },
          "mode": 4,
          "material": 0,
          "indices": 0
        }
      ]
    }
  ],
  "nodes": [
    {
      "name": "SM_Sword",
      "translation": [
        0,
        0.342208880931139,
        -4.284083843231201e-8
      ],
      "scale": [
        0.45458559319376945,
        0.45458559319376945,
        0.45458559319376945
      ],
      "mesh": 0
    }
  ],
  "scenes": [
    {
      "name": "Scene",
      "nodes": [
        0
      ]
    }
  ],
  "scene": 0,
  "extensionsUsed": [
    "EXT_meshopt_compression",
    "KHR_mesh_quantization",
    "KHR_texture_basisu"
  ],
  "extensionsRequired": [
    "EXT_meshopt_compression",
    "KHR_mesh_quantization",
    "KHR_texture_basisu"
  ]
}