{
	"asset":{
		"generator":"Khronos glTF Blender I/O v5.2.40",
		"version":"2.0"
	},
	"scene":0,
	"scenes":[
		{
			"name":"Scene",
			"nodes":[
				0
			]
		}
	],
	"nodes":[
		{
			"mesh":0,
			"name":"SM_axe"
		}
	],
	"materials":[
		{
			"doubleSided":true,
			"name":"Material.003",
			"normalTexture":{
				"index":0
			},
			"pbrMetallicRoughness":{
				"baseColorTexture":{
					"index":1
				},
				"metallicRoughnessTexture":{
					"index":2
				}
			}
		}
	],
	"meshes":[
		{
			"name":"material.002",
			"primitives":[
				{
					"attributes":{
						"POSITION":0,
						"NORMAL":1,
						"TEXCOORD_0":2
					},
					"indices":3,
					"material":0
				}
			]
		}
	],
	"textures":[
		{
			"sampler":0,
			"source":0
		},
		{
			"sampler":0,
			"source":1
		},
		{
			"sampler":0,
			"source":2
		}
	],
	"images":[
		{
			"mimeType":"image/png",
			"name":"AXE01_Material.005_Normal_Utility - Raw",
			"uri":"Axe/AXE01_Material.005_Normal_Utility%20-%20Raw.png"
		},
		{
			"mimeType":"image/png",
			"name":"AXE01_Material.005_BaseColor_Utility - sRGB - Texture",
			"uri":"Axe/AXE01_Material.005_BaseColor_Utility%20-%20sRGB%20-%20Texture.png"
		},
		{
			"mimeType":"image/png",
			"name":"AXE01_Material.005_OcclusionRoughnessMetallic_Utility - Raw",
			"uri":"Axe/AXE01_Material.005_OcclusionRoughnessMetallic_Utility%20-%20Raw.png"
		}
	],
	"accessors":[
		{
			"bufferView":0,
			"componentType":5126,
			"count":1072,
			"max":[
				0.07248864322900772,
				0.6440915465354919,
				0.045867230743169785
			],
			"min":[
				-0.21055591106414795,
				-0.08444416522979736,
				-0.045867059379816055
			],
			"type":"VEC3"
		},
		{
			"bufferView":1,
			"componentType":5126,
			"count":1072,
			"type":"VEC3"
		},
		{
			"bufferView":2,
			"componentType":5126,
			"count":1072,
			"type":"VEC2"
		},
		{
			"bufferView":3,
			"componentType":5123,
			"count":2934,
			"type":"SCALAR"
		}
	],
	"bufferViews":[
		{
			"buffer":0,
			"byteLength":12864,
			"byteOffset":0,
			"target":34962
		},
		{
			"buffer":0,
			"byteLength":12864,
			"byteOffset":12864,
			"target":34962
		},
		{
			"buffer":0,
			"byteLength":8576,
			"byteOffset":25728,
			"target":34962
		},
		{
			"buffer":0,
			"byteLength":5868,
			"byteOffset":34304,
			"target":34963
		}
	],
	"samplers":[
		{
			"magFilter":9729,
			"minFilter":9987
		}
	],
	"buffers":[
		{
			"byteLength":40172,
			"uri":"Axe.bin"
		}
	]
}
