{
	"asset":{
		"generator":"Khronos glTF Blender I/O v5.2.40",
		"version":"2.0"
	},
	"scene":0,
	"scenes":[
		{
			"name":"Scene",
			"nodes":[
				0
			]
		}
	],
	"nodes":[
		{
			"mesh":0,
			"name":"SM_Dagger"
		}
	],
	"materials":[
		{
			"doubleSided":true,
			"name":"Material.002",
			"normalTexture":{
				"index":0
			},
			"pbrMetallicRoughness":{
				"baseColorTexture":{
					"index":1
				},
				"metallicRoughnessTexture":{
					"index":2
				}
			}
		}
	],
	"meshes":[
		{
			"name":"material",
			"primitives":[
				{
					"attributes":{
						"POSITION":0,
						"NORMAL":1,
						"TEXCOORD_0":2
					},
					"indices":3,
					"material":0
				}
			]
		}
	],
	"textures":[
		{
			"sampler":0,
			"source":0
		},
		{
			"sampler":0,
			"source":1
		},
		{
			"sampler":0,
			"source":2
		}
	],
	"images":[
		{
			"mimeType":"image/png",
			"name":"DAGGER01_Material.009_Normal_Utility - Raw",
			"uri":"Dagger/DAGGER01_Material.009_Normal_Utility%20-%20Raw.png"
		},
		{
			"mimeType":"image/png",
			"name":"DAGGER01_Material.009_BaseColor_Utility - sRGB - Texture",
			"uri":"Dagger/DAGGER01_Material.009_BaseColor_Utility%20-%20sRGB%20-%20Texture.png"
		},
		{
			"mimeType":"image/png",
			"name":"DAGGER01_Material.009_OcclusionRoughnessMetallic_Utility - Raw",
			"uri":"Dagger/DAGGER01_Material.009_OcclusionRoughnessMetallic_Utility%20-%20Raw.png"
		}
	],
	"accessors":[
		{
			"bufferView":0,
			"componentType":5126,
			"count":1501,
			"max":[
				0.057532940059900284,
				0.4905644953250885,
				0.020037950947880745
			],
			"min":[
				-0.0589154027402401,
				-0.08988475054502487,
				-0.01997230015695095
			],
			"type":"VEC3"
		},
		{
			"bufferView":1,
			"componentType":5126,
			"count":1501,
			"type":"VEC3"
		},
		{
			"bufferView":2,
			"componentType":5126,
			"count":1501,
			"type":"VEC2"
		},
		{
			"bufferView":3,
			"componentType":5123,
			"count":3636,
			"type":"SCALAR"
		}
	],
	"bufferViews":[
		{
			"buffer":0,
			"byteLength":18012,
			"byteOffset":0,
			"target":34962
		},
		{
			"buffer":0,
			"byteLength":18012,
			"byteOffset":18012,
			"target":34962
		},
		{
			"buffer":0,
			"byteLength":12008,
			"byteOffset":36024,
			"target":34962
		},
		{
			"buffer":0,
			"byteLength":7272,
			"byteOffset":48032,
			"target":34963
		}
	],
	"samplers":[
		{
			"magFilter":9729,
			"minFilter":9987
		}
	],
	"buffers":[
		{
			"byteLength":55304,
			"uri":"Dagger.bin"
		}
	]
}
