{
	"asset":{
		"generator":"Khronos glTF Blender I/O v5.2.40",
		"version":"2.0"
	},
	"scene":0,
	"scenes":[
		{
			"name":"Scene",
			"nodes":[
				0
			]
		}
	],
	"nodes":[
		{
			"mesh":0,
			"name":"SM_Greatsword"
		}
	],
	"materials":[
		{
			"doubleSided":true,
			"name":"Material.001",
			"normalTexture":{
				"index":0
			},
			"pbrMetallicRoughness":{
				"baseColorTexture":{
					"index":1
				},
				"metallicRoughnessTexture":{
					"index":2
				}
			}
		}
	],
	"meshes":[
		{
			"name":"material.008",
			"primitives":[
				{
					"attributes":{
						"POSITION":0,
						"NORMAL":1,
						"TEXCOORD_0":2
					},
					"indices":3,
					"material":0
				}
			]
		}
	],
	"textures":[
		{
			"sampler":0,
			"source":0
		},
		{
			"sampler":0,
			"source":1
		},
		{
			"sampler":0,
			"source":2
		}
	],
	"images":[
		{
			"mimeType":"image/png",
			"name":"GreatSword01B_Material.007_Normal_Utility - Raw",
			"uri":"Greatsword/GreatSword01B_Material.007_Normal_Utility%20-%20Raw.png"
		},
		{
			"mimeType":"image/png",
			"name":"GreatSword01B_Material.007_BaseColor_Utility - sRGB - Texture",
			"uri":"Greatsword/GreatSword01B_Material.007_BaseColor_Utility%20-%20sRGB%20-%20Texture.png"
		},
		{
			"mimeType":"image/png",
			"name":"GreatSword01B_Material.007_OcclusionRoughnessMetallic_Utility - Raw",
			"uri":"Greatsword/GreatSword01B_Material.007_OcclusionRoughnessMetallic_Utility%20-%20Raw.png"
		}
	],
	"accessors":[
		{
			"bufferView":0,
			"componentType":5126,
			"count":4182,
			"max":[
				0.17250198125839233,
				1.3763806819915771,
				0.05955653265118599
			],
			"min":[
				-0.17250198125839233,
				-0.16241763532161713,
				-0.05955653265118599
			],
			"type":"VEC3"
		},
		{
			"bufferView":1,
			"componentType":5126,
			"count":4182,
			"type":"VEC3"
		},
		{
			"bufferView":2,
			"componentType":5126,
			"count":4182,
			"type":"VEC2"
		},
		{
			"bufferView":3,
			"componentType":5123,
			"count":10836,
			"type":"SCALAR"
		}
	],
	"bufferViews":[
		{
			"buffer":0,
			"byteLength":50184,
			"byteOffset":0,
			"target":34962
		},
		{
			"buffer":0,
			"byteLength":50184,
			"byteOffset":50184,
			"target":34962
		},
		{
			"buffer":0,
			"byteLength":33456,
			"byteOffset":100368,
			"target":34962
		},
		{
			"buffer":0,
			"byteLength":21672,
			"byteOffset":133824,
			"target":34963
		}
	],
	"samplers":[
		{
			"magFilter":9729,
			"minFilter":9987
		}
	],
	"buffers":[
		{
			"byteLength":155496,
			"uri":"Greatsword.bin"
		}
	]
}
