{
	"asset":{
		"generator":"Khronos glTF Blender I/O v5.2.40",
		"version":"2.0"
	},
	"scene":0,
	"scenes":[
		{
			"name":"Scene",
			"nodes":[
				0
			]
		}
	],
	"nodes":[
		{
			"mesh":0,
			"name":"SM_Sword"
		}
	],
	"materials":[
		{
			"doubleSided":true,
			"name":"Material.014",
			"normalTexture":{
				"index":0
			},
			"pbrMetallicRoughness":{
				"baseColorTexture":{
					"index":1
				},
				"metallicRoughnessTexture":{
					"index":2
				}
			}
		}
	],
	"meshes":[
		{
			"name":"material.003",
			"primitives":[
				{
					"attributes":{
						"POSITION":0,
						"NORMAL":1,
						"TEXCOORD_0":2
					},
					"indices":3,
					"material":0
				}
			]
		}
	],
	"textures":[
		{
			"sampler":0,
			"source":0
		},
		{
			"sampler":0,
			"source":1
		},
		{
			"sampler":0,
			"source":2
		}
	],
	"images":[
		{
			"mimeType":"image/png",
			"name":"SWOR01_DefaultMaterial_Normal_Utility - Raw",
			"uri":"Longsword/SWOR01_DefaultMaterial_Normal_Utility%20-%20Raw.png"
		},
		{
			"mimeType":"image/png",
			"name":"SWOR01_DefaultMaterial_BaseColor_Utility - sRGB - Texture",
			"uri":"Longsword/SWOR01_DefaultMaterial_BaseColor_Utility%20-%20sRGB%20-%20Texture.png"
		},
		{
			"mimeType":"image/png",
			"name":"SWOR01_DefaultMaterial_OcclusionRoughnessMetallic_Utility - Raw",
			"uri":"Longsword/SWOR01_DefaultMaterial_OcclusionRoughnessMetallic_Utility%20-%20Raw.png"
		}
	],
	"accessors":[
		{
			"bufferView":0,
			"componentType":5126,
			"count":5557,
			"max":[
				0.0879850760102272,
				0.7967944741249084,
				0.03847547620534897
			],
			"min":[
				-0.0879850760102272,
				-0.11237671226263046,
				-0.03847556188702583
			],
			"type":"VEC3"
		},
		{
			"bufferView":1,
			"componentType":5126,
			"count":5557,
			"type":"VEC3"
		},
		{
			"bufferView":2,
			"componentType":5126,
			"count":5557,
			"type":"VEC2"
		},
		{
			"bufferView":3,
			"componentType":5123,
			"count":15192,
			"type":"SCALAR"
		}
	],
	"bufferViews":[
		{
			"buffer":0,
			"byteLength":66684,
			"byteOffset":0,
			"target":34962
		},
		{
			"buffer":0,
			"byteLength":66684,
			"byteOffset":66684,
			"target":34962
		},
		{
			"buffer":0,
			"byteLength":44456,
			"byteOffset":133368,
			"target":34962
		},
		{
			"buffer":0,
			"byteLength":30384,
			"byteOffset":177824,
			"target":34963
		}
	],
	"samplers":[
		{
			"magFilter":9729,
			"minFilter":9987
		}
	],
	"buffers":[
		{
			"byteLength":208208,
			"uri":"Longsword.bin"
		}
	]
}
